<svg width="20" height="21" viewBox="0 0 20 21" fill="none" xmlns="http://www.w3.org/2000/svg">
<g clip-path="url(#clip0_383_6514)">
<path d="M6.875 18.0001L8.75 16.1251V14.2501L10.625 12.3751L14.375 18.0001L16.25 16.1251L13.75 9.25008L16.3281 6.8282C16.6804 6.47596 16.8783 5.99822 16.8783 5.50008C16.8783 5.00193 16.6804 4.52419 16.3281 4.17195C15.9759 3.81971 15.4981 3.62183 15 3.62183C14.5019 3.62183 14.0241 3.81971 13.6719 4.17195L11.25 6.75008L4.375 4.25008L2.5 6.12508L8.125 9.87508L6.25 11.7501H4.375L2.5 13.6251L5.625 14.8751L6.875 18.0001Z" stroke="#0A121D" stroke-linecap="round" stroke-linejoin="round"/>
</g>
<defs>
<clipPath id="clip0_383_6514">
<rect width="20" height="20" fill="white" transform="translate(0 0.5)"/>
</clipPath>
</defs>
</svg>
