<svg width="32" height="32" viewBox="0 0 32 32" fill="none" xmlns="http://www.w3.org/2000/svg">
<path d="M31 21V25C31 25.2652 30.8947 25.5196 30.7071 25.7071C30.5196 25.8946 30.2652 26 30 26C29.7348 26 29.4804 25.8946 29.2929 25.7071C29.1054 25.5196 29 25.2652 29 25V23.4137L28.7238 23.6912C28.3363 24.1125 23.68 29 16 29C8.14501 29 3.45251 23.8863 3.25626 23.6688C3.07889 23.4707 2.98748 23.2102 3.00213 22.9448C3.01679 22.6793 3.1363 22.4305 3.33438 22.2531C3.53247 22.0758 3.79289 21.9844 4.05838 21.999C4.32386 22.0137 4.57264 22.1332 4.75001 22.3312C4.78376 22.375 9.06251 27 16 27C22.9375 27 27.2163 22.375 27.2588 22.33C27.2693 22.3169 27.2806 22.3044 27.2925 22.2925L27.5863 22H26C25.7348 22 25.4804 21.8946 25.2929 21.7071C25.1054 21.5196 25 21.2652 25 21C25 20.7348 25.1054 20.4804 25.2929 20.2929C25.4804 20.1054 25.7348 20 26 20H30C30.2652 20 30.5196 20.1054 30.7071 20.2929C30.8947 20.4804 31 20.7348 31 21ZM20 11.8163V10.5C20.0007 9.48887 19.6608 8.50698 19.0352 7.71265C18.4095 6.91832 17.5346 6.35785 16.5515 6.12159C15.5683 5.88534 14.5343 5.98708 13.616 6.4104C12.6978 6.83373 11.9488 7.55397 11.49 8.455C11.3693 8.69121 11.1598 8.86981 10.9074 8.9515C10.6551 9.0332 10.3806 9.0113 10.1444 8.89063C9.90817 8.76995 9.72958 8.56039 9.64788 8.30803C9.56619 8.05568 9.58808 7.78121 9.70876 7.545C10.3718 6.24396 11.4537 5.20409 12.78 4.59301C14.1062 3.98193 15.5996 3.83525 17.0194 4.17659C18.4392 4.51793 19.7027 5.32742 20.6063 6.47458C21.5098 7.62174 22.0008 9.03973 22 10.5V22C22 22.2652 21.8947 22.5196 21.7071 22.7071C21.5196 22.8946 21.2652 23 21 23C20.7348 23 20.4804 22.8946 20.2929 22.7071C20.1054 22.5196 20 22.2652 20 22V21.1838C19.0813 22.0678 17.9229 22.6621 16.6691 22.8927C15.4152 23.1234 14.1211 22.9802 12.948 22.481C11.7748 21.9818 10.7744 21.1486 10.0712 20.0852C9.36801 19.0217 8.99307 17.7749 8.99307 16.5C8.99307 15.2251 9.36801 13.9783 10.0712 12.9148C10.7744 11.8514 11.7748 11.0182 12.948 10.519C14.1211 10.0198 15.4152 9.8766 16.6691 10.1073C17.9229 10.3379 19.0813 10.9322 20 11.8163ZM20 16.5C20 15.61 19.7361 14.74 19.2416 13.9999C18.7472 13.2599 18.0443 12.6831 17.2221 12.3425C16.3998 12.0019 15.495 11.9128 14.6221 12.0865C13.7492 12.2601 12.9474 12.6887 12.318 13.318C11.6887 13.9474 11.2601 14.7492 11.0865 15.6221C10.9128 16.495 11.002 17.3998 11.3425 18.2221C11.6831 19.0443 12.2599 19.7471 12.9999 20.2416C13.74 20.7361 14.61 21 15.5 21C16.091 21 16.6761 20.8836 17.2221 20.6575C17.768 20.4313 18.2641 20.0998 18.682 19.682C19.0999 19.2641 19.4313 18.768 19.6575 18.2221C19.8836 17.6761 20 17.0909 20 16.5Z" fill="#343330"/>
</svg>
