<svg width="32" height="32" viewBox="0 0 32 32" fill="none" xmlns="http://www.w3.org/2000/svg">
<path d="M14.7074 21.2925C14.8004 21.3854 14.8742 21.4957 14.9245 21.6171C14.9748 21.7385 15.0007 21.8686 15.0007 22C15.0007 22.1314 14.9748 22.2615 14.9245 22.3829C14.8742 22.5043 14.8004 22.6146 14.7074 22.7075L10.7074 26.7075C10.6146 26.8005 10.5043 26.8742 10.3829 26.9246C10.2615 26.9749 10.1314 27.0008 9.99995 27.0008C9.86853 27.0008 9.7384 26.9749 9.61701 26.9246C9.49561 26.8742 9.38532 26.8005 9.29245 26.7075L5.29245 22.7075C5.19954 22.6146 5.12584 22.5043 5.07555 22.3829C5.02527 22.2615 4.99939 22.1314 4.99939 22C4.99939 21.8686 5.02527 21.7385 5.07555 21.6171C5.12584 21.4957 5.19954 21.3854 5.29245 21.2925C5.48009 21.1049 5.73458 20.9994 5.99995 20.9994C6.13134 20.9994 6.26145 21.0253 6.38284 21.0756C6.50424 21.1259 6.61454 21.1996 6.70745 21.2925L8.99995 23.5862V5.99999C8.99995 5.73478 9.1053 5.48042 9.29284 5.29289C9.48038 5.10535 9.73473 4.99999 9.99995 4.99999C10.2652 4.99999 10.5195 5.10535 10.7071 5.29289C10.8946 5.48042 10.9999 5.73478 10.9999 5.99999V23.5862L13.2924 21.2925C13.3853 21.1995 13.4956 21.1258 13.617 21.0754C13.7384 21.0251 13.8685 20.9992 13.9999 20.9992C14.1314 20.9992 14.2615 21.0251 14.3829 21.0754C14.5043 21.1258 14.6146 21.1995 14.7074 21.2925ZM26.7074 9.29249L22.7074 5.29249C22.6146 5.19952 22.5043 5.12576 22.3829 5.07543C22.2615 5.02511 22.1314 4.99921 21.9999 4.99921C21.8685 4.99921 21.7384 5.02511 21.617 5.07543C21.4956 5.12576 21.3853 5.19952 21.2924 5.29249L17.2924 9.29249C17.1048 9.48013 16.9994 9.73463 16.9994 9.99999C16.9994 10.2654 17.1048 10.5199 17.2924 10.7075C17.4801 10.8951 17.7346 11.0005 17.9999 11.0005C18.2653 11.0005 18.5198 10.8951 18.7074 10.7075L20.9999 8.41374V26C20.9999 26.2652 21.1053 26.5196 21.2928 26.7071C21.4804 26.8946 21.7347 27 21.9999 27C22.2652 27 22.5195 26.8946 22.7071 26.7071C22.8946 26.5196 22.9999 26.2652 22.9999 26V8.41374L25.2924 10.7075C25.4801 10.8951 25.7346 11.0005 25.9999 11.0005C26.2653 11.0005 26.5198 10.8951 26.7074 10.7075C26.8951 10.5199 27.0005 10.2654 27.0005 9.99999C27.0005 9.73463 26.8951 9.48013 26.7074 9.29249Z" fill="#343330"/>
</svg>
