<svg width="32" height="32" viewBox="0 0 32 32" fill="none" xmlns="http://www.w3.org/2000/svg">
<path d="M30 6.99997V13C30 13.2652 29.8947 13.5195 29.7072 13.7071C29.5196 13.8946 29.2653 14 29 14H23C22.7348 14 22.4805 13.8946 22.2929 13.7071C22.1054 13.5195 22 13.2652 22 13C22 12.7348 22.1054 12.4804 22.2929 12.2929C22.4805 12.1053 22.7348 12 23 12H26.425L23.1013 8.95497L23.07 8.92497C21.6801 7.53559 19.9116 6.58654 17.9855 6.19641C16.0593 5.80627 14.0609 5.99233 12.2399 6.73135C10.4189 7.47037 8.856 8.72958 7.74647 10.3517C6.63694 11.9738 6.02997 13.8868 6.00138 15.8519C5.97279 17.817 6.52385 19.7469 7.58572 21.4006C8.64758 23.0543 10.1732 24.3584 11.9719 25.1501C13.7707 25.9418 15.7628 26.1859 17.6995 25.852C19.6362 25.518 21.4316 24.6208 22.8613 23.2725C23.0541 23.0901 23.3114 22.9918 23.5766 22.9992C23.8419 23.0066 24.0933 23.1191 24.2757 23.3118C24.458 23.5046 24.5563 23.7619 24.5489 24.0272C24.5415 24.2924 24.4291 24.5439 24.2363 24.7262C22.0131 26.8346 19.064 28.0069 16.0001 28H15.8351C13.8697 27.9731 11.9411 27.4638 10.2187 26.517C8.49625 25.5701 7.03278 24.2147 5.95687 22.5698C4.88097 20.9249 4.22558 19.0409 4.0483 17.0834C3.87103 15.1259 4.17729 13.1548 4.94019 11.3434C5.70308 9.532 6.89924 7.93571 8.42354 6.69484C9.94783 5.45397 11.7536 4.60652 13.6821 4.22697C15.6106 3.84741 17.6029 3.94738 19.4837 4.51808C21.3645 5.08878 23.0764 6.11275 24.4688 7.49997L28 10.725V6.99997C28 6.73476 28.1054 6.4804 28.2929 6.29287C28.4805 6.10533 28.7348 5.99997 29 5.99997C29.2653 5.99997 29.5196 6.10533 29.7072 6.29287C29.8947 6.4804 30 6.73476 30 6.99997Z" fill="#343330"/>
</svg>
