<svg width="32" height="32" viewBox="0 0 32 32" fill="none" xmlns="http://www.w3.org/2000/svg">
<path d="M24.9999 10.9999V23.9999C24.9999 24.2652 24.8946 24.5195 24.7071 24.7071C24.5195 24.8946 24.2652 24.9999 23.9999 24.9999H10.9999C10.7347 24.9999 10.4804 24.8946 10.2928 24.7071C10.1053 24.5195 9.99995 24.2652 9.99995 23.9999C9.99995 23.7347 10.1053 23.4804 10.2928 23.2928C10.4804 23.1053 10.7347 22.9999 10.9999 22.9999H21.5862L7.29245 8.70745C7.1048 8.51981 6.99939 8.26531 6.99939 7.99995C6.99939 7.73458 7.1048 7.48009 7.29245 7.29245C7.48009 7.1048 7.73458 6.99939 7.99995 6.99939C8.26531 6.99939 8.51981 7.1048 8.70745 7.29245L22.9999 21.5862V10.9999C22.9999 10.7347 23.1053 10.4804 23.2928 10.2928C23.4804 10.1053 23.7347 9.99995 23.9999 9.99995C24.2652 9.99995 24.5195 10.1053 24.7071 10.2928C24.8946 10.4804 24.9999 10.7347 24.9999 10.9999Z" fill="#343330"/>
</svg>
