<svg width="32" height="32" viewBox="0 0 32 32" fill="none" xmlns="http://www.w3.org/2000/svg">
<path d="M28.9999 24.0001C28.9999 24.2653 28.8946 24.5196 28.7071 24.7072C28.5195 24.8947 28.2652 25.0001 27.9999 25.0001H9.99995C9.73473 25.0001 9.48038 24.8947 9.29284 24.7072C9.1053 24.5196 8.99995 24.2653 8.99995 24.0001V8.4138L4.70745 12.7076C4.5198 12.8952 4.26531 13.0006 3.99995 13.0006C3.73458 13.0006 3.48009 12.8952 3.29245 12.7076C3.1048 12.5199 2.99939 12.2654 2.99939 12.0001C2.99939 11.7347 3.1048 11.4802 3.29245 11.2926L9.29245 5.29255C9.38532 5.19958 9.49561 5.12582 9.61701 5.07549C9.7384 5.02517 9.86853 4.99927 9.99995 4.99927C10.1314 4.99927 10.2615 5.02517 10.3829 5.07549C10.5043 5.12582 10.6146 5.19958 10.7074 5.29255L16.7074 11.2926C16.8951 11.4802 17.0005 11.7347 17.0005 12.0001C17.0005 12.2654 16.8951 12.5199 16.7074 12.7076C16.5198 12.8952 16.2653 13.0006 15.9999 13.0006C15.7346 13.0006 15.4801 12.8952 15.2924 12.7076L10.9999 8.4138V23.0001H27.9999C28.2652 23.0001 28.5195 23.1054 28.7071 23.2929C28.8946 23.4805 28.9999 23.7348 28.9999 24.0001Z" fill="#343330"/>
</svg>
