<svg width="32" height="32" viewBox="0 0 32 32" fill="none" xmlns="http://www.w3.org/2000/svg">
<path d="M17.9999 13V8.00001C17.9999 7.73479 18.1053 7.48044 18.2928 7.2929C18.4804 7.10536 18.7347 7.00001 18.9999 7.00001C19.2652 7.00001 19.5195 7.10536 19.7071 7.2929C19.8946 7.48044 19.9999 7.73479 19.9999 8.00001V10.5863L25.2924 5.29251C25.4801 5.10487 25.7346 4.99945 25.9999 4.99945C26.2653 4.99945 26.5198 5.10487 26.7074 5.29251C26.8951 5.48015 27.0005 5.73464 27.0005 6.00001C27.0005 6.26537 26.8951 6.51987 26.7074 6.70751L21.4137 12H23.9999C24.2652 12 24.5195 12.1054 24.7071 12.2929C24.8946 12.4804 24.9999 12.7348 24.9999 13C24.9999 13.2652 24.8946 13.5196 24.7071 13.7071C24.5195 13.8946 24.2652 14 23.9999 14H18.9999C18.7347 14 18.4804 13.8946 18.2928 13.7071C18.1053 13.5196 17.9999 13.2652 17.9999 13ZM12.9999 18H7.99995C7.73473 18 7.48038 18.1054 7.29284 18.2929C7.1053 18.4804 6.99995 18.7348 6.99995 19C6.99995 19.2652 7.1053 19.5196 7.29284 19.7071C7.48038 19.8947 7.73473 20 7.99995 20H10.5862L5.29245 25.2925C5.10481 25.4801 4.99939 25.7346 4.99939 26C4.99939 26.2654 5.1048 26.5199 5.29245 26.7075C5.48009 26.8951 5.73458 27.0006 5.99995 27.0006C6.26531 27.0006 6.5198 26.8951 6.70745 26.7075L11.9999 21.4138V24C11.9999 24.2652 12.1053 24.5196 12.2928 24.7071C12.4804 24.8947 12.7347 25 12.9999 25C13.2652 25 13.5195 24.8947 13.7071 24.7071C13.8946 24.5196 13.9999 24.2652 13.9999 24V19C13.9999 18.7348 13.8946 18.4804 13.7071 18.2929C13.5195 18.1054 13.2652 18 12.9999 18ZM21.4137 20H23.9999C24.2652 20 24.5195 19.8947 24.7071 19.7071C24.8946 19.5196 24.9999 19.2652 24.9999 19C24.9999 18.7348 24.8946 18.4804 24.7071 18.2929C24.5195 18.1054 24.2652 18 23.9999 18H18.9999C18.7347 18 18.4804 18.1054 18.2928 18.2929C18.1053 18.4804 17.9999 18.7348 17.9999 19V24C17.9999 24.2652 18.1053 24.5196 18.2928 24.7071C18.4804 24.8947 18.7347 25 18.9999 25C19.2652 25 19.5195 24.8947 19.7071 24.7071C19.8946 24.5196 19.9999 24.2652 19.9999 24V21.4138L25.2924 26.7075C25.3854 26.8004 25.4957 26.8741 25.6171 26.9244C25.7384 26.9747 25.8686 27.0006 25.9999 27.0006C26.1313 27.0006 26.2614 26.9747 26.3828 26.9244C26.5042 26.8741 26.6145 26.8004 26.7074 26.7075C26.8004 26.6146 26.8741 26.5043 26.9243 26.3829C26.9746 26.2615 27.0005 26.1314 27.0005 26C27.0005 25.8686 26.9746 25.7385 26.9243 25.6171C26.8741 25.4957 26.8004 25.3854 26.7074 25.2925L21.4137 20ZM12.9999 7.00001C12.7347 7.00001 12.4804 7.10536 12.2928 7.2929C12.1053 7.48044 11.9999 7.73479 11.9999 8.00001V10.5863L6.70745 5.29251C6.5198 5.10487 6.26531 4.99945 5.99995 4.99945C5.73458 4.99945 5.48009 5.10487 5.29245 5.29251C5.1048 5.48015 4.99939 5.73464 4.99939 6.00001C4.99939 6.26537 5.1048 6.51987 5.29245 6.70751L10.5862 12H7.99995C7.73473 12 7.48038 12.1054 7.29284 12.2929C7.1053 12.4804 6.99995 12.7348 6.99995 13C6.99995 13.2652 7.1053 13.5196 7.29284 13.7071C7.48038 13.8946 7.73473 14 7.99995 14H12.9999C13.2652 14 13.5195 13.8946 13.7071 13.7071C13.8946 13.5196 13.9999 13.2652 13.9999 13V8.00001C13.9999 7.73479 13.8946 7.48044 13.7071 7.2929C13.5195 7.10536 13.2652 7.00001 12.9999 7.00001Z" fill="#343330"/>
</svg>
