<svg width="527" height="176" viewBox="0 0 527 176" fill="none" xmlns="http://www.w3.org/2000/svg">
<path d="M234.744 175L234.744 175.5L234.881 175.5L234.999 175.43L234.744 175ZM526.484 2.62405C526.553 2.35653 526.392 2.08414 526.124 2.01564L521.765 0.899324C521.497 0.830809 521.225 0.99215 521.156 1.25966C521.088 1.52717 521.249 1.79955 521.517 1.86807L525.392 2.86034L524.399 6.73531C524.331 7.00282 524.492 7.27522 524.76 7.34371C525.027 7.41221 525.3 7.25089 525.368 6.98338L526.484 2.62405ZM0.499817 175.5L234.744 175.5L234.744 174.5L0.499817 174.5L0.499817 175.5ZM234.999 175.43L526.255 2.9302L525.745 2.0698L234.489 174.57L234.999 175.43Z" fill="black"/>
</svg>
