<svg width="32" height="32" viewBox="0 0 32 32" fill="none" xmlns="http://www.w3.org/2000/svg">
<path d="M25.0001 9.99995V27.9999C25.0001 28.2652 24.8947 28.5195 24.7072 28.7071C24.5196 28.8946 24.2653 28.9999 24.0001 28.9999C23.7348 28.9999 23.4805 28.8946 23.2929 28.7071C23.1054 28.5195 23.0001 28.2652 23.0001 27.9999V10.9999H8.4138L12.7076 15.2924C12.8952 15.4801 13.0006 15.7346 13.0006 15.9999C13.0006 16.2653 12.8952 16.5198 12.7076 16.7074C12.5199 16.8951 12.2654 17.0005 12.0001 17.0005C11.7347 17.0005 11.4802 16.8951 11.2926 16.7074L5.29255 10.7074L5.28505 10.6987C5.26505 10.6787 5.24505 10.6562 5.2263 10.6337L5.19755 10.5949C5.18727 10.5821 5.17767 10.5688 5.1688 10.5549L5.14005 10.5087C5.13224 10.4966 5.12514 10.4841 5.1188 10.4712C5.11005 10.4562 5.10255 10.4399 5.09505 10.4237C5.08755 10.4074 5.08255 10.3974 5.0763 10.3824C5.07005 10.3674 5.06505 10.3512 5.0588 10.3362L5.04255 10.2912L5.0313 10.2424C5.0313 10.2262 5.02255 10.2112 5.0188 10.1962C5.01505 10.1812 5.0188 10.1574 5.0113 10.1387C5.0038 10.1199 5.0113 10.1124 5.00505 10.0987C4.9988 10.033 4.9988 9.96688 5.00505 9.9012C5.00505 9.88745 5.00505 9.87495 5.0113 9.8612C5.01755 9.84745 5.0113 9.82245 5.0188 9.8037C5.0263 9.78495 5.0263 9.7737 5.0313 9.75745L5.04255 9.7087L5.0588 9.6637C5.06505 9.6487 5.07005 9.63245 5.0763 9.61745C5.08255 9.60245 5.0888 9.58995 5.09505 9.5762C5.1013 9.56245 5.11005 9.5437 5.1188 9.5287C5.12514 9.51579 5.13224 9.50326 5.14005 9.4912L5.1688 9.44495C5.17767 9.43111 5.18727 9.41776 5.19755 9.40495L5.2263 9.3662C5.24505 9.3437 5.26505 9.3212 5.28505 9.3012L5.29255 9.29245L11.2926 3.29245C11.4802 3.1048 11.7347 2.99939 12.0001 2.99939C12.2654 2.99939 12.5199 3.1048 12.7076 3.29245C12.8952 3.48009 13.0006 3.73458 13.0006 3.99995C13.0006 4.26531 12.8952 4.5198 12.7076 4.70745L8.4138 8.99995H24.0001C24.2653 8.99995 24.5196 9.1053 24.7072 9.29284C24.8947 9.48038 25.0001 9.73473 25.0001 9.99995Z" fill="#343330"/>
</svg>
