<svg width="32" height="32" viewBox="0 0 32 32" fill="none" xmlns="http://www.w3.org/2000/svg">
<path d="M23.0712 16L26.535 12.535C27.0125 12.0737 27.3935 11.522 27.6555 10.912C27.9175 10.302 28.0555 9.64588 28.0612 8.98198C28.067 8.31809 27.9405 7.65969 27.6891 7.04521C27.4377 6.43073 27.0664 5.87247 26.597 5.403C26.1275 4.93354 25.5692 4.56227 24.9548 4.31087C24.3403 4.05947 23.6819 3.93296 23.018 3.93873C22.3541 3.9445 21.698 4.08243 21.088 4.34447C20.478 4.60652 19.9262 4.98743 19.465 5.46498L16 8.92873L12.535 5.46498C12.0738 4.98743 11.522 4.60652 10.912 4.34447C10.302 4.08243 9.6459 3.9445 8.982 3.93873C8.3181 3.93296 7.65971 4.05947 7.04522 4.31087C6.43074 4.56227 5.87248 4.93354 5.40302 5.403C4.93356 5.87247 4.56229 6.43073 4.31089 7.04521C4.05948 7.65969 3.93297 8.31809 3.93874 8.98198C3.94451 9.64588 4.08244 10.302 4.34449 10.912C4.60653 11.522 4.98744 12.0737 5.46499 12.535L8.92874 16L5.46499 19.465C4.98744 19.9262 4.60653 20.4779 4.34449 21.088C4.08244 21.698 3.94451 22.3541 3.93874 23.018C3.93297 23.6819 4.05948 24.3403 4.31089 24.9547C4.56229 25.5692 4.93356 26.1275 5.40302 26.597C5.87248 27.0664 6.43074 27.4377 7.04522 27.6891C7.65971 27.9405 8.3181 28.067 8.982 28.0612C9.6459 28.0555 10.302 27.9175 10.912 27.6555C11.522 27.3934 12.0738 27.0125 12.535 26.535L16 23.0712L19.465 26.535C19.9262 27.0125 20.478 27.3934 21.088 27.6555C21.698 27.9175 22.3541 28.0555 23.018 28.0612C23.6819 28.067 24.3403 27.9405 24.9548 27.6891C25.5692 27.4377 26.1275 27.0664 26.597 26.597C27.0664 26.1275 27.4377 25.5692 27.6891 24.9547C27.9405 24.3403 28.067 23.6819 28.0612 23.018C28.0555 22.3541 27.9175 21.698 27.6555 21.088C27.3935 20.4779 27.0125 19.9262 26.535 19.465L23.0712 16ZM20.875 6.87498C21.1541 6.59592 21.4853 6.37456 21.85 6.22353C22.2146 6.07251 22.6053 5.99478 23 5.99478C23.3946 5.99478 23.7854 6.07251 24.15 6.22353C24.5146 6.37456 24.8459 6.59592 25.125 6.87498C25.4041 7.15404 25.6254 7.48533 25.7764 7.84994C25.9275 8.21455 26.0052 8.60533 26.0052 8.99998C26.0052 9.39463 25.9275 9.78541 25.7764 10.15C25.6254 10.5146 25.4041 10.8459 25.125 11.125L21.66 14.59L17.4137 10.3437L20.875 6.87498ZM20.2387 16L16 20.2425L11.7575 16L16 11.7575L20.2387 16ZM6.87499 11.125C6.59594 10.8459 6.37457 10.5146 6.22355 10.15C6.07252 9.78541 5.99479 9.39463 5.99479 8.99998C5.99479 8.60533 6.07252 8.21455 6.22355 7.84994C6.37457 7.48533 6.59594 7.15404 6.87499 6.87498C7.15405 6.59592 7.48534 6.37456 7.84995 6.22353C8.21456 6.07251 8.60534 5.99478 8.99999 5.99478C9.39464 5.99478 9.78543 6.07251 10.15 6.22353C10.5146 6.37456 10.8459 6.59592 11.125 6.87498L14.59 10.34L10.3437 14.5862L6.87499 11.125ZM11.125 25.125C10.8459 25.404 10.5146 25.6254 10.15 25.7764C9.78543 25.9275 9.39464 26.0052 8.99999 26.0052C8.60534 26.0052 8.21456 25.9275 7.84995 25.7764C7.48534 25.6254 7.15405 25.404 6.87499 25.125C6.59594 24.8459 6.37457 24.5146 6.22355 24.15C6.07252 23.7854 5.99479 23.3946 5.99479 23C5.99479 22.6053 6.07252 22.2145 6.22355 21.8499C6.37457 21.4853 6.59594 21.154 6.87499 20.875L10.34 17.41L14.5825 21.6525L11.125 25.125ZM25.125 25.125C24.8463 25.4047 24.5151 25.6266 24.1504 25.778C23.7858 25.9294 23.3948 26.0073 23 26.0073C22.6052 26.0073 22.2142 25.9294 21.8495 25.778C21.4849 25.6266 21.1537 25.4047 20.875 25.125L17.41 21.66L21.6525 17.4175L25.125 20.875C25.4047 21.1537 25.6266 21.4849 25.778 21.8495C25.9294 22.2142 26.0074 22.6051 26.0074 23C26.0074 23.3948 25.9294 23.7858 25.778 24.1504C25.6266 24.5151 25.4047 24.8463 25.125 25.125ZM14.5 16C14.5 15.7033 14.588 15.4133 14.7528 15.1666C14.9176 14.92 15.1519 14.7277 15.426 14.6142C15.7001 14.5006 16.0017 14.4709 16.2926 14.5288C16.5836 14.5867 16.8509 14.7295 17.0607 14.9393C17.2704 15.1491 17.4133 15.4164 17.4712 15.7073C17.529 15.9983 17.4993 16.2999 17.3858 16.574C17.2723 16.8481 17.08 17.0824 16.8333 17.2472C16.5867 17.412 16.2967 17.5 16 17.5C15.6022 17.5 15.2206 17.3419 14.9393 17.0606C14.658 16.7793 14.5 16.3978 14.5 16Z" fill="#343330"/>
</svg>
