<svg width="32" height="32" viewBox="0 0 32 32" fill="none" xmlns="http://www.w3.org/2000/svg">
<path d="M20.9999 28C20.9999 28.2652 20.8946 28.5196 20.7071 28.7071C20.5195 28.8946 20.2652 29 19.9999 29H11.9999C11.7347 29 11.4804 28.8946 11.2928 28.7071C11.1053 28.5196 10.9999 28.2652 10.9999 28C10.9999 27.7348 11.1053 27.4804 11.2928 27.2929C11.4804 27.1054 11.7347 27 11.9999 27H19.9999C20.2652 27 20.5195 27.1054 20.7071 27.2929C20.8946 27.4804 20.9999 27.7348 20.9999 28ZM28.4237 7.54001C27.2998 5.34332 25.6122 3.48487 23.5337 2.15501C23.4226 2.08407 23.2987 2.03578 23.1689 2.01291C23.0391 1.99005 22.9061 1.99306 22.7775 2.02177C22.6489 2.05048 22.5272 2.10433 22.4195 2.18022C22.3117 2.25611 22.2201 2.35255 22.1497 2.46398C22.0794 2.57542 22.0318 2.69966 22.0096 2.82956C21.9874 2.95946 21.9912 3.09246 22.0206 3.22091C22.05 3.34937 22.1045 3.47074 22.181 3.57806C22.2574 3.68538 22.3544 3.77652 22.4662 3.84626C24.2494 4.98063 25.6942 6.57437 26.6487 8.46001C26.7748 8.68792 26.9849 8.85763 27.2343 8.93301C27.4836 9.00839 27.7525 8.9835 27.9838 8.86362C28.2151 8.74375 28.3905 8.53836 28.4726 8.29116C28.5548 8.04396 28.5372 7.77446 28.4237 7.54001ZM4.46369 9.00001C4.6469 8.99993 4.82656 8.94953 4.98307 8.8543C5.13958 8.75907 5.26692 8.62268 5.35119 8.46001C6.3057 6.57437 7.75047 4.98063 9.53369 3.84626C9.64551 3.77652 9.74244 3.68538 9.81891 3.57806C9.89538 3.47074 9.94989 3.34937 9.9793 3.22091C10.0087 3.09246 10.0124 2.95946 9.99028 2.82956C9.96811 2.69966 9.9205 2.57542 9.85016 2.46398C9.77982 2.35255 9.68815 2.25611 9.58042 2.18022C9.47269 2.10433 9.35102 2.05048 9.22241 2.02177C9.0938 1.99306 8.96078 1.99005 8.831 2.01291C8.70123 2.03578 8.57725 2.08407 8.46619 2.15501C6.38772 3.48487 4.7001 5.34332 3.57619 7.54001C3.49724 7.6924 3.45884 7.86256 3.46469 8.0341C3.47054 8.20563 3.52045 8.37278 3.6096 8.51944C3.69876 8.66611 3.82416 8.78736 3.97374 8.87152C4.12333 8.95569 4.29206 8.99993 4.46369 9.00001ZM27.7262 21.9925C27.9034 22.2963 27.9973 22.6415 27.9985 22.9931C27.9997 23.3448 27.9081 23.6906 27.7331 23.9956C27.558 24.3006 27.3056 24.5541 27.0013 24.7304C26.697 24.9068 26.3516 24.9998 25.9999 25H5.99994C5.64847 24.9993 5.30339 24.906 4.99945 24.7295C4.69552 24.553 4.44347 24.2995 4.26869 23.9945C4.09392 23.6896 4.00259 23.344 4.0039 22.9925C4.00522 22.641 4.09914 22.2961 4.27619 21.9925C5.40244 20.0488 5.99994 17.285 5.99994 14C5.99994 11.3478 7.05351 8.8043 8.92887 6.92894C10.8042 5.05357 13.3478 4.00001 15.9999 4.00001C18.6521 4.00001 21.1956 5.05357 23.071 6.92894C24.9464 8.8043 25.9999 11.3478 25.9999 14C25.9999 17.2838 26.5974 20.0475 27.7262 21.9925ZM25.9999 23C24.6699 20.7163 23.9999 17.6888 23.9999 14C23.9999 11.8783 23.1571 9.84344 21.6568 8.34315C20.1565 6.84286 18.1217 6.00001 15.9999 6.00001C13.8782 6.00001 11.8434 6.84286 10.3431 8.34315C8.8428 9.84344 7.99994 11.8783 7.99994 14C7.99994 17.69 7.32744 20.7175 5.99994 23H25.9999Z" fill="#343330"/>
</svg>
