<svg width="32" height="32" viewBox="0 0 32 32" fill="none" xmlns="http://www.w3.org/2000/svg">
<path d="M27.6338 18.0512C26.8912 15.1634 25.1073 12.652 22.625 11H30C30.2652 11 30.5196 10.8946 30.7071 10.7071C30.8946 10.5195 31 10.2652 31 9.99997C31 9.73475 30.8946 9.4804 30.7071 9.29286C30.5196 9.10533 30.2652 8.99997 30 8.99997H19.875C19.6547 8.13955 19.1543 7.37693 18.4527 6.83233C17.7511 6.28773 16.8882 5.99213 16 5.99213C15.1118 5.99213 14.2489 6.28773 13.5473 6.83233C12.8457 7.37693 12.3453 8.13955 12.125 8.99997H2C1.73479 8.99997 1.48043 9.10533 1.2929 9.29286C1.10536 9.4804 1 9.73475 1 9.99997C1 10.2652 1.10536 10.5195 1.2929 10.7071C1.48043 10.8946 1.73479 11 2 11H9.375C6.8927 12.652 5.10877 15.1634 4.36625 18.0512C3.40609 18.2044 2.53461 18.7021 1.91475 19.4512C1.2949 20.2003 0.969119 21.1495 0.998328 22.1214C1.02754 23.0933 1.40974 24.0212 2.07346 24.7318C2.73718 25.4423 3.63698 25.8867 4.60461 25.982C5.57224 26.0773 6.54143 25.8168 7.33098 25.2494C8.12052 24.6819 8.67634 23.8463 8.89452 22.8988C9.1127 21.9513 8.97828 20.9568 8.51642 20.1012C8.05455 19.2456 7.29685 18.5875 6.385 18.25C6.81435 16.7696 7.57763 15.4075 8.6161 14.2685C9.65456 13.1295 10.9405 12.2439 12.375 11.68C12.6959 12.372 13.2081 12.9578 13.851 13.3684C14.494 13.7789 15.2409 13.9971 16.0038 13.9971C16.7666 13.9971 17.5135 13.7789 18.1565 13.3684C18.7994 12.9578 19.3116 12.372 19.6325 11.68C21.0656 12.2449 22.3501 13.1309 23.3872 14.2698C24.4243 15.4088 25.1864 16.7704 25.615 18.25C24.7027 18.5863 23.9442 19.2435 23.4812 20.0985C23.0183 20.9535 22.8827 21.9479 23.0997 22.8957C23.3167 23.8435 23.8714 24.6798 24.6603 25.2482C25.4492 25.8167 26.418 26.0783 27.3858 25.9842C28.3535 25.8902 29.2539 25.4468 29.9185 24.7371C30.5831 24.0273 30.9664 23.0998 30.9968 22.128C31.0272 21.1562 30.7026 20.2065 30.0836 19.4567C29.4646 18.7068 28.5937 18.2081 27.6338 18.0537V18.0512ZM7 22C7 22.3955 6.8827 22.7822 6.66294 23.1111C6.44318 23.44 6.13082 23.6964 5.76537 23.8477C5.39992 23.9991 4.99778 24.0387 4.60982 23.9615C4.22186 23.8844 3.86549 23.6939 3.58579 23.4142C3.30608 23.1345 3.1156 22.7781 3.03843 22.3902C2.96126 22.0022 3.00087 21.6001 3.15224 21.2346C3.30362 20.8692 3.55996 20.5568 3.88886 20.337C4.21776 20.1173 4.60444 20 5 20C5.53044 20 6.03914 20.2107 6.41422 20.5858C6.78929 20.9608 7 21.4695 7 22ZM16 12C15.6044 12 15.2178 11.8827 14.8889 11.6629C14.56 11.4431 14.3036 11.1308 14.1522 10.7653C14.0009 10.3999 13.9613 9.99775 14.0384 9.60979C14.1156 9.22183 14.3061 8.86546 14.5858 8.58576C14.8655 8.30605 15.2219 8.11557 15.6098 8.0384C15.9978 7.96123 16.3999 8.00084 16.7654 8.15221C17.1308 8.30359 17.4432 8.55993 17.6629 8.88883C17.8827 9.21773 18 9.60441 18 9.99997C18 10.5304 17.7893 11.0391 17.4142 11.4142C17.0391 11.7893 16.5304 12 16 12ZM27 24C26.6044 24 26.2178 23.8827 25.8889 23.6629C25.56 23.4431 25.3036 23.1308 25.1522 22.7653C25.0009 22.3999 24.9613 21.9978 25.0384 21.6098C25.1156 21.2218 25.3061 20.8655 25.5858 20.5858C25.8655 20.3061 26.2219 20.1156 26.6098 20.0384C26.9978 19.9612 27.3999 20.0008 27.7654 20.1522C28.1308 20.3036 28.4432 20.5599 28.6629 20.8888C28.8827 21.2177 29 21.6044 29 22C29 22.5304 28.7893 23.0391 28.4142 23.4142C28.0391 23.7893 27.5304 24 27 24Z" fill="#343330"/>
</svg>
