<svg width="33" height="32" viewBox="0 0 33 32" fill="none" xmlns="http://www.w3.org/2000/svg">
<path d="M27 14C26.277 13.9997 25.56 14.1306 24.8838 14.3862L21.7413 9H25C25.2652 9 25.5196 9.10536 25.7071 9.29289C25.8946 9.48043 26 9.73478 26 10C26 10.2652 26.1054 10.5196 26.2929 10.7071C26.4804 10.8946 26.7348 11 27 11C27.2652 11 27.5196 10.8946 27.7071 10.7071C27.8946 10.5196 28 10.2652 28 10C28 9.20435 27.6839 8.44129 27.1213 7.87868C26.5587 7.31607 25.7957 7 25 7H20C19.8247 7.0004 19.6525 7.0469 19.5008 7.13483C19.3491 7.22276 19.2232 7.34903 19.1357 7.50098C19.0482 7.65294 19.0022 7.82522 19.0023 8.00057C19.0024 8.17591 19.0486 8.34815 19.1363 8.5L20.5925 11H13.4075L11.3638 7.5C11.2762 7.34831 11.1503 7.22229 10.9987 7.13454C10.8471 7.04679 10.6752 7.0004 10.5 7H7.00001C6.73479 7 6.48044 7.10536 6.2929 7.29289C6.10536 7.48043 6.00001 7.73478 6.00001 8C6.00001 8.26522 6.10536 8.51957 6.2929 8.70711C6.48044 8.89464 6.73479 9 7.00001 9H9.92626L11.64 11.9388L9.67626 14.6325C8.32703 13.9573 6.77336 13.8137 5.32323 14.2301C3.87309 14.6466 2.63236 15.5927 1.84698 16.8809C1.0616 18.1691 0.788898 19.7054 1.08294 21.1852C1.37698 22.665 2.2163 23.9803 3.43452 24.8704C4.65273 25.7605 6.16091 26.1604 7.6601 25.9908C9.15928 25.8212 10.54 25.0945 11.5286 23.9548C12.5172 22.815 13.0415 21.3455 12.9975 19.8374C12.9536 18.3292 12.3446 16.8927 11.2913 15.8125L12.74 13.825L16.6363 20.5C16.6971 20.6223 16.7824 20.7308 16.8869 20.8189C16.9913 20.9069 17.1127 20.9726 17.2435 21.012C17.3743 21.0513 17.5118 21.0634 17.6475 21.0475C17.7832 21.0317 17.9142 20.9882 18.0324 20.9198C18.1507 20.8513 18.2536 20.7594 18.3349 20.6496C18.4162 20.5399 18.4742 20.4146 18.5053 20.2816C18.5363 20.1485 18.5398 20.0105 18.5154 19.8761C18.4911 19.7417 18.4395 19.6137 18.3638 19.5L14.5738 13H21.7588L23.1575 15.3962C22.0746 16.3013 21.3454 17.5592 21.0981 18.9487C20.8508 20.3382 21.1013 21.7704 21.8054 22.9936C22.5096 24.2167 23.6224 25.1525 24.9482 25.6363C26.274 26.1202 27.7279 26.1212 29.0544 25.6392C30.3809 25.1572 31.495 24.2231 32.2009 23.0009C32.9068 21.7788 33.1593 20.3469 32.914 18.9571C32.6686 17.5672 31.9412 16.3083 30.8596 15.4017C29.778 14.4951 28.4113 13.9988 27 14ZM11 20C11.0002 20.8556 10.7262 21.6887 10.218 22.3769C9.70982 23.0652 8.99435 23.5725 8.17664 23.8241C7.35893 24.0758 6.48208 24.0587 5.67483 23.7752C4.86759 23.4918 4.17249 22.957 3.69162 22.2493C3.21074 21.5417 2.96943 20.6985 3.00311 19.8436C3.03679 18.9888 3.34369 18.1672 3.87874 17.4996C4.4138 16.832 5.14881 16.3535 5.97585 16.1344C6.80289 15.9154 7.67838 15.9673 8.47376 16.2825L6.19251 19.4075C6.10945 19.5131 6.04854 19.6344 6.01341 19.7641C5.97827 19.8938 5.96964 20.0293 5.98803 20.1624C6.00642 20.2955 6.05144 20.4236 6.12042 20.5389C6.18939 20.6542 6.2809 20.7544 6.38949 20.8336C6.49807 20.9128 6.62149 20.9692 6.75238 20.9996C6.88328 21.03 7.01895 21.0338 7.15131 21.0106C7.28367 20.9873 7.40999 20.9377 7.52274 20.8646C7.63548 20.7915 7.73233 20.6964 7.80751 20.585L10.0888 17.46C10.6787 18.1749 11.0009 19.0731 11 20ZM27 24C26.2077 23.9994 25.4335 23.7635 24.7755 23.3223C24.1174 22.8811 23.6052 22.2544 23.3038 21.5217C23.0024 20.7891 22.9254 19.9834 23.0825 19.2068C23.2396 18.4303 23.6238 17.7179 24.1863 17.16L26.1363 20.5C26.1971 20.6223 26.2824 20.7308 26.3869 20.8189C26.4913 20.9069 26.6127 20.9726 26.7435 21.012C26.8743 21.0513 27.0118 21.0634 27.1475 21.0475C27.2832 21.0317 27.4142 20.9882 27.5324 20.9198C27.6507 20.8513 27.7536 20.7594 27.8349 20.6496C27.9162 20.5399 27.9742 20.4146 28.0053 20.2816C28.0363 20.1485 28.0398 20.0105 28.0154 19.8761C27.9911 19.7417 27.9395 19.6137 27.8638 19.5L25.9125 16.1513C26.4627 15.9955 27.0399 15.9595 27.6052 16.0457C28.1705 16.132 28.7108 16.3384 29.1895 16.6511C29.6683 16.9639 30.0744 17.3756 30.3806 17.8586C30.6867 18.3416 30.8857 18.8846 30.9642 19.451C31.0427 20.0174 30.9988 20.5941 30.8355 21.1421C30.6722 21.6902 30.3934 22.1968 30.0177 22.6279C29.642 23.0591 29.1782 23.4046 28.6577 23.6413C28.1371 23.878 27.5718 24.0003 27 24Z" fill="#343330"/>
</svg>
