<svg width="32" height="32" viewBox="0 0 32 32" fill="none" xmlns="http://www.w3.org/2000/svg">
<path d="M22 8.5C22 8.79667 21.912 9.08668 21.7472 9.33335C21.5824 9.58003 21.3481 9.77229 21.074 9.88582C20.7999 9.99935 20.4984 10.0291 20.2074 9.97118C19.9164 9.9133 19.6491 9.77044 19.4394 9.56066C19.2296 9.35088 19.0867 9.08361 19.0288 8.79264C18.971 8.50166 19.0007 8.20006 19.1142 7.92597C19.2277 7.65189 19.42 7.41762 19.6667 7.2528C19.9133 7.08797 20.2033 7 20.5 7C20.8978 7 21.2794 7.15804 21.5607 7.43934C21.842 7.72064 22 8.10218 22 8.5ZM15.64 16.2313C15.5393 16.147 15.423 16.0833 15.2977 16.044C15.1724 16.0046 15.0406 15.9904 14.9097 16.002C14.7789 16.0136 14.6517 16.0508 14.5353 16.1116C14.4189 16.1724 14.3156 16.2555 14.2313 16.3563L9.23127 22.3563C9.06153 22.5601 8.97973 22.8231 9.00388 23.0873C9.02802 23.3515 9.15613 23.5953 9.36001 23.765C9.5639 23.9347 9.82686 24.0165 10.0911 23.9924C10.3552 23.9682 10.599 23.8401 10.7688 23.6362L15.7688 17.6362C15.9374 17.4326 16.0185 17.1705 15.9944 16.9072C15.9703 16.6439 15.8429 16.4008 15.64 16.2313ZM30 10C30.0001 10.1647 29.9596 10.3268 29.8819 10.4721C29.8043 10.6173 29.692 10.7411 29.555 10.8325L27 12.535V15C26.9964 18.4467 25.6256 21.7512 23.1884 24.1884C20.7512 26.6256 17.4467 27.9964 14 28H1.00002C0.811563 28.0001 0.626912 27.947 0.467346 27.8467C0.30778 27.7465 0.179793 27.6031 0.0981378 27.4333C0.0164822 27.2635 -0.0155186 27.074 0.00582368 26.8868C0.0271659 26.6995 0.100983 26.5221 0.218766 26.375L12 11.6488V9.5C11.9983 7.70846 12.638 5.97549 13.8033 4.61469C14.9686 3.2539 16.5825 2.35518 18.3529 2.08118C20.1234 1.80717 21.9335 2.17598 23.4556 3.12085C24.9777 4.06573 26.1113 5.52426 26.6513 7.2325L29.555 9.1675C29.692 9.2589 29.8043 9.38271 29.8819 9.52794C29.9596 9.67317 30.0001 9.83532 30 10ZM27.1975 10L25.2375 8.6925C25.0331 8.55652 24.8858 8.35007 24.8238 8.1125C24.4876 6.81674 23.6904 5.68806 22.5816 4.93803C21.4728 4.188 20.1285 3.86811 18.8007 4.03832C17.4729 4.20853 16.2528 4.85715 15.369 5.86261C14.4852 6.86808 13.9985 8.16134 14 9.5V12C14.0002 12.2271 13.923 12.4476 13.7813 12.625L3.08002 26H14C16.9164 25.9967 19.7124 24.8367 21.7745 22.7745C23.8367 20.7123 24.9967 17.9164 25 15V12C24.9999 11.8353 25.0405 11.6732 25.1181 11.5279C25.1957 11.3827 25.308 11.2589 25.445 11.1675L27.1975 10Z" fill="#343330"/>
</svg>
