<svg width="32" height="32" viewBox="0 0 32 32" fill="none" xmlns="http://www.w3.org/2000/svg">
<path d="M17.7074 16.7075L7.70745 26.7075C7.5198 26.8951 7.26531 27.0006 6.99995 27.0006C6.73458 27.0006 6.48009 26.8951 6.29245 26.7075C6.1048 26.5199 5.99939 26.2654 5.99939 26C5.99939 25.7346 6.10481 25.4801 6.29245 25.2925L15.5862 16L6.29245 6.70751C6.1048 6.51987 5.99939 6.26537 5.99939 6.00001C5.99939 5.73464 6.1048 5.48015 6.29245 5.29251C6.48009 5.10487 6.73458 4.99945 6.99995 4.99945C7.26531 4.99945 7.5198 5.10487 7.70745 5.29251L17.7074 15.2925C17.8004 15.3854 17.8742 15.4957 17.9245 15.6171C17.9748 15.7385 18.0007 15.8686 18.0007 16C18.0007 16.1314 17.9748 16.2615 17.9245 16.3829C17.8742 16.5043 17.8004 16.6146 17.7074 16.7075ZM27.7074 15.2925L17.7074 5.29251C17.5198 5.10487 17.2653 4.99945 16.9999 4.99945C16.7346 4.99945 16.4801 5.10487 16.2924 5.29251C16.1048 5.48015 15.9994 5.73464 15.9994 6.00001C15.9994 6.26537 16.1048 6.51987 16.2924 6.70751L25.5862 16L16.2924 25.2925C16.1048 25.4801 15.9994 25.7346 15.9994 26C15.9994 26.2654 16.1048 26.5199 16.2924 26.7075C16.4801 26.8951 16.7346 27.0006 16.9999 27.0006C17.2653 27.0006 17.5198 26.8951 17.7074 26.7075L27.7074 16.7075C27.8004 16.6146 27.8742 16.5043 27.9245 16.3829C27.9748 16.2615 28.0007 16.1314 28.0007 16C28.0007 15.8686 27.9748 15.7385 27.9245 15.6171C27.8742 15.4957 27.8004 15.3854 27.7074 15.2925Z" fill="#343330"/>
</svg>
