<svg width="32" height="32" viewBox="0 0 32 32" fill="none" xmlns="http://www.w3.org/2000/svg">
<path d="M26.7074 20.7075C26.6146 20.8005 26.5043 20.8742 26.3829 20.9246C26.2615 20.9749 26.1314 21.0008 25.9999 21.0008C25.8685 21.0008 25.7384 20.9749 25.617 20.9246C25.4956 20.8742 25.3853 20.8005 25.2924 20.7075L15.9999 11.4137L6.70745 20.7075C6.5198 20.8951 6.26531 21.0006 5.99995 21.0006C5.73458 21.0006 5.48009 20.8951 5.29245 20.7075C5.1048 20.5199 4.99939 20.2654 4.99939 20C4.99939 19.7346 5.10481 19.4801 5.29245 19.2925L15.2924 9.29249C15.3853 9.19952 15.4956 9.12576 15.617 9.07543C15.7384 9.02511 15.8685 8.99921 15.9999 8.99921C16.1314 8.99921 16.2615 9.02511 16.3829 9.07543C16.5043 9.12576 16.6146 9.19952 16.7074 9.29249L26.7074 19.2925C26.8004 19.3854 26.8742 19.4957 26.9245 19.6171C26.9748 19.7385 27.0007 19.8686 27.0007 20C27.0007 20.1314 26.9748 20.2615 26.9245 20.3829C26.8742 20.5043 26.8004 20.6146 26.7074 20.7075Z" fill="#343330"/>
</svg>
