<svg width="32" height="32" viewBox="0 0 32 32" fill="none" xmlns="http://www.w3.org/2000/svg">
<path d="M25.1925 6.80747C22.7545 4.36947 19.4479 2.99982 16 2.99982C12.5522 2.99982 9.24554 4.36947 6.80754 6.80748C4.36953 9.24548 2.99988 12.5521 2.99988 16C2.99988 19.4478 4.36953 22.7545 6.80754 25.1925C9.24554 27.6305 12.5522 29.0001 16 29.0001C19.4479 29.0001 22.7545 27.6305 25.1925 25.1925C27.6305 22.7545 29.0002 19.4478 29.0002 16C29.0002 12.5521 27.6305 9.24548 25.1925 6.80747ZM23.7788 23.7787C22.2403 25.3169 20.2803 26.3644 18.1466 26.7887C16.0128 27.213 13.8012 26.9951 11.7913 26.1625C9.7814 25.3299 8.06353 23.92 6.85491 22.1111C5.64628 20.3022 5.00119 18.1755 5.00119 16C5.00119 13.8244 5.64628 11.6978 6.85491 9.88887C8.06353 8.07997 9.7814 6.67007 11.7913 5.83746C13.8012 5.00484 16.0128 4.78691 18.1466 5.21122C20.2803 5.63552 22.2403 6.68301 23.7788 8.22122C25.8387 10.286 26.9955 13.0834 26.9955 16C26.9955 18.9165 25.8387 21.714 23.7788 23.7787ZM20.7075 10.2925C20.8005 10.3853 20.8743 10.4956 20.9246 10.617C20.9749 10.7384 21.0008 10.8686 21.0008 11C21.0008 11.1314 20.9749 11.2615 20.9246 11.3829C20.8743 11.5043 20.8005 11.6146 20.7075 11.7075L16.7075 15.7075C16.6147 15.8005 16.5044 15.8742 16.383 15.9245C16.2616 15.9749 16.1315 16.0008 16 16.0008C15.8686 16.0008 15.7385 15.9749 15.6171 15.9245C15.4957 15.8742 15.3854 15.8005 15.2925 15.7075L11.2925 11.7075C11.1049 11.5198 10.9995 11.2653 10.9995 11C10.9995 10.7346 11.1049 10.4801 11.2925 10.2925C11.4802 10.1048 11.7347 9.99942 12 9.99942C12.2654 9.99942 12.5199 10.1048 12.7075 10.2925L16 13.5862L19.2925 10.2925C19.3854 10.1995 19.4957 10.1257 19.6171 10.0754C19.7385 10.0251 19.8686 9.99919 20 9.99919C20.1315 9.99919 20.2616 10.0251 20.383 10.0754C20.5044 10.1257 20.6147 10.1995 20.7075 10.2925ZM20.7075 17.2925C20.8005 17.3853 20.8743 17.4956 20.9246 17.617C20.9749 17.7384 21.0008 17.8686 21.0008 18C21.0008 18.1314 20.9749 18.2615 20.9246 18.3829C20.8743 18.5043 20.8005 18.6146 20.7075 18.7075L16.7075 22.7075C16.6147 22.8005 16.5044 22.8742 16.383 22.9245C16.2616 22.9749 16.1315 23.0008 16 23.0008C15.8686 23.0008 15.7385 22.9749 15.6171 22.9245C15.4957 22.8742 15.3854 22.8005 15.2925 22.7075L11.2925 18.7075C11.1049 18.5198 10.9995 18.2653 10.9995 18C10.9995 17.7346 11.1049 17.4801 11.2925 17.2925C11.4802 17.1048 11.7347 16.9994 12 16.9994C12.2654 16.9994 12.5199 17.1048 12.7075 17.2925L16 20.5862L19.2925 17.2925C19.3854 17.1995 19.4957 17.1257 19.6171 17.0754C19.7385 17.0251 19.8686 16.9992 20 16.9992C20.1315 16.9992 20.2616 17.0251 20.383 17.0754C20.5044 17.1257 20.6147 17.1995 20.7075 17.2925Z" fill="#343330"/>
</svg>
