<svg width="32" height="32" viewBox="0 0 32 32" fill="none" xmlns="http://www.w3.org/2000/svg">
<path d="M25.1925 6.80747C22.7545 4.36947 19.4479 2.99982 16 2.99982C12.5522 2.99982 9.24554 4.36947 6.80754 6.80748C4.36953 9.24548 2.99988 12.5521 2.99988 16C2.99988 19.4478 4.36953 22.7545 6.80754 25.1925C9.24554 27.6305 12.5522 29.0001 16 29.0001C19.4479 29.0001 22.7545 27.6305 25.1925 25.1925C27.6305 22.7545 29.0002 19.4478 29.0002 16C29.0002 12.5521 27.6305 9.24548 25.1925 6.80747ZM23.7788 23.7787C22.2403 25.3169 20.2803 26.3644 18.1466 26.7887C16.0128 27.213 13.8012 26.9951 11.7913 26.1625C9.7814 25.3299 8.06353 23.92 6.85491 22.1111C5.64628 20.3022 5.00119 18.1755 5.00119 16C5.00119 13.8244 5.64628 11.6978 6.85491 9.88887C8.06353 8.07997 9.7814 6.67007 11.7913 5.83746C13.8012 5.00484 16.0128 4.78691 18.1466 5.21122C20.2803 5.63552 22.2403 6.68301 23.7788 8.22122C25.8387 10.286 26.9955 13.0834 26.9955 16C26.9955 18.9165 25.8387 21.714 23.7788 23.7787ZM21.7075 12.7075L18.4138 16L21.7075 19.2925C21.8004 19.3854 21.8741 19.4957 21.9244 19.6171C21.9747 19.7385 22.0006 19.8686 22.0006 20C22.0006 20.1314 21.9747 20.2615 21.9244 20.3829C21.8741 20.5043 21.8004 20.6146 21.7075 20.7075C21.6146 20.8004 21.5043 20.8741 21.3829 20.9244C21.2615 20.9747 21.1314 21.0005 21 21.0005C20.8686 21.0005 20.7385 20.9747 20.6171 20.9244C20.4957 20.8741 20.3854 20.8004 20.2925 20.7075L16.2925 16.7075C16.1996 16.6146 16.1258 16.5043 16.0755 16.3829C16.0252 16.2615 15.9992 16.1314 15.9992 16C15.9992 15.8686 16.0252 15.7384 16.0755 15.617C16.1258 15.4956 16.1996 15.3853 16.2925 15.2925L20.2925 11.2925C20.3854 11.1996 20.4957 11.1259 20.6171 11.0756C20.7385 11.0253 20.8686 10.9994 21 10.9994C21.1314 10.9994 21.2615 11.0253 21.3829 11.0756C21.5043 11.1259 21.6146 11.1996 21.7075 11.2925C21.8004 11.3854 21.8741 11.4957 21.9244 11.6171C21.9747 11.7385 22.0006 11.8686 22.0006 12C22.0006 12.1314 21.9747 12.2615 21.9244 12.3829C21.8741 12.5043 21.8004 12.6146 21.7075 12.7075ZM14.7075 12.7075L11.4138 16L14.7075 19.2925C14.8004 19.3854 14.8741 19.4957 14.9244 19.6171C14.9747 19.7385 15.0006 19.8686 15.0006 20C15.0006 20.1314 14.9747 20.2615 14.9244 20.3829C14.8741 20.5043 14.8004 20.6146 14.7075 20.7075C14.6146 20.8004 14.5043 20.8741 14.3829 20.9244C14.2615 20.9747 14.1314 21.0005 14 21.0005C13.8686 21.0005 13.7385 20.9747 13.6171 20.9244C13.4957 20.8741 13.3854 20.8004 13.2925 20.7075L9.29254 16.7075C9.19956 16.6146 9.1258 16.5043 9.07548 16.3829C9.02515 16.2615 8.99925 16.1314 8.99925 16C8.99925 15.8686 9.02515 15.7384 9.07548 15.617C9.1258 15.4956 9.19956 15.3853 9.29254 15.2925L13.2925 11.2925C13.4802 11.1048 13.7347 10.9994 14 10.9994C14.2654 10.9994 14.5199 11.1048 14.7075 11.2925C14.8952 11.4801 15.0006 11.7346 15.0006 12C15.0006 12.2653 14.8952 12.5198 14.7075 12.7075Z" fill="#343330"/>
</svg>
