<svg width="32" height="32" viewBox="0 0 32 32" fill="none" xmlns="http://www.w3.org/2000/svg">
<path d="M26.7074 15.2925C26.8004 15.3854 26.8742 15.4957 26.9245 15.6171C26.9748 15.7385 27.0007 15.8686 27.0007 16C27.0007 16.1314 26.9748 16.2615 26.9245 16.3829C26.8742 16.5043 26.8004 16.6146 26.7074 16.7075L16.7074 26.7075C16.6146 26.8005 16.5043 26.8742 16.3829 26.9246C16.2615 26.9749 16.1314 27.0008 15.9999 27.0008C15.8685 27.0008 15.7384 26.9749 15.617 26.9246C15.4956 26.8742 15.3853 26.8005 15.2924 26.7075L5.29245 16.7075C5.1048 16.5199 4.99939 16.2654 4.99939 16C4.99939 15.7346 5.1048 15.4801 5.29245 15.2925C5.48009 15.1049 5.73458 14.9995 5.99995 14.9995C6.26531 14.9995 6.5198 15.1049 6.70745 15.2925L15.9999 24.5863L25.2924 15.2925C25.3853 15.1995 25.4956 15.1258 25.617 15.0754C25.7384 15.0251 25.8685 14.9992 25.9999 14.9992C26.1314 14.9992 26.2615 15.0251 26.3829 15.0754C26.5043 15.1258 26.6146 15.1995 26.7074 15.2925ZM15.2924 16.7075C15.3853 16.8005 15.4956 16.8742 15.617 16.9246C15.7384 16.9749 15.8685 17.0008 15.9999 17.0008C16.1314 17.0008 16.2615 16.9749 16.3829 16.9246C16.5043 16.8742 16.6146 16.8005 16.7074 16.7075L26.7074 6.70751C26.8951 6.51987 27.0005 6.26537 27.0005 6.00001C27.0005 5.73464 26.8951 5.48015 26.7074 5.29251C26.5198 5.10487 26.2653 4.99945 25.9999 4.99945C25.7346 4.99945 25.4801 5.10487 25.2924 5.29251L15.9999 14.5863L6.70745 5.29251C6.5198 5.10487 6.26531 4.99945 5.99995 4.99945C5.73458 4.99945 5.48009 5.10487 5.29245 5.29251C5.1048 5.48015 4.99939 5.73464 4.99939 6.00001C4.99939 6.26537 5.1048 6.51987 5.29245 6.70751L15.2924 16.7075Z" fill="#343330"/>
</svg>
