<svg width="32" height="32" viewBox="0 0 32 32" fill="none" xmlns="http://www.w3.org/2000/svg">
<path d="M25.1925 6.80747C22.7545 4.36947 19.4479 2.99982 16 2.99982C12.5522 2.99982 9.24554 4.36947 6.80754 6.80748C4.36953 9.24548 2.99988 12.5521 2.99988 16C2.99988 19.4478 4.36953 22.7545 6.80754 25.1925C9.24554 27.6305 12.5522 29.0001 16 29.0001C19.4479 29.0001 22.7545 27.6305 25.1925 25.1925C27.6305 22.7545 29.0002 19.4478 29.0002 16C29.0002 12.5521 27.6305 9.24548 25.1925 6.80747ZM23.7788 23.7787C22.2403 25.3169 20.2803 26.3644 18.1466 26.7887C16.0128 27.213 13.8012 26.9951 11.7913 26.1625C9.7814 25.3299 8.06353 23.92 6.85491 22.1111C5.64628 20.3022 5.00119 18.1755 5.00119 16C5.00119 13.8244 5.64628 11.6978 6.85491 9.88887C8.06353 8.07997 9.7814 6.67007 11.7913 5.83746C13.8012 5.00484 16.0128 4.78691 18.1466 5.21122C20.2803 5.63552 22.2403 6.68301 23.7788 8.22122C25.8387 10.286 26.9955 13.0834 26.9955 16C26.9955 18.9165 25.8387 21.714 23.7788 23.7787ZM15.7075 15.2925C15.8005 15.3853 15.8743 15.4956 15.9246 15.617C15.9749 15.7384 16.0008 15.8686 16.0008 16C16.0008 16.1314 15.9749 16.2615 15.9246 16.3829C15.8743 16.5043 15.8005 16.6146 15.7075 16.7075L11.7075 20.7075C11.6146 20.8004 11.5043 20.8741 11.3829 20.9244C11.2615 20.9747 11.1314 21.0005 11 21.0005C10.8686 21.0005 10.7385 20.9747 10.6171 20.9244C10.4957 20.8741 10.3854 20.8004 10.2925 20.7075C10.1996 20.6146 10.1259 20.5043 10.0756 20.3829C10.0254 20.2615 9.99948 20.1314 9.99948 20C9.99948 19.8686 10.0254 19.7385 10.0756 19.6171C10.1259 19.4957 10.1996 19.3854 10.2925 19.2925L13.5863 16L10.2925 12.7075C10.1049 12.5198 9.99948 12.2653 9.99948 12C9.99948 11.7346 10.1049 11.4801 10.2925 11.2925C10.4802 11.1048 10.7347 10.9994 11 10.9994C11.2654 10.9994 11.5199 11.1048 11.7075 11.2925L15.7075 15.2925ZM22.7075 15.2925C22.8005 15.3853 22.8743 15.4956 22.9246 15.617C22.9749 15.7384 23.0008 15.8686 23.0008 16C23.0008 16.1314 22.9749 16.2615 22.9246 16.3829C22.8743 16.5043 22.8005 16.6146 22.7075 16.7075L18.7075 20.7075C18.5199 20.8951 18.2654 21.0005 18 21.0005C17.7347 21.0005 17.4802 20.8951 17.2925 20.7075C17.1049 20.5198 16.9995 20.2653 16.9995 20C16.9995 19.7346 17.1049 19.4801 17.2925 19.2925L20.5863 16L17.2925 12.7075C17.1049 12.5198 16.9995 12.2653 16.9995 12C16.9995 11.7346 17.1049 11.4801 17.2925 11.2925C17.4802 11.1048 17.7347 10.9994 18 10.9994C18.2654 10.9994 18.5199 11.1048 18.7075 11.2925L22.7075 15.2925Z" fill="#343330"/>
</svg>
