<svg width="32" height="32" viewBox="0 0 32 32" fill="none" xmlns="http://www.w3.org/2000/svg">
<path d="M26.7074 25.2925C26.8004 25.3854 26.8741 25.4957 26.9243 25.6171C26.9746 25.7385 27.0005 25.8686 27.0005 26C27.0005 26.1314 26.9746 26.2615 26.9243 26.3829C26.8741 26.5043 26.8004 26.6146 26.7074 26.7075C26.6145 26.8004 26.5042 26.8741 26.3828 26.9244C26.2614 26.9747 26.1313 27.0005 25.9999 27.0005C25.8686 27.0005 25.7384 26.9747 25.6171 26.9244C25.4957 26.8741 25.3854 26.8004 25.2924 26.7075L15.9999 17.4137L6.70745 26.7075C6.5198 26.8951 6.26531 27.0005 5.99995 27.0005C5.73458 27.0005 5.48009 26.8951 5.29245 26.7075C5.1048 26.5199 4.99939 26.2654 4.99939 26C4.99939 25.7346 5.10481 25.4801 5.29245 25.2925L15.2924 15.2925C15.3853 15.1995 15.4956 15.1258 15.617 15.0754C15.7384 15.0251 15.8685 14.9992 15.9999 14.9992C16.1314 14.9992 16.2615 15.0251 16.3829 15.0754C16.5043 15.1258 16.6146 15.1995 16.7074 15.2925L26.7074 25.2925ZM6.70745 16.7075L15.9999 7.41374L25.2924 16.7075C25.3854 16.8004 25.4957 16.8741 25.6171 16.9244C25.7384 16.9747 25.8686 17.0006 25.9999 17.0006C26.1313 17.0006 26.2614 16.9747 26.3828 16.9244C26.5042 16.8741 26.6145 16.8004 26.7074 16.7075C26.8004 16.6146 26.8741 16.5043 26.9243 16.3829C26.9746 16.2615 27.0005 16.1314 27.0005 16C27.0005 15.8686 26.9746 15.7385 26.9243 15.6171C26.8741 15.4957 26.8004 15.3854 26.7074 15.2925L16.7074 5.29249C16.6146 5.19952 16.5043 5.12576 16.3829 5.07543C16.2615 5.02511 16.1314 4.99921 15.9999 4.99921C15.8685 4.99921 15.7384 5.02511 15.617 5.07543C15.4956 5.12576 15.3853 5.19952 15.2924 5.29249L5.29245 15.2925C5.1048 15.4801 4.99939 15.7346 4.99939 16C4.99939 16.2654 5.1048 16.5199 5.29245 16.7075C5.48009 16.8951 5.73458 17.0006 5.99995 17.0006C6.26531 17.0006 6.5198 16.8951 6.70745 16.7075Z" fill="#343330"/>
</svg>
