<svg width="32" height="32" viewBox="0 0 32 32" fill="none" xmlns="http://www.w3.org/2000/svg">
<path d="M25.1925 6.80747C22.7545 4.36947 19.4479 2.99982 16 2.99982C12.5522 2.99982 9.24554 4.36947 6.80754 6.80748C4.36953 9.24548 2.99988 12.5521 2.99988 16C2.99988 19.4478 4.36953 22.7545 6.80754 25.1925C9.24554 27.6305 12.5522 29.0001 16 29.0001C19.4479 29.0001 22.7545 27.6305 25.1925 25.1925C27.6305 22.7545 29.0002 19.4478 29.0002 16C29.0002 12.5521 27.6305 9.24548 25.1925 6.80747ZM23.7788 23.7787C22.2403 25.3169 20.2803 26.3644 18.1466 26.7887C16.0128 27.213 13.8012 26.9951 11.7913 26.1625C9.7814 25.3299 8.06353 23.92 6.85491 22.1111C5.64628 20.3022 5.00119 18.1755 5.00119 16C5.00119 13.8244 5.64628 11.6978 6.85491 9.88887C8.06353 8.07997 9.7814 6.67007 11.7913 5.83746C13.8012 5.00484 16.0128 4.78691 18.1466 5.21122C20.2803 5.63552 22.2403 6.68301 23.7788 8.22122C25.8387 10.286 26.9955 13.0834 26.9955 16C26.9955 18.9165 25.8387 21.714 23.7788 23.7787ZM20.7075 20.2925C20.8952 20.4801 21.0006 20.7346 21.0006 21C21.0006 21.2653 20.8952 21.5198 20.7075 21.7075C20.5199 21.8951 20.2654 22.0005 20 22.0005C19.7347 22.0005 19.4802 21.8951 19.2925 21.7075L16 18.4137L12.7075 21.7075C12.6146 21.8004 12.5043 21.8741 12.3829 21.9244C12.2615 21.9747 12.1314 22.0005 12 22.0005C11.8686 22.0005 11.7385 21.9747 11.6171 21.9244C11.4957 21.8741 11.3854 21.8004 11.2925 21.7075C11.1996 21.6146 11.1259 21.5043 11.0756 21.3829C11.0254 21.2615 10.9995 21.1314 10.9995 21C10.9995 20.8686 11.0254 20.7385 11.0756 20.6171C11.1259 20.4957 11.1996 20.3854 11.2925 20.2925L15.2925 16.2925C15.3854 16.1995 15.4957 16.1257 15.6171 16.0754C15.7385 16.0251 15.8686 15.9992 16 15.9992C16.1315 15.9992 16.2616 16.0251 16.383 16.0754C16.5044 16.1257 16.6147 16.1995 16.7075 16.2925L20.7075 20.2925ZM20.7075 13.2925C20.8004 13.3854 20.8741 13.4957 20.9244 13.6171C20.9747 13.7385 21.0006 13.8686 21.0006 14C21.0006 14.1314 20.9747 14.2615 20.9244 14.3829C20.8741 14.5043 20.8004 14.6146 20.7075 14.7075C20.6146 14.8004 20.5043 14.8741 20.3829 14.9244C20.2615 14.9747 20.1314 15.0005 20 15.0005C19.8686 15.0005 19.7385 14.9747 19.6171 14.9244C19.4957 14.8741 19.3854 14.8004 19.2925 14.7075L16 11.4137L12.7075 14.7075C12.5199 14.8951 12.2654 15.0005 12 15.0005C11.7347 15.0005 11.4802 14.8951 11.2925 14.7075C11.1049 14.5198 10.9995 14.2653 10.9995 14C10.9995 13.7346 11.1049 13.4801 11.2925 13.2925L15.2925 9.29247C15.3854 9.1995 15.4957 9.12574 15.6171 9.07542C15.7385 9.02509 15.8686 8.99919 16 8.99919C16.1315 8.99919 16.2616 9.02509 16.383 9.07542C16.5044 9.12574 16.6147 9.1995 16.7075 9.29247L20.7075 13.2925Z" fill="#343330"/>
</svg>
