<svg width="32" height="32" viewBox="0 0 32 32" fill="none" xmlns="http://www.w3.org/2000/svg">
<path d="M25 3H23C22.4696 3 21.9609 3.21071 21.5858 3.58579C21.2107 3.96086 21 4.46957 21 5V7H19V5C19 4.46957 18.7893 3.96086 18.4142 3.58579C18.0391 3.21071 17.5304 3 17 3H15C14.4696 3 13.9609 3.21071 13.5858 3.58579C13.2107 3.96086 13 4.46957 13 5V7H11V5C11 4.46957 10.7893 3.96086 10.4142 3.58579C10.0391 3.21071 9.53043 3 9 3H7C6.46957 3 5.96086 3.21071 5.58579 3.58579C5.21071 3.96086 5 4.46957 5 5V10.5863C4.99916 10.849 5.05055 11.1093 5.1512 11.352C5.25184 11.5947 5.39972 11.815 5.58625 12L7 13.4137V27C7 27.5304 7.21071 28.0391 7.58578 28.4142C7.96086 28.7893 8.46957 29 9 29H23C23.5304 29 24.0391 28.7893 24.4142 28.4142C24.7893 28.0391 25 27.5304 25 27V13.4137L26.4137 12C26.6003 11.815 26.7482 11.5947 26.8488 11.352C26.9494 11.1093 27.0008 10.849 27 10.5863V5C27 4.46957 26.7893 3.96086 26.4142 3.58579C26.0391 3.21071 25.5304 3 25 3ZM18 27H14V19C14 18.4696 14.2107 17.9609 14.5858 17.5858C14.9609 17.2107 15.4696 17 16 17C16.5304 17 17.0391 17.2107 17.4142 17.5858C17.7893 17.9609 18 18.4696 18 19V27ZM25 10.5863L23.5862 12C23.3997 12.185 23.2518 12.4053 23.1512 12.648C23.0506 12.8907 22.9992 13.151 23 13.4137V27H20V19C20 17.9391 19.5786 16.9217 18.8284 16.1716C18.0783 15.4214 17.0609 15 16 15C14.9391 15 13.9217 15.4214 13.1716 16.1716C12.4214 16.9217 12 17.9391 12 19V27H9V13.4137C9.00084 13.151 8.94944 12.8907 8.8488 12.648C8.74816 12.4053 8.60027 12.185 8.41375 12L7 10.5863V5H9V7C9 7.53043 9.21071 8.03914 9.58579 8.41421C9.96086 8.78929 10.4696 9 11 9H13C13.5304 9 14.0391 8.78929 14.4142 8.41421C14.7893 8.03914 15 7.53043 15 7V5H17V7C17 7.53043 17.2107 8.03914 17.5858 8.41421C17.9609 8.78929 18.4696 9 19 9H21C21.5304 9 22.0391 8.78929 22.4142 8.41421C22.7893 8.03914 23 7.53043 23 7V5H25V10.5863Z" fill="#343330"/>
</svg>
