<svg width="32" height="32" viewBox="0 0 32 32" fill="none" xmlns="http://www.w3.org/2000/svg">
<path d="M27 6H4.99998C4.46954 6 3.96083 6.21071 3.58576 6.58579C3.21069 6.96086 2.99998 7.46957 2.99998 8V28C2.99767 28.3814 3.10556 28.7553 3.31068 29.0768C3.51579 29.3984 3.80941 29.6538 4.15623 29.8125C4.42051 29.9356 4.70844 29.9995 4.99998 30C5.46948 29.9989 5.92341 29.8315 6.28123 29.5275C6.28719 29.5236 6.29265 29.519 6.29748 29.5138L10.3125 26H27C27.5304 26 28.0391 25.7893 28.4142 25.4142C28.7893 25.0391 29 24.5304 29 24V8C29 7.46957 28.7893 6.96086 28.4142 6.58579C28.0391 6.21071 27.5304 6 27 6ZM27 24H10.3125C9.8415 23.9998 9.38556 24.1658 9.02497 24.4688L9.00998 24.4825L4.99998 28V8H27V24Z" fill="#343330"/>
</svg>
