<svg width="32" height="32" viewBox="0 0 32 32" fill="none" xmlns="http://www.w3.org/2000/svg">
<path d="M27 6H4.99997C4.46954 6 3.96083 6.21071 3.58576 6.58579C3.21069 6.96086 2.99997 7.46957 2.99997 8V28C2.99771 28.3812 3.10548 28.755 3.31035 29.0765C3.51522 29.398 3.80849 29.6535 4.15497 29.8125C4.41975 29.9354 4.70805 29.9994 4.99997 30C5.46948 29.9989 5.92341 29.8315 6.28122 29.5275C6.28719 29.5236 6.29265 29.519 6.29747 29.5138L10.3125 26H27C27.5304 26 28.0391 25.7893 28.4142 25.4142C28.7893 25.0391 29 24.5304 29 24V8C29 7.46957 28.7893 6.96086 28.4142 6.58579C28.0391 6.21071 27.5304 6 27 6ZM27 24H10.3125C9.8415 23.9998 9.38556 24.1658 9.02497 24.4688L9.00997 24.4825L4.99997 28V8H27V24ZM11 14C11 13.7348 11.1053 13.4804 11.2929 13.2929C11.4804 13.1054 11.7348 13 12 13H20C20.2652 13 20.5195 13.1054 20.7071 13.2929C20.8946 13.4804 21 13.7348 21 14C21 14.2652 20.8946 14.5196 20.7071 14.7071C20.5195 14.8946 20.2652 15 20 15H12C11.7348 15 11.4804 14.8946 11.2929 14.7071C11.1053 14.5196 11 14.2652 11 14ZM11 18C11 17.7348 11.1053 17.4804 11.2929 17.2929C11.4804 17.1054 11.7348 17 12 17H20C20.2652 17 20.5195 17.1054 20.7071 17.2929C20.8946 17.4804 21 17.7348 21 18C21 18.2652 20.8946 18.5196 20.7071 18.7071C20.5195 18.8946 20.2652 19 20 19H12C11.7348 19 11.4804 18.8946 11.2929 18.7071C11.1053 18.5196 11 18.2652 11 18Z" fill="#343330"/>
</svg>
