<svg width="32" height="32" viewBox="0 0 32 32" fill="none" xmlns="http://www.w3.org/2000/svg">
<path d="M28.7074 9.70751L12.7074 25.7075C12.6146 25.8005 12.5043 25.8742 12.3829 25.9246C12.2615 25.9749 12.1314 26.0008 11.9999 26.0008C11.8685 26.0008 11.7384 25.9749 11.617 25.9246C11.4956 25.8742 11.3853 25.8005 11.2924 25.7075L4.29245 18.7075C4.1048 18.5199 3.99939 18.2654 3.99939 18C3.99939 17.7346 4.1048 17.4801 4.29245 17.2925C4.48009 17.1049 4.73458 16.9994 4.99995 16.9994C5.26531 16.9994 5.5198 17.1049 5.70745 17.2925L11.9999 23.5863L27.2924 8.29251C27.4801 8.10487 27.7346 7.99945 27.9999 7.99945C28.2653 7.99945 28.5198 8.10487 28.7074 8.29251C28.8951 8.48015 29.0005 8.73464 29.0005 9.00001C29.0005 9.26537 28.8951 9.51987 28.7074 9.70751Z" fill="#343330"/>
</svg>
