<svg width="32" height="32" viewBox="0 0 32 32" fill="none" xmlns="http://www.w3.org/2000/svg">
<path d="M25.1925 6.80747C22.7545 4.36947 19.4478 2.99982 16 2.99982C12.5521 2.99982 9.24548 4.36947 6.80748 6.80748C4.36947 9.24548 2.99982 12.5521 2.99982 16C2.99982 19.4478 4.36947 22.7545 6.80747 25.1925C9.24548 27.6305 12.5521 29.0001 16 29.0001C19.4478 29.0001 22.7545 27.6305 25.1925 25.1925C27.6305 22.7545 29.0001 19.4478 29.0001 16C29.0001 12.5521 27.6305 9.24548 25.1925 6.80747ZM23 24.4837C22.3835 24.9933 21.7128 25.4335 21 25.7962V12.4137L23 10.4137V24.4837ZM13 20.4137L15 18.4137V26.9487C14.3232 26.8855 13.6537 26.76 13 26.5737V20.4137ZM11 25.7962C10.2725 25.4258 9.589 24.9746 8.96247 24.4512L11 22.4137V25.7962ZM17 16.4137L19 14.4137V26.5787C18.3463 26.765 17.6768 26.8905 17 26.9537V16.4137ZM4.99997 16C5.00054 13.91 5.59649 11.8634 6.71806 10.0999C7.83963 8.33633 9.44039 6.9288 11.3329 6.04207C13.2255 5.15534 15.3315 4.82612 17.4044 5.09295C19.4772 5.35978 21.4312 6.21161 23.0375 7.54873L7.54747 23.0387C5.89536 21.066 4.99312 18.5731 4.99997 16ZM25 22.3237V9.67623C26.3012 11.5282 26.9994 13.7366 26.9994 16C26.9994 18.2634 26.3012 20.4717 25 22.3237Z" fill="#343330"/>
</svg>
