<svg width="32" height="32" viewBox="0 0 32 32" fill="none" xmlns="http://www.w3.org/2000/svg">
<g id="clock">
<rect x="6.10352e-05" width="32" height="32" rx="16" fill="#94CCC2"/>
<path id="Vector" d="M16.0001 22.4C17.6974 22.4 19.3253 21.7257 20.5255 20.5255C21.7258 19.3253 22.4001 17.6974 22.4001 16C22.4001 14.3026 21.7258 12.6747 20.5255 11.4745C19.3253 10.2743 17.6974 9.6 16.0001 9.6C14.3027 9.6 12.6748 10.2743 11.4746 11.4745C10.2743 12.6747 9.60006 14.3026 9.60006 16C9.60006 17.6974 10.2743 19.3253 11.4746 20.5255C12.6748 21.7257 14.3027 22.4 16.0001 22.4ZM16.0001 8C17.0506 8 18.0909 8.20693 19.0615 8.60896C20.0321 9.011 20.914 9.60028 21.6569 10.3431C22.3998 11.086 22.9891 11.9679 23.3911 12.9385C23.7931 13.9091 24.0001 14.9494 24.0001 16C24.0001 18.1217 23.1572 20.1566 21.6569 21.6569C20.1566 23.1571 18.1218 24 16.0001 24C11.5761 24 8.00006 20.4 8.00006 16C8.00006 13.8783 8.84292 11.8434 10.3432 10.3431C11.8435 8.84285 13.8783 8 16.0001 8ZM16.4001 12V16.2L20.0001 18.336L19.4001 19.32L15.2001 16.8V12H16.4001Z" fill="white"/>
</g>
</svg>
