<svg width="32" height="32" viewBox="0 0 32 32" fill="none" xmlns="http://www.w3.org/2000/svg">
<path d="M31 16C31.0063 18.3814 30.2337 20.6996 28.8 22.6012C28.7211 22.7063 28.6222 22.7948 28.509 22.8616C28.3959 22.9284 28.2707 22.9724 28.1405 22.9908C28.0104 23.0093 27.8779 23.0019 27.7507 22.9692C27.6234 22.9364 27.5038 22.8789 27.3988 22.8C27.2937 22.721 27.2052 22.6221 27.1384 22.509C27.0715 22.3958 27.0276 22.2706 27.0092 22.1405C26.9907 22.0104 26.9981 21.8779 27.0308 21.7506C27.0636 21.6234 27.1211 21.5038 27.2 21.3987C28.3735 19.844 29.0057 17.9478 29 16C29 13.613 28.0518 11.3238 26.364 9.63601C24.6761 7.94819 22.387 6.99997 20 6.99997C17.6131 6.99997 15.3239 7.94819 13.636 9.63601C11.9482 11.3238 11 13.613 11 16C11 16.2652 10.8946 16.5195 10.7071 16.7071C10.5196 16.8946 10.2652 17 10 17C9.73479 17 9.48044 16.8946 9.2929 16.7071C9.10536 16.5195 9.00001 16.2652 9.00001 16C8.99952 14.9908 9.1379 13.9864 9.41126 13.015C9.27501 13 9.13751 13 9.00001 13C7.40871 13 5.88258 13.6321 4.75737 14.7573C3.63215 15.8826 3.00001 17.4087 3.00001 19C3.00001 20.5913 3.63215 22.1174 4.75737 23.2426C5.88258 24.3678 7.40871 25 9.00001 25H12C12.2652 25 12.5196 25.1053 12.7071 25.2929C12.8946 25.4804 13 25.7348 13 26C13 26.2652 12.8946 26.5195 12.7071 26.7071C12.5196 26.8946 12.2652 27 12 27H9.00001C7.90023 27.0002 6.8122 26.7737 5.8039 26.3346C4.79559 25.8955 3.88865 25.2532 3.13972 24.4478C2.3908 23.6424 1.81598 22.6913 1.45115 21.6538C1.08633 20.6162 0.939347 19.5147 1.01938 18.4178C1.09941 17.3209 1.40475 16.2523 1.91631 15.2788C2.42787 14.3052 3.13467 13.4476 3.99257 12.7595C4.85047 12.0713 5.84104 11.5675 6.90241 11.2794C7.96378 10.9913 9.07316 10.9251 10.1613 11.085C11.2693 8.86892 13.0929 7.09182 15.3369 6.04151C17.5809 4.99121 20.1137 4.72922 22.5252 5.29798C24.9366 5.86674 27.0854 7.23294 28.6236 9.17529C30.1617 11.1176 30.9991 13.5224 31 16ZM22.2925 21.2925L20 23.5862V16C20 15.7348 19.8947 15.4804 19.7071 15.2929C19.5196 15.1053 19.2652 15 19 15C18.7348 15 18.4804 15.1053 18.2929 15.2929C18.1054 15.4804 18 15.7348 18 16V23.5862L15.7075 21.2925C15.5199 21.1048 15.2654 20.9994 15 20.9994C14.7346 20.9994 14.4801 21.1048 14.2925 21.2925C14.1049 21.4801 13.9995 21.7346 13.9995 22C13.9995 22.2653 14.1049 22.5198 14.2925 22.7075L18.2925 26.7075C18.3854 26.8005 18.4957 26.8742 18.6171 26.9245C18.7385 26.9749 18.8686 27.0008 19 27.0008C19.1314 27.0008 19.2615 26.9749 19.3829 26.9245C19.5043 26.8742 19.6146 26.8005 19.7075 26.7075L23.7075 22.7075C23.8951 22.5198 24.0006 22.2653 24.0006 22C24.0006 21.7346 23.8951 21.4801 23.7075 21.2925C23.5199 21.1048 23.2654 20.9994 23 20.9994C22.7346 20.9994 22.4801 21.1048 22.2925 21.2925Z" fill="#343330"/>
</svg>
