<svg width="32" height="32" viewBox="0 0 32 32" fill="none" xmlns="http://www.w3.org/2000/svg">
<path d="M6.74 4.32749C6.65218 4.2285 6.54559 4.14792 6.4264 4.09043C6.30721 4.03294 6.1778 3.99967 6.04566 3.99256C5.91352 3.98545 5.78128 4.00464 5.65661 4.04902C5.53194 4.09339 5.41732 4.16207 5.31939 4.25107C5.22146 4.34007 5.14216 4.44762 5.0861 4.56749C5.03004 4.68736 4.99833 4.81716 4.99281 4.94938C4.98728 5.08159 5.00806 5.21359 5.05392 5.33772C5.09979 5.46184 5.16983 5.57563 5.26 5.67249L10.165 11.0687L10.1575 11.0837C9.77416 11.0283 9.38734 11.0003 9 11C6.87827 11 4.84344 11.8428 3.34315 13.3431C1.84285 14.8434 1 16.8783 1 19C1 21.1217 1.84285 23.1566 3.34315 24.6568C4.84344 26.1571 6.87827 27 9 27H20C21.3596 27.0026 22.7077 26.7512 23.975 26.2587L25.26 27.6725C25.3478 27.7715 25.4544 27.8521 25.5736 27.9096C25.6928 27.967 25.8222 28.0003 25.9543 28.0074C26.0865 28.0145 26.2187 27.9953 26.3434 27.951C26.4681 27.9066 26.5827 27.8379 26.6806 27.7489C26.7785 27.6599 26.8578 27.5524 26.9139 27.4325C26.97 27.3126 27.0017 27.1828 27.0072 27.0506C27.0127 26.9184 26.9919 26.7864 26.9461 26.6623C26.9002 26.5381 26.8302 26.4243 26.74 26.3275L6.74 4.32749ZM20 25H9C7.4087 25 5.88258 24.3679 4.75736 23.2426C3.63214 22.1174 3 20.5913 3 19C3 17.4087 3.63214 15.8826 4.75736 14.7574C5.88258 13.6321 7.4087 13 9 13C9.1375 13 9.275 13 9.4125 13.015C9.13934 13.9865 9.00055 14.9908 9 16C9 16.2652 9.10536 16.5196 9.29289 16.7071C9.48043 16.8946 9.73478 17 10 17C10.2652 17 10.5196 16.8946 10.7071 16.7071C10.8946 16.5196 11 16.2652 11 16C11.0004 14.8642 11.2149 13.7387 11.6325 12.6825L22.5075 24.645C21.6927 24.8815 20.8484 25.001 20 25ZM31 16C31.0016 18.7026 30.0069 21.3109 28.2062 23.3262C28.026 23.5068 27.7835 23.6116 27.5284 23.6192C27.2734 23.6269 27.0251 23.5367 26.8343 23.3672C26.6436 23.1977 26.5249 22.9617 26.5025 22.7076C26.48 22.4534 26.5556 22.2003 26.7138 22C28.1993 20.3409 29.0169 18.1899 29.0086 15.963C29.0003 13.7361 28.1667 11.5913 26.6689 9.94327C25.171 8.29527 23.1154 7.2611 20.8994 7.0407C18.6834 6.82029 16.4643 7.4293 14.6713 8.74999C14.5655 8.8278 14.4454 8.88401 14.3178 8.91541C14.1903 8.94681 14.0579 8.95278 13.928 8.93299C13.7982 8.9132 13.6736 8.86803 13.5612 8.80007C13.4488 8.7321 13.3509 8.64266 13.2731 8.53687C13.116 8.3232 13.0502 8.05586 13.0901 7.79367C13.1301 7.53147 13.2726 7.29588 13.4862 7.13874C15.1249 5.9346 17.0652 5.20824 19.0917 5.04034C21.1182 4.87243 23.1516 5.26955 24.9661 6.18758C26.7805 7.10562 28.305 8.50864 29.3702 10.2408C30.4353 11.973 30.9995 13.9665 31 16Z" fill="#343330"/>
</svg>
