<svg width="32" height="32" viewBox="0 0 32 32" fill="none" xmlns="http://www.w3.org/2000/svg">
<path d="M20.5 9.00001C19.9825 8.99977 19.4657 9.04157 18.955 9.12501C18.7733 7.24796 18.0061 5.47554 16.7617 4.0585C15.5174 2.64145 13.8591 1.65153 12.0212 1.22876C11.8562 1.19084 11.6842 1.19546 11.5214 1.24218C11.3586 1.28891 11.2104 1.37621 11.0906 1.49589C10.9708 1.61558 10.8833 1.76374 10.8364 1.92646C10.7895 2.08919 10.7847 2.26117 10.8225 2.42626C10.9405 2.94252 11.0001 3.47043 11 4.00001C10.998 5.85591 10.2599 7.63524 8.94754 8.94756C7.63522 10.2599 5.85589 10.998 3.99999 11C3.4704 11.0001 2.9425 10.9405 2.42624 10.8225C2.26106 10.7845 2.08893 10.7891 1.92602 10.8359C1.76311 10.8827 1.61477 10.9701 1.49492 11.0899C1.37507 11.2098 1.28765 11.3581 1.24087 11.521C1.19409 11.684 1.18948 11.8561 1.22749 12.0213C1.49613 13.1797 1.991 14.2736 2.68366 15.2402C3.37633 16.2068 4.25314 17.027 5.26374 17.6538C4.55299 18.622 4.12443 19.7683 4.02564 20.9654C3.92685 22.1624 4.16167 23.3635 4.70406 24.4352C5.24645 25.5069 6.07518 26.4073 7.09829 27.0366C8.12139 27.6659 9.29885 27.9993 10.5 28H20.5C23.0195 28 25.4359 26.9991 27.2175 25.2175C28.9991 23.4359 30 21.0196 30 18.5C30 15.9805 28.9991 13.5641 27.2175 11.7825C25.4359 10.0009 23.0195 9.00001 20.5 9.00001ZM3.67124 13C3.77999 13 3.88999 13 3.99999 13C6.38612 12.9974 8.67377 12.0483 10.361 10.361C12.0483 8.67379 12.9973 6.38614 13 4.00001C13 3.88876 13 3.77751 13 3.66626C14.1515 4.20513 15.1333 5.0494 15.8385 6.10725C16.5437 7.1651 16.9455 8.39605 17 9.66626C15.7786 10.1513 14.6706 10.8836 13.7456 11.8171C12.8207 12.7507 12.0987 13.8654 11.625 15.0913C10.7795 14.945 9.91346 14.9675 9.07675 15.1576C8.24005 15.3477 7.44925 15.7015 6.74999 16.1988C5.40504 15.4932 4.32487 14.3709 3.67124 13ZM20.5 26H10.5C9.88452 25.9989 9.27582 25.8715 8.71154 25.6258C8.14725 25.38 7.63938 25.0211 7.21932 24.5713C6.79925 24.1215 6.47593 23.5903 6.26934 23.0105C6.06275 22.4307 5.97729 21.8147 6.01823 21.2006C6.05918 20.5865 6.22567 19.9874 6.5074 19.4401C6.78913 18.8929 7.18011 18.4094 7.65618 18.0193C8.13225 17.6292 8.68327 17.3409 9.27518 17.1723C9.8671 17.0036 10.4873 16.9582 11.0975 17.0388C11.0512 17.335 11.0187 17.6375 11.0012 17.9425C10.986 18.2077 11.0767 18.4681 11.2535 18.6665C11.4302 18.8648 11.6785 18.9848 11.9437 19C12.209 19.0153 12.4694 18.9245 12.6677 18.7478C12.866 18.571 12.986 18.3227 13.0012 18.0575C13.0293 17.5587 13.108 17.0641 13.2362 16.5813C13.2362 16.5613 13.2475 16.5413 13.2512 16.5213C13.6188 15.1706 14.3566 13.9495 15.3815 12.996C16.4063 12.0425 17.6773 11.3946 19.051 11.1253C20.4247 10.856 21.8463 10.9761 23.1553 11.472C24.4643 11.968 25.6085 12.82 26.4589 13.932C27.3092 15.0439 27.8317 16.3714 27.9674 17.7646C28.1032 19.1578 27.8467 20.5613 27.2269 21.8164C26.6072 23.0715 25.6488 24.1284 24.4602 24.8677C23.2715 25.6069 21.8998 25.9991 20.5 26Z" fill="#343330"/>
</svg>
