<svg width="32" height="32" viewBox="0 0 32 32" fill="none" xmlns="http://www.w3.org/2000/svg">
<path d="M31 16C31.0063 18.3814 30.2337 20.6996 28.8 22.6012C28.7211 22.7063 28.6222 22.7948 28.509 22.8616C28.3959 22.9284 28.2707 22.9724 28.1405 22.9908C28.0104 23.0093 27.8779 23.0019 27.7507 22.9692C27.6234 22.9364 27.5038 22.8789 27.3988 22.8C27.2937 22.721 27.2052 22.6221 27.1384 22.509C27.0715 22.3958 27.0276 22.2706 27.0092 22.1405C26.9907 22.0104 26.9981 21.8779 27.0308 21.7506C27.0636 21.6234 27.1211 21.5038 27.2 21.3987C28.3735 19.844 29.0057 17.9478 29 16C29 13.613 28.0518 11.3238 26.364 9.63601C24.6761 7.94819 22.387 6.99997 20 6.99997C17.6131 6.99997 15.3239 7.94819 13.636 9.63601C11.9482 11.3238 11 13.613 11 16C11 16.2652 10.8946 16.5195 10.7071 16.7071C10.5196 16.8946 10.2652 17 10 17C9.73479 17 9.48044 16.8946 9.2929 16.7071C9.10536 16.5195 9.00001 16.2652 9.00001 16C8.99952 14.9908 9.1379 13.9864 9.41126 13.015C9.27501 13 9.13751 13 9.00001 13C7.40871 13 5.88258 13.6321 4.75737 14.7573C3.63215 15.8826 3.00001 17.4087 3.00001 19C3.00001 20.5913 3.63215 22.1174 4.75737 23.2426C5.88258 24.3678 7.40871 25 9.00001 25H12C12.2652 25 12.5196 25.1053 12.7071 25.2929C12.8946 25.4804 13 25.7348 13 26C13 26.2652 12.8946 26.5195 12.7071 26.7071C12.5196 26.8946 12.2652 27 12 27H9.00001C7.90023 27.0002 6.8122 26.7737 5.8039 26.3346C4.79559 25.8955 3.88865 25.2532 3.13972 24.4478C2.3908 23.6424 1.81598 22.6913 1.45115 21.6538C1.08633 20.6162 0.939347 19.5147 1.01938 18.4178C1.09941 17.3209 1.40475 16.2523 1.91631 15.2788C2.42787 14.3052 3.13467 13.4476 3.99257 12.7595C4.85047 12.0713 5.84104 11.5675 6.90241 11.2794C7.96378 10.9913 9.07316 10.9251 10.1613 11.085C11.2693 8.86892 13.0929 7.09182 15.3369 6.04151C17.5809 4.99121 20.1137 4.72922 22.5252 5.29798C24.9366 5.86674 27.0854 7.23294 28.6236 9.17529C30.1617 11.1176 30.9991 13.5224 31 16ZM19.7075 15.2925C19.6146 15.1995 19.5043 15.1257 19.3829 15.0754C19.2615 15.0251 19.1314 14.9992 19 14.9992C18.8686 14.9992 18.7385 15.0251 18.6171 15.0754C18.4957 15.1257 18.3854 15.1995 18.2925 15.2925L14.2925 19.2925C14.1996 19.3854 14.1259 19.4957 14.0756 19.6171C14.0253 19.7385 13.9995 19.8686 13.9995 20C13.9995 20.1314 14.0253 20.2615 14.0756 20.3829C14.1259 20.5043 14.1996 20.6146 14.2925 20.7075C14.4801 20.8951 14.7346 21.0005 15 21.0005C15.1314 21.0005 15.2615 20.9746 15.3829 20.9244C15.5043 20.8741 15.6146 20.8004 15.7075 20.7075L18 18.4137V26C18 26.2652 18.1054 26.5195 18.2929 26.7071C18.4804 26.8946 18.7348 27 19 27C19.2652 27 19.5196 26.8946 19.7071 26.7071C19.8947 26.5195 20 26.2652 20 26V18.4137L22.2925 20.7075C22.3854 20.8004 22.4957 20.8741 22.6171 20.9244C22.7385 20.9746 22.8686 21.0005 23 21.0005C23.1314 21.0005 23.2615 20.9746 23.3829 20.9244C23.5043 20.8741 23.6146 20.8004 23.7075 20.7075C23.8004 20.6146 23.8741 20.5043 23.9244 20.3829C23.9747 20.2615 24.0006 20.1314 24.0006 20C24.0006 19.8686 23.9747 19.7385 23.9244 19.6171C23.8741 19.4957 23.8004 19.3854 23.7075 19.2925L19.7075 15.2925Z" fill="#343330"/>
</svg>
