<svg width="32" height="32" viewBox="0 0 32 32" fill="none" xmlns="http://www.w3.org/2000/svg">
<path d="M19.5 9.00001C18.6444 8.9995 17.7926 9.11428 16.9676 9.34126C16.6419 8.80989 16.2463 8.32471 15.7913 7.89876L16.9801 6.20251C17.0554 6.09491 17.1088 5.97352 17.1372 5.84528C17.1657 5.71703 17.1686 5.58444 17.1458 5.45508C17.123 5.32572 17.0749 5.20211 17.0043 5.09132C16.9337 4.98054 16.842 4.88473 16.7344 4.80939C16.6268 4.73404 16.5054 4.68063 16.3772 4.65219C16.2489 4.62376 16.1164 4.62087 15.987 4.64368C15.8576 4.66648 15.734 4.71455 15.6232 4.78513C15.5124 4.8557 15.4166 4.94741 15.3413 5.05501L14.1526 6.75001C13.175 6.25644 12.0951 5.99953 11.0001 6.00001C10.9276 6.00001 10.8551 6.00001 10.7826 6.00001L10.4213 3.96376C10.4023 3.83108 10.3569 3.70357 10.2877 3.5888C10.2185 3.47402 10.1269 3.37434 10.0184 3.29566C9.90988 3.21698 9.78667 3.16092 9.65607 3.1308C9.52547 3.10068 9.39014 3.09712 9.25814 3.12034C9.12614 3.14356 9.00015 3.19307 8.88766 3.26594C8.77518 3.33881 8.67848 3.43355 8.60334 3.54453C8.52819 3.65551 8.47611 3.78046 8.45021 3.91196C8.42431 4.04346 8.4251 4.17883 8.45255 4.31001L8.81255 6.35251C7.70349 6.71933 6.70364 7.3574 5.9038 8.20876L4.2013 7.01751C4.09378 6.94032 3.97201 6.88523 3.84304 6.85545C3.71408 6.82567 3.58048 6.82179 3.45 6.84404C3.31953 6.86628 3.19476 6.91421 3.08295 6.98503C2.97113 7.05586 2.87449 7.14818 2.79862 7.25665C2.72276 7.36511 2.66918 7.48755 2.641 7.61687C2.61281 7.7462 2.61058 7.87983 2.63443 8.01003C2.65829 8.14022 2.70775 8.26438 2.77995 8.37531C2.85215 8.48625 2.94566 8.58174 3.05505 8.65626L4.75005 9.84626C4.25473 10.8236 3.99772 11.9043 4.00005 13C4.00005 13.0713 4.00005 13.1438 4.00005 13.215L1.9638 13.575C1.71733 13.6182 1.49601 13.7522 1.34352 13.9506C1.19102 14.149 1.11845 14.3973 1.14011 14.6466C1.16177 14.8959 1.2761 15.128 1.46053 15.2971C1.64496 15.4662 1.88608 15.56 2.1363 15.56C2.19454 15.5599 2.25266 15.5549 2.31005 15.545L4.35005 15.185C4.52929 15.7307 4.77532 16.2522 5.08255 16.7375C4.12604 17.626 3.45922 18.7819 3.16893 20.0546C2.87863 21.3274 2.97832 22.6581 3.45501 23.8735C3.9317 25.0888 4.7633 26.1324 5.84151 26.8685C6.91972 27.6045 8.19458 27.9988 9.50005 28H19.5C22.0196 28 24.436 26.9991 26.2176 25.2175C27.9992 23.4359 29 21.0196 29 18.5C29 15.9805 27.9992 13.5641 26.2176 11.7825C24.436 10.0009 22.0196 9.00001 19.5 9.00001ZM6.00005 13C6.00065 11.9411 6.33743 10.9097 6.96185 10.0545C7.58628 9.19922 8.46611 8.56431 9.47455 8.24123C10.483 7.91816 11.568 7.92358 12.5731 8.25674C13.5783 8.5899 14.4517 9.23357 15.0676 10.095C13.0277 11.1685 11.4459 12.9448 10.6151 15.095C9.30048 14.8681 7.94793 15.05 6.74005 15.6163C6.25646 14.8293 6.00032 13.9237 6.00005 13ZM19.5 26H9.50005C8.88458 25.9989 8.27589 25.8715 7.7116 25.6258C7.14732 25.38 6.63944 25.0211 6.21938 24.5713C5.79932 24.1215 5.47599 23.5903 5.26941 23.0105C5.06282 22.4307 4.97735 21.8148 5.0183 21.2006C5.05925 20.5865 5.22573 19.9874 5.50746 19.4402C5.78919 18.893 6.18018 18.4094 6.65624 18.0193C7.13231 17.6292 7.68334 17.3409 8.27525 17.1723C8.86716 17.0036 9.48738 16.9582 10.0976 17.0388C10.0513 17.335 10.0188 17.6375 10.0013 17.9425C9.99375 18.0738 10.0121 18.2054 10.0554 18.3296C10.0987 18.4538 10.166 18.5683 10.2535 18.6665C10.3411 18.7647 10.4471 18.8447 10.5655 18.9019C10.6839 18.9591 10.8125 18.9925 10.9438 19C11.0751 19.0076 11.2066 18.9892 11.3309 18.9459C11.4551 18.9026 11.5696 18.8353 11.6677 18.7478C11.7659 18.6603 11.8459 18.5543 11.9032 18.4358C11.9604 18.3174 11.9937 18.1888 12.0013 18.0575C12.0294 17.5587 12.1081 17.0641 12.2363 16.5813C12.2363 16.5613 12.2476 16.5413 12.2513 16.5213C12.6188 15.1706 13.3567 13.9495 14.3815 12.996C15.4064 12.0425 16.6774 11.3946 18.0511 11.1253C19.4247 10.856 20.8463 10.9761 22.1553 11.472C23.4643 11.968 24.6086 12.82 25.4589 13.932C26.3093 15.0439 26.8318 16.3714 26.9675 17.7646C27.1032 19.1579 26.8467 20.5613 26.227 21.8164C25.6072 23.0715 24.6489 24.1284 23.4602 24.8677C22.2715 25.6069 20.8999 25.9991 19.5 26Z" fill="#343330"/>
</svg>
