<svg width="32" height="32" viewBox="0 0 32 32" fill="none" xmlns="http://www.w3.org/2000/svg">
<path d="M25.7074 15.7075C25.6146 15.8005 25.5043 15.8742 25.3829 15.9246C25.2615 15.9749 25.1314 16.0008 24.9999 16.0008C24.8685 16.0008 24.7384 15.9749 24.617 15.9246C24.4956 15.8742 24.3853 15.8005 24.2924 15.7075L15.9999 7.41374L7.70745 15.7075C7.5198 15.8951 7.26531 16.0006 6.99995 16.0006C6.73458 16.0006 6.48009 15.8951 6.29245 15.7075C6.1048 15.5199 5.99939 15.2654 5.99939 15C5.99939 14.7346 6.1048 14.4801 6.29245 14.2925L15.2924 5.29249C15.3853 5.19952 15.4956 5.12576 15.617 5.07543C15.7384 5.02511 15.8685 4.99921 15.9999 4.99921C16.1314 4.99921 16.2615 5.02511 16.3829 5.07543C16.5043 5.12576 16.6146 5.19952 16.7074 5.29249L25.7074 14.2925C25.8004 14.3854 25.8742 14.4957 25.9245 14.6171C25.9748 14.7385 26.0007 14.8686 26.0007 15C26.0007 15.1314 25.9748 15.2615 25.9245 15.3829C25.8742 15.5043 25.8004 15.6146 25.7074 15.7075Z" fill="#343330"/>
</svg>
