<svg width="20" height="21" viewBox="0 0 20 21" fill="none" xmlns="http://www.w3.org/2000/svg">
<g clip-path="url(#clip0_382_6294)">
<path d="M10 10.5C13.797 10.5 16.875 8.82107 16.875 6.75C16.875 4.67893 13.797 3 10 3C6.20304 3 3.125 4.67893 3.125 6.75C3.125 8.82107 6.20304 10.5 10 10.5Z" stroke="#0A121D" stroke-linecap="round" stroke-linejoin="round"/>
<path d="M3.125 6.75V10.5C3.125 12.5711 6.20313 14.25 10 14.25C13.7969 14.25 16.875 12.5711 16.875 10.5V6.75" stroke="#0A121D" stroke-linecap="round" stroke-linejoin="round"/>
<path d="M3.125 10.5V14.25C3.125 16.3211 6.20313 18 10 18C13.7969 18 16.875 16.3211 16.875 14.25V10.5" stroke="#0A121D" stroke-linecap="round" stroke-linejoin="round"/>
</g>
<defs>
<clipPath id="clip0_382_6294">
<rect width="20" height="20" fill="white" transform="translate(0 0.5)"/>
</clipPath>
</defs>
</svg>
