<svg width="32" height="32" viewBox="0 0 32 32" fill="none" xmlns="http://www.w3.org/2000/svg">
<path d="M21.75 5.96874C20.206 4.18554 18.4682 2.57981 16.5688 1.18124C16.4006 1.06346 16.2003 1.00027 15.995 1.00027C15.7897 1.00027 15.5894 1.06346 15.4213 1.18124C13.5253 2.58039 11.7909 4.1861 10.25 5.96874C6.81375 9.91499 5 14.075 5 18C5 20.9174 6.15893 23.7153 8.22183 25.7782C10.2847 27.8411 13.0826 29 16 29C18.9174 29 21.7153 27.8411 23.7782 25.7782C25.8411 23.7153 27 20.9174 27 18C27 14.075 25.1863 9.91499 21.75 5.96874ZM25 18C24.9998 18.3341 24.9806 18.668 24.9425 19H17V17H24.955C24.985 17.3333 25 17.6667 25 18ZM22.9237 11H17V8.99999H21.6112C22.0847 9.64234 22.5229 10.31 22.9237 11ZM17 25H21.6488C20.3169 26.0789 18.7035 26.753 17 26.9425V25ZM17 23V21H24.4837C24.2349 21.7056 23.8989 22.3775 23.4837 23H17ZM17 15V13H23.9237C24.1988 13.6493 24.4265 14.3178 24.605 15H17ZM19.9862 6.99999H17V4.07499C18.0578 4.98419 19.0553 5.96125 19.9862 6.99999ZM7 18C7 11.75 12.2825 6.41124 15 4.07499V26.9425C12.8011 26.6944 10.7703 25.6458 9.29493 23.9966C7.81952 22.3474 7.00263 20.2129 7 18Z" fill="#343330"/>
</svg>
