<svg width="32" height="32" viewBox="0 0 32 32" fill="none" xmlns="http://www.w3.org/2000/svg">
<path d="M19.5 26C19.5 26.2652 19.3946 26.5196 19.2071 26.7071C19.0196 26.8946 18.7652 27 18.5 27H15C14.7348 27 14.4804 26.8946 14.2929 26.7071C14.1054 26.5196 14 26.2652 14 26V19C14 18.7348 14.1054 18.4804 14.2929 18.2929C14.4804 18.1054 14.7348 18 15 18C15.2652 18 15.5196 18.1054 15.7071 18.2929C15.8946 18.4804 16 18.7348 16 19V25H18.5C18.7652 25 19.0196 25.1054 19.2071 25.2929C19.3946 25.4804 19.5 25.7348 19.5 26ZM11.5813 18.1863C11.4744 18.1099 11.3535 18.0554 11.2256 18.0258C11.0977 17.9961 10.9651 17.992 10.8356 18.0136C10.7061 18.0352 10.582 18.0821 10.4706 18.1516C10.3592 18.2211 10.2626 18.3119 10.1862 18.4188L8.5 20.78L6.81375 18.4188C6.74014 18.3055 6.64434 18.2083 6.53215 18.1331C6.41995 18.0579 6.29367 18.0062 6.16094 17.9811C6.02821 17.956 5.89178 17.9581 5.75987 17.9872C5.62796 18.0163 5.50331 18.0718 5.39345 18.1504C5.28359 18.229 5.19079 18.329 5.12065 18.4445C5.05051 18.5599 5.00449 18.6884 4.98536 18.8221C4.96623 18.9558 4.97439 19.092 5.00935 19.2225C5.0443 19.353 5.10533 19.475 5.18875 19.5812L7.27125 22.5L5.18625 25.4188C5.04593 25.6346 4.9943 25.8963 5.04211 26.1494C5.08991 26.4024 5.23347 26.6272 5.44289 26.777C5.65231 26.9268 5.91144 26.9901 6.16634 26.9536C6.42123 26.9172 6.65224 26.7838 6.81125 26.5812L8.5 24.22L10.1862 26.5812C10.3453 26.7838 10.5763 26.9172 10.8312 26.9536C11.0861 26.9901 11.3452 26.9268 11.5546 26.777C11.764 26.6272 11.9076 26.4024 11.9554 26.1494C12.0032 25.8963 11.9516 25.6346 11.8112 25.4188L9.72875 22.5L11.8138 19.5812C11.8901 19.4744 11.9446 19.3535 11.9742 19.2256C12.0039 19.0977 12.008 18.9651 11.9864 18.8356C11.9648 18.7061 11.9179 18.582 11.8484 18.4706C11.7789 18.3592 11.6881 18.2626 11.5813 18.1863ZM23.9487 21.4137C23.4487 21.2687 22.9312 21.12 22.6425 20.9338C22.4862 20.8312 22.4888 20.8088 22.5025 20.6963C22.5044 20.6054 22.5281 20.5162 22.5716 20.4364C22.6151 20.3566 22.6771 20.2883 22.7525 20.2375C23.3275 19.8475 24.67 20.0225 25.23 20.1675C25.4866 20.235 25.7595 20.1977 25.9886 20.064C26.2178 19.9303 26.3844 19.711 26.4519 19.4544C26.5193 19.1978 26.4821 18.9249 26.3484 18.6957C26.2146 18.4666 25.9953 18.3 25.7388 18.2325C25.475 18.1637 23.1138 17.58 21.635 18.5775C21.3232 18.7882 21.0614 19.0647 20.8681 19.3876C20.6748 19.7105 20.5547 20.0719 20.5163 20.4463C20.2663 22.4313 22.2225 22.9975 23.3913 23.335C24.8988 23.7712 25.0312 23.95 24.9888 24.2838C24.95 24.585 24.8312 24.7 24.72 24.775C24.145 25.1575 22.825 24.9688 22.2775 24.8188C22.0214 24.7476 21.7475 24.7812 21.5162 24.912C21.4016 24.9768 21.3009 25.0635 21.2199 25.1671C21.1388 25.2708 21.079 25.3894 21.0438 25.5163C21.0085 25.6431 20.9986 25.7756 21.0146 25.9062C21.0306 26.0368 21.0722 26.163 21.137 26.2776C21.2678 26.509 21.4851 26.6789 21.7412 26.75C22.361 26.9133 22.9991 26.9973 23.64 27C24.3675 27 25.1775 26.875 25.8263 26.4425C26.1463 26.2297 26.4152 25.9485 26.6136 25.6194C26.812 25.2902 26.935 24.9211 26.9737 24.5387C27.25 22.375 25.185 21.7712 23.9487 21.4137ZM5 14V5C5 4.46957 5.21071 3.96086 5.58579 3.58579C5.96086 3.21071 6.46957 3 7 3H19C19.1314 2.9999 19.2615 3.02568 19.3829 3.07586C19.5042 3.12605 19.6146 3.19967 19.7075 3.2925L26.7075 10.2925C26.8003 10.3854 26.8739 10.4958 26.9241 10.6172C26.9743 10.7385 27.0001 10.8686 27 11V14C27 14.2652 26.8946 14.5196 26.7071 14.7071C26.5196 14.8946 26.2652 15 26 15C25.7348 15 25.4804 14.8946 25.2929 14.7071C25.1054 14.5196 25 14.2652 25 14V12H19C18.7348 12 18.4804 11.8946 18.2929 11.7071C18.1054 11.5196 18 11.2652 18 11V5H7V14C7 14.2652 6.89464 14.5196 6.70711 14.7071C6.51957 14.8946 6.26522 15 6 15C5.73478 15 5.48043 14.8946 5.29289 14.7071C5.10536 14.5196 5 14.2652 5 14ZM20 10H23.585L20 6.41375V10Z" fill="#343330"/>
</svg>
