<svg width="32" height="32" viewBox="0 0 32 32" fill="none" xmlns="http://www.w3.org/2000/svg">
<path d="M21 11.9999H11C9.67391 11.9999 8.40214 12.5267 7.46446 13.4644C6.52678 14.4021 5.99999 15.6739 5.99999 16.9999V17.9999C5.99999 18.6566 6.12932 19.3067 6.38059 19.9134C6.63187 20.52 7.00017 21.0712 7.46446 21.5355C8.40214 22.4732 9.67391 22.9999 11 22.9999H21C21.6566 22.9999 22.3068 22.8706 22.9134 22.6193C23.52 22.3681 24.0712 21.9998 24.5355 21.5355C24.9998 21.0712 25.3681 20.52 25.6194 19.9134C25.8707 19.3067 26 18.6566 26 17.9999V16.9999C26 15.6739 25.4732 14.4021 24.5355 13.4644C23.5978 12.5267 22.3261 11.9999 21 11.9999ZM24 17.9999C24 18.7956 23.6839 19.5587 23.1213 20.1213C22.5587 20.6839 21.7956 20.9999 21 20.9999H11C10.2043 20.9999 9.44128 20.6839 8.87867 20.1213C8.31606 19.5587 7.99999 18.7956 7.99999 17.9999V16.9999C7.99999 16.2043 8.31606 15.4412 8.87867 14.8786C9.44128 14.316 10.2043 13.9999 11 13.9999H21C21.7956 13.9999 22.5587 14.316 23.1213 14.8786C23.6839 15.4412 24 16.2043 24 16.9999V17.9999ZM26 3.99995C25.1132 4.00079 24.2517 4.29575 23.5505 4.83862C22.8493 5.3815 22.3479 6.14163 22.125 6.99995H9.87499C9.63317 6.05546 9.05473 5.23181 8.24838 4.68379C7.44202 4.13577 6.46328 3.90112 5.49609 4.02394C4.52891 4.14676 3.63988 4.61859 2.99609 5.35075C2.3523 6.08291 1.99807 7.025 1.99999 7.99995V17.9999C2.00264 20.3861 2.9517 22.6737 4.63895 24.361C6.32621 26.0482 8.61386 26.9973 11 26.9999H21C23.3861 26.9973 25.6738 26.0482 27.361 24.361C29.0483 22.6737 29.9973 20.3861 30 17.9999V7.99995C30 6.93908 29.5786 5.92167 28.8284 5.17152C28.0783 4.42138 27.0609 3.99995 26 3.99995ZM28 17.9999C27.998 19.8559 27.2599 21.6352 25.9475 22.9475C24.6352 24.2598 22.8559 24.998 21 24.9999H11C9.14409 24.998 7.36476 24.2598 6.05244 22.9475C4.74011 21.6352 4.00198 19.8559 3.99999 17.9999V7.99995C3.99999 7.46952 4.21071 6.96081 4.58578 6.58574C4.96085 6.21066 5.46956 5.99995 5.99999 5.99995C6.53043 5.99995 7.03913 6.21066 7.41421 6.58574C7.78928 6.96081 7.99999 7.46952 7.99999 7.99995C7.99999 8.26517 8.10535 8.51952 8.29289 8.70706C8.48042 8.89459 8.73478 8.99995 8.99999 8.99995H23C23.2652 8.99995 23.5196 8.89459 23.7071 8.70706C23.8946 8.51952 24 8.26517 24 7.99995C24 7.46952 24.2107 6.96081 24.5858 6.58574C24.9609 6.21066 25.4696 5.99995 26 5.99995C26.5304 5.99995 27.0391 6.21066 27.4142 6.58574C27.7893 6.96081 28 7.46952 28 7.99995V17.9999ZM13 17.4999C13 17.7966 12.912 18.0866 12.7472 18.3333C12.5824 18.58 12.3481 18.7722 12.074 18.8858C11.7999 18.9993 11.4983 19.029 11.2074 18.9711C10.9164 18.9132 10.6491 18.7704 10.4393 18.5606C10.2296 18.3508 10.0867 18.0836 10.0288 17.7926C9.97094 17.5016 10.0006 17.2 10.1142 16.9259C10.2277 16.6518 10.42 16.4176 10.6666 16.2527C10.9133 16.0879 11.2033 15.9999 11.5 15.9999C11.8978 15.9999 12.2793 16.158 12.5607 16.4393C12.842 16.7206 13 17.1021 13 17.4999ZM22 17.4999C22 17.7966 21.912 18.0866 21.7472 18.3333C21.5824 18.58 21.3481 18.7722 21.074 18.8858C20.7999 18.9993 20.4983 19.029 20.2074 18.9711C19.9164 18.9132 19.6491 18.7704 19.4393 18.5606C19.2296 18.3508 19.0867 18.0836 19.0288 17.7926C18.9709 17.5016 19.0006 17.2 19.1142 16.9259C19.2277 16.6518 19.42 16.4176 19.6666 16.2527C19.9133 16.0879 20.2033 15.9999 20.5 15.9999C20.8978 15.9999 21.2793 16.158 21.5607 16.4393C21.842 16.7206 22 17.1021 22 17.4999Z" fill="#343330"/>
</svg>
