<svg width="32" height="32" viewBox="0 0 32 32" fill="none" xmlns="http://www.w3.org/2000/svg">
<path d="M21 9.50002C21 9.79669 20.912 10.0867 20.7472 10.3334C20.5824 10.5801 20.3481 10.7723 20.074 10.8858C19.7999 10.9994 19.4983 11.0291 19.2074 10.9712C18.9164 10.9133 18.6491 10.7705 18.4394 10.5607C18.2296 10.3509 18.0867 10.0836 18.0288 9.79266C17.971 9.50169 18.0007 9.20009 18.1142 8.926C18.2277 8.65191 18.42 8.41764 18.6667 8.25282C18.9133 8.088 19.2033 8.00002 19.5 8.00002C19.8978 8.00002 20.2794 8.15806 20.5607 8.43936C20.842 8.72067 21 9.1022 21 9.50002ZM24.9425 20.8463C21.56 24.2213 16.265 25.64 9.15251 25.09C9.35168 26.5767 9.63084 28.1421 9.99001 29.7863C10.0465 30.0454 9.99777 30.3163 9.85454 30.5394C9.71132 30.7626 9.48532 30.9197 9.22626 30.9763C9.15569 30.9921 9.08358 31.0001 9.01126 31C8.7835 30.9996 8.56271 30.9214 8.38542 30.7785C8.20812 30.6355 8.08494 30.4363 8.03626 30.2138C7.62709 28.3446 7.31918 26.5679 7.11251 24.8838C5.42918 24.6763 3.65376 24.3684 1.78626 23.96C1.52833 23.9022 1.30379 23.7446 1.16172 23.5217C1.01965 23.2988 0.971619 23.0287 1.02812 22.7705C1.08462 22.5123 1.24106 22.2869 1.46324 22.1437C1.68542 22.0005 1.95525 21.9511 2.21376 22.0063C3.85626 22.3646 5.42043 22.6438 6.90626 22.8438C6.35751 15.7325 7.78126 10.4388 11.1563 7.05752C16.625 1.57252 25.3038 3.11252 26.9875 3.47752C27.3635 3.55946 27.7081 3.74769 27.9802 4.01981C28.2523 4.29194 28.4406 4.6365 28.5225 5.01252C28.8875 6.69627 30.4288 15.375 24.9425 20.8463ZM23.0675 19.86C20.3169 19.4445 17.7718 18.1586 15.8054 16.1909C13.8391 14.2232 12.5549 11.6772 12.1413 8.92627C9.44501 11.97 8.37501 16.7088 8.92751 23.0688C15.2888 23.625 20.0275 22.555 23.0713 19.86H23.0675ZM26.5675 5.43627C24.5437 5.01787 22.4693 4.90077 20.4113 5.08877C17.8813 5.33877 15.7363 6.06752 14.005 7.27127C14.0738 10.0942 15.2255 12.7826 17.2218 14.7798C19.218 16.7769 21.9059 17.9299 24.7288 18C25.9313 16.2688 26.665 14.125 26.9113 11.5938C27.0985 9.53551 26.9827 7.46091 26.5675 5.43627Z" fill="#343330"/>
</svg>
