<svg width="32" height="32" viewBox="0 0 32 32" fill="none" xmlns="http://www.w3.org/2000/svg">
<path d="M21.0075 9.49247C21.0075 9.78915 20.9195 10.0792 20.7547 10.3258C20.5898 10.5725 20.3556 10.7648 20.0815 10.8783C19.8074 10.9918 19.5058 11.0215 19.2148 10.9637C18.9238 10.9058 18.6566 10.7629 18.4468 10.5531C18.237 10.3434 18.0942 10.0761 18.0363 9.78511C17.9784 9.49414 18.0081 9.19254 18.1216 8.91845C18.2352 8.64436 18.4274 8.41009 18.6741 8.24527C18.9208 8.08045 19.2108 7.99247 19.5075 7.99247C19.9053 7.99247 20.2868 8.15051 20.5681 8.43181C20.8494 8.71312 21.0075 9.09465 21.0075 9.49247ZM25.9912 19.6175C23.3962 22.9137 19.26 24.71 13.69 24.9637L10.94 31.3912C10.863 31.5723 10.7342 31.7267 10.5699 31.835C10.4056 31.9433 10.213 32.0007 10.0162 32H9.95245C9.74639 31.9871 9.54937 31.9107 9.38845 31.7813C9.22753 31.652 9.11059 31.476 9.0537 31.2775L7.20245 24.7962L0.724952 22.9412C0.525916 22.8853 0.349098 22.7691 0.218836 22.6086C0.088573 22.448 0.0112687 22.2511 -0.00243787 22.0448C-0.0161444 21.8385 0.0344207 21.633 0.142298 21.4567C0.250175 21.2803 0.410062 21.1417 0.599952 21.06L7.0287 18.31C7.2787 12.7387 9.07995 8.60247 12.3775 6.00872C17.7787 1.75872 25.4912 3.15497 26.9825 3.47747C27.3581 3.55865 27.7025 3.74636 27.9743 4.01815C28.2461 4.28993 28.4338 4.63428 28.515 5.00997C28.845 6.49997 30.2425 14.22 25.9912 19.625V19.6175ZM20.2 21.5762C19.0439 21.1359 18.0372 20.3755 17.2974 19.3841C16.5576 18.3926 16.1154 17.211 16.0225 15.9775C14.7892 15.8847 13.6078 15.4427 12.6166 14.7031C11.6253 13.9635 10.8651 12.957 10.425 11.8012C9.54995 13.7837 9.07995 16.19 9.01245 19.0037C9.00779 19.1953 8.94816 19.3815 8.84068 19.5402C8.7332 19.6989 8.58239 19.8233 8.4062 19.8987L3.97995 21.7925L8.28745 23.0262C8.45069 23.0729 8.59935 23.1605 8.71941 23.2805C8.83947 23.4006 8.92698 23.5492 8.9737 23.7125L10.2037 28.02L12.1012 23.5937C12.1769 23.417 12.3019 23.2658 12.4613 23.1582C12.6207 23.0507 12.8077 22.9914 13 22.9875C15.81 22.9212 18.2162 22.4487 20.2 21.5762ZM26.5662 5.43372C25.2287 5.14372 18.3162 3.88497 13.62 7.58122C13.028 8.04773 12.4901 8.57894 12.0162 9.16497C11.9682 9.8184 12.0635 10.4744 12.2954 11.0872C12.5273 11.7 12.8902 12.2547 13.3587 12.7127C13.8273 13.1706 14.3902 13.5207 15.0081 13.7386C15.626 13.9564 16.284 14.0366 16.9362 13.9737C17.0828 13.9598 17.2307 13.9785 17.3692 14.0283C17.5078 14.0782 17.6337 14.158 17.7378 14.2621C17.8419 14.3663 17.9218 14.4921 17.9716 14.6307C18.0215 14.7693 18.0401 14.9171 18.0262 15.0637C17.9632 15.7161 18.0436 16.3744 18.2615 16.9925C18.4795 17.6106 18.8298 18.1736 19.2881 18.6422C19.7463 19.1108 20.3014 19.4737 20.9144 19.7054C21.5275 19.9371 22.1838 20.0321 22.8375 19.9837C23.4227 19.5107 23.953 18.9736 24.4187 18.3825C28.115 13.6862 26.8562 6.77247 26.5662 5.43372Z" fill="#343330"/>
</svg>
