<svg width="32" height="32" viewBox="0 0 32 32" fill="none" xmlns="http://www.w3.org/2000/svg">
<path d="M27.415 5.09375C27.2404 5.01449 27.0468 4.98707 26.8571 5.01477C26.6674 5.04248 26.4896 5.12413 26.345 5.25C22.845 8.2775 19.88 6.81 16.4438 5.10875C12.8838 3.345 8.8475 1.34875 4.345 5.25C4.23742 5.34325 4.15099 5.4584 4.09149 5.58774C4.032 5.71708 4.0008 5.85763 4 6V27C4 27.2652 4.10536 27.5196 4.29289 27.7071C4.48043 27.8946 4.73478 28 5 28C5.26522 28 5.51957 27.8946 5.70711 27.7071C5.89464 27.5196 6 27.2652 6 27V21.4713C9.34875 18.8263 12.2337 20.2525 15.5562 21.8975C19.1175 23.6588 23.1525 25.655 27.655 21.7563C27.7626 21.663 27.849 21.5479 27.9085 21.4185C27.968 21.2892 27.9992 21.1486 28 21.0063V6C27.9993 5.80883 27.9438 5.62186 27.8402 5.46124C27.7365 5.30062 27.5889 5.17309 27.415 5.09375ZM26 7.95V13.5313C24.25 14.9138 22.625 15.1838 21 14.8913V8.9175C22.7285 9.18752 24.497 8.84531 26 7.95ZM19 8.42V14.295C18.1675 13.9613 17.3212 13.545 16.4438 13.1088C15.3413 12.5638 14.1938 11.9963 13 11.5875V5.7125C13.8325 6.045 14.6788 6.4625 15.5562 6.8975C16.6587 7.44375 17.8075 8.01125 19 8.42ZM11 5.11375V11.0863C9.27137 10.8167 7.50288 11.1594 6 12.055V6.4725C7.75 5.09 9.375 4.82125 11 5.11375ZM9.8225 18C8.47692 18.0023 7.15671 18.3663 6 19.0538V14.4725C7.75 13.09 9.375 12.82 11 13.1125V18.0875C10.6101 18.0301 10.2166 18.0008 9.8225 18ZM13 18.5838V13.7088C13.8325 14.0413 14.6788 14.4588 15.5562 14.8938C16.6587 15.44 17.8062 16.0063 19 16.415V21.29C18.1675 20.9563 17.3212 20.54 16.4438 20.105C15.3413 19.5588 14.1925 18.9925 13 18.5838ZM21 21.89V16.915C21.3898 16.9733 21.7833 17.0033 22.1775 17.005C23.5235 17.0008 24.8437 16.6352 26 15.9463V20.5313C24.25 21.9138 22.625 22.1825 21 21.89Z" fill="#343330"/>
</svg>
