<svg width="32" height="32" viewBox="0 0 32 32" fill="none" xmlns="http://www.w3.org/2000/svg">
<path d="M28.845 6.46625C28.7549 6.32355 28.6302 6.20596 28.4825 6.12444C28.3347 6.04292 28.1688 6.00011 28 6H4C3.7984 5.99982 3.60145 6.06058 3.43498 6.1743C3.26852 6.28803 3.14032 6.44942 3.0672 6.63729C2.99407 6.82517 2.97944 7.03076 3.02523 7.2271C3.07101 7.42343 3.17507 7.60135 3.32375 7.7375L8.585 12.5588L3.265 18.3213C3.133 18.4641 3.0455 18.6423 3.01323 18.8341C2.98096 19.0259 3.00532 19.2229 3.08332 19.4011C3.16133 19.5792 3.28959 19.7308 3.4524 19.8372C3.61522 19.9435 3.80552 20.0001 4 20H20.7025L17.0975 27.57C17.0372 27.689 17.0013 27.8188 16.992 27.9518C16.9826 28.0849 17 28.2185 17.043 28.3447C17.0861 28.4709 17.1539 28.5873 17.2426 28.6869C17.3313 28.7865 17.439 28.8674 17.5594 28.9248C17.6798 28.9821 17.8105 29.0148 17.9437 29.0209C18.0769 29.0271 18.21 29.0065 18.3352 28.9604C18.4603 28.9143 18.575 28.8436 18.6724 28.7525C18.7699 28.6614 18.8481 28.5518 18.9025 28.43L28.9025 7.43C28.975 7.27756 29.0078 7.10924 28.9978 6.94073C28.9877 6.77221 28.9352 6.60898 28.845 6.46625ZM21.6538 18H6.27875L10.73 13.1788C10.8194 13.082 10.8888 12.9686 10.9343 12.845C10.9798 12.7214 11.0004 12.59 10.9949 12.4584C10.9894 12.3268 10.958 12.1976 10.9025 12.0782C10.847 11.9587 10.7684 11.8515 10.6713 11.7625L6.57125 8H26.4163L21.6538 18Z" fill="#343330"/>
</svg>
