<svg width="32" height="32" viewBox="0 0 32 32" fill="none" xmlns="http://www.w3.org/2000/svg">
<path d="M4.345 5.25C4.23742 5.34325 4.15099 5.45839 4.09149 5.58773C4.032 5.71708 4.0008 5.85763 4 6V27C4 27.2652 4.10536 27.5196 4.29289 27.7071C4.48043 27.8946 4.73478 28 5 28C5.26522 28 5.51957 27.8946 5.70711 27.7071C5.89464 27.5196 6 27.2652 6 27V21.4712C9.34875 18.8262 12.2337 20.2525 15.5562 21.8975C17.6062 22.9112 19.8137 24.0037 22.1812 24.0037C23.9225 24.0037 25.7488 23.41 27.6588 21.7537C27.7663 21.6605 27.8528 21.5454 27.9123 21.416C27.9718 21.2867 28.0029 21.1461 28.0037 21.0037V6C28.0033 5.80805 27.9476 5.6203 27.8433 5.45914C27.7391 5.29799 27.5906 5.17025 27.4157 5.09117C27.2408 5.01209 27.0469 4.98502 26.857 5.01318C26.6672 5.04134 26.4894 5.12355 26.345 5.25C22.845 8.27875 19.88 6.81125 16.4438 5.11C12.8838 3.345 8.8475 1.34875 4.345 5.25ZM26 20.5312C22.6512 23.1762 19.7663 21.7487 16.4438 20.105C13.3188 18.5612 9.8425 16.8387 6 19.055V6.47375C9.34875 3.82875 12.2337 5.255 15.5562 6.89875C18.6812 8.4425 22.1588 10.165 26 7.94875V20.5312Z" fill="#343330"/>
</svg>
