<svg width="32" height="32" viewBox="0 0 32 32" fill="none" xmlns="http://www.w3.org/2000/svg">
<path d="M27.4137 10L22 4.58625C21.815 4.39972 21.5947 4.25184 21.352 4.1512C21.1093 4.05055 20.849 3.99916 20.5863 4H6C5.46957 4 4.96086 4.21071 4.58579 4.58579C4.21071 4.96086 4 5.46957 4 6V26C4 26.5304 4.21071 27.0391 4.58579 27.4142C4.96086 27.7893 5.46957 28 6 28H26C26.5304 28 27.0391 27.7893 27.4142 27.4142C27.7893 27.0391 28 26.5304 28 26V11.4137C28.0008 11.151 27.9494 10.8907 27.8488 10.648C27.7482 10.4053 27.6003 10.185 27.4137 10ZM21 26H11V19H21V26ZM26 26H23V19C23 18.4696 22.7893 17.9609 22.4142 17.5858C22.0391 17.2107 21.5304 17 21 17H11C10.4696 17 9.96086 17.2107 9.58579 17.5858C9.21071 17.9609 9 18.4696 9 19V26H6V6H20.5863L26 11.4137V26ZM20 9C20 9.26521 19.8946 9.51957 19.7071 9.70711C19.5196 9.89464 19.2652 10 19 10H12C11.7348 10 11.4804 9.89464 11.2929 9.70711C11.1054 9.51957 11 9.26521 11 9C11 8.73478 11.1054 8.48043 11.2929 8.29289C11.4804 8.10536 11.7348 8 12 8H19C19.2652 8 19.5196 8.10536 19.7071 8.29289C19.8946 8.48043 20 8.73478 20 9Z" fill="#343330"/>
</svg>
