<svg width="32" height="32" viewBox="0 0 32 32" fill="none" xmlns="http://www.w3.org/2000/svg">
<path d="M30.7075 9.29251L26.7075 5.29251C26.5199 5.10487 26.2654 4.99945 26 4.99945C25.7346 4.99945 25.4801 5.10487 25.2925 5.29251C25.1049 5.48015 24.9994 5.73464 24.9994 6.00001C24.9994 6.26537 25.1049 6.51987 25.2925 6.70751L27.5862 9.00001H24C22.7749 9.0444 21.5706 9.33029 20.4562 9.84126C18.7537 10.6275 16.6025 12.305 16.0137 15.8413C15.3487 19.8338 12.3762 20.7438 10.8887 20.9488C10.6265 19.7381 9.92412 18.6679 8.91781 17.9455C7.91149 17.2232 6.67285 16.9001 5.44191 17.0389C4.21096 17.1777 3.07536 17.7685 2.25516 18.6968C1.43495 19.6251 0.988537 20.8248 1.00242 22.0634C1.0163 23.3021 1.48949 24.4915 2.3303 25.4012C3.17111 26.3109 4.31966 26.8761 5.55341 26.9872C6.78715 27.0984 8.01824 26.7476 9.00811 26.0029C9.99799 25.2582 10.6762 24.1725 10.9112 22.9563C11.8103 22.8538 12.6886 22.6157 13.5162 22.25C15.2187 21.5 17.375 19.825 17.9862 16.1638C18.8312 11.0963 23.7925 11 24 11H27.5862L25.2925 13.2925C25.1049 13.4801 24.9994 13.7346 24.9994 14C24.9994 14.2654 25.1049 14.5199 25.2925 14.7075C25.4801 14.8951 25.7346 15.0006 26 15.0006C26.2654 15.0006 26.5199 14.8951 26.7075 14.7075L30.7075 10.7075C30.8005 10.6146 30.8742 10.5043 30.9246 10.3829C30.9749 10.2615 31.0008 10.1314 31.0008 10C31.0008 9.86859 30.9749 9.73846 30.9246 9.61707C30.8742 9.49567 30.8005 9.38538 30.7075 9.29251ZM6 25C5.40665 25 4.82663 24.8241 4.33329 24.4944C3.83994 24.1648 3.45542 23.6962 3.22836 23.1481C3.0013 22.5999 2.94189 21.9967 3.05764 21.4147C3.1734 20.8328 3.45912 20.2982 3.87868 19.8787C4.29824 19.4591 4.83278 19.1734 5.41473 19.0577C5.99667 18.9419 6.59987 19.0013 7.14805 19.2284C7.69623 19.4554 8.16476 19.8399 8.49441 20.3333C8.82405 20.8266 9 21.4067 9 22C9 22.7957 8.68393 23.5587 8.12132 24.1213C7.55871 24.6839 6.79565 25 6 25Z" fill="#343330"/>
</svg>
