<svg width="32" height="32" viewBox="0 0 32 32" fill="none" xmlns="http://www.w3.org/2000/svg">
<path d="M26.8263 24.8275C27.3861 24.2683 27.7675 23.5555 27.9222 22.7795C28.0769 22.0034 27.9979 21.199 27.6953 20.4678C27.3927 19.7366 26.88 19.1117 26.2221 18.6719C25.5642 18.2322 24.7907 17.9975 23.9994 17.9975C23.2081 17.9975 22.4345 18.2322 21.7766 18.6719C21.1187 19.1117 20.6061 19.7366 20.3034 20.4678C20.0008 21.199 19.9219 22.0034 20.0766 22.7795C20.2313 23.5555 20.6127 24.2683 21.1725 24.8275C20.1209 25.4984 19.3581 26.5381 19.0338 27.7425C18.9655 27.9988 19.0018 28.2717 19.1347 28.5012C19.2676 28.7306 19.4862 28.8979 19.7425 28.9662C19.8265 28.9884 19.9131 28.9998 20 29C20.2205 28.9999 20.4348 28.9269 20.6096 28.7924C20.7844 28.6579 20.9097 28.4694 20.9662 28.2562C21.32 26.9275 22.5675 26 24 26C25.4325 26 26.68 26.9275 27.0338 28.2562C27.0654 28.3854 27.1225 28.5069 27.2017 28.6137C27.2809 28.7205 27.3806 28.8104 27.4949 28.8783C27.6093 28.9461 27.736 28.9904 27.8677 29.0086C27.9994 29.0269 28.1334 29.0187 28.2619 28.9845C28.3904 28.9504 28.5108 28.8909 28.616 28.8097C28.7213 28.7285 28.8093 28.6271 28.8749 28.5114C28.9404 28.3957 28.9823 28.2682 28.998 28.1362C29.0137 28.0041 29.0029 27.8703 28.9662 27.7425C28.6416 26.5379 27.8783 25.4981 26.8263 24.8275ZM24 20C24.3956 20 24.7822 20.1173 25.1111 20.3371C25.44 20.5568 25.6964 20.8692 25.8478 21.2346C25.9991 21.6001 26.0387 22.0022 25.9616 22.3902C25.8844 22.7781 25.6939 23.1345 25.4142 23.4142C25.1345 23.6939 24.7781 23.8844 24.3902 23.9616C24.0022 24.0387 23.6001 23.9991 23.2346 23.8478C22.8692 23.6964 22.5568 23.44 22.3371 23.1111C22.1173 22.7822 22 22.3956 22 22C22 21.4696 22.2107 20.9609 22.5858 20.5858C22.9609 20.2107 23.4696 20 24 20ZM27 8.99999H16.4137L13 5.58624C12.815 5.39972 12.5947 5.25184 12.352 5.15119C12.1093 5.05055 11.849 4.99916 11.5863 4.99999H5C4.46957 4.99999 3.96086 5.21071 3.58579 5.58578C3.21071 5.96085 3 6.46956 3 6.99999V25.0762C3.00033 25.5861 3.20295 26.0751 3.56338 26.4357C3.92381 26.7964 4.41261 26.9993 4.9225 27H15.07C15.3352 27 15.5896 26.8946 15.7771 26.7071C15.9646 26.5196 16.07 26.2652 16.07 26C16.07 25.7348 15.9646 25.4804 15.7771 25.2929C15.5896 25.1054 15.3352 25 15.07 25H5V11H27V15C27 15.2652 27.1054 15.5196 27.2929 15.7071C27.4804 15.8946 27.7348 16 28 16C28.2652 16 28.5196 15.8946 28.7071 15.7071C28.8946 15.5196 29 15.2652 29 15V11C29 10.4696 28.7893 9.96085 28.4142 9.58578C28.0391 9.21071 27.5304 8.99999 27 8.99999ZM11.5863 6.99999L13.5863 8.99999H5V6.99999H11.5863Z" fill="#343330"/>
</svg>
