<svg width="32" height="32" viewBox="0 0 32 32" fill="none" xmlns="http://www.w3.org/2000/svg">
<path d="M27 9H16.4137L13 5.58625C12.815 5.39972 12.5947 5.25184 12.352 5.1512C12.1093 5.05056 11.849 4.99916 11.5863 5H5C4.46957 5 3.96086 5.21071 3.58579 5.58579C3.21071 5.96086 3 6.46957 3 7V25.0775C3.00066 25.5872 3.20342 26.0758 3.56382 26.4362C3.92421 26.7966 4.41282 26.9993 4.9225 27H27.1112C27.612 26.9993 28.092 26.8001 28.4461 26.4461C28.8001 26.092 28.9993 25.612 29 25.1112V11C29 10.4696 28.7893 9.96086 28.4142 9.58579C28.0391 9.21071 27.5304 9 27 9ZM5 7H11.5863L13.5863 9H5V7ZM27 25H5V11H27V25Z" fill="#343330"/>
</svg>
