<svg width="32" height="32" viewBox="0 0 32 32" fill="none" xmlns="http://www.w3.org/2000/svg">
<path d="M25 2.99999H15.4138C15.151 2.99916 14.8907 3.05055 14.648 3.15119C14.4053 3.25184 14.185 3.39972 14 3.58624L12.7075 4.87499L11.4138 3.58624C11.0387 3.21146 10.5302 3.00092 10 3.00092C9.46979 3.00092 8.96129 3.21146 8.58625 3.58624L5.58625 6.58624C5.21146 6.96128 5.00093 7.46979 5.00093 7.99999C5.00093 8.5302 5.21146 9.03871 5.58625 9.41374L6.875 10.7075L5.58625 12C5.39972 12.185 5.25184 12.4053 5.1512 12.648C5.05056 12.8907 4.99916 13.151 5 13.4137V27C5 27.5304 5.21071 28.0391 5.58579 28.4142C5.96086 28.7893 6.46957 29 7 29H25C25.5304 29 26.0391 28.7893 26.4142 28.4142C26.7893 28.0391 27 27.5304 27 27V4.99999C27 4.46956 26.7893 3.96085 26.4142 3.58578C26.0391 3.21071 25.5304 2.99999 25 2.99999ZM7 7.99999L10 4.99999L11.2925 6.29249L8.2925 9.29249L7 7.99999ZM25 27H7V13.4137L9 11.4137L15.4138 4.99999H25V27ZM16 7.99999C16 7.73478 16.1054 7.48042 16.2929 7.29289C16.4804 7.10535 16.7348 6.99999 17 6.99999H22C22.2652 6.99999 22.5196 7.10535 22.7071 7.29289C22.8946 7.48042 23 7.73478 23 7.99999C23 8.26521 22.8946 8.51957 22.7071 8.7071C22.5196 8.89464 22.2652 8.99999 22 8.99999H17C16.7348 8.99999 16.4804 8.89464 16.2929 8.7071C16.1054 8.51957 16 8.26521 16 7.99999ZM22.6 15.8L17.6663 19.5L22.6 23.2C22.7051 23.2788 22.7936 23.3775 22.8605 23.4905C22.9274 23.6035 22.9714 23.7286 22.99 23.8586C23.0085 23.9886 23.0013 24.121 22.9687 24.2482C22.9361 24.3754 22.8788 24.4949 22.8 24.6C22.7212 24.7051 22.6225 24.7936 22.5095 24.8605C22.3965 24.9274 22.2714 24.9714 22.1414 24.9899C22.0114 25.0085 21.879 25.0013 21.7518 24.9687C21.6246 24.9361 21.5051 24.8788 21.4 24.8L16 20.75L10.6 24.8C10.3878 24.9591 10.1211 25.0275 9.85858 24.9899C9.59603 24.9524 9.35913 24.8122 9.2 24.6C9.04087 24.3878 8.97254 24.1211 9.01005 23.8586C9.04756 23.596 9.18783 23.3591 9.4 23.2L14.3338 19.5L9.4 15.8C9.18783 15.6409 9.04756 15.404 9.01005 15.1414C8.97254 14.8789 9.04087 14.6122 9.2 14.4C9.35913 14.1878 9.59603 14.0476 9.85858 14.01C10.1211 13.9725 10.3878 14.0409 10.6 14.2L16 18.25L21.4 14.2C21.6122 14.0409 21.8789 13.9725 22.1414 14.01C22.404 14.0476 22.6409 14.1878 22.8 14.4C22.9591 14.6122 23.0275 14.8789 22.99 15.1414C22.9524 15.404 22.8122 15.6409 22.6 15.8Z" fill="#343330"/>
</svg>
