<svg width="32" height="32" viewBox="0 0 32 32" fill="none" xmlns="http://www.w3.org/2000/svg">
<path d="M27 4H21C20.7348 4 20.4804 4.10536 20.2929 4.29289C20.1054 4.48043 20 4.73478 20 5C20 5.26522 20.1054 5.51957 20.2929 5.70711C20.4804 5.89464 20.7348 6 21 6H24.5863L21 9.58625L18.7075 7.29375C18.6147 7.20084 18.5045 7.12712 18.3831 7.07681C18.2618 7.02649 18.1318 7.00057 18.0004 7.00051C17.8691 7.00045 17.739 7.02626 17.6177 7.07647C17.4963 7.12668 17.386 7.2003 17.2931 7.29313C17.2002 7.38595 17.1265 7.49617 17.0762 7.61749C17.0259 7.73881 16.9999 7.86885 16.9999 8.00018C16.9998 8.13152 17.0256 8.26158 17.0758 8.38294C17.1261 8.50431 17.1997 8.61459 17.2925 8.7075L19.5863 11L17.6163 12.97C15.8198 11.5365 13.5428 10.8452 11.2526 11.0381C8.96246 11.231 6.83308 12.2934 5.30176 14.0072C3.77043 15.721 2.9534 17.956 3.01844 20.2534C3.08348 22.5507 4.02566 24.7359 5.65149 26.3603C7.27732 27.9847 9.4634 28.925 11.7608 28.988C14.0582 29.051 16.2925 28.232 18.0049 26.6992C19.7174 25.1663 20.7779 23.036 20.9688 20.7457C21.1596 18.4554 20.4663 16.1789 19.0313 14.3837L21 12.4163L23.2925 14.7087C23.48 14.8964 23.7343 15.0019 23.9996 15.002C24.2648 15.0021 24.5192 14.8969 24.7069 14.7094C24.8945 14.5219 25 14.2676 25.0001 14.0023C25.0002 13.7371 24.895 13.4826 24.7075 13.295L22.4138 11L26 7.415V11C26 11.2652 26.1054 11.5196 26.2929 11.7071C26.4804 11.8946 26.7348 12 27 12C27.2652 12 27.5196 11.8946 27.7071 11.7071C27.8946 11.5196 28 11.2652 28 11V5C28 4.73478 27.8946 4.48043 27.7071 4.29289C27.5196 4.10536 27.2652 4 27 4ZM16.95 24.9538C15.805 26.0988 14.2985 26.8116 12.687 26.9705C11.0755 27.1294 9.4587 26.7247 8.11212 25.8253C6.76553 24.9259 5.77241 23.5875 5.30195 22.038C4.83148 20.4885 4.91277 18.8239 5.53197 17.3276C6.15116 15.8313 7.26996 14.596 8.69776 13.8321C10.1256 13.0682 11.7741 12.8229 13.3624 13.1381C14.9508 13.4533 16.3807 14.3094 17.4087 15.5606C18.4366 16.8118 18.999 18.3807 19 20C19 21.8576 18.2627 23.6394 16.95 24.9538Z" fill="#343330"/>
</svg>
