<svg width="32" height="32" viewBox="0 0 32 32" fill="none" xmlns="http://www.w3.org/2000/svg">
<path d="M26 14C25.1132 14.0008 24.2517 14.2958 23.5505 14.8387C22.8493 15.3815 22.3479 16.1417 22.125 17H19C18.2241 16.9982 17.4592 16.8166 16.7652 16.4696C16.0712 16.1226 15.467 15.6196 15 15L11.7112 10.615C12.5614 10.2116 13.2421 9.52147 13.6337 8.66585C14.0253 7.81023 14.1028 6.84394 13.8524 5.93688C13.602 5.02981 13.0399 4.24005 12.2649 3.70645C11.4898 3.17285 10.5514 2.92958 9.61475 3.0194C8.67807 3.10923 7.80304 3.5264 7.14351 4.19757C6.48399 4.86874 6.0822 5.75094 6.00878 6.68906C5.93536 7.62717 6.19503 8.56113 6.74211 9.32673C7.2892 10.0923 8.08868 10.6405 8.99999 10.875V21.125C8.05733 21.3684 7.2358 21.9472 6.68938 22.753C6.14297 23.5588 5.90919 24.5362 6.03187 25.502C6.15454 26.4678 6.62525 27.3557 7.35575 27.9993C8.08626 28.6429 9.02641 28.998 9.99999 28.998C10.9736 28.998 11.9137 28.6429 12.6442 27.9993C13.3747 27.3557 13.8454 26.4678 13.9681 25.502C14.0908 24.5362 13.857 23.5588 13.3106 22.753C12.7642 21.9472 11.9426 21.3684 11 21.125V13L13.4 16.2C14.0538 17.0675 14.8996 17.7718 15.8712 18.2576C16.8428 18.7434 17.9137 18.9975 19 19H22.125C22.312 19.7243 22.6984 20.3816 23.2402 20.8974C23.7821 21.4131 24.4577 21.7666 25.1903 21.9176C25.9229 22.0686 26.6833 22.0112 27.3849 21.7519C28.0865 21.4925 28.7014 21.0415 29.1596 20.4503C29.6179 19.859 29.9011 19.1511 29.9772 18.4069C30.0533 17.6628 29.9192 16.9122 29.5902 16.2404C29.2611 15.5686 28.7502 15.0026 28.1156 14.6065C27.481 14.2105 26.748 14.0004 26 14ZM7.99999 7C7.99999 6.60443 8.11728 6.21775 8.33705 5.88885C8.55681 5.55996 8.86917 5.30361 9.23462 5.15224C9.60007 5.00086 10.0022 4.96125 10.3902 5.03842C10.7781 5.11559 11.1345 5.30608 11.4142 5.58578C11.6939 5.86549 11.8844 6.22185 11.9616 6.60981C12.0387 6.99778 11.9991 7.39991 11.8477 7.76536C11.6964 8.13081 11.44 8.44317 11.1111 8.66293C10.7822 8.8827 10.3955 9 9.99999 9C9.46955 9 8.96085 8.78928 8.58577 8.41421C8.2107 8.03914 7.99999 7.53043 7.99999 7ZM12 25C12 25.3956 11.8827 25.7822 11.6629 26.1111C11.4432 26.44 11.1308 26.6964 10.7654 26.8478C10.3999 26.9991 9.99777 27.0387 9.60981 26.9616C9.22184 26.8844 8.86548 26.6939 8.58577 26.4142C8.30607 26.1345 8.11559 25.7781 8.03842 25.3902C7.96125 25.0022 8.00085 24.6001 8.15223 24.2346C8.3036 23.8692 8.55995 23.5568 8.88885 23.3371C9.21774 23.1173 9.60442 23 9.99999 23C10.5304 23 11.0391 23.2107 11.4142 23.5858C11.7893 23.9609 12 24.4696 12 25ZM26 20C25.6044 20 25.2177 19.8827 24.8888 19.6629C24.5599 19.4432 24.3036 19.1308 24.1522 18.7654C24.0009 18.3999 23.9612 17.9978 24.0384 17.6098C24.1156 17.2219 24.3061 16.8655 24.5858 16.5858C24.8655 16.3061 25.2218 16.1156 25.6098 16.0384C25.9978 15.9613 26.3999 16.0009 26.7654 16.1522C27.1308 16.3036 27.4432 16.56 27.6629 16.8889C27.8827 17.2178 28 17.6044 28 18C28 18.5304 27.7893 19.0391 27.4142 19.4142C27.0391 19.7893 26.5304 20 26 20Z" fill="#343330"/>
</svg>
