<svg width="48" height="48" viewBox="0 0 48 48" fill="none" xmlns="http://www.w3.org/2000/svg">
<g clip-path="url(#clip0_196_11178)">
<path d="M24 42C33.9411 42 42 33.9411 42 24C42 14.0589 33.9411 6 24 6C14.0589 6 6 14.0589 6 24C6 33.9411 14.0589 42 24 42Z" stroke="black" stroke-width="2" stroke-linecap="round" stroke-linejoin="round"/>
<path d="M14.2275 23.1113L16.725 18.75C16.8568 18.5217 17.0465 18.3321 17.275 18.2004C17.5034 18.0688 17.7625 17.9996 18.0262 18H21.1594C21.4127 18.0004 21.6619 17.9359 21.8831 17.8125L24.1875 16.545C24.2889 16.4905 24.3828 16.423 24.4669 16.3444L29.5144 11.7825C29.7655 11.5541 29.9317 11.2473 29.9859 10.9121C30.04 10.577 29.9789 10.2334 29.8125 9.93752L27.8437 6.41064" stroke="black" stroke-width="2" stroke-linecap="round" stroke-linejoin="round"/>
<path d="M12.7087 9.98047L10.5 15.2023C10.3508 15.5558 10.3427 15.9531 10.4775 16.3123L12.6337 22.063C12.7223 22.2979 12.8685 22.5069 13.0588 22.6707C13.2492 22.8345 13.4776 22.9479 13.7231 23.0005L17.7412 23.8648C17.9641 23.9126 18.1731 24.0106 18.3525 24.1513C18.5318 24.292 18.6767 24.4717 18.7762 24.6767L19.4887 26.1523C19.6116 26.4058 19.8035 26.6196 20.0422 26.7692C20.281 26.9187 20.557 26.998 20.8387 26.998H23.4262" stroke="black" stroke-width="2" stroke-linecap="round" stroke-linejoin="round"/>
<path d="M39.9544 32.3399L30.1331 26.2987C29.9545 26.1898 29.7554 26.119 29.5481 26.0906L25.2694 25.5131C24.948 25.4696 24.6212 25.5314 24.3379 25.6892C24.0547 25.8471 23.8302 26.0925 23.6981 26.3887L21.1294 32.1524C21.01 32.4207 20.9719 32.718 21.0199 33.0076C21.0679 33.2973 21.1999 33.5665 21.3994 33.7818L25.1006 37.5937C25.2611 37.7662 25.3786 37.9741 25.4438 38.2005C25.5089 38.4269 25.5198 38.6654 25.4756 38.8968L24.8813 41.9793" stroke="black" stroke-width="2" stroke-linecap="round" stroke-linejoin="round"/>
</g>
<defs>
<clipPath id="clip0_196_11178">
<rect width="48" height="48" fill="white"/>
</clipPath>
</defs>
</svg>
