<svg width="32" height="32" viewBox="0 0 32 32" fill="none" xmlns="http://www.w3.org/2000/svg">
<path d="M27.9775 14.2738L7.00005 2.27C6.69423 2.09167 6.34656 1.9977 5.99255 1.9977C5.63853 1.9977 5.29086 2.09167 4.98505 2.27C4.68375 2.44277 4.43376 2.69249 4.26069 2.99361C4.08762 3.29474 3.99767 3.63644 4.00005 3.98375V28.0163C3.99905 28.3632 4.09018 28.7042 4.26411 29.0044C4.43805 29.3046 4.68856 29.5533 4.99005 29.725C5.29586 29.9033 5.64353 29.9973 5.99755 29.9973C6.35156 29.9973 6.69923 29.9033 7.00505 29.725L27.9775 17.725C28.287 17.5553 28.5452 17.3055 28.725 17.0018C28.9048 16.6981 28.9997 16.3517 28.9997 15.9988C28.9997 15.6458 28.9048 15.2994 28.725 14.9957C28.5452 14.692 28.287 14.4422 27.9775 14.2725V14.2738ZM6.00005 26.5837V5.41625L16.5863 16L6.00005 26.5837ZM18 17.4138L20.365 19.7787L9.30255 26.1112L18 17.4138ZM9.30005 5.8875L20.3663 12.2213L18 14.5863L9.30005 5.8875ZM22.1638 18.75L19.4138 16L22.1638 13.25L26.9675 16L22.1638 18.75Z" fill="#343330"/>
</svg>
