<svg width="32" height="32" viewBox="0 0 32 32" fill="none" xmlns="http://www.w3.org/2000/svg">
<path d="M28 16C28.0001 18.8255 27.0032 21.5605 25.1849 23.7232C23.3665 25.8859 20.8433 27.3376 18.0597 27.8225C15.2761 28.3075 12.4106 27.7947 9.96801 26.3744C7.52539 24.9541 5.66229 22.7174 4.70686 20.0583C3.75142 17.3992 3.76495 14.4883 4.74505 11.8382C5.72516 9.18805 7.60897 6.96878 10.0647 5.57124C12.5204 4.1737 15.3905 3.68754 18.1695 4.19837C20.9485 4.7092 23.4581 6.18426 25.2563 8.36375C25.3455 8.4642 25.4136 8.58161 25.4565 8.70897C25.4994 8.83633 25.5162 8.97102 25.5058 9.10501C25.4955 9.23899 25.4582 9.36952 25.3963 9.48879C25.3344 9.60806 25.2491 9.71363 25.1455 9.79919C25.0418 9.88475 24.922 9.94854 24.7932 9.98676C24.6643 10.025 24.5291 10.0368 24.3956 10.0216C24.2621 10.0064 24.133 9.96445 24.0161 9.89824C23.8991 9.83203 23.7967 9.74292 23.715 9.63625C22.2442 7.8529 20.201 6.63417 17.933 6.1874C15.665 5.74062 13.3122 6.09339 11.275 7.18569C9.23769 8.27799 7.64178 10.0424 6.7587 12.1786C5.87562 14.3149 5.75992 16.6912 6.43128 18.9032C7.10265 21.1151 8.51961 23.0262 10.4411 24.3112C12.3626 25.5963 14.67 26.176 16.9707 25.9516C19.2714 25.7273 21.4233 24.7128 23.0604 23.0808C24.6975 21.4488 25.7186 19.3 25.95 17H16C15.7348 17 15.4804 16.8946 15.2929 16.7071C15.1054 16.5196 15 16.2652 15 16C15 15.7348 15.1054 15.4804 15.2929 15.2929C15.4804 15.1054 15.7348 15 16 15H27C27.2652 15 27.5196 15.1054 27.7071 15.2929C27.8946 15.4804 28 15.7348 28 16Z" fill="#343330"/>
</svg>
