<svg width="16" height="17" viewBox="0 0 16 17" fill="none" xmlns="http://www.w3.org/2000/svg">
<path d="M10.6875 6.375H15.0625M10.6875 11.375H15.0625M3.8125 4.5V2C3.8125 1.83424 3.87835 1.67527 3.99556 1.55806C4.11277 1.44085 4.27174 1.375 4.4375 1.375H14.4375C14.6033 1.375 14.7622 1.44085 14.8794 1.55806C14.9967 1.67527 15.0625 1.83424 15.0625 2V15.75C15.0625 15.9158 14.9967 16.0747 14.8794 16.1919C14.7622 16.3092 14.6033 16.375 14.4375 16.375H4.4375C4.27174 16.375 4.11277 16.3092 3.99556 16.1919C3.87835 16.0747 3.8125 15.9158 3.8125 15.75V13.25M9.4375 13.25V16.375M9.4375 1.375V4.5M1.9375 4.5H10.0625C10.4077 4.5 10.6875 4.77982 10.6875 5.125V12.625C10.6875 12.9702 10.4077 13.25 10.0625 13.25H1.9375C1.59232 13.25 1.3125 12.9702 1.3125 12.625V5.125C1.3125 4.77982 1.59232 4.5 1.9375 4.5Z" stroke="#0F0F0F" stroke-width="1.25" stroke-linecap="round" stroke-linejoin="round"/>
<path d="M8.35178 8.54551C8.35178 8.91113 8.29553 9.2416 8.18303 9.53691C8.07053 9.82754 7.91115 10.076 7.7049 10.2822C7.50334 10.4885 7.25725 10.6479 6.96662 10.7604C6.676 10.8682 6.35256 10.9221 5.99631 10.9221C5.60256 10.9221 5.24631 10.8564 4.92756 10.7252C4.60881 10.5939 4.33459 10.4135 4.1049 10.1838C3.87522 9.9541 3.69709 9.68223 3.57053 9.36816C3.44865 9.0541 3.38772 8.71191 3.38772 8.3416C3.38772 7.97598 3.44865 7.63613 3.57053 7.32207C3.69709 7.00801 3.87287 6.73613 4.09787 6.50644C4.32287 6.27676 4.5924 6.09863 4.90647 5.97207C5.22053 5.84082 5.56975 5.7752 5.95412 5.7752C6.45569 5.7752 6.89631 5.88535 7.276 6.10566C7.66037 6.32129 7.951 6.62598 8.14787 7.01973L7.30412 7.53301C7.16819 7.26113 6.98537 7.05254 6.75569 6.90723C6.526 6.76191 6.25647 6.68926 5.94709 6.68926C5.71272 6.68926 5.49944 6.73145 5.30725 6.81582C5.11506 6.89551 4.951 7.01035 4.81506 7.16035C4.67912 7.30566 4.57365 7.48145 4.49865 7.6877C4.42365 7.88926 4.38615 8.10957 4.38615 8.34863C4.38615 8.58301 4.42131 8.80332 4.49162 9.00957C4.56662 9.21113 4.67209 9.38691 4.80803 9.53691C4.94865 9.68223 5.1174 9.79707 5.31428 9.88145C5.51584 9.96582 5.74319 10.008 5.99631 10.008C6.36194 10.008 6.66194 9.91895 6.89631 9.74082C7.13537 9.5627 7.28303 9.30723 7.33928 8.97441H5.53928V8.08848H8.32365C8.33303 8.18223 8.34006 8.2666 8.34475 8.3416C8.34944 8.41191 8.35178 8.47988 8.35178 8.54551Z" fill="#0F0F0F"/>
</svg>
