<svg width="32" height="32" viewBox="0 0 32 32" fill="none" xmlns="http://www.w3.org/2000/svg">
<path d="M21 3V1C21 0.734784 21.1053 0.48043 21.2929 0.292893C21.4804 0.105357 21.7348 0 22 0C22.2652 0 22.5196 0.105357 22.7071 0.292893C22.8946 0.48043 23 0.734784 23 1V3C23 3.26522 22.8946 3.51957 22.7071 3.70711C22.5196 3.89464 22.2652 4 22 4C21.7348 4 21.4804 3.89464 21.2929 3.70711C21.1053 3.51957 21 3.26522 21 3ZM25.4787 5.125C25.636 5.2196 25.8165 5.26852 26 5.26625C26.1716 5.26652 26.3404 5.22263 26.4902 5.13878C26.6399 5.05493 26.7655 4.93396 26.855 4.7875L27.855 3.14875C27.9246 3.03661 27.9713 2.9118 27.9924 2.78153C28.0135 2.65125 28.0087 2.51809 27.9781 2.3897C27.9475 2.26132 27.8918 2.14026 27.8142 2.03351C27.7366 1.92676 27.6386 1.83642 27.5259 1.76771C27.4133 1.69899 27.2881 1.65326 27.1577 1.63316C27.0272 1.61305 26.8941 1.61896 26.766 1.65055C26.6378 1.68213 26.5172 1.73877 26.411 1.8172C26.3049 1.89563 26.2153 1.99429 26.1475 2.1075L25.1475 3.745C25.0782 3.85723 25.0317 3.98207 25.0109 4.11232C24.99 4.24258 24.9951 4.37567 25.0259 4.50395C25.0567 4.63222 25.1125 4.75313 25.1903 4.85972C25.268 4.96631 25.366 5.05647 25.4787 5.125ZM31.4087 6.69875C31.3685 6.57374 31.3039 6.45789 31.2189 6.35782C31.1338 6.25774 31.0299 6.17541 30.913 6.11551C30.7961 6.05561 30.6685 6.01933 30.5376 6.00874C30.4067 5.99814 30.275 6.01343 30.15 6.05375L28.275 6.66C28.0477 6.73268 27.8538 6.88426 27.7285 7.08736C27.6032 7.29046 27.5546 7.53168 27.5916 7.76746C27.6286 8.00323 27.7487 8.218 27.9302 8.37298C28.1117 8.52795 28.3426 8.61291 28.5812 8.6125C28.6856 8.6121 28.7893 8.59566 28.8887 8.56375L30.7637 7.9575C30.8893 7.91725 31.0057 7.85255 31.1062 7.76714C31.2066 7.68173 31.2892 7.57729 31.3492 7.45983C31.4091 7.34237 31.4453 7.21421 31.4555 7.08274C31.4657 6.95126 31.4498 6.81906 31.4087 6.69375V6.69875ZM27.6587 11.6912C28.7644 13.593 29.2096 15.8072 28.9249 17.9886C28.6403 20.1699 27.6417 22.1957 26.085 23.75C25.5449 25.6376 24.4611 27.3244 22.9687 28.6001C21.4764 29.8758 19.6415 30.684 17.6929 30.924C15.7443 31.1639 13.7682 30.8249 12.011 29.9493C10.2537 29.0737 8.79311 27.7002 7.81124 26L3.43624 18.4212C3.16912 17.9579 3.02047 17.4358 3.00347 16.9013C2.98648 16.3667 3.10166 15.8363 3.33881 15.3569C3.57596 14.8775 3.92774 14.4641 4.36295 14.1533C4.79817 13.8424 5.30337 13.6438 5.83374 13.575L5.33374 12.7075C5.07076 12.252 4.92228 11.7394 4.90102 11.2139C4.87977 10.6883 4.98639 10.1655 5.21173 9.69022C5.43707 9.21496 5.77439 8.80149 6.19474 8.48531C6.61508 8.16914 7.10588 7.9597 7.62499 7.875C7.36462 7.15807 7.3647 6.37241 7.62521 5.65553C7.88573 4.93865 8.39008 4.33624 9.04999 3.95375C9.6551 3.60567 10.3561 3.46126 11.0495 3.54184C11.7429 3.62241 12.3921 3.92369 12.9012 4.40125C13.2131 3.95107 13.6337 3.58699 14.1239 3.34284C14.6141 3.09868 15.1581 2.98237 15.7053 3.00469C16.2525 3.02701 16.7852 3.18725 17.2539 3.47052C17.7226 3.75379 18.1121 4.15091 18.3862 4.625L19.8862 7.22375C20.211 6.79848 20.6358 6.45998 21.1228 6.23831C21.6098 6.01663 22.144 5.91863 22.678 5.95301C23.212 5.98738 23.7292 6.15308 24.1838 6.43538C24.6384 6.71768 25.0162 7.10785 25.2837 7.57125L27.6587 11.6912ZM14.49 6.875L15.2312 8.15875C15.4787 8.38479 15.6896 8.64793 15.8562 8.93875L17.3562 11.5325C17.8493 10.8922 18.5616 10.4568 19.3562 10.31L16.655 5.625C16.4892 5.33791 16.2162 5.12842 15.896 5.04263C15.5758 4.95683 15.2346 5.00175 14.9475 5.1675C14.6604 5.33327 14.4509 5.60629 14.3651 5.9265C14.2793 6.24672 14.3242 6.5879 14.49 6.875ZM9.59249 7.39375L10.3337 8.67875L10.3737 8.715C10.6163 8.36387 10.9257 8.06408 11.2844 7.83284C11.643 7.6016 12.0438 7.44346 12.4637 7.3675L11.7575 6.14375C11.6339 5.92962 11.4496 5.75695 11.2279 5.64758C11.0061 5.53821 10.757 5.49704 10.5118 5.52928C10.2667 5.56153 10.0367 5.66574 9.85077 5.82874C9.66488 5.99173 9.5315 6.2062 9.46749 6.445C9.42444 6.60354 9.41332 6.76905 9.43478 6.93192C9.45624 7.09479 9.50985 7.25177 9.59249 7.39375ZM24.1987 23.0713C24.4733 22.0566 24.544 20.9976 24.4067 19.9555C24.2693 18.9134 23.9268 17.9089 23.3987 17L21.0237 12.8862C20.8622 12.6093 20.6005 12.405 20.2926 12.3156C19.9847 12.2262 19.6542 12.2586 19.3695 12.4059C19.0848 12.5532 18.8676 12.8043 18.7627 13.1073C18.6579 13.4103 18.6735 13.7419 18.8062 14.0337L20.2337 16.5C20.3664 16.7299 20.4022 17.0031 20.3334 17.2594C20.2646 17.5158 20.0968 17.7343 19.8669 17.8669C19.637 17.9995 19.3638 18.0353 19.1074 17.9665C18.8511 17.8977 18.6326 17.7299 18.5 17.5L14.125 9.94125C13.9534 9.66946 13.6836 9.47424 13.3718 9.39615C13.06 9.31806 12.73 9.36309 12.4506 9.5219C12.1711 9.68071 11.9635 9.94108 11.871 10.2489C11.7785 10.5568 11.8081 10.8884 11.9537 11.175L15.0325 16.5C15.1023 16.6138 15.1486 16.7405 15.1687 16.8725C15.1887 17.0045 15.1822 17.1392 15.1493 17.2687C15.1165 17.3981 15.0581 17.5197 14.9775 17.6262C14.8969 17.7327 14.7958 17.8219 14.6802 17.8887C14.5646 17.9555 14.4367 17.9985 14.3042 18.0151C14.1717 18.0316 14.0372 18.0215 13.9087 17.9853C13.7802 17.9491 13.6602 17.8875 13.5559 17.8041C13.4515 17.7208 13.365 17.6174 13.3012 17.5L9.22999 10.4575C9.14851 10.3142 9.03949 10.1884 8.90921 10.0874C8.77892 9.98641 8.62995 9.91218 8.47086 9.86899C8.31177 9.8258 8.1457 9.8145 7.98223 9.83575C7.81875 9.85699 7.6611 9.91037 7.51833 9.9928C7.37557 10.0752 7.25052 10.1851 7.15038 10.316C7.05025 10.447 6.977 10.5964 6.93487 10.7558C6.89273 10.9152 6.88254 11.0813 6.90487 11.2447C6.9272 11.408 6.98162 11.5653 7.06499 11.7075L11.565 19.5025C11.6307 19.6163 11.6733 19.7418 11.6904 19.8721C11.7075 20.0023 11.6988 20.1346 11.6648 20.2615C11.6308 20.3883 11.5722 20.5073 11.4922 20.6115C11.4122 20.7157 11.3125 20.8031 11.1987 20.8687C11.085 20.9344 10.9594 20.977 10.8292 20.9942C10.699 21.0113 10.5666 21.0026 10.4398 20.9686C10.3129 20.9346 10.194 20.8759 10.0898 20.7959C9.98558 20.716 9.89815 20.6163 9.83249 20.5025L7.33249 16.1725C7.16555 15.8877 6.89276 15.6806 6.57364 15.5962C6.25452 15.5118 5.91498 15.5571 5.62912 15.7222C5.34326 15.8872 5.13429 16.1586 5.04781 16.4772C4.96132 16.7957 5.00435 17.1356 5.16749 17.4225L9.54249 25.0012C10.3336 26.3717 11.5133 27.4768 12.9325 28.1767C14.3517 28.8766 15.9466 29.14 17.5155 28.9334C19.0844 28.7268 20.5567 28.0595 21.7463 27.0161C22.936 25.9726 23.7894 24.5998 24.1987 23.0713ZM25.9262 12.6862L23.5512 8.5725C23.3843 8.28774 23.1115 8.08057 22.7924 7.9962C22.4733 7.91183 22.1337 7.95711 21.8479 8.12216C21.562 8.2872 21.353 8.55862 21.2666 8.87717C21.1801 9.19572 21.2231 9.53555 21.3862 9.8225L22.125 11.1038C22.3724 11.3308 22.5832 11.5948 22.75 11.8862L25.125 16C25.7923 17.1533 26.2228 18.4282 26.3912 19.75C26.8626 18.6162 27.0658 17.3889 26.9852 16.1637C26.9045 14.9385 26.5421 13.7485 25.9262 12.6862Z" fill="#343330"/>
</svg>
