<svg width="32" height="32" viewBox="0 0 32 32" fill="none" xmlns="http://www.w3.org/2000/svg">
<path d="M26 17.5V22C26 25.1988 24.9387 27.3563 24.8937 27.4475C24.8107 27.6135 24.6831 27.753 24.5253 27.8506C24.3674 27.9482 24.1855 27.9999 24 28C23.845 28.0001 23.6921 27.9637 23.5537 27.8938C23.3166 27.7752 23.1362 27.5673 23.0523 27.3158C22.9684 27.0643 22.9878 26.7897 23.1062 26.5525C23.1137 26.5375 24.0012 24.7013 24.0012 22V17.5C24.0012 17.1022 23.8432 16.7207 23.5619 16.4393C23.2806 16.158 22.8991 16 22.5012 16C22.1034 16 21.7219 16.158 21.4406 16.4393C21.1593 16.7207 21.0012 17.1022 21.0012 17.5V18C21.0012 18.2652 20.8959 18.5196 20.7083 18.7071C20.5208 18.8947 20.2664 19 20.0012 19C19.736 19 19.4817 18.8947 19.2941 18.7071C19.1066 18.5196 19.0012 18.2652 19.0012 18V15.5C19.0012 15.1022 18.8432 14.7207 18.5619 14.4393C18.2806 14.158 17.8991 14 17.5012 14C17.1034 14 16.7219 14.158 16.4406 14.4393C16.1593 14.7207 16.0012 15.1022 16.0012 15.5V17C16.0012 17.2652 15.8959 17.5196 15.7083 17.7071C15.5208 17.8947 15.2664 18 15.0012 18C14.736 18 14.4817 17.8947 14.2941 17.7071C14.1066 17.5196 14.0012 17.2652 14.0012 17V8.50001C14.0012 8.10218 13.8432 7.72065 13.5619 7.43935C13.2806 7.15804 12.8991 7.00001 12.5012 7.00001C12.1034 7.00001 11.7219 7.15804 11.4406 7.43935C11.1593 7.72065 11.0012 8.10218 11.0012 8.50001V22C11.0012 22.2173 10.9305 22.4286 10.7996 22.6021C10.6688 22.7755 10.4851 22.9017 10.2762 22.9614C10.0673 23.0212 9.84467 23.0112 9.64192 22.9332C9.43918 22.8551 9.26736 22.7132 9.15248 22.5288L6.81748 18.7788L6.79998 18.75C6.70149 18.5793 6.57034 18.4296 6.41401 18.3096C6.25769 18.1896 6.07925 18.1015 5.88889 18.0504C5.69853 17.9994 5.49997 17.9863 5.30456 18.012C5.10914 18.0376 4.9207 18.1015 4.74998 18.2C4.57926 18.2985 4.42961 18.4297 4.30958 18.586C4.18955 18.7423 4.10148 18.9207 4.05041 19.1111C3.99934 19.3015 3.98626 19.5 4.01192 19.6954C4.03759 19.8908 4.10149 20.0793 4.19998 20.25L7.86123 26.5C7.93829 26.6136 7.99112 26.7419 8.01645 26.8768C8.04177 27.0118 8.03904 27.1505 8.00842 27.2843C7.9778 27.4181 7.91995 27.5442 7.83848 27.6547C7.75701 27.7652 7.65366 27.8578 7.53486 27.9266C7.41607 27.9954 7.28437 28.039 7.14799 28.0547C7.0116 28.0704 6.87344 28.0579 6.74211 28.0179C6.61079 27.9778 6.48911 27.9112 6.38465 27.8221C6.2802 27.733 6.19521 27.6234 6.13498 27.5L2.46998 21.25C2.00303 20.4476 1.87398 19.4925 2.11122 18.5949C2.34845 17.6973 2.93253 16.9307 3.73498 16.4638C4.53743 15.9968 5.4925 15.8678 6.3901 16.105C7.28769 16.3422 8.05428 16.9263 8.52123 17.7288L8.99998 18.5V8.50001C8.99998 7.57175 9.36873 6.68151 10.0251 6.02513C10.6815 5.36876 11.5717 5.00001 12.5 5.00001C13.4282 5.00001 14.3185 5.36876 14.9749 6.02513C15.6312 6.68151 16 7.57175 16 8.50001V12.3375C16.45 12.1239 16.9405 12.0089 17.4385 12C17.9366 11.9912 18.4308 12.0888 18.8882 12.2863C19.3455 12.4837 19.7554 12.7766 20.0905 13.1452C20.4256 13.5138 20.6781 13.9497 20.8312 14.4238C21.3643 14.1346 21.9634 13.9889 22.5697 14.001C23.1761 14.0131 23.7689 14.1825 24.29 14.4927C24.8112 14.8029 25.2428 15.2431 25.5425 15.7703C25.8423 16.2975 25.9999 16.8935 26 17.5ZM30.7075 6.29251L26.7075 2.29251C26.5198 2.10503 26.2654 1.99978 26.0002 1.99989C25.7349 2.00001 25.4806 2.10549 25.2931 2.29313C25.1056 2.48077 25.0004 2.7352 25.0005 3.00045C25.0006 3.2657 25.1061 3.52003 25.2937 3.70751L27.585 6.00001H21C20.7348 6.00001 20.4804 6.10536 20.2929 6.2929C20.1053 6.48044 20 6.73479 20 7.00001C20 7.26522 20.1053 7.51958 20.2929 7.70711C20.4804 7.89465 20.7348 8.00001 21 8.00001H27.5862L25.2925 10.2925C25.1048 10.48 24.9994 10.7343 24.9992 10.9996C24.9991 11.2648 25.1044 11.5192 25.2919 11.7069C25.4793 11.8945 25.7337 12 25.9989 12.0001C26.2642 12.0002 26.5186 11.895 26.7062 11.7075L30.7062 7.70751C30.7993 7.61472 30.8731 7.50449 30.9236 7.38314C30.974 7.26179 31 7.13168 31.0001 7.00027C31.0003 6.86885 30.9745 6.7387 30.9243 6.61726C30.874 6.49582 30.8004 6.38546 30.7075 6.29251Z" fill="#343330"/>
</svg>
