<svg width="32" height="32" viewBox="0 0 32 32" fill="none" xmlns="http://www.w3.org/2000/svg">
<path d="M23.5 11C22.9171 10.9994 22.3433 11.1451 21.8312 11.4237C21.6781 10.9497 21.4256 10.5138 21.0905 10.1452C20.7554 9.77658 20.3455 9.48374 19.8882 9.28625C19.4309 9.08877 18.9366 8.99118 18.4386 9.00002C17.9405 9.00885 17.45 9.12391 17 9.3375V5.5C17 4.57174 16.6313 3.6815 15.9749 3.02513C15.3185 2.36875 14.4283 2 13.5 2C12.5717 2 11.6815 2.36875 11.0251 3.02513C10.3687 3.6815 10 4.57174 10 5.5V15.5L9.5225 14.7338C9.29162 14.3361 8.98467 13.9878 8.61919 13.7088C8.25371 13.4297 7.83684 13.2254 7.3924 13.1075C6.4948 12.8693 5.53936 12.9975 4.73625 13.4637C3.93314 13.93 3.34816 14.6963 3.10998 15.5938C2.87181 16.4914 2.99997 17.4469 3.46625 18.25L4.05 19.2787C8.35125 26.8612 10.1312 30 16 30C18.9164 29.9967 21.7123 28.8367 23.7745 26.7745C25.8367 24.7123 26.9967 21.9164 27 19V14.5C27 13.5717 26.6313 12.6815 25.9749 12.0251C25.3185 11.3687 24.4283 11 23.5 11ZM25 19C24.9974 21.3861 24.0483 23.6738 22.361 25.361C20.6738 27.0483 18.3861 27.9974 16 28C11.2962 28 10.02 25.75 5.79 18.29L5.20375 17.2563V17.25C5.0047 16.9058 4.95042 16.4967 5.05285 16.1126C5.15527 15.7284 5.40602 15.4006 5.75 15.2013C5.97785 15.0693 6.23669 15.0002 6.5 15.0013C6.76368 15.0009 7.0228 15.07 7.25125 15.2017C7.4797 15.3333 7.66941 15.5229 7.80125 15.7513C7.80634 15.7613 7.81219 15.7709 7.81875 15.78L10.1525 19.53C10.2677 19.7139 10.4395 19.8553 10.6422 19.933C10.8448 20.0106 11.0672 20.0203 11.2758 19.9604C11.4843 19.9006 11.6678 19.7745 11.7984 19.6013C11.9291 19.428 11.9998 19.217 12 19V5.5C12 5.10218 12.158 4.72064 12.4393 4.43934C12.7206 4.15804 13.1022 4 13.5 4C13.8978 4 14.2794 4.15804 14.5607 4.43934C14.842 4.72064 15 5.10218 15 5.5V14C15 14.2652 15.1054 14.5196 15.2929 14.7071C15.4804 14.8946 15.7348 15 16 15C16.2652 15 16.5196 14.8946 16.7071 14.7071C16.8946 14.5196 17 14.2652 17 14V12.5C17 12.1022 17.158 11.7206 17.4393 11.4393C17.7206 11.158 18.1022 11 18.5 11C18.8978 11 19.2794 11.158 19.5607 11.4393C19.842 11.7206 20 12.1022 20 12.5V15C20 15.2652 20.1054 15.5196 20.2929 15.7071C20.4804 15.8946 20.7348 16 21 16C21.2652 16 21.5196 15.8946 21.7071 15.7071C21.8946 15.5196 22 15.2652 22 15V14.5C22 14.1022 22.158 13.7206 22.4393 13.4393C22.7206 13.158 23.1022 13 23.5 13C23.8978 13 24.2794 13.158 24.5607 13.4393C24.842 13.7206 25 14.1022 25 14.5V19Z" fill="#343330"/>
</svg>
