<svg width="32" height="32" viewBox="0 0 32 32" fill="none" xmlns="http://www.w3.org/2000/svg">
<path d="M5.99995 9.5C5.99995 7.51088 6.79013 5.60322 8.19665 4.1967C9.60317 2.79018 11.5108 2 13.5 2C15.4891 2 17.3967 2.79018 18.8033 4.1967C20.2098 5.60322 21 7.51088 21 9.5C21 9.76522 20.8946 10.0196 20.7071 10.2071C20.5195 10.3946 20.2652 10.5 20 10.5C19.7347 10.5 19.4804 10.3946 19.2928 10.2071C19.1053 10.0196 19 9.76522 19 9.5C19 8.04131 18.4205 6.64236 17.389 5.61091C16.3576 4.57946 14.9586 4 13.5 4C12.0413 4 10.6423 4.57946 9.61086 5.61091C8.57941 6.64236 7.99995 8.04131 7.99995 9.5C7.99995 9.76522 7.89459 10.0196 7.70706 10.2071C7.51952 10.3946 7.26517 10.5 6.99995 10.5C6.73473 10.5 6.48038 10.3946 6.29284 10.2071C6.10531 10.0196 5.99995 9.76522 5.99995 9.5ZM23.5 15C22.9166 14.9994 22.3424 15.1451 21.83 15.4237C21.6768 14.9499 21.4243 14.5141 21.0893 14.1456C20.7543 13.7771 20.3446 13.4844 19.8874 13.2869C19.4302 13.0894 18.9361 12.9918 18.4382 13.0005C17.9403 13.0092 17.4499 13.1241 17 13.3375V9.5C17 8.57174 16.6312 7.6815 15.9748 7.02513C15.3184 6.36875 14.4282 6 13.5 6C12.5717 6 11.6815 6.36875 11.0251 7.02513C10.3687 7.6815 9.99995 8.57174 9.99995 9.5V19.5L9.52245 18.7337C9.0555 17.9313 8.28891 17.3472 7.39132 17.11C6.49372 16.8728 5.53865 17.0018 4.7362 17.4688C3.93376 17.9357 3.34967 18.7023 3.11244 19.5999C2.8752 20.4975 3.00425 21.4526 3.4712 22.255L7.1362 28.505C7.19767 28.6267 7.28338 28.7346 7.38807 28.822C7.49277 28.9094 7.61422 28.9744 7.74498 29.0131C7.87574 29.0518 8.01303 29.0634 8.14842 29.0471C8.28381 29.0308 8.41443 28.987 8.53226 28.9183C8.65008 28.8497 8.75263 28.7576 8.83358 28.6479C8.91453 28.5382 8.97219 28.413 9.003 28.2802C9.03381 28.1473 9.03712 28.0096 9.01273 27.8754C8.98835 27.7413 8.93678 27.6135 8.8612 27.5L5.19995 21.25C5.09716 21.0793 5.02942 20.8898 5.00069 20.6926C4.97196 20.4954 4.98281 20.2944 5.03261 20.1014C5.08242 19.9085 5.17017 19.7274 5.29075 19.5687C5.41133 19.4101 5.56232 19.277 5.7349 19.1773C5.90747 19.0777 6.09818 19.0134 6.29587 18.9883C6.49357 18.9632 6.69429 18.9777 6.88631 19.031C7.07833 19.0843 7.2578 19.1753 7.41424 19.2988C7.57068 19.4222 7.70096 19.5756 7.79745 19.75L7.81495 19.7787L10.15 23.5287C10.2646 23.7137 10.4365 23.8563 10.6395 23.9347C10.8425 24.0132 11.0655 24.0233 11.2748 23.9635C11.484 23.9037 11.668 23.7772 11.7989 23.6033C11.9298 23.4295 12.0004 23.2176 12 23V9.5C12 9.10218 12.158 8.72064 12.4393 8.43934C12.7206 8.15804 13.1021 8 13.5 8C13.8978 8 14.2793 8.15804 14.5606 8.43934C14.8419 8.72064 15 9.10218 15 9.5V18C15 18.2652 15.1053 18.5196 15.2928 18.7071C15.4804 18.8946 15.7347 19 16 19C16.2652 19 16.5195 18.8946 16.7071 18.7071C16.8946 18.5196 17 18.2652 17 18V16.5C17 16.1022 17.158 15.7206 17.4393 15.4393C17.7206 15.158 18.1021 15 18.5 15C18.8978 15 19.2793 15.158 19.5606 15.4393C19.8419 15.7206 20 16.1022 20 16.5V19C20 19.2652 20.1053 19.5196 20.2928 19.7071C20.4804 19.8946 20.7347 20 21 20C21.2652 20 21.5195 19.8946 21.7071 19.7071C21.8946 19.5196 22 19.2652 22 19V18.5C22 18.1022 22.158 17.7206 22.4393 17.4393C22.7206 17.158 23.1021 17 23.5 17C23.8978 17 24.2793 17.158 24.5606 17.4393C24.8419 17.7206 25 18.1022 25 18.5V23C25 25.7013 24.1124 27.5375 24.1049 27.5525C23.9865 27.7897 23.9671 28.0643 24.051 28.3158C24.1349 28.5673 24.3153 28.7752 24.5525 28.8937C24.6912 28.9639 24.8445 29.0003 25 29C25.1857 29.0001 25.3679 28.9485 25.526 28.8509C25.684 28.7533 25.8118 28.6136 25.895 28.4475C25.9412 28.3563 27.0012 26.1975 27.0012 23V18.5C27.0012 18.0403 26.9106 17.585 26.7347 17.1603C26.5587 16.7356 26.3008 16.3497 25.9756 16.0247C25.6505 15.6997 25.2645 15.4419 24.8397 15.2661C24.4149 15.0902 23.9597 14.9998 23.5 15Z" fill="#343330"/>
</svg>
