<svg width="32" height="32" viewBox="0 0 32 32" fill="none" xmlns="http://www.w3.org/2000/svg">
<path d="M14.97 27.2425C14.9159 27.4589 14.7911 27.6509 14.6153 27.7882C14.4396 27.9254 14.223 28 14 28C13.9157 28.0004 13.8318 27.9903 13.75 27.97L9.74999 26.97C9.63863 26.942 9.53292 26.8951 9.43749 26.8313L6.43749 24.8313C6.21686 24.6841 6.06374 24.4553 6.01182 24.1952C5.95989 23.9351 6.01342 23.665 6.16061 23.4444C6.30781 23.2238 6.53662 23.0706 6.79671 23.0187C7.0568 22.9668 7.32686 23.0203 7.54749 23.1675L10.4025 25.0713L14.235 26.03C14.363 26.0611 14.4837 26.1171 14.59 26.1949C14.6963 26.2727 14.7862 26.3708 14.8545 26.4835C14.9228 26.5962 14.9682 26.7212 14.988 26.8515C15.0078 26.9817 15.0017 27.1146 14.97 27.2425ZM31.5562 15.185C31.4742 15.4342 31.3436 15.6647 31.1719 15.8632C31.0003 16.0617 30.791 16.2241 30.5562 16.3413L27.5962 17.8213L20.7112 24.7075C20.589 24.8296 20.4373 24.9179 20.2708 24.9639C20.1043 25.0099 19.9288 25.012 19.7612 24.97L11.7612 22.97C11.6396 22.9395 11.5247 22.8865 11.4225 22.8138L4.48249 17.8588L1.44749 16.3413C0.973157 16.1041 0.612413 15.6884 0.444578 15.1853C0.276744 14.6823 0.315558 14.1332 0.552487 13.6588L3.65874 7.44752C3.89585 6.97319 4.31164 6.61244 4.81468 6.44461C5.31771 6.27677 5.86681 6.31559 6.34124 6.55252L9.09874 7.92752L15.7237 6.03502C15.9035 5.98361 16.094 5.98361 16.2737 6.03502L22.8987 7.92752L25.6562 6.55252C26.1307 6.31559 26.6798 6.27677 27.1828 6.44461C27.6858 6.61244 28.1016 6.97319 28.3387 7.44752L31.445 13.6588C31.5635 13.8932 31.6343 14.1488 31.6534 14.4108C31.6725 14.6727 31.6395 14.9359 31.5562 15.185ZM25.7837 16.8025L22.3825 10H18.405L13 15.25C14.5825 16.2613 17.0637 16.54 19.29 14.2963C19.4639 14.121 19.6964 14.0163 19.9429 14.0022C20.1893 13.9881 20.4323 14.0657 20.625 14.22L24.9262 17.6663L25.7837 16.8025ZM2.34124 14.5525L4.55249 15.6588L7.65874 9.44752L5.44749 8.34127L2.34124 14.5525ZM23.5 19.0825L20.0362 16.3088C17.5937 18.3088 14.4925 18.5725 11.9225 16.9338C11.6697 16.773 11.4562 16.5574 11.2979 16.303C11.1396 16.0486 11.0405 15.762 11.0078 15.4641C10.9752 15.1663 11.0099 14.8649 11.1094 14.5823C11.2088 14.2997 11.3705 14.043 11.5825 13.8313C11.5855 13.8276 11.5888 13.8243 11.5925 13.8213L17.2 8.38252L16 8.04002L9.69749 9.84127L6.27624 16.6825L12.4262 21.0763L19.6937 22.8925L23.5 19.0825ZM29.655 14.5525L26.5525 8.34127L24.3412 9.44752L27.4475 15.6588L29.655 14.5525Z" fill="#343330"/>
</svg>
