<?xml version="1.0" standalone="no"?>
<!DOCTYPE svg PUBLIC "-//W3C//DTD SVG 20010904//EN" "http://www.w3.org/TR/2001/REC-SVG-20010904/DTD/svg10.dtd">
<!-- Created using Krita: https://krita.org -->
<svg xmlns="http://www.w3.org/2000/svg" 
    width="30.24pt"
    height="30.24pt"
    viewBox="0 0 30.24 30.24">
<defs/>
<rect id="shape0" transform="matrix(0.72 0 0 0.72 353.18448 14.312016)" fill="none" stroke-opacity="0.160006103608759" stroke="#46b634" stroke-width="1.06703" stroke-linecap="butt" stroke-linejoin="miter" stroke-miterlimit="2" width="46.9329" height="46.9329" rx="10.1368" ry="10.1368"/><path id="shape1" transform="matrix(0.72 0 0 0.72 2.22185428536999 2.80936254598334)" fill="#ffffff" stroke-opacity="0" stroke="#000000" stroke-width="0" stroke-linecap="square" stroke-linejoin="bevel" d="M1.56086 9.5313C2.44986 8.6152 4.70486 7.8513 5.84286 8.8004C6.97986 9.7495 8.06286 11.1653 7.90486 10.772C7.31186 9.6295 6.85886 8.4192 6.55786 7.1677C6.46286 6.3197 6.76486 5.4754 7.37586 4.8801C7.94486 4.352 8.63386 3.9695 9.38286 3.7656C10.1489 3.5789 10.9579 3.688 11.6479 4.071C12.7949 5.1344 13.7509 6.3871 14.4739 7.7744C13.9599 6.5422 13.5989 5.2513 13.3999 3.931C13.5249 3.2232 13.8929 2.5813 14.4409 2.1161C15.1209 1.628 15.8839 1.2673 16.6919 1.0514C17.3989 0.965101 18.1149 1.0973 18.7439 1.4302C19.7869 2.3972 20.6709 3.5212 21.3669 4.7616C21.5159 5.0766 21.1089 3.8093 21.2319 2.7874C21.0709 1.4184 22.0499 0.178201 23.4189 0.0173009C24.7879 -0.143599 26.0279 0.835801 26.1889 2.2048C26.8809 3.6677 26.8489 3.6002 27.3179 4.5904C27.7859 5.5807 28.2009 6.4584 28.5949 7.2911C29.1369 8.6466 29.5759 10.0411 29.9079 11.4627C30.0569 12.7893 30.0239 14.13 29.8099 15.4476C29.2919 17.1799 29.0389 18.9804 29.0589 20.7882C29.2409 21.6052 29.5229 22.3968 29.8979 23.145C30.2269 23.845 30.6469 24.499 31.1479 25.088C30.2739 25.622 29.3459 26.061 28.3799 26.398C27.4379 26.678 25.5269 25.433 24.9789 25.032C24.6969 24.81 24.3139 24.767 23.9899 24.92C23.6659 25.074 23.4559 25.397 23.4489 25.756C23.3579 26.845 22.9899 28.92 22.3799 29.319C20.9569 30.212 17.7439 31.512 15.3129 32.662C15.3129 32.662 14.6759 30.209 13.3479 29.846C12.0189 29.483 10.6489 28.974 9.65286 28.674L6.80586 27.487C4.90986 26.887 3.21086 25.789 1.88586 24.306C0.411859 22.4141 -0.0221409 21.3801 0.000859089 20.3226C0.102859 19.41 0.537859 18.567 1.22186 17.9547C1.82586 17.522 2.52886 17.2464 3.26586 17.1528C3.79586 17.1287 4.32086 17.252 4.78486 17.5088C5.63186 17.9616 5.97186 18.214 5.38486 17.5553C4.79786 16.8966 4.03686 16.5681 3.35186 15.7625C2.35486 14.9008 1.51386 13.8726 0.867859 12.7237C0.455859 11.6137 0.775859 10.3643 1.67186 9.5894" sodipodi:nodetypes="ccccccccccccccccccccccccccccccccccccccccc"/><path id="shape2" transform="matrix(0.72 0 0 0.72 2.22185428536999 2.80936254598334)" fill="none" stroke="#0247a6" stroke-width="1.8673" stroke-linecap="butt" stroke-linejoin="round" d="M1.56086 9.5313C2.44986 8.6152 4.70486 7.8513 5.84286 8.8004C6.97986 9.7495 8.06286 11.1653 7.90486 10.772C7.31186 9.6295 6.85886 8.4192 6.55786 7.1677C6.46286 6.3197 6.76486 5.4754 7.37586 4.8801C7.94486 4.352 8.63386 3.9695 9.38286 3.7656C10.1489 3.5789 10.9579 3.688 11.6479 4.071C12.7949 5.1344 13.7509 6.3871 14.4739 7.7744C13.9599 6.5422 13.5989 5.2513 13.3999 3.931C13.5249 3.2232 13.8929 2.5813 14.4409 2.1161C15.1209 1.628 15.8839 1.2673 16.6919 1.0514C17.3989 0.965101 18.1149 1.0973 18.7439 1.4302C19.7869 2.3972 20.6709 3.5212 21.3669 4.7616C21.5159 5.0766 21.1089 3.8093 21.2319 2.7874C21.0709 1.4184 22.0499 0.178201 23.4189 0.0173009C24.7879 -0.143599 26.0279 0.835801 26.1889 2.2048C26.8809 3.6677 26.8489 3.6002 27.3179 4.5904C27.7859 5.5807 28.2009 6.4584 28.5949 7.2911C29.1369 8.6466 29.5759 10.0411 29.9079 11.4627C30.0569 12.7893 30.0239 14.13 29.8099 15.4476C29.2919 17.1799 29.0389 18.9804 29.0589 20.7882C29.2409 21.6052 29.5229 22.3968 29.8979 23.145C30.2269 23.845 30.6469 24.499 31.1479 25.088C30.2739 25.622 29.3459 26.061 28.3799 26.398C27.4379 26.678 25.5269 25.433 24.9789 25.032C24.6969 24.81 24.3139 24.767 23.9899 24.92C23.6659 25.074 23.4559 25.397 23.4489 25.756C23.3579 26.845 22.9899 28.92 22.3799 29.319C20.9569 30.212 17.7439 31.512 15.3129 32.662C15.3129 32.662 14.6759 30.209 13.3479 29.846C12.0189 29.483 10.6489 28.974 9.65286 28.674L6.80586 27.487C4.90986 26.887 3.21086 25.789 1.88586 24.306C0.411859 22.4141 -0.0221409 21.3801 0.000859089 20.3226C0.102859 19.41 0.537859 18.567 1.22186 17.9547C1.82586 17.522 2.52886 17.2464 3.26586 17.1528C3.79586 17.1287 4.32086 17.252 4.78486 17.5088C5.63186 17.9616 5.97186 18.214 5.38486 17.5553C4.79786 16.8966 4.03686 16.5681 3.35186 15.7625C2.35486 14.9008 1.51386 13.8726 0.867859 12.7237C0.401859 11.6199 0.679859 10.3425 1.56086 9.5313Z" sodipodi:nodetypes="ccccccccccccccccccccccccccccccccccccccccc"/><path id="shape3" transform="matrix(0.72 0 0 0.72 17.8627332745001 10.1916781662415)" fill="#0247a6" stroke-opacity="0" stroke="#000000" stroke-width="0" stroke-linecap="square" stroke-linejoin="bevel" d="M5.45242 8.30138L1.77742 0.532785C1.55742 0.0677848 1.00142 -0.130415 0.535416 0.0900848C0.069416 0.310585 -0.130584 0.866385 0.089416 1.33138L3.76442 9.09988C3.98442 9.56488 4.54042 9.76308 5.00642 9.54258C5.47242 9.32208 5.67242 8.76638 5.45242 8.30138Z" sodipodi:nodetypes="ccccccc"/><path id="shape4" transform="matrix(0.72 0 0 0.72 14.6221348228753 11.7250905315796)" fill="#0247a6" stroke-opacity="0" stroke="#000000" stroke-width="0" stroke-linecap="square" stroke-linejoin="bevel" d="M5.49725 8.27735L1.77525 0.526145C1.55325 0.0635454 0.996247 -0.130555 0.531247 0.0925454C0.0662472 0.315745 -0.130753 0.871745 0.0912472 1.33435L3.81325 9.08555C4.03525 9.54825 4.59225 9.74235 5.05725 9.51915C5.52225 9.29595 5.71925 8.74005 5.49725 8.27735Z" sodipodi:nodetypes="ccccccc"/>
<path id="shape5" transform="matrix(0.72 0 0 0.72 11.3819430157289 13.2592682392159)" fill="#0247a6" stroke-opacity="0" stroke="#000000" stroke-width="0" stroke-linecap="square" stroke-linejoin="bevel" d="M0.0935136 1.34364L3.80651 9.07424C4.03151 9.54324 4.59051 9.74124 5.05451 9.51824C5.51951 9.29524 5.71451 8.73424 5.48951 8.26624L1.77651 0.535143C1.55251 0.066943 0.993514 -0.131557 0.528514 0.091643C0.0635136 0.314943 -0.131486 0.875443 0.0935136 1.34364Z" />
</svg>
