<svg width="32" height="32" viewBox="0 0 32 32" fill="none" xmlns="http://www.w3.org/2000/svg">
<path d="M25.1925 6.80751C22.7545 4.3695 19.4478 2.99985 16 2.99985C12.5521 2.99985 9.24548 4.3695 6.80748 6.80751C4.36947 9.24551 2.99982 12.5521 2.99982 16C2.99982 19.4479 4.36947 22.7545 6.80747 25.1925C9.24548 27.6305 12.5521 29.0002 16 29.0002C19.4478 29.0002 22.7545 27.6305 25.1925 25.1925C27.6305 22.7545 29.0001 19.4479 29.0001 16C29.0001 12.5521 27.6305 9.24551 25.1925 6.80751ZM12 26.25V19H20V26.25C17.4271 27.25 14.5729 27.25 12 26.25ZM18 17H14V12.6175L18 10.6175V17ZM23.7775 23.7775C23.2368 24.3192 22.641 24.8031 22 25.2213V19C22 18.4696 21.7893 17.9609 21.4142 17.5858C21.0391 17.2107 20.5304 17 20 17V9.00001C20.0001 8.82946 19.9566 8.66172 19.8736 8.51272C19.7906 8.36373 19.6709 8.23843 19.5259 8.14874C19.3808 8.05905 19.2152 8.00795 19.0449 8.0003C18.8745 7.99264 18.705 8.02869 18.5525 8.10501L12.5525 11.105C12.3863 11.1881 12.2466 11.3159 12.1491 11.474C12.0515 11.6321 11.9998 11.8142 12 12V17C11.4695 17 10.9608 17.2107 10.5858 17.5858C10.2107 17.9609 9.99998 18.4696 9.99998 19V25.2213C8.09433 23.9816 6.61957 22.182 5.77855 20.0699C4.93752 17.9579 4.77154 15.6371 5.30345 13.4268C5.83535 11.2166 7.039 9.22539 8.74884 7.72718C10.4587 6.22898 12.5907 5.29734 14.8517 5.06041C17.1127 4.82348 19.3915 5.2929 21.3748 6.4041C23.3581 7.5153 24.9484 9.21369 25.9269 11.2657C26.9055 13.3177 27.2242 15.6224 26.8393 17.863C26.4544 20.1035 25.3847 22.1698 23.7775 23.7775Z" fill="#343330"/>
</svg>
