<svg width="32" height="32" viewBox="0 0 32 32" fill="none" xmlns="http://www.w3.org/2000/svg">
<path d="M21.8287 10.1713C21.4962 8.38015 20.6806 6.71391 19.4702 5.35245C18.2598 3.991 16.7005 2.98605 14.9606 2.44612C13.2208 1.90618 11.3665 1.85178 9.59793 2.28878C7.82941 2.72578 6.21385 3.63758 4.9257 4.92573C3.63755 6.21388 2.72575 7.82944 2.28875 9.59796C1.85175 11.3665 1.90615 13.2208 2.44609 14.9607C2.98602 16.7005 3.99097 18.2599 5.35242 19.4703C6.71388 20.6807 8.38012 21.4962 10.1712 21.8288C10.5038 23.6199 11.3193 25.2861 12.5297 26.6476C13.7401 28.009 15.2994 29.014 17.0393 29.5539C18.7792 30.0938 20.6335 30.1482 22.402 29.7112C24.1705 29.2742 25.7861 28.3624 27.0742 27.0743C28.3624 25.7861 29.2742 24.1706 29.7112 22.402C30.1482 20.6335 30.0938 18.7792 29.5539 17.0393C29.0139 15.2995 28.009 13.7402 26.6475 12.5297C25.2861 11.3193 23.6198 10.5038 21.8287 10.1713ZM12.5862 17L15 19.4138C14.0474 19.8018 13.0285 20.0009 12 20C11.9991 18.9715 12.1982 17.9526 12.5862 17ZM16.805 18.3913L13.6087 15.195C14.0612 14.5951 14.595 14.0612 15.195 13.6088L18.3912 16.805C17.9388 17.4049 17.4049 17.9388 16.805 18.3913ZM19.4137 15L17 12.5863C17.9525 12.1983 18.9714 11.9991 20 12C20.0008 13.0285 19.8017 14.0475 19.4137 15ZM3.99997 12C3.99614 10.0501 4.70458 8.16593 5.99216 6.70161C7.27975 5.23728 9.05781 4.29362 10.9922 4.04799C12.9265 3.80235 14.884 4.27165 16.4967 5.36769C18.1094 6.46373 19.2663 8.11103 19.75 10C17.1859 10.0674 14.7456 11.1164 12.9325 12.9307C11.1194 14.7449 10.072 17.1859 10.0062 19.75C8.28832 19.3055 6.76653 18.3034 5.67953 16.9008C4.59253 15.4982 4.0018 13.7745 3.99997 12ZM20 28C18.2263 27.9985 16.5033 27.4087 15.1008 26.3229C13.6983 25.2371 12.6957 23.7168 12.25 22C14.8151 21.9342 17.257 20.8858 19.0714 19.0714C20.8858 17.257 21.9342 14.8151 22 12.25C23.8889 12.7336 25.5362 13.8905 26.6323 15.5032C27.7283 17.1159 28.1976 19.0734 27.952 21.0078C27.7064 22.9422 26.7627 24.7202 25.2984 26.0078C23.834 27.2954 21.9499 28.0038 20 28Z" fill="#343330"/>
</svg>
