<svg width="32" height="32" viewBox="0 0 32 32" fill="none" xmlns="http://www.w3.org/2000/svg">
<path d="M28.9763 4.02374C28.6505 3.69796 28.2637 3.43969 27.8379 3.26375C27.4121 3.08781 26.9558 2.99767 26.4951 2.99848C26.0344 2.99929 25.5784 3.09105 25.1532 3.26849C24.7281 3.44593 24.3421 3.70556 24.0175 4.03249L2.28379 26.325C2.15927 26.452 2.07087 26.6099 2.0277 26.7824C1.98454 26.955 1.98817 27.1359 2.03822 27.3066C2.08827 27.4772 2.18294 27.6314 2.31245 27.7533C2.44197 27.8752 2.60165 27.9604 2.77504 28C4.20962 28.3325 5.67744 28.5002 7.15004 28.5C11.3275 28.5 15.51 27.14 19.4413 24.4737C23.41 21.7825 25.71 18.7425 25.8063 18.6137C25.9509 18.4212 26.0211 18.1829 26.0041 17.9427C25.9871 17.7025 25.884 17.4765 25.7138 17.3062L23.3713 14.9612L28.9963 8.96124C29.6439 8.30146 30.005 7.41285 30.0012 6.48838C29.9975 5.56392 29.6292 4.67826 28.9763 4.02374ZM23.6525 18.0787C22.0676 19.8933 20.2566 21.4972 18.2638 22.8512C13.955 25.7575 9.51379 26.9387 5.03379 26.3712L18.3213 12.7462L23.6525 18.0787ZM27.5625 7.56249L27.54 7.58624L21.9513 13.545L19.7175 11.3087L25.44 5.43374C25.7218 5.15195 26.104 4.99364 26.5025 4.99364C26.9011 4.99364 27.2832 5.15195 27.565 5.43374C27.8468 5.71554 28.0051 6.09773 28.0051 6.49624C28.0051 6.89476 27.8468 7.27695 27.565 7.55874L27.5625 7.56249Z" fill="#343330"/>
</svg>
