<svg width="32" height="32" viewBox="0 0 32 32" fill="none" xmlns="http://www.w3.org/2000/svg">
<path d="M27.9312 5.00877C27.9169 4.76413 27.8133 4.53325 27.64 4.35997C27.4667 4.18668 27.2358 4.08306 26.9912 4.06877C17.4749 3.51002 9.85245 6.37502 6.60245 11.75C5.4759 13.5887 4.92077 15.7204 5.00745 17.875C5.0787 19.865 5.6587 21.875 6.7312 23.8563L4.29245 26.2938C4.10481 26.4814 3.99939 26.7359 3.99939 27.0013C3.99939 27.2666 4.1048 27.5211 4.29245 27.7088C4.48009 27.8964 4.73458 28.0018 4.99995 28.0018C5.26531 28.0018 5.5198 27.8964 5.70745 27.7088L8.14495 25.27C10.1249 26.3413 12.1362 26.9213 14.1249 26.9925C14.2641 26.9975 14.4029 27 14.5412 27C16.5559 27.0054 18.5324 26.4506 20.2499 25.3975C25.6249 22.1475 28.4912 14.5263 27.9312 5.00877ZM19.2187 23.6875C16.3749 25.41 13.0087 25.4375 9.62995 23.7838L20.7087 12.7063C20.8016 12.6134 20.8753 12.5031 20.9256 12.3817C20.9759 12.2603 21.0018 12.1302 21.0018 11.9988C21.0018 11.8674 20.9759 11.7373 20.9256 11.6159C20.8753 11.4945 20.8016 11.3842 20.7087 11.2913C20.6158 11.1984 20.5055 11.1247 20.3841 11.0744C20.2627 11.0241 20.1326 10.9982 20.0012 10.9982C19.8698 10.9982 19.7397 11.0241 19.6183 11.0744C19.4969 11.1247 19.3866 11.1984 19.2937 11.2913L8.2162 22.375C6.56745 19 6.5912 15.625 8.31245 12.7863C11.0737 8.22752 17.6374 5.73127 25.9762 6.02877C26.2749 14.3613 23.7774 20.9263 19.2187 23.6875Z" fill="#343330"/>
</svg>
