<svg width="32" height="32" viewBox="0 0 32 32" fill="none" xmlns="http://www.w3.org/2000/svg">
<path d="M22 29C22 29.2652 21.8947 29.5196 21.7071 29.7071C21.5196 29.8946 21.2653 30 21 30H11C10.7348 30 10.4805 29.8946 10.2929 29.7071C10.1054 29.5196 10 29.2652 10 29C10 28.7348 10.1054 28.4804 10.2929 28.2929C10.4805 28.1054 10.7348 28 11 28H21C21.2653 28 21.5196 28.1054 21.7071 28.2929C21.8947 28.4804 22 28.7348 22 29ZM27 13C27.0044 14.6671 26.6278 16.3131 25.899 17.8124C25.1702 19.3117 24.1086 20.6247 22.795 21.6513C22.5494 21.8395 22.3501 22.0814 22.2123 22.3585C22.0745 22.6356 22.0019 22.9405 22 23.25V24C22 24.5304 21.7893 25.0391 21.4143 25.4142C21.0392 25.7893 20.5305 26 20 26H12C11.4696 26 10.9609 25.7893 10.5858 25.4142C10.2108 25.0391 10 24.5304 10 24V23.25C9.99984 22.9442 9.92953 22.6426 9.79453 22.3683C9.65953 22.0939 9.46342 21.8542 9.22129 21.6675C7.91121 20.6472 6.85036 19.3423 6.11904 17.8515C5.38771 16.3606 5.00506 14.723 5.00004 13.0625C4.96754 7.10375 9.78254 2.14375 15.735 2C17.2017 1.96466 18.6607 2.22307 20.026 2.76003C21.3913 3.29698 22.6354 4.10163 23.6851 5.12662C24.7348 6.1516 25.5688 7.37621 26.1381 8.72836C26.7074 10.0805 27.0005 11.5329 27 13ZM25 13C25.0004 11.7996 24.7606 10.6112 24.2948 9.50486C23.8289 8.39851 23.1465 7.39653 22.2876 6.55789C21.4287 5.71926 20.4107 5.06092 19.2935 4.62164C18.1764 4.18235 16.9826 3.97099 15.7825 4C10.9075 4.115 6.97379 8.17375 7.00004 13.0488C7.00452 14.407 7.3179 15.7464 7.91648 16.9657C8.51506 18.1849 9.38315 19.252 10.455 20.0863C10.9368 20.4608 11.3266 20.9406 11.5944 21.489C11.8621 22.0374 12.0009 22.6397 12 23.25V24H15V18.4138L11.2925 14.7075C11.1049 14.5199 10.9995 14.2654 10.9995 14C10.9995 13.7346 11.1049 13.4801 11.2925 13.2925C11.4802 13.1049 11.7347 12.9994 12 12.9994C12.2654 12.9994 12.5199 13.1049 12.7075 13.2925L16 16.5863L19.2925 13.2925C19.3855 13.1996 19.4958 13.1259 19.6171 13.0756C19.7385 13.0253 19.8686 12.9994 20 12.9994C20.1314 12.9994 20.2615 13.0253 20.3829 13.0756C20.5043 13.1259 20.6146 13.1996 20.7075 13.2925C20.8005 13.3854 20.8742 13.4957 20.9244 13.6171C20.9747 13.7385 21.0006 13.8686 21.0006 14C21.0006 14.1314 20.9747 14.2615 20.9244 14.3829C20.8742 14.5043 20.8005 14.6146 20.7075 14.7075L17 18.4138V24H20V23.25C20.0012 22.638 20.1422 22.0343 20.4123 21.4851C20.6825 20.9359 21.0746 20.4557 21.5588 20.0813C22.6339 19.241 23.5028 18.1663 24.0992 16.939C24.6957 15.7118 25.0038 14.3645 25 13Z" fill="#343330"/>
</svg>
