<svg width="32" height="32" viewBox="0 0 32 32" fill="none" xmlns="http://www.w3.org/2000/svg">
<path d="M22 29C22 29.2652 21.8947 29.5196 21.7071 29.7071C21.5196 29.8946 21.2653 30 21 30H11C10.7348 30 10.4805 29.8946 10.2929 29.7071C10.1054 29.5196 10 29.2652 10 29C10 28.7348 10.1054 28.4804 10.2929 28.2929C10.4805 28.1054 10.7348 28 11 28H21C21.2653 28 21.5196 28.1054 21.7071 28.2929C21.8947 28.4804 22 28.7348 22 29ZM27 13C27.0044 14.6671 26.6278 16.3131 25.899 17.8124C25.1702 19.3117 24.1086 20.6247 22.795 21.6513C22.5494 21.8395 22.3501 22.0814 22.2123 22.3585C22.0745 22.6356 22.0019 22.9405 22 23.25V24C22 24.5304 21.7893 25.0391 21.4143 25.4142C21.0392 25.7893 20.5305 26 20 26H12C11.4696 26 10.9609 25.7893 10.5858 25.4142C10.2108 25.0391 10 24.5304 10 24V23.25C9.99984 22.9442 9.92953 22.6426 9.79453 22.3683C9.65953 22.0939 9.46342 21.8542 9.22129 21.6675C7.91104 20.6471 6.8501 19.3419 6.11876 17.8509C5.38743 16.3599 5.00487 14.722 5.00004 13.0613C4.96754 7.10375 9.78254 2.1425 15.735 2C17.2017 1.96466 18.6607 2.22307 20.026 2.76003C21.3913 3.29698 22.6354 4.10163 23.6851 5.12662C24.7348 6.1516 25.5688 7.37621 26.1381 8.72836C26.7074 10.0805 27.0005 11.5329 27 13ZM25 13C25.0004 11.7996 24.7606 10.6112 24.2948 9.50486C23.8289 8.39851 23.1465 7.39653 22.2876 6.55789C21.4287 5.71926 20.4107 5.06092 19.2935 4.62164C18.1764 4.18235 16.9826 3.97099 15.7825 4C10.9075 4.115 6.97379 8.17375 7.00004 13.0488C7.00461 14.407 7.31804 15.7464 7.91661 16.9656C8.51518 18.1849 9.38322 19.252 10.455 20.0863C10.9368 20.4608 11.3266 20.9406 11.5944 21.489C11.8621 22.0374 12.0009 22.6397 12 23.25V24H20V23.25C20.0014 22.638 20.1426 22.0344 20.4127 21.4852C20.6829 20.9361 21.0748 20.4559 21.5588 20.0813C22.6339 19.241 23.5028 18.1663 24.0992 16.939C24.6957 15.7118 25.0038 14.3645 25 13ZM22.9863 11.8325C22.727 10.3841 22.0302 9.04996 20.9896 8.00963C19.949 6.96929 18.6147 6.27275 17.1663 6.01375C17.0368 5.99192 16.9042 5.99581 16.7762 6.02521C16.6482 6.0546 16.5272 6.10892 16.4202 6.18506C16.3132 6.26121 16.2222 6.35769 16.1525 6.46899C16.0828 6.58029 16.0356 6.70424 16.0138 6.83375C15.992 6.96327 15.9959 7.09582 16.0252 7.22383C16.0546 7.35184 16.109 7.47281 16.1851 7.57983C16.2612 7.68685 16.3577 7.77782 16.469 7.84756C16.5803 7.91729 16.7043 7.96442 16.8338 7.98625C18.905 8.335 20.6625 10.0925 21.0138 12.1675C21.0534 12.4004 21.1741 12.6118 21.3546 12.7642C21.5352 12.9165 21.7638 13.0001 22 13C22.0566 12.9997 22.113 12.9951 22.1688 12.9863C22.4302 12.9416 22.6631 12.795 22.8164 12.5787C22.9697 12.3623 23.0308 12.0939 22.9863 11.8325Z" fill="#343330"/>
</svg>
