<svg width="32" height="32" viewBox="0 0 32 32" fill="none" xmlns="http://www.w3.org/2000/svg">
<path d="M6.74001 4.32751C6.65219 4.22851 6.5456 4.14794 6.42641 4.09044C6.30722 4.03295 6.1778 3.99969 6.04566 3.99258C5.91352 3.98547 5.78129 4.00466 5.65662 4.04903C5.53195 4.0934 5.41733 4.16208 5.3194 4.25108C5.22146 4.34008 5.14217 4.44763 5.08611 4.5675C5.03005 4.68737 4.99834 4.81717 4.99282 4.94939C4.98729 5.0816 5.00806 5.2136 5.05393 5.33773C5.09979 5.46186 5.16984 5.57565 5.26001 5.67251L10.1663 11.07L5.26876 16.32C5.15505 16.4398 5.07279 16.5859 5.02934 16.7453C4.98588 16.9047 4.98257 17.0723 5.01972 17.2332C5.05686 17.3942 5.13329 17.5434 5.24219 17.6676C5.35108 17.7918 5.48905 17.8871 5.64376 17.945L12.8475 20.6463L11.02 29.8038C10.9785 30.0167 11.0074 30.2374 11.1023 30.4325C11.1973 30.6276 11.3531 30.7866 11.5463 30.8854C11.7395 30.9841 11.9596 31.0174 12.1733 30.9801C12.3871 30.9429 12.5829 30.8371 12.7313 30.6788L20.4638 22.3938L25.26 27.6688C25.3478 27.7677 25.4544 27.8483 25.5736 27.9058C25.6928 27.9633 25.8222 27.9966 25.9544 28.0037C26.0865 28.0108 26.2187 27.9916 26.3434 27.9472C26.4681 27.9029 26.5827 27.8342 26.6806 27.7452C26.7786 27.6562 26.8578 27.5486 26.9139 27.4288C26.97 27.3089 27.0017 27.1791 27.0072 27.0469C27.0127 26.9147 26.992 26.7827 26.9461 26.6585C26.9002 26.5344 26.8302 26.4206 26.74 26.3238L6.74001 4.32751ZM13.6713 26.75L14.98 20.2025C15.0268 19.9703 14.9897 19.729 14.8753 19.5216C14.7608 19.3142 14.5764 19.1542 14.355 19.07L7.75001 16.5888L11.515 12.555L19.1125 20.9125L13.6713 26.75ZM13.5825 8.87501C13.4864 8.7854 13.409 8.67774 13.3545 8.55819C13.3001 8.43863 13.2698 8.30952 13.2652 8.17823C13.2607 8.04694 13.2821 7.91605 13.3282 7.79303C13.3742 7.67001 13.4441 7.55727 13.5338 7.46126L19.2688 1.31626C19.4171 1.15793 19.613 1.05215 19.8267 1.01488C20.0405 0.977609 20.2605 1.01088 20.4537 1.10966C20.6469 1.20844 20.8027 1.36738 20.8977 1.56248C20.9926 1.75759 21.0215 1.97828 20.98 2.19126L19.1475 11.3625L26.3513 14.0638C26.5048 14.122 26.6417 14.2172 26.7497 14.3409C26.8578 14.4646 26.9337 14.613 26.9708 14.7731C27.0078 14.9331 27.0049 15.0997 26.9623 15.2584C26.9196 15.417 26.8386 15.5627 26.7263 15.6825L23.9388 18.6688C23.7566 18.8572 23.5077 18.9667 23.2457 18.9735C22.9837 18.9803 22.7294 18.8839 22.5377 18.7052C22.346 18.5264 22.2322 18.2795 22.2207 18.0177C22.2092 17.7558 22.301 17.4999 22.4763 17.305L24.25 15.4113L17.65 12.9363C17.4286 12.8521 17.2442 12.6921 17.1297 12.4847C17.0153 12.2773 16.9782 12.036 17.025 11.8038L18.3338 5.25626L15 8.82751C14.9103 8.92404 14.8023 9.00187 14.6824 9.05654C14.5624 9.1112 14.4329 9.14162 14.3011 9.14603C14.1694 9.15044 14.0381 9.12877 13.9148 9.08226C13.7914 9.03575 13.6785 8.96531 13.5825 8.87501Z" fill="#343330"/>
</svg>
