<svg width="32" height="32" viewBox="0 0 32 32" fill="none" xmlns="http://www.w3.org/2000/svg">
<path d="M26.83 5.16999C26.1418 4.47988 25.2254 4.06475 24.2528 4.00257C23.2802 3.94039 22.3183 4.23544 21.5479 4.8323C20.7774 5.42917 20.2514 6.28678 20.0686 7.24407C19.8858 8.20136 20.0587 9.19246 20.555 10.0312L10.0312 20.555C9.26681 20.1056 8.37492 19.9224 7.49524 20.0342C6.61556 20.1459 5.79779 20.5462 5.16999 21.1725C4.64117 21.7016 4.27132 22.3684 4.10245 23.0972C3.93358 23.826 3.97247 24.5875 4.21469 25.2953C4.45691 26.0031 4.89275 26.6287 5.47272 27.1012C6.05269 27.5737 6.75354 27.8741 7.49568 27.9683C8.23781 28.0625 8.99147 27.9467 9.67108 27.634C10.3507 27.3213 10.929 26.8243 11.3403 26.1995C11.7516 25.5746 11.9795 24.8469 11.998 24.0991C12.0165 23.3512 11.8249 22.6132 11.445 21.9687L21.9687 11.445C22.8075 11.9413 23.7986 12.1142 24.7559 11.9314C25.7132 11.7486 26.5708 11.2226 27.1677 10.4521C27.7645 9.68166 28.0596 8.71982 27.9974 7.74721C27.9352 6.7746 27.5201 5.85816 26.83 5.16999ZM9.41374 25.42C9.03846 25.7953 8.52947 26.0061 7.99874 26.0061C7.46802 26.0061 6.95903 25.7953 6.58374 25.42C6.20846 25.0447 5.99763 24.5357 5.99763 24.005C5.99763 23.4743 6.20846 22.9653 6.58374 22.59C6.76947 22.4042 6.98997 22.2569 7.23265 22.1563C7.47533 22.0558 7.73544 22.004 7.99812 22.004C8.2608 22.004 8.52091 22.0558 8.76359 22.1563C9.00627 22.2569 9.22677 22.4042 9.41249 22.59C9.78707 22.9648 9.99758 23.473 9.99782 24.0029C9.99805 24.5328 9.78799 25.0411 9.41374 25.4162V25.42ZM25.4137 9.41999C25.134 9.69965 24.7777 9.89009 24.3897 9.96722C24.0018 10.0444 23.5996 10.0047 23.2342 9.85333C22.8688 9.70194 22.5565 9.4456 22.3367 9.11671C22.117 8.78782 21.9997 8.40116 21.9997 8.00562C21.9997 7.61007 22.117 7.22341 22.3367 6.89452C22.5565 6.56563 22.8688 6.30929 23.2342 6.1579C23.5996 6.00651 24.0018 5.96688 24.3897 6.04401C24.7777 6.12115 25.134 6.31158 25.4137 6.59124C25.787 6.96569 25.9967 7.47267 25.9972 8.00135C25.9977 8.53003 25.7888 9.03738 25.4162 9.41249L25.4137 9.41999Z" fill="#343330"/>
</svg>
