<svg width="32" height="32" viewBox="0 0 32 32" fill="none" xmlns="http://www.w3.org/2000/svg">
<path d="M29 10C29.0023 10.9196 28.8223 11.8306 28.4705 12.6802C28.1186 13.5298 27.6018 14.3013 26.95 14.95L23.1912 18.7075C23.0036 18.895 22.7492 19.0002 22.4839 19.0001C22.2187 19 21.9643 18.8945 21.7769 18.7069C21.5894 18.5192 21.4841 18.2648 21.4843 17.9996C21.4844 17.7343 21.5898 17.48 21.7775 17.2925L25.5362 13.535C26.009 13.0726 26.3854 12.521 26.6435 11.9121C26.9017 11.3033 27.0365 10.6493 27.0401 9.98796C27.0437 9.32666 26.9162 8.6712 26.6647 8.05953C26.4133 7.44787 26.0431 6.89216 25.5754 6.42458C25.1077 5.957 24.552 5.58684 23.9403 5.33553C23.3285 5.08422 22.6731 4.95675 22.0118 4.96051C21.3505 4.96427 20.6965 5.09918 20.0877 5.35743C19.4788 5.61567 18.9273 5.99213 18.465 6.465L14.7075 10.2212C14.5198 10.4089 14.2654 10.5143 14 10.5143C13.7346 10.5143 13.4801 10.4089 13.2925 10.2212C13.1048 10.0336 12.9994 9.77911 12.9994 9.51375C12.9994 9.24838 13.1048 8.99389 13.2925 8.80625L17.05 5.05C18.029 4.07093 19.2763 3.40416 20.6342 3.13402C21.9922 2.86388 23.3997 3.00251 24.6788 3.53236C25.958 4.06222 27.0513 4.9595 27.8204 6.11074C28.5896 7.26198 29.0001 8.61545 29 10ZM17.2925 21.7775L13.535 25.535C13.0726 26.0078 12.521 26.3841 11.9121 26.6423C11.3033 26.9004 10.6493 27.0352 9.98796 27.0389C9.32665 27.0425 8.67119 26.9149 8.05953 26.6635C7.44787 26.4121 6.89216 26.0418 6.42458 25.5742C5.95699 25.1065 5.58683 24.5507 5.33552 23.939C5.08421 23.3273 4.95674 22.6718 4.9605 22.0105C4.96426 21.3492 5.09917 20.6952 5.35742 20.0864C5.61567 19.4776 5.99212 18.9261 6.46499 18.4637L10.2212 14.7075C10.4089 14.5199 10.5143 14.2654 10.5143 14C10.5143 13.7346 10.4089 13.4801 10.2212 13.2925C10.0336 13.1049 9.77911 12.9994 9.51374 12.9994C9.24838 12.9994 8.99388 13.1049 8.80624 13.2925L5.04999 17.05C3.73717 18.3628 2.99963 20.1434 2.99963 22C2.99963 23.8566 3.73717 25.6372 5.04999 26.95C6.36281 28.2628 8.14338 29.0004 9.99999 29.0004C11.8566 29.0004 13.6372 28.2628 14.95 26.95L18.7075 23.1912C18.895 23.0036 19.0002 22.7492 19.0001 22.4839C19 22.2187 18.8945 21.9643 18.7069 21.7769C18.5192 21.5894 18.2648 21.4841 17.9995 21.4843C17.7343 21.4844 17.48 21.5899 17.2925 21.7775Z" fill="#343330"/>
</svg>
