<svg width="32" height="32" viewBox="0 0 32 32" fill="none" xmlns="http://www.w3.org/2000/svg">
<path d="M28 16C28 16.2652 27.8947 16.5196 27.7071 16.7071C27.5196 16.8947 27.2652 17 27 17H16C15.7348 17 15.4804 16.8947 15.2929 16.7071C15.1054 16.5196 15 16.2652 15 16C15 15.7348 15.1054 15.4804 15.2929 15.2929C15.4804 15.1054 15.7348 15 16 15H27C27.2652 15 27.5196 15.1054 27.7071 15.2929C27.8947 15.4804 28 15.7348 28 16ZM16 9.00001H27C27.2652 9.00001 27.5196 8.89465 27.7071 8.70711C27.8947 8.51958 28 8.26522 28 8.00001C28 7.73479 27.8947 7.48044 27.7071 7.2929C27.5196 7.10536 27.2652 7.00001 27 7.00001H16C15.7348 7.00001 15.4804 7.10536 15.2929 7.2929C15.1054 7.48044 15 7.73479 15 8.00001C15 8.26522 15.1054 8.51958 15.2929 8.70711C15.4804 8.89465 15.7348 9.00001 16 9.00001ZM27 23H16C15.7348 23 15.4804 23.1054 15.2929 23.2929C15.1054 23.4804 15 23.7348 15 24C15 24.2652 15.1054 24.5196 15.2929 24.7071C15.4804 24.8947 15.7348 25 16 25H27C27.2652 25 27.5196 24.8947 27.7071 24.7071C27.8947 24.5196 28 24.2652 28 24C28 23.7348 27.8947 23.4804 27.7071 23.2929C27.5196 23.1054 27.2652 23 27 23ZM10.2925 5.29251L7.00001 8.58626L5.70751 7.29251C5.51987 7.10487 5.26537 6.99945 5.00001 6.99945C4.73464 6.99945 4.48015 7.10487 4.29251 7.29251C4.10487 7.48015 3.99945 7.73464 3.99945 8.00001C3.99945 8.26537 4.10487 8.51987 4.29251 8.70751L6.29251 10.7075C6.38538 10.8005 6.49567 10.8742 6.61707 10.9246C6.73846 10.9749 6.86859 11.0008 7.00001 11.0008C7.13142 11.0008 7.26155 10.9749 7.38295 10.9246C7.50434 10.8742 7.61463 10.8005 7.70751 10.7075L11.7075 6.70751C11.8951 6.51987 12.0006 6.26537 12.0006 6.00001C12.0006 5.73464 11.8951 5.48015 11.7075 5.29251C11.5199 5.10487 11.2654 4.99945 11 4.99945C10.7346 4.99945 10.4801 5.10487 10.2925 5.29251ZM10.2925 13.2925L7.00001 16.5863L5.70751 15.2925C5.51987 15.1049 5.26537 14.9995 5.00001 14.9995C4.73464 14.9995 4.48015 15.1049 4.29251 15.2925C4.10487 15.4801 3.99945 15.7346 3.99945 16C3.99945 16.1314 4.02533 16.2615 4.07561 16.3829C4.1259 16.5043 4.1996 16.6146 4.29251 16.7075L6.29251 18.7075C6.38538 18.8005 6.49567 18.8742 6.61707 18.9246C6.73846 18.9749 6.86859 19.0008 7.00001 19.0008C7.13142 19.0008 7.26155 18.9749 7.38295 18.9246C7.50434 18.8742 7.61463 18.8005 7.70751 18.7075L11.7075 14.7075C11.8951 14.5199 12.0006 14.2654 12.0006 14C12.0006 13.7346 11.8951 13.4801 11.7075 13.2925C11.5199 13.1049 11.2654 12.9995 11 12.9995C10.7346 12.9995 10.4801 13.1049 10.2925 13.2925ZM10.2925 21.2925L7.00001 24.5863L5.70751 23.2925C5.6146 23.1996 5.5043 23.1259 5.3829 23.0756C5.26151 23.0253 5.1314 22.9995 5.00001 22.9995C4.86861 22.9995 4.7385 23.0253 4.61711 23.0756C4.49572 23.1259 4.38542 23.1996 4.29251 23.2925C4.1996 23.3854 4.1259 23.4957 4.07561 23.6171C4.02533 23.7385 3.99945 23.8686 3.99945 24C3.99945 24.1314 4.02533 24.2615 4.07561 24.3829C4.1259 24.5043 4.1996 24.6146 4.29251 24.7075L6.29251 26.7075C6.38538 26.8005 6.49567 26.8742 6.61707 26.9246C6.73846 26.9749 6.86859 27.0008 7.00001 27.0008C7.13142 27.0008 7.26155 26.9749 7.38295 26.9246C7.50434 26.8742 7.61463 26.8005 7.70751 26.7075L11.7075 22.7075C11.8951 22.5199 12.0006 22.2654 12.0006 22C12.0006 21.7346 11.8951 21.4801 11.7075 21.2925C11.5199 21.1049 11.2654 20.9994 11 20.9994C10.7346 20.9994 10.4801 21.1049 10.2925 21.2925Z" fill="#343330"/>
</svg>
