<svg width="32" height="32" viewBox="0 0 32 32" fill="none" xmlns="http://www.w3.org/2000/svg">
<path d="M28 16C28 16.2652 27.8946 16.5196 27.7071 16.7071C27.5196 16.8946 27.2652 17 27 17H13C12.7348 17 12.4804 16.8946 12.2929 16.7071C12.1054 16.5196 12 16.2652 12 16C12 15.7348 12.1054 15.4804 12.2929 15.2929C12.4804 15.1054 12.7348 15 13 15H27C27.2652 15 27.5196 15.1054 27.7071 15.2929C27.8946 15.4804 28 15.7348 28 16ZM13 9H27C27.2652 9 27.5196 8.89464 27.7071 8.70711C27.8946 8.51957 28 8.26522 28 8C28 7.73478 27.8946 7.48043 27.7071 7.29289C27.5196 7.10536 27.2652 7 27 7H13C12.7348 7 12.4804 7.10536 12.2929 7.29289C12.1054 7.48043 12 7.73478 12 8C12 8.26522 12.1054 8.51957 12.2929 8.70711C12.4804 8.89464 12.7348 9 13 9ZM27 23H13C12.7348 23 12.4804 23.1054 12.2929 23.2929C12.1054 23.4804 12 23.7348 12 24C12 24.2652 12.1054 24.5196 12.2929 24.7071C12.4804 24.8946 12.7348 25 13 25H27C27.2652 25 27.5196 24.8946 27.7071 24.7071C27.8946 24.5196 28 24.2652 28 24C28 23.7348 27.8946 23.4804 27.7071 23.2929C27.5196 23.1054 27.2652 23 27 23ZM5.44749 6.895L5.99999 6.6175V13C5.99999 13.2652 6.10535 13.5196 6.29289 13.7071C6.48042 13.8946 6.73478 14 6.99999 14C7.26521 14 7.51956 13.8946 7.7071 13.7071C7.89464 13.5196 7.99999 13.2652 7.99999 13V5C8.00012 4.82945 7.95662 4.66171 7.87364 4.51272C7.79066 4.36372 7.67095 4.23843 7.52589 4.14874C7.38084 4.05905 7.21525 4.00795 7.04488 4.00029C6.87451 3.99264 6.70501 4.02868 6.55249 4.105L4.55249 5.105C4.31513 5.22368 4.13463 5.4318 4.0507 5.68357C4.00915 5.80823 3.99256 5.93986 4.00187 6.07093C4.01119 6.20201 4.04623 6.32997 4.10499 6.4475C4.16376 6.56503 4.2451 6.66984 4.34437 6.75594C4.44364 6.84203 4.5589 6.90774 4.68356 6.94929C4.93533 7.03321 5.21013 7.01368 5.44749 6.895ZM9.97124 19.59C9.91595 19.1939 9.78114 18.8132 9.57492 18.4705C9.3687 18.1279 9.09533 17.8305 8.77124 17.5962C8.12213 17.1249 7.31588 16.9228 6.52119 17.0323C5.7265 17.1418 5.00495 17.5544 4.50749 18.1837C4.31737 18.4279 4.16678 18.7004 4.06124 18.9912C4.00614 19.1164 3.9773 19.2516 3.97652 19.3884C3.97574 19.5252 4.00303 19.6607 4.0567 19.7865C4.11038 19.9123 4.1893 20.0258 4.28858 20.1199C4.38786 20.214 4.50539 20.2867 4.6339 20.3336C4.76242 20.3805 4.89918 20.4005 5.03573 20.3924C5.17228 20.3843 5.30572 20.3482 5.42778 20.2865C5.54985 20.2248 5.65796 20.1387 5.74542 20.0335C5.83288 19.9283 5.89782 19.8063 5.93624 19.675C5.97124 19.5791 6.02101 19.4893 6.08374 19.4087C6.26015 19.189 6.5145 19.0456 6.79389 19.0086C7.07328 18.9716 7.35619 19.0437 7.58374 19.21C7.69321 19.2874 7.78578 19.3863 7.85583 19.5006C7.92589 19.6149 7.97196 19.7423 7.99124 19.875C8.00889 20.0024 8.0006 20.1321 7.96687 20.2563C7.93315 20.3804 7.87469 20.4965 7.79499 20.5975C7.79135 20.6019 7.78801 20.6064 7.78499 20.6112L4.19874 25.4013C4.08761 25.5499 4.02005 25.7266 4.00361 25.9114C3.98717 26.0963 4.02251 26.2821 4.10567 26.4481C4.18883 26.614 4.31653 26.7535 4.47448 26.851C4.63243 26.9485 4.81439 27.0001 4.99999 27H8.99999C9.26521 27 9.51957 26.8946 9.7071 26.7071C9.89464 26.5196 9.99999 26.2652 9.99999 26C9.99999 25.7348 9.89464 25.4804 9.7071 25.2929C9.51957 25.1054 9.26521 25 8.99999 25H6.99999L9.38499 21.8088C9.6268 21.4973 9.80334 21.1403 9.90407 20.7591C10.0048 20.3779 10.0276 19.9802 9.97124 19.59Z" fill="#343330"/>
</svg>
