<svg width="32" height="32" viewBox="0 0 32 32" fill="none" xmlns="http://www.w3.org/2000/svg">
<path d="M28.615 6.21125C28.4952 6.11791 28.3557 6.05308 28.2072 6.02168C28.0586 5.99028 27.9048 5.99312 27.7575 6.03L20.1162 7.94L12.4475 4.105C12.2338 3.99843 11.9891 3.97182 11.7575 4.03L3.7575 6.03C3.54116 6.08408 3.3491 6.20891 3.21185 6.38467C3.0746 6.56042 3.00003 6.77701 3 7V25C3.00002 25.152 3.03467 25.3019 3.10132 25.4385C3.16797 25.575 3.26486 25.6946 3.38463 25.7881C3.50441 25.8816 3.64392 25.9466 3.79256 25.9781C3.94121 26.0096 4.09508 26.0068 4.2425 25.97L11.8837 24.06L19.5525 27.895C19.6917 27.9636 19.8448 27.9995 20 28C20.0818 28 20.1632 27.9899 20.2425 27.97L28.2425 25.97C28.4588 25.9159 28.6509 25.7911 28.7881 25.6153C28.9254 25.4396 29 25.223 29 25V7C29 6.84791 28.9654 6.69781 28.8987 6.56113C28.8319 6.42445 28.7349 6.30479 28.615 6.21125ZM13 6.6175L19 9.6175V25.3825L13 22.3825V6.6175ZM5 7.78125L11 6.28125V22.2188L5 23.7188V7.78125ZM27 24.2188L21 25.7188V9.78125L27 8.28125V24.2188Z" fill="#343330"/>
</svg>
