<svg width="32" height="32" viewBox="0 0 32 32" fill="none" xmlns="http://www.w3.org/2000/svg">
<path d="M25.1925 6.80751C22.7545 4.3695 19.4478 2.99985 16 2.99985C12.5521 2.99985 9.24548 4.3695 6.80748 6.80751C4.36947 9.24551 2.99982 12.5521 2.99982 16C2.99982 19.4479 4.36947 22.7545 6.80747 25.1925C9.24548 27.6305 12.5521 29.0002 16 29.0002C19.4478 29.0002 22.7545 27.6305 25.1925 25.1925C27.6305 22.7545 29.0001 19.4479 29.0001 16C29.0001 12.5521 27.6305 9.24551 25.1925 6.80751ZM11 25.7963V22H21V25.7963C19.4506 26.5827 17.7375 26.9925 16 26.9925C14.2624 26.9925 12.5494 26.5827 11 25.7963ZM13 18H19V20H13V18ZM14.75 16L16 10L17.25 16H14.75ZM23.7775 23.7788C23.5275 24.0288 23.2675 24.2625 23 24.4838V22C23 21.4696 22.7893 20.9609 22.4142 20.5858C22.0391 20.2107 21.5304 20 21 20V18C20.9994 17.5218 20.8274 17.0596 20.5153 16.6973C20.2032 16.3349 19.7716 16.0964 19.2987 16.025L17.9575 9.59251C17.8633 9.14305 17.6173 8.73968 17.2609 8.45017C16.9044 8.16065 16.4592 8.00262 16 8.00262C15.5408 8.00262 15.0955 8.16065 14.7391 8.45017C14.3826 8.73968 14.1366 9.14305 14.0425 9.59251L12.7012 16.025C12.2284 16.0964 11.7968 16.3349 11.4846 16.6973C11.1725 17.0596 11.0006 17.5218 11 18V20C10.4695 20 9.96083 20.2107 9.58576 20.5858C9.21069 20.9609 8.99998 21.4696 8.99998 22V24.4838C8.73248 24.2625 8.47248 24.0288 8.22248 23.7788C6.68391 22.2405 5.63607 20.2804 5.21148 18.1466C4.78688 16.0128 5.00461 13.8009 5.83712 11.7908C6.66963 9.78073 8.07952 8.06265 9.8885 6.85387C11.6975 5.64509 13.8243 4.99991 16 4.99991C18.1757 4.99991 20.3025 5.64509 22.1114 6.85387C23.9204 8.06265 25.3303 9.78073 26.1628 11.7908C26.9953 13.8009 27.2131 16.0128 26.7885 18.1466C26.3639 20.2804 25.316 22.2405 23.7775 23.7788Z" fill="#343330"/>
</svg>
