<svg width="32" height="32" viewBox="0 0 32 32" fill="none" xmlns="http://www.w3.org/2000/svg">
<path d="M14 13C14 13.2652 13.8946 13.5196 13.7071 13.7071C13.5196 13.8946 13.2652 14 13 14H12V19C12 19.2652 11.8946 19.5196 11.7071 19.7071C11.5196 19.8946 11.2652 20 11 20C10.7348 20 10.4804 19.8946 10.2929 19.7071C10.1054 19.5196 10 19.2652 10 19V14H9C8.73478 14 8.48043 13.8946 8.29289 13.7071C8.10536 13.5196 8 13.2652 8 13C8 12.7348 8.10536 12.4804 8.29289 12.2929C8.48043 12.1054 8.73478 12 9 12H13C13.2652 12 13.5196 12.1054 13.7071 12.2929C13.8946 12.4804 14 12.7348 14 13ZM29 11.5925V19C28.9998 20.253 28.5291 21.4602 27.6811 22.3827C26.8332 23.3052 25.6698 23.8757 24.4212 23.9813C23.8264 25.4609 22.8028 26.7289 21.4821 27.6226C20.1613 28.5164 18.6036 28.9949 17.0088 28.997C15.4141 28.999 13.8552 28.5243 12.5321 27.6339C11.2091 26.7436 10.1824 25.4781 9.58375 24H5C4.46957 24 3.96086 23.7893 3.58579 23.4142C3.21071 23.0391 3 22.5304 3 22V10C3 9.46957 3.21071 8.96086 3.58579 8.58579C3.96086 8.21071 4.46957 8 5 8H12.1012C11.8675 6.8481 12.047 5.65067 12.6082 4.61795C13.1695 3.58523 14.0766 2.78325 15.1704 2.35283C16.2641 1.92241 17.4745 1.89106 18.5891 2.26429C19.7036 2.63752 20.651 3.39147 21.265 4.39375C22.0354 4.02347 22.9042 3.90973 23.744 4.06919C24.5837 4.22865 25.3503 4.65294 25.9314 5.27985C26.5125 5.90676 26.8774 6.70332 26.9728 7.55277C27.0681 8.40221 26.8889 9.25987 26.4613 10H27.4075C27.8297 10.0007 28.2343 10.1687 28.5328 10.4672C28.8313 10.7657 28.9993 11.1703 29 11.5925ZM14 7C13.9999 7.34075 14.0582 7.67899 14.1725 8H17C17.4135 8.00051 17.8166 8.12915 18.154 8.36823C18.4913 8.6073 18.7463 8.94505 18.8838 9.335C19.2782 9.01673 19.5857 8.60369 19.7773 8.13445C19.9689 7.66521 20.0386 7.15506 19.9797 6.65162C19.9208 6.14818 19.7353 5.66787 19.4405 5.25553C19.1458 4.84318 18.7513 4.51224 18.294 4.2936C17.8368 4.07497 17.3315 3.97576 16.8255 4.00524C16.3195 4.03472 15.8292 4.19193 15.4004 4.46219C14.9716 4.73245 14.6183 5.10696 14.3734 5.55074C14.1285 5.99453 14 6.49313 14 7ZM17 22V10H5V22H17ZM23 12H19V22C19 22.5304 18.7893 23.0391 18.4142 23.4142C18.0391 23.7893 17.5304 24 17 24H11.805C12.4657 25.1433 13.485 26.0367 14.705 26.5418C15.9251 27.0468 17.2776 27.1353 18.5531 26.7935C19.8285 26.4517 20.9556 25.6988 21.7596 24.6513C22.5636 23.6039 22.9996 22.3204 23 21V12ZM25 8C24.9996 7.64418 24.9043 7.2949 24.7239 6.9882C24.5435 6.6815 24.2845 6.42848 23.9737 6.25524C23.6629 6.08201 23.3115 5.99483 22.9558 6.00269C22.6 6.01056 22.2528 6.11319 21.95 6.3C22.0426 6.9489 22.0064 7.6097 21.8434 8.24458C21.6804 8.87947 21.3938 9.47598 21 10H23C23.5304 10 24.0391 9.78929 24.4142 9.41421C24.7893 9.03914 25 8.53043 25 8ZM27 12H25V21C25.0002 21.2819 24.9851 21.5635 24.955 21.8438C25.5508 21.6437 26.0687 21.2616 26.4356 20.7513C26.8025 20.2411 27 19.6285 27 19V12Z" fill="#343330"/>
</svg>
