<svg width="32" height="32" viewBox="0 0 32 32" fill="none" xmlns="http://www.w3.org/2000/svg">
<path d="M27 15C26.7236 15.0006 26.4477 15.0236 26.175 15.0688L25.4475 13.1763C25.9567 13.0594 26.4775 13.0002 27 13C27.2652 13 27.5196 12.8946 27.7071 12.7071C27.8946 12.5196 28 12.2652 28 12C28 11.7348 27.8946 11.4804 27.7071 11.2929C27.5196 11.1054 27.2652 11 27 11H24.61L22.9338 6.64125C22.8612 6.45248 22.7331 6.29015 22.5664 6.17567C22.3997 6.06119 22.2022 5.99994 22 6H18C17.7348 6 17.4804 6.10536 17.2929 6.29289C17.1054 6.48043 17 6.73478 17 7C17 7.26522 17.1054 7.51957 17.2929 7.70711C17.4804 7.89464 17.7348 8 18 8H21.3138L22.4675 11H19C16.6875 11 14.8125 11.5387 13.5788 12.5575C13.2884 12.7917 12.9384 12.9401 12.5682 12.9858C12.198 13.0315 11.8223 12.9728 11.4838 12.8162C10.1613 12.215 3.89125 9.66625 3.33875 9.45L2.625 9.17C2.42611 9.08305 2.21553 9.02577 2 9C1.76686 9.00056 1.54125 9.08257 1.36216 9.23183C1.18307 9.3811 1.06177 9.58825 1.01921 9.81748C0.97666 10.0467 1.01553 10.2836 1.12912 10.4872C1.2427 10.6908 1.42385 10.8483 1.64125 10.9325C1.69875 10.955 7.54 13.22 10.6575 14.6362C11.3375 14.9456 12.0902 15.0593 12.8312 14.9646C13.5723 14.8698 14.2722 14.5705 14.8525 14.1C15.46 13.6 16.6738 13 19.0013 13H21.3538C19.894 14.1719 18.8375 15.7712 18.3325 17.5737C18.2115 17.9877 17.9588 18.3509 17.6128 18.6083C17.2668 18.8657 16.8463 19.0032 16.415 19H9.9C9.65219 17.786 8.96241 16.7072 7.96441 15.9728C6.96641 15.2384 5.73128 14.9008 4.49848 15.0253C3.26568 15.1499 2.12303 15.7277 1.29207 16.6468C0.461102 17.566 0.00102234 18.7609 0.00102234 20C0.00102234 21.2391 0.461102 22.434 1.29207 23.3532C2.12303 24.2723 3.26568 24.8501 4.49848 24.9747C5.73128 25.0992 6.96641 24.7616 7.96441 24.0272C8.96241 23.2928 9.65219 22.214 9.9 21H16.415C17.2823 21.0019 18.1266 20.7211 18.82 20.2C19.5134 19.679 20.018 18.9461 20.2575 18.1125C20.5069 17.2258 20.9289 16.397 21.4993 15.6737C22.0697 14.9505 22.7772 14.3468 23.5813 13.8975L24.3088 15.7887C23.2952 16.4375 22.5496 17.43 22.2089 18.5841C21.8681 19.7382 21.955 20.9765 22.4536 22.0717C22.9522 23.1669 23.8291 24.0456 24.9233 24.5464C26.0175 25.0472 27.2556 25.1366 28.4104 24.7982C29.5652 24.4597 30.5592 23.7161 31.21 22.7039C31.8608 21.6917 32.1246 20.4787 31.9532 19.2876C31.7817 18.0965 31.1864 17.0072 30.2766 16.2196C29.3667 15.432 28.2034 14.999 27 15ZM5 21H7.8275C7.59161 21.6672 7.12743 22.2296 6.51702 22.5876C5.90661 22.9457 5.18926 23.0765 4.49177 22.9568C3.79427 22.8371 3.16154 22.4747 2.7054 21.9337C2.24925 21.3926 1.99907 20.7077 1.99907 20C1.99907 19.2923 2.24925 18.6074 2.7054 18.0663C3.16154 17.5253 3.79427 17.1629 4.49177 17.0432C5.18926 16.9235 5.90661 17.0543 6.51702 17.4124C7.12743 17.7704 7.59161 18.3328 7.8275 19H5C4.73479 19 4.48043 19.1054 4.2929 19.2929C4.10536 19.4804 4 19.7348 4 20C4 20.2652 4.10536 20.5196 4.2929 20.7071C4.48043 20.8946 4.73479 21 5 21ZM27 23C26.3872 22.9992 25.7894 22.8108 25.2868 22.4601C24.7843 22.1095 24.4013 21.6133 24.1892 21.0384C23.9771 20.4635 23.9461 19.8374 24.1004 19.2444C24.2548 18.6514 24.587 18.1198 25.0525 17.7213L26.0663 20.3587C26.1614 20.6064 26.351 20.8061 26.5934 20.9139C26.8358 21.0218 27.1111 21.0289 27.3588 20.9338C27.6064 20.8386 27.8061 20.649 27.9139 20.4066C28.0218 20.1642 28.0289 19.8889 27.9338 19.6413L26.9188 17H27C27.7957 17 28.5587 17.3161 29.1213 17.8787C29.6839 18.4413 30 19.2044 30 20C30 20.7956 29.6839 21.5587 29.1213 22.1213C28.5587 22.6839 27.7957 23 27 23Z" fill="#343330"/>
</svg>
