<svg width="32" height="32" viewBox="0 0 32 32" fill="none" xmlns="http://www.w3.org/2000/svg">
<path d="M23 19C23 19.2652 22.8946 19.5196 22.7071 19.7071C22.5196 19.8946 22.2652 20 22 20H20V26C20 26.2652 19.8946 26.5196 19.7071 26.7071C19.5196 26.8946 19.2652 27 19 27C18.7348 27 18.4804 26.8946 18.2929 26.7071C18.1054 26.5196 18 26.2652 18 26V20H9C8.8398 19.9999 8.68196 19.9613 8.53978 19.8875C8.3976 19.8137 8.27523 19.7068 8.18298 19.5759C8.09073 19.4449 8.03129 19.2937 8.00967 19.135C7.98805 18.9762 8.00488 18.8146 8.05875 18.6637L13.0587 4.66375C13.1538 4.42197 13.3392 4.22666 13.5757 4.11916C13.8122 4.01167 14.0812 4.00043 14.3259 4.08783C14.5705 4.17522 14.7715 4.35439 14.8864 4.5874C15.0012 4.82042 15.0209 5.08898 14.9412 5.33625L10.4187 18H18V12C18 11.7348 18.1054 11.4804 18.2929 11.2929C18.4804 11.1054 18.7348 11 19 11C19.2652 11 19.5196 11.1054 19.7071 11.2929C19.8946 11.4804 20 11.7348 20 12V18H22C22.2652 18 22.5196 18.1054 22.7071 18.2929C22.8946 18.4804 23 18.7348 23 19Z" fill="#343330"/>
</svg>
