<svg width="32" height="32" viewBox="0 0 32 32" fill="none" xmlns="http://www.w3.org/2000/svg">
<path d="M29 23C29 23.2652 28.8946 23.5196 28.7071 23.7071C28.5196 23.8946 28.2652 24 28 24H20.1175C19.7459 24.0012 19.3814 23.8983 19.0653 23.703C18.7491 23.5077 18.494 23.2278 18.3288 22.895L11.8825 10H4C3.73478 10 3.48043 9.89464 3.29289 9.70711C3.10536 9.51957 3 9.26522 3 9C3 8.73478 3.10536 8.48043 3.29289 8.29289C3.48043 8.10536 3.73478 8 4 8H11.8825C12.2541 7.99881 12.6186 8.10169 12.9347 8.29698C13.2509 8.49227 13.506 8.77218 13.6713 9.105L20.1175 22H28C28.2652 22 28.5196 22.1054 28.7071 22.2929C28.8946 22.4804 29 22.7348 29 23ZM19 10H28C28.2652 10 28.5196 9.89464 28.7071 9.70711C28.8946 9.51957 29 9.26522 29 9C29 8.73478 28.8946 8.48043 28.7071 8.29289C28.5196 8.10536 28.2652 8 28 8H19C18.7348 8 18.4804 8.10536 18.2929 8.29289C18.1054 8.48043 18 8.73478 18 9C18 9.26522 18.1054 9.51957 18.2929 9.70711C18.4804 9.89464 18.7348 10 19 10Z" fill="#343330"/>
</svg>
