<svg width="32" height="32" viewBox="0 0 32 32" fill="none" xmlns="http://www.w3.org/2000/svg">
<path d="M28.83 3.17C28.4585 2.79847 28.0175 2.50375 27.5322 2.30268C27.0468 2.1016 26.5266 1.99811 26.0012 1.99811C25.4759 1.99811 24.9556 2.1016 24.4703 2.30268C23.9849 2.50375 23.5439 2.79847 23.1725 3.17C23.16 3.1825 23.1475 3.195 23.1362 3.20875L16.2725 10.8563L15.125 9.705C14.8464 9.42626 14.5156 9.20514 14.1515 9.05428C13.7874 8.90342 13.3972 8.82577 13.0031 8.82577C12.609 8.82577 12.2188 8.90342 11.8547 9.05428C11.4906 9.20514 11.1598 9.42626 10.8812 9.705L1.29498 19.2925C1.10759 19.48 1.00232 19.7343 1.00232 19.9994C1.00232 20.2645 1.10759 20.5187 1.29498 20.7063L11.295 30.7063C11.4825 30.8936 11.7368 30.9989 12.0019 30.9989C12.267 30.9989 12.5212 30.8936 12.7087 30.7063L22.295 21.125C22.5737 20.8464 22.7948 20.5156 22.9457 20.1515C23.0966 19.7875 23.1742 19.3972 23.1742 19.0031C23.1742 18.609 23.0966 18.2188 22.9457 17.8547C22.7948 17.4906 22.5737 17.1599 22.295 16.8813L21.1437 15.7313L28.7912 8.8675C28.8051 8.85598 28.818 8.84345 28.83 8.83C29.2019 8.45851 29.4969 8.01736 29.6982 7.53177C29.8995 7.04617 30.0031 6.52567 30.0031 6C30.0031 5.47434 29.8995 4.95383 29.6982 4.46824C29.4969 3.98265 29.2019 3.5415 28.83 3.17ZM12 28.5863L9.91498 26.5L12.7075 23.7063C12.8871 23.5172 12.9858 23.2654 12.9824 23.0047C12.9791 22.7439 12.874 22.4948 12.6896 22.3104C12.5052 22.126 12.2561 22.0209 11.9953 22.0176C11.7345 22.0142 11.4828 22.1129 11.2937 22.2925L8.49998 25.085L6.91498 23.5L9.70748 20.7063C9.8871 20.5172 9.98576 20.2654 9.98242 20.0047C9.97908 19.7439 9.87401 19.4948 9.68961 19.3104C9.50521 19.126 9.25607 19.0209 8.99531 19.0176C8.73454 19.0142 8.48279 19.1129 8.29373 19.2925L5.49998 22.085L3.41373 20L8.99998 14.4138L17.5862 23L12 28.5863ZM27.4325 7.395L19.8075 14.2388C19.6053 14.4203 19.4423 14.6411 19.3283 14.8878C19.2144 15.1344 19.1518 15.4017 19.1446 15.6733C19.1373 15.9449 19.1855 16.2152 19.2861 16.4676C19.3868 16.7199 19.5378 16.9492 19.73 17.1413L20.88 18.2925C21.0674 18.48 21.1726 18.7343 21.1726 18.9994C21.1726 19.2645 21.0674 19.5187 20.88 19.7063L19.005 21.5813L10.415 13L12.29 11.125C12.4775 10.9376 12.7318 10.8323 12.9969 10.8323C13.262 10.8323 13.5162 10.9376 13.7037 11.125L14.855 12.275C15.0471 12.4672 15.2763 12.6182 15.5287 12.7188C15.781 12.8195 16.0513 12.8676 16.3229 12.8604C16.5945 12.8531 16.8618 12.7906 17.1084 12.6767C17.3551 12.5627 17.5759 12.3996 17.7575 12.1975L24.6012 4.5725C24.9794 4.21326 25.4829 4.01595 26.0044 4.02262C26.5259 4.0293 27.0242 4.23944 27.393 4.60825C27.7618 4.97705 27.9719 5.47533 27.9786 5.99686C27.9853 6.51838 27.788 7.02188 27.4287 7.4L27.4325 7.395Z" fill="#343330"/>
</svg>
