<svg width="32" height="32" viewBox="0 0 32 32" fill="none" xmlns="http://www.w3.org/2000/svg">
<path d="M29.125 20.2187C28.9476 20.0767 28.7272 19.9994 28.5 19.9994C28.2728 19.9994 28.0524 20.0767 27.875 20.2187C27.7575 20.3137 25 22.5537 25 25.5C25 26.4283 25.3688 27.3185 26.0251 27.9749C26.6815 28.6312 27.5718 29 28.5 29C29.4283 29 30.3185 28.6312 30.9749 27.9749C31.6313 27.3185 32 26.4283 32 25.5C32 22.5537 29.2425 20.3137 29.125 20.2187ZM28.5 27C28.1022 27 27.7207 26.842 27.4393 26.5607C27.158 26.2793 27 25.8978 27 25.5C27 24.2275 27.875 23.0587 28.5 22.3837C29.125 23.0612 30 24.2337 30 25.5C30 25.8978 29.842 26.2793 29.5607 26.5607C29.2794 26.842 28.8978 27 28.5 27ZM28.7075 14.7287L15.2713 1.29249C15.0837 1.1051 14.8295 0.999832 14.5644 0.999832C14.2993 0.999832 14.045 1.1051 13.8575 1.29249L8.78126 6.37499L5.70626 3.29249C5.51862 3.10502 5.26419 2.99976 4.99894 2.99988C4.73369 3 4.47936 3.10548 4.29188 3.29312C4.10441 3.48076 3.99915 3.73519 3.99927 4.00044C3.99939 4.26568 4.10487 4.52002 4.29251 4.70749L7.36751 7.78249L1.87501 13.2712C1.31244 13.8338 0.996399 14.5969 0.996399 15.3925C0.996399 16.1881 1.31244 16.9511 1.87501 17.5137L12.4863 28.125C13.0489 28.6876 13.8119 29.0036 14.6075 29.0036C15.4031 29.0036 16.1662 28.6876 16.7288 28.125L28.7075 16.1462C28.8009 16.0533 28.8749 15.9429 28.9255 15.8213C28.976 15.6996 29.002 15.5692 29.002 15.4375C29.002 15.3058 28.976 15.1754 28.9255 15.0537C28.8749 14.9321 28.8009 14.8217 28.7075 14.7287ZM15.3138 26.7075C15.1262 26.8949 14.872 27.0002 14.6069 27.0002C14.3418 27.0002 14.0875 26.8949 13.9 26.7075L3.29251 16.1C3.10511 15.9125 2.99985 15.6582 2.99985 15.3931C2.99985 15.128 3.10511 14.8738 3.29251 14.6862L8.78126 9.19624L12.4213 12.8362C12.0218 13.576 11.9019 14.4348 12.0835 15.2556C12.2652 16.0764 12.7362 16.8045 13.4105 17.3066C14.0848 17.8087 14.9173 18.0513 15.7557 17.9901C16.5942 17.9289 17.3826 17.5679 17.9768 16.9732C18.571 16.3784 18.9313 15.5897 18.9918 14.7512C19.0523 13.9127 18.8089 13.0804 18.3062 12.4065C17.8035 11.7327 17.0751 11.2623 16.2541 11.0814C15.4331 10.9005 14.5744 11.0211 13.835 11.4212L10.1963 7.78249L14.5713 3.41374L26.5925 15.435L15.3138 26.7075ZM15.5 13C15.847 13.0006 16.1832 13.1214 16.4511 13.342C16.719 13.5626 16.9021 13.8693 16.9692 14.2098C17.0364 14.5503 16.9834 14.9035 16.8193 15.2093C16.6552 15.5151 16.3901 15.7545 16.0693 15.8868C15.7484 16.019 15.3916 16.036 15.0597 15.9347C14.7278 15.8334 14.4413 15.6201 14.249 15.3312C14.0566 15.0423 13.9704 14.6957 14.0051 14.3504C14.0397 14.0051 14.1929 13.6825 14.4388 13.4375C14.7205 13.1567 15.1022 12.9993 15.5 13Z" fill="#343330"/>
</svg>
