<svg width="32" height="32" viewBox="0 0 32 32" fill="none" xmlns="http://www.w3.org/2000/svg">
<path d="M26.2075 15.2925C26.3005 15.3854 26.3742 15.4957 26.4245 15.6171C26.4749 15.7384 26.5008 15.8686 26.5008 16C26.5008 16.1314 26.4749 16.2615 26.4245 16.3829C26.3742 16.5043 26.3005 16.6146 26.2075 16.7075L15.9512 26.9575C14.6382 28.2703 12.8575 29.0078 11.0008 29.0077C9.14406 29.0075 7.36342 28.2699 6.0506 26.9569C4.73778 25.6439 4.00031 23.8632 4.00043 22.0064C4.00054 20.1497 4.73824 18.3691 6.05123 17.0562L18.4587 4.46624C19.3961 3.52787 20.6678 3.00031 21.9942 2.9996C23.3206 2.9989 24.5929 3.52512 25.5312 4.46249C26.4696 5.39987 26.9972 6.67161 26.9979 7.99796C26.9986 9.32432 26.4724 10.5966 25.535 11.535L13.125 24.125C12.5614 24.6886 11.797 25.0052 11 25.0052C10.2029 25.0052 9.43856 24.6886 8.87498 24.125C8.31139 23.5614 7.99477 22.797 7.99477 22C7.99477 21.203 8.31139 20.4386 8.87498 19.875L19.2875 9.29749C19.3787 9.20019 19.4884 9.12211 19.6103 9.06786C19.7321 9.01361 19.8636 8.98428 19.9969 8.9816C20.1303 8.97892 20.2628 9.00293 20.3867 9.05224C20.5106 9.10154 20.6234 9.17513 20.7185 9.26869C20.8136 9.36224 20.8889 9.47386 20.9402 9.59698C20.9915 9.72011 21.0176 9.85224 21.017 9.98561C21.0165 10.119 20.9892 10.2509 20.9369 10.3736C20.8846 10.4963 20.8083 10.6072 20.7125 10.7L10.2987 21.2887C10.2055 21.3812 10.1314 21.4912 10.0806 21.6123C10.0299 21.7335 10.0035 21.8634 10.003 21.9948C10.0025 22.1261 10.0278 22.2563 10.0776 22.3778C10.1274 22.4993 10.2006 22.6099 10.2931 22.7031C10.3856 22.7964 10.4956 22.8705 10.6167 22.9212C10.7378 22.9719 10.8678 22.9983 10.9991 22.9989C11.1305 22.9994 11.2606 22.974 11.3822 22.9242C11.5037 22.8745 11.6142 22.8012 11.7075 22.7087L24.1162 10.125C24.6798 9.56257 24.9969 8.79929 24.9977 8.00309C24.9985 7.20688 24.683 6.44295 24.1206 5.87937C23.5582 5.31578 22.7949 4.9987 21.9987 4.99788C21.2025 4.99706 20.4386 5.31257 19.875 5.87499L7.46998 18.46C7.00526 18.924 6.63648 19.4749 6.3847 20.0814C6.13291 20.6879 6.00305 21.3381 6.00253 21.9948C6.00201 22.6514 6.13083 23.3018 6.38165 23.9087C6.63247 24.5156 7.00037 25.0672 7.46435 25.5319C7.92833 25.9966 8.47929 26.3654 9.08579 26.6171C9.69229 26.8689 10.3424 26.9988 10.9991 26.9993C11.6558 26.9998 12.3062 26.871 12.9131 26.6202C13.52 26.3694 14.0715 26.0015 14.5362 25.5375L24.7937 15.2875C24.9819 15.1008 25.2365 14.9964 25.5016 14.9973C25.7667 14.9983 26.0206 15.1044 26.2075 15.2925Z" fill="#343330"/>
</svg>
