<svg width="32" height="32" viewBox="0 0 32 32" fill="none" xmlns="http://www.w3.org/2000/svg">
<path d="M29.7375 25.0112L17.7313 4.02248C17.5573 3.71319 17.3041 3.45577 16.9978 3.27662C16.6915 3.09747 16.343 3.00305 15.9881 3.00305C15.6333 3.00305 15.2848 3.09747 14.9785 3.27662C14.6722 3.45577 14.419 3.71319 14.245 4.02248L2.25878 25.0225C2.06024 25.3768 1.97432 25.7833 2.01242 26.1877C2.05053 26.5921 2.21087 26.9753 2.4721 27.2863C2.73333 27.5973 3.08308 27.8215 3.47481 27.9288C3.86655 28.0362 4.28169 28.0218 4.66502 27.8875L15.9738 24.0125H15.9863H15.9975L27.3325 27.8875C27.717 28.0235 28.1339 28.0387 28.5273 27.931C28.9207 27.8234 29.2718 27.598 29.5335 27.2852C29.7952 26.9724 29.955 26.587 29.9914 26.1808C30.0279 25.7746 29.9393 25.3669 29.7375 25.0125V25.0112ZM27.9875 25.9912L17 22.2325V15C17 14.7348 16.8947 14.4804 16.7071 14.2929C16.5196 14.1053 16.2652 14 16 14C15.7348 14 15.4805 14.1053 15.2929 14.2929C15.1054 14.4804 15 14.7348 15 15V22.2225L4.01502 25.9925L4.00003 26L15.9825 4.99998L28 26L27.9875 25.9912Z" fill="#343330"/>
</svg>
