<svg width="32" height="32" viewBox="0 0 32 32" fill="none" xmlns="http://www.w3.org/2000/svg">
<path d="M6.2 3.2C6.2 1.76406 7.36406 0.6 8.8 0.6H21.6C21.697 0.6 21.79 0.638528 21.8586 0.707106L30.4929 9.34142C30.5615 9.41 30.6 9.50301 30.6 9.6V28.8C30.6 30.2359 29.4359 31.4 28 31.4H8.8C7.36406 31.4 6.2 30.2359 6.2 28.8V3.2Z" stroke="#D0D5DD" stroke-width="1.2"/>
<path d="M21.6 0.400024V6.40003C21.6 8.16734 23.0327 9.60002 24.8 9.60002H30.8" stroke="#D0D5DD" stroke-width="1.2"/>
<rect x="0.800001" y="14.2" width="20.8" height="13.2" rx="1.6" fill="#1B4DBB"/>
<path d="M3.86584 23.7999V17.9817H6.16129C6.60258 17.9817 6.97853 18.066 7.28913 18.2346C7.59974 18.4013 7.83648 18.6333 7.99936 18.9306C8.16413 19.2261 8.24652 19.567 8.24652 19.9533C8.24652 20.3397 8.16319 20.6806 7.99652 20.9761C7.82985 21.2715 7.58838 21.5016 7.27209 21.6664C6.9577 21.8312 6.57701 21.9136 6.13004 21.9136H4.66698V20.9278H5.93118C6.16792 20.9278 6.363 20.887 6.51641 20.8056C6.67171 20.7223 6.78724 20.6077 6.863 20.4619C6.94065 20.3141 6.97948 20.1446 6.97948 19.9533C6.97948 19.7602 6.94065 19.5916 6.863 19.4477C6.78724 19.3018 6.67171 19.1891 6.51641 19.1096C6.3611 19.0281 6.16413 18.9874 5.9255 18.9874H5.09595V23.7999H3.86584ZM11.108 23.7999H9.04553V17.9817H11.1251C11.7103 17.9817 12.2141 18.0982 12.6364 18.3312C13.0588 18.5622 13.3836 18.8946 13.6109 19.3283C13.84 19.762 13.9546 20.281 13.9546 20.8852C13.9546 21.4912 13.84 22.012 13.6109 22.4477C13.3836 22.8833 13.0569 23.2175 12.6308 23.4505C12.2065 23.6834 11.6989 23.7999 11.108 23.7999ZM10.2756 22.7459H11.0569C11.4205 22.7459 11.7264 22.6816 11.9745 22.5528C12.2245 22.4221 12.412 22.2204 12.537 21.9477C12.6639 21.673 12.7273 21.3189 12.7273 20.8852C12.7273 20.4552 12.6639 20.1039 12.537 19.8312C12.412 19.5584 12.2255 19.3577 11.9773 19.2289C11.7292 19.1001 11.4234 19.0357 11.0597 19.0357H10.2756V22.7459ZM14.8658 23.7999V17.9817H18.7181V18.9959H16.096V20.3823H18.4624V21.3965H16.096V23.7999H14.8658Z" fill="white"/>
</svg>
