<svg width="32" height="32" viewBox="0 0 32 32" fill="none" xmlns="http://www.w3.org/2000/svg">
<path d="M25.1925 6.80751C22.7545 4.3695 19.4478 2.99985 16 2.99985C12.5521 2.99985 9.24548 4.3695 6.80748 6.80751C4.36947 9.24551 2.99982 12.5521 2.99982 16C2.99982 19.4479 4.36947 22.7545 6.80747 25.1925C9.24548 27.6305 12.5521 29.0002 16 29.0002C19.4478 29.0002 22.7545 27.6305 25.1925 25.1925C27.6305 22.7545 29.0001 19.4479 29.0001 16C29.0001 12.5521 27.6305 9.24551 25.1925 6.80751ZM11 24C11 23.4696 11.2107 22.9609 11.5858 22.5858C11.9608 22.2107 12.4695 22 13 22C13.5304 22 14.0391 22.2107 14.4142 22.5858C14.7893 22.9609 15 23.4696 15 24V26.9488C13.6054 26.8227 12.2478 26.4315 11 25.7963V24ZM17 24C17 23.4696 17.2107 22.9609 17.5858 22.5858C17.9608 22.2107 18.4695 22 19 22C19.5304 22 20.0391 22.2107 20.4142 22.5858C20.7893 22.9609 21 23.4696 21 24V25.7963C19.7521 26.4315 18.3945 26.8227 17 26.9488V24ZM13.4087 17H18.5912L20.0387 20.1375C19.3187 19.9434 18.5586 19.955 17.8448 20.1708C17.1309 20.3867 16.4919 20.7982 16 21.3588C15.5081 20.7982 14.869 20.3867 14.1552 20.1708C13.4413 19.955 12.6813 19.9434 11.9612 20.1375L13.4087 17ZM14.3325 15L16 11.3863L17.6675 15H14.3325ZM23.7775 23.7788C23.5275 24.0288 23.2675 24.2625 23 24.4838V22C23.0001 21.8553 22.9686 21.7124 22.9075 21.5813L16.9075 8.58126C16.8273 8.40807 16.6993 8.26144 16.5385 8.15868C16.3777 8.05591 16.1908 8.00131 16 8.00131C15.8091 8.00131 15.6223 8.05591 15.4615 8.15868C15.3007 8.26144 15.1726 8.40807 15.0925 8.58126L9.09247 21.5813C9.03138 21.7124 8.9998 21.8553 8.99998 22V24.4838C8.73248 24.2625 8.47248 24.0288 8.22248 23.7788C6.68391 22.2405 5.63607 20.2804 5.21148 18.1466C4.78688 16.0128 5.00461 13.8009 5.83712 11.7908C6.66963 9.78073 8.07952 8.06265 9.8885 6.85387C11.6975 5.64509 13.8243 4.99991 16 4.99991C18.1757 4.99991 20.3025 5.64509 22.1114 6.85387C23.9204 8.06265 25.3303 9.78073 26.1628 11.7908C26.9953 13.8009 27.2131 16.0128 26.7885 18.1466C26.3639 20.2804 25.316 22.2405 23.7775 23.7788Z" fill="#343330"/>
</svg>
