<svg width="32" height="32" viewBox="0 0 32 32" fill="none" xmlns="http://www.w3.org/2000/svg">
<path d="M16 10C16.7911 10 17.5645 9.76541 18.2223 9.32588C18.88 8.88635 19.3927 8.26164 19.6955 7.53074C19.9982 6.79983 20.0775 5.99556 19.9231 5.21964C19.7688 4.44372 19.3878 3.73098 18.8284 3.17157C18.269 2.61216 17.5563 2.2312 16.7803 2.07686C16.0044 1.92252 15.2001 2.00173 14.4692 2.30448C13.7383 2.60723 13.1136 3.11992 12.6741 3.77772C12.2346 4.43552 12 5.20888 12 6C12 7.06087 12.4214 8.07828 13.1715 8.82843C13.9217 9.57857 14.9391 10 16 10ZM16 4C16.3955 4 16.7822 4.1173 17.1111 4.33706C17.44 4.55683 17.6964 4.86918 17.8477 5.23463C17.9991 5.60009 18.0387 6.00222 17.9615 6.39018C17.8844 6.77814 17.6939 7.13451 17.4142 7.41422C17.1345 7.69392 16.7781 7.8844 16.3902 7.96157C16.0022 8.03874 15.6001 7.99914 15.2346 7.84776C14.8692 7.69639 14.5568 7.44004 14.337 7.11114C14.1173 6.78224 14 6.39556 14 6C14 5.46957 14.2107 4.96086 14.5858 4.58579C14.9608 4.21072 15.4695 4 16 4ZM28.8575 16.515C28.7899 16.628 28.7006 16.7265 28.5948 16.8049C28.4891 16.8833 28.3689 16.94 28.2411 16.9718C28.1134 17.0036 27.9806 17.0099 27.8504 16.9903C27.7202 16.9707 27.5952 16.9256 27.4825 16.8575C27.4387 16.8313 23.0937 14.2838 16.9975 14.0238V18.625L24.7475 27.3413C24.8346 27.4397 24.9015 27.5544 24.9444 27.6788C24.9872 27.8031 25.0052 27.9347 24.9971 28.066C24.9891 28.1973 24.9553 28.3257 24.8977 28.4439C24.8401 28.5621 24.7597 28.6678 24.6612 28.755C24.5627 28.8422 24.448 28.9091 24.3237 28.9519C24.1993 28.9948 24.0678 29.0127 23.9365 29.0047C23.8052 28.9967 23.6768 28.9629 23.5586 28.9052C23.4403 28.8476 23.3346 28.7672 23.2475 28.6688L16 20.5L8.74997 28.6638C8.66281 28.7622 8.5571 28.8426 8.43887 28.9002C8.32065 28.9579 8.19224 28.9917 8.06096 28.9997C7.92968 29.0077 7.79811 28.9898 7.67376 28.9469C7.54941 28.9041 7.43471 28.8372 7.33622 28.75C7.23773 28.6628 7.15737 28.5571 7.09973 28.4389C7.0421 28.3207 7.00831 28.1923 7.0003 28.061C6.99229 27.9297 7.01022 27.7981 7.05306 27.6738C7.09589 27.5494 7.16281 27.4347 7.24997 27.3363L15 18.625V14.0225C8.87497 14.2825 4.55997 16.83 4.51497 16.8575C4.40232 16.9267 4.27706 16.9729 4.14644 16.9934C4.01583 17.0139 3.88245 17.0082 3.75402 16.9768C3.62559 16.9454 3.50466 16.8889 3.39823 16.8104C3.2918 16.732 3.20198 16.6332 3.13397 16.5199C3.06596 16.4065 3.0211 16.2807 3.00201 16.1499C2.98291 16.0191 2.98994 15.8858 3.0227 15.7577C3.05546 15.6296 3.11329 15.5093 3.19285 15.4037C3.27242 15.2981 3.37213 15.2093 3.48622 15.1425C3.69997 15.0138 8.80622 12 16 12C23.1937 12 28.3 15.0138 28.515 15.1425C28.6276 15.2101 28.7258 15.2992 28.804 15.4048C28.8822 15.5104 28.9388 15.6303 28.9706 15.7578C29.0024 15.8852 29.0088 16.0177 28.9894 16.1476C28.97 16.2776 28.9251 16.4024 28.8575 16.515Z" fill="#343330"/>
</svg>
