<svg width="32" height="32" viewBox="0 0 32 32" fill="none" xmlns="http://www.w3.org/2000/svg">
<path d="M30 15H28V6C28 5.7071 27.9356 5.41779 27.8114 5.15251C27.6873 4.88723 27.5064 4.65245 27.2815 4.46478C27.0566 4.27711 26.7933 4.14112 26.5101 4.06642C26.2268 3.99173 25.9307 3.98015 25.6425 4.0325L5.6425 7.66875C5.18167 7.75247 4.76484 7.99528 4.46468 8.35483C4.16452 8.71438 4.00007 9.16788 4 9.63625V15H2C1.73478 15 1.48043 15.1054 1.29289 15.2929C1.10536 15.4804 1 15.7348 1 16C1 16.2652 1.10536 16.5196 1.29289 16.7071C1.48043 16.8946 1.73478 17 2 17H4V22.3638C4.00007 22.8321 4.16452 23.2856 4.46468 23.6452C4.76484 24.0047 5.18167 24.2475 5.6425 24.3313L25.6425 27.9675C25.7605 27.9887 25.8801 27.9996 26 28C26.5304 28 27.0391 27.7893 27.4142 27.4142C27.7893 27.0391 28 26.5304 28 26V17H30C30.2652 17 30.5196 16.8946 30.7071 16.7071C30.8946 16.5196 31 16.2652 31 16C31 15.7348 30.8946 15.4804 30.7071 15.2929C30.5196 15.1054 30.2652 15 30 15ZM6 9.63625L26 6V15H6V9.63625ZM26 26L6 22.3638V17H26V26Z" fill="#343330"/>
</svg>
