<svg width="32" height="32" viewBox="0 0 32 32" fill="none" xmlns="http://www.w3.org/2000/svg">
<path d="M6.74123 4.32746C6.65341 4.22847 6.54682 4.14789 6.42763 4.0904C6.30844 4.03291 6.17903 3.99964 6.04689 3.99253C5.91475 3.98542 5.78251 4.00461 5.65784 4.04899C5.53317 4.09336 5.41855 4.16204 5.32062 4.25104C5.22269 4.34003 5.14339 4.44759 5.08733 4.56746C5.03127 4.68732 4.99956 4.81713 4.99404 4.94934C4.98851 5.08156 5.00929 5.21356 5.05515 5.33769C5.10102 5.46181 5.17106 5.5756 5.26123 5.67246L8.70998 9.46746C6.59441 10.3561 4.67233 11.6485 3.05123 13.2725C0.551229 15.7725 0.311229 19.455 2.46498 22.2312C2.72925 22.5694 3.09529 22.8136 3.50902 22.9277C3.92275 23.0418 4.36221 23.0198 4.76248 22.865L10.8875 20.6937L10.9237 20.68C11.2327 20.5564 11.506 20.3578 11.7188 20.1019C11.9316 19.8461 12.0772 19.5413 12.1425 19.215L12.88 15.5262C13.2305 15.4054 13.5878 15.3052 13.95 15.2262L25.2637 27.6725C25.3515 27.7715 25.4581 27.852 25.5773 27.9095C25.6965 27.967 25.8259 28.0003 25.9581 28.0074C26.0902 28.0145 26.2224 27.9953 26.3471 27.9509C26.4718 27.9066 26.5864 27.8379 26.6843 27.7489C26.7823 27.6599 26.8616 27.5523 26.9176 27.4325C26.9737 27.3126 27.0054 27.1828 27.0109 27.0506C27.0164 26.9184 26.9957 26.7864 26.9498 26.6622C26.9039 26.5381 26.8339 26.4243 26.7437 26.3275L6.74123 4.32746ZM12.2037 13.6425C11.878 13.7585 11.588 13.957 11.3619 14.2186C11.1358 14.4802 10.9814 14.7959 10.9137 15.135L10.1762 18.8225L4.07873 20.985C4.06623 20.985 4.05748 21.0012 4.04498 21.0062C2.50373 19.0187 2.66998 16.4787 4.46498 14.6862C6.07399 13.0767 8.01323 11.8356 10.1487 11.0487L12.4362 13.5662C12.3587 13.5912 12.2812 13.615 12.2037 13.6425ZM29.535 22.2312C29.2707 22.5694 28.9047 22.8136 28.4909 22.9277C28.0772 23.0418 27.6377 23.0198 27.2375 22.865L26.0812 22.455C25.9575 22.4111 25.8435 22.3432 25.746 22.2553C25.6485 22.1673 25.5692 22.061 25.5127 21.9425C25.3987 21.703 25.3844 21.4281 25.4731 21.1781C25.517 21.0543 25.5849 20.9404 25.6728 20.8429C25.7607 20.7453 25.867 20.666 25.9856 20.6096C26.2251 20.4955 26.5 20.4813 26.75 20.57L27.9212 20.985L27.9587 21C29.4962 19.0187 29.3337 16.4787 27.535 14.6862C24.3275 11.4787 19.8 9.77746 15.1162 10.0225C14.9849 10.0293 14.8535 10.0102 14.7296 9.96619C14.6057 9.92223 14.4916 9.85429 14.3939 9.76625C14.2963 9.67821 14.2169 9.57179 14.1603 9.45307C14.1038 9.33435 14.0712 9.20566 14.0644 9.07434C14.0575 8.94302 14.0767 8.81164 14.1206 8.68771C14.1646 8.56377 14.2325 8.44971 14.3206 8.35204C14.4086 8.25436 14.515 8.17498 14.6337 8.11843C14.7525 8.06189 14.8812 8.02927 15.0125 8.02246C20.2625 7.74871 25.3412 9.65996 28.9487 13.2725C31.4475 15.7712 31.6887 19.455 29.535 22.2312Z" fill="#343330"/>
</svg>
