<svg width="32" height="32" viewBox="0 0 32 32" fill="none" xmlns="http://www.w3.org/2000/svg">
<path d="M28.9487 11.2662C21.93 4.24997 10.07 4.24997 3.05123 11.2662C0.551229 13.7662 0.311229 17.4525 2.46498 20.23C2.65218 20.47 2.89171 20.6641 3.1653 20.7976C3.43889 20.931 3.73933 21.0002 4.04373 21C4.28963 21.0001 4.53339 20.9543 4.76248 20.865L10.8875 18.6937L10.9237 18.68C11.2329 18.5563 11.5062 18.3575 11.7191 18.1014C11.9319 17.8454 12.0774 17.5402 12.1425 17.2137L12.88 13.5237C14.8908 12.8286 17.0761 12.8238 19.09 13.51L19.8662 17.2287C19.9336 17.5517 20.0797 17.853 20.2917 18.1057C20.5037 18.3585 20.7749 18.5549 21.0812 18.6775L21.1175 18.6912L27.2425 20.865C27.6426 21.02 28.082 21.0421 28.4957 20.9282C28.9094 20.8144 29.2755 20.5704 29.54 20.2325C31.6887 17.4525 31.4475 13.7662 28.9487 11.2662ZM27.9587 19L27.9212 18.985L21.8187 16.8187L21.0425 13.1012C20.972 12.7648 20.8161 12.4523 20.5897 12.1937C20.3633 11.9351 20.0741 11.7392 19.75 11.625C17.3046 10.7877 14.6493 10.7934 12.2075 11.6412C11.8808 11.7579 11.5902 11.9576 11.364 12.2205C11.1379 12.4835 10.984 12.8008 10.9175 13.1412L10.18 16.83L4.07873 18.9825C4.06623 18.9825 4.05748 18.9987 4.04498 19.0037C2.50373 17.015 2.66998 14.475 4.46498 12.6812C7.58998 9.55622 11.7962 7.98997 16 7.98997C20.2037 7.98997 24.4087 9.55372 27.535 12.6812C29.3262 14.475 29.5 17.015 27.9587 19ZM27.9987 25C27.9987 25.2652 27.8934 25.5195 27.7058 25.7071C27.5183 25.8946 27.2639 26 26.9987 26H4.99998C4.73476 26 4.48041 25.8946 4.29287 25.7071C4.10534 25.5195 3.99998 25.2652 3.99998 25C3.99998 24.7347 4.10534 24.4804 4.29287 24.2929C4.48041 24.1053 4.73476 24 4.99998 24H27C27.2652 24 27.5196 24.1053 27.7071 24.2929C27.8946 24.4804 28 24.7347 28 25H27.9987Z" fill="#343330"/>
</svg>
