<svg width="32" height="32" viewBox="0 0 32 32" fill="none" xmlns="http://www.w3.org/2000/svg">
<path d="M27.0525 4.95C25.804 3.70151 24.1106 3.00012 22.345 3.00012C20.5794 3.00012 18.886 3.70151 17.6375 4.95L4.95 17.6362C3.72761 18.8901 3.04844 20.5751 3.05962 22.3261C3.0708 24.0772 3.77143 25.7534 5.00974 26.9915C6.24804 28.2296 7.92429 28.93 9.67536 28.941C11.4264 28.9519 13.1113 28.2726 14.365 27.05L27.0538 14.3637C28.3002 13.1143 29 11.4214 28.9998 9.65661C28.9996 7.89178 28.2992 6.19911 27.0525 4.95ZM12.9513 25.6362C12.0779 26.5098 10.8932 27.0006 9.65794 27.0007C8.42267 27.0009 7.23793 26.5103 6.36438 25.6369C5.49082 24.7635 5 23.5788 4.99988 22.3436C4.99976 21.1083 5.49036 19.9236 6.36375 19.05L12 13.4137L18.5875 20L12.9513 25.6362ZM25.6388 12.95L20 18.5862L13.415 12L19.0525 6.36375C19.9294 5.50715 21.1086 5.03077 22.3344 5.03793C23.5602 5.04509 24.7337 5.53522 25.6005 6.402C26.4673 7.26879 26.9574 8.44234 26.9646 9.66814C26.9717 10.8939 26.4953 12.0731 25.6388 12.95ZM23.71 10.2925C23.803 10.3854 23.8767 10.4957 23.9271 10.6171C23.9774 10.7385 24.0033 10.8686 24.0033 11C24.0033 11.1314 23.9774 11.2615 23.9271 11.3829C23.8767 11.5043 23.803 11.6146 23.71 11.7075L20.71 14.7075C20.6171 14.8003 20.5068 14.8739 20.3854 14.9241C20.2641 14.9744 20.134 15.0002 20.0027 15.0001C19.8713 15.0001 19.7413 14.9741 19.62 14.9238C19.4987 14.8735 19.3885 14.7998 19.2956 14.7069C19.2028 14.614 19.1292 14.5037 19.079 14.3823C19.0288 14.261 19.003 14.1309 19.003 13.9996C19.0031 13.8682 19.029 13.7382 19.0793 13.6169C19.1296 13.4955 19.2033 13.3853 19.2963 13.2925L22.2963 10.2925C22.4838 10.1051 22.738 9.99983 23.0031 9.99983C23.2682 9.99983 23.5225 10.1051 23.71 10.2925Z" fill="#343330"/>
</svg>
