<svg width="32" height="32" viewBox="0 0 32 32" fill="none" xmlns="http://www.w3.org/2000/svg">
<path d="M27 14C27 16.8212 26.0125 19.4 24.2213 21.2637C22.5488 23 20.2813 24 18 24C15.765 24 14.2725 23.2675 13.3213 22.5L11.9738 28.2287C11.9222 28.4483 11.7979 28.6439 11.6211 28.7839C11.4444 28.9239 11.2255 29.0001 11 29C10.9226 28.9999 10.8454 28.9911 10.77 28.9737C10.6417 28.9443 10.5204 28.8898 10.4132 28.8133C10.306 28.7369 10.2149 28.64 10.1452 28.5283C10.0755 28.4166 10.0286 28.2922 10.0071 28.1623C9.98562 28.0323 9.99 27.8995 10.02 27.7712L14.02 10.7712C14.0807 10.513 14.2414 10.2894 14.467 10.1497C14.6925 10.01 14.9642 9.96558 15.2225 10.0262C15.4808 10.0869 15.7043 10.2477 15.844 10.4732C15.9838 10.6987 16.0282 10.9705 15.9675 11.2287L13.855 20.2037C14.25 20.75 15.4125 22 18 22C21.4413 22 25 19.0075 25 14C24.9995 12.6198 24.6815 11.2583 24.0707 10.0206C23.4599 8.78295 22.5727 7.70234 21.4776 6.86234C20.3825 6.02234 19.1088 5.44546 17.7552 5.1763C16.4015 4.90715 15.004 4.95293 13.6709 5.3101C12.3377 5.66727 11.1046 6.32627 10.0668 7.23614C9.02901 8.14601 8.21439 9.28237 7.68591 10.5574C7.15744 11.8323 6.92928 13.2118 7.01907 14.589C7.10886 15.9663 7.5142 17.3044 8.20375 18.5C8.32814 18.7291 8.35817 18.9976 8.28744 19.2485C8.21672 19.4994 8.05084 19.7127 7.82513 19.8431C7.59942 19.9735 7.33173 20.0106 7.07907 19.9465C6.82642 19.8824 6.60877 19.7222 6.4725 19.5C5.62929 18.0388 5.13348 16.4032 5.02343 14.7197C4.91338 13.0362 5.19203 11.35 5.83783 9.79139C6.48362 8.23282 7.47927 6.84367 8.74775 5.73139C10.0162 4.61911 11.5236 3.81351 13.1531 3.37689C14.7827 2.94027 16.4909 2.88433 18.1456 3.2134C19.8003 3.54247 21.3571 4.24773 22.6956 5.27463C24.0341 6.30154 25.1185 7.62257 25.8649 9.13555C26.6113 10.6485 26.9997 12.3129 27 14Z" fill="#343330"/>
</svg>
