<svg width="32" height="32" viewBox="0 0 32 32" fill="none" xmlns="http://www.w3.org/2000/svg">
<path d="M30.9537 4.98627C30.9395 4.74162 30.8358 4.51074 30.6626 4.33746C30.4893 4.16417 30.2584 4.06055 30.0137 4.04627C23.5437 3.67127 18.3487 5.63876 16.1162 9.32376C14.6412 11.76 14.6437 14.7188 16.0962 17.5413C15.2695 18.5255 14.6653 19.6768 14.325 20.9163L12.2912 18.875C13.2687 16.8338 13.2312 14.7063 12.1662 12.9388C10.5162 10.215 6.7075 8.75502 1.97875 9.03252C1.7341 9.0468 1.50322 9.15042 1.32994 9.32371C1.15666 9.49699 1.05303 9.72787 1.03875 9.97252C0.759996 14.7013 2.22125 18.51 4.945 20.16C5.84383 20.7092 6.87669 20.9998 7.93 21C8.95237 20.9874 9.95884 20.7452 10.875 20.2913L14 23.4163V27C14 27.2652 14.1054 27.5196 14.2929 27.7071C14.4804 27.8947 14.7348 28 15 28C15.2652 28 15.5196 27.8947 15.7071 27.7071C15.8946 27.5196 16 27.2652 16 27V23.3138C15.9955 21.7229 16.5369 20.1786 17.5337 18.9388C18.8199 19.6109 20.2464 19.9706 21.6975 19.9888C23.1005 19.9933 24.4774 19.61 25.6762 18.8813C29.3612 16.6513 31.3337 11.4563 30.9537 4.98627ZM5.97625 18.45C4.05875 17.2888 2.97375 14.54 3 11C6.54 10.97 9.28875 12.0588 10.45 13.9763C11.0562 14.9763 11.155 16.1425 10.7575 17.3438L7.70625 14.2925C7.51718 14.1129 7.26543 14.0142 7.00467 14.0176C6.74391 14.0209 6.49477 14.126 6.31037 14.3104C6.12597 14.4948 6.0209 14.7439 6.01756 15.0047C6.01422 15.2655 6.11288 15.5172 6.2925 15.7063L9.34375 18.7575C8.1425 19.155 6.9775 19.0563 5.97625 18.45ZM24.64 17.1725C22.965 18.1863 20.9962 18.2638 18.9962 17.4225L25.7075 10.71C25.8871 10.521 25.9858 10.2692 25.9824 10.0084C25.9791 9.74768 25.874 9.49854 25.6896 9.31414C25.5052 9.12973 25.2561 9.02466 24.9953 9.02133C24.7346 9.01799 24.4828 9.11665 24.2937 9.29627L17.5812 16C16.7362 14 16.8125 12.03 17.8312 10.3563C19.5737 7.48127 23.7062 5.87877 28.9975 6.00252C29.1175 11.2925 27.5175 15.43 24.64 17.1725Z" fill="#343330"/>
</svg>
