<svg width="32" height="32" viewBox="0 0 32 32" fill="none" xmlns="http://www.w3.org/2000/svg">
<path d="M29.7074 8.2925C29.6146 8.19952 29.5043 8.12576 29.3829 8.07544C29.2615 8.02512 29.1314 7.99921 28.9999 7.99921C28.8685 7.99921 28.7384 8.02512 28.617 8.07544C28.4956 8.12576 28.3853 8.19952 28.2924 8.2925L23.9999 12.5862L19.4137 8L23.7074 3.7075C23.8951 3.51986 24.0005 3.26536 24.0005 3C24.0005 2.73464 23.8951 2.48014 23.7074 2.2925C23.5198 2.10486 23.2653 1.99944 22.9999 1.99944C22.7346 1.99944 22.4801 2.10486 22.2924 2.2925L17.9999 6.58625L14.7074 3.2925C14.5198 3.10486 14.2653 2.99944 13.9999 2.99944C13.7346 2.99944 13.4801 3.10486 13.2924 3.2925C13.1048 3.48014 12.9994 3.73464 12.9994 4C12.9994 4.26536 13.1048 4.51986 13.2924 4.7075L14.0862 5.5L7.4612 12.125C6.99688 12.5893 6.62856 13.1405 6.37727 13.7471C6.12598 14.3538 5.99664 15.004 5.99664 15.6606C5.99664 16.3173 6.12598 16.9675 6.37727 17.5741C6.62856 18.1807 6.99688 18.732 7.4612 19.1963L9.42495 21.16L3.29245 27.2925C3.19954 27.3854 3.12583 27.4957 3.07555 27.6171C3.02527 27.7385 2.99939 27.8686 2.99939 28C2.99939 28.1314 3.02527 28.2615 3.07555 28.3829C3.12583 28.5043 3.19954 28.6146 3.29245 28.7075C3.48009 28.8951 3.73458 29.0006 3.99995 29.0006C4.13134 29.0006 4.26145 28.9747 4.38284 28.9244C4.50424 28.8741 4.61454 28.8004 4.70745 28.7075L10.8437 22.5713L12.8074 24.535C13.2717 24.9993 13.8229 25.3676 14.4296 25.6189C15.0362 25.8702 15.6864 25.9996 16.3431 25.9996C16.9997 25.9996 17.6499 25.8702 18.2565 25.6189C18.8632 25.3676 19.4144 24.9993 19.8787 24.535L26.5037 17.91L27.2962 18.7038C27.3891 18.7967 27.4994 18.8704 27.6208 18.9206C27.7422 18.9709 27.8723 18.9968 28.0037 18.9968C28.1351 18.9968 28.2652 18.9709 28.3866 18.9206C28.508 18.8704 28.6183 18.7967 28.7112 18.7038C28.8041 18.6108 28.8778 18.5005 28.9281 18.3791C28.9784 18.2578 29.0043 18.1276 29.0043 17.9962C29.0043 17.8649 28.9784 17.7347 28.9281 17.6134C28.8778 17.492 28.8041 17.3817 28.7112 17.2887L25.4137 14L29.7074 9.7075C29.8004 9.61463 29.8742 9.50434 29.9245 9.38294C29.9748 9.26154 30.0007 9.13141 30.0007 9C30.0007 8.86858 29.9748 8.73846 29.9245 8.61706C29.8742 8.49566 29.8004 8.38537 29.7074 8.2925ZM18.4649 23.125C18.1863 23.4037 17.8556 23.6249 17.4915 23.7757C17.1274 23.9266 16.7372 24.0042 16.3431 24.0042C15.949 24.0042 15.5587 23.9266 15.1947 23.7757C14.8306 23.6249 14.4998 23.4037 14.2212 23.125L8.87495 17.7787C8.5962 17.5002 8.37509 17.1694 8.22422 16.8053C8.07336 16.4412 7.99571 16.051 7.99571 15.6569C7.99571 15.2628 8.07336 14.8725 8.22422 14.5085C8.37509 14.1444 8.5962 13.8136 8.87495 13.535L15.4999 6.91L25.0862 16.5L18.4649 23.125Z" fill="#343330"/>
</svg>
