<svg width="30" height="40" viewBox="0 0 30 40" fill="none" xmlns="http://www.w3.org/2000/svg">
<path d="M0.5 36V4C0.5 2.067 2.067 0.5 4 0.5H17.9C18.7987 0.5 19.663 0.845712 20.3138 1.46552L28.4138 9.1798C29.1074 9.8404 29.5 10.7564 29.5 11.7143V36C29.5 37.933 27.933 39.5 26 39.5H4C2.067 39.5 0.5 37.933 0.5 36Z" fill="white" stroke="#E5E9EB"/>
<path d="M5.7032 24V16.7273H8.70746C9.25197 16.7273 9.7219 16.8338 10.1173 17.0469C10.515 17.2576 10.8216 17.5523 11.037 17.9311C11.2524 18.3075 11.3602 18.7455 11.3602 19.245C11.3602 19.7469 11.2501 20.1861 11.0299 20.5625C10.8121 20.9366 10.5008 21.2266 10.096 21.4325C9.69113 21.6385 9.21054 21.7415 8.65419 21.7415H6.8005V20.3565H8.32749C8.59264 20.3565 8.814 20.3104 8.99155 20.218C9.17148 20.1257 9.3076 19.9967 9.39993 19.831C9.49226 19.6629 9.53843 19.4676 9.53843 19.245C9.53843 19.0201 9.49226 18.826 9.39993 18.6626C9.3076 18.4969 9.17148 18.3691 8.99155 18.2791C8.81163 18.1892 8.59027 18.1442 8.32749 18.1442H7.46101V24H5.7032ZM12.1666 24V16.7273H15.1709C15.7154 16.7273 16.1853 16.8338 16.5807 17.0469C16.9784 17.2576 17.285 17.5523 17.5004 17.9311C17.7159 18.3075 17.8236 18.7455 17.8236 19.245C17.8236 19.7469 17.7135 20.1861 17.4933 20.5625C17.2755 20.9366 16.9642 21.2266 16.5594 21.4325C16.1546 21.6385 15.674 21.7415 15.1176 21.7415H13.2639V20.3565H14.7909C15.0561 20.3565 15.2774 20.3104 15.455 20.218C15.6349 20.1257 15.771 19.9967 15.8634 19.831C15.9557 19.6629 16.0019 19.4676 16.0019 19.245C16.0019 19.0201 15.9557 18.826 15.8634 18.6626C15.771 18.4969 15.6349 18.3691 15.455 18.2791C15.2751 18.1892 15.0537 18.1442 14.7909 18.1442H13.9245V24H12.1666ZM18.3921 18.1548V16.7273H24.5392V18.1548H22.3339V24H20.601V18.1548H18.3921Z" fill="#FF1500"/>
</svg>
