<svg width="32" height="32" viewBox="0 0 32 32" fill="none" xmlns="http://www.w3.org/2000/svg">
<path d="M30 8.99998V12C30 12.2652 29.8946 12.5196 29.7071 12.7071C29.5196 12.8946 29.2652 13 29 13C28.7348 13 28.4804 12.8946 28.2929 12.7071C28.1054 12.5196 28 12.2652 28 12V9.99998H15.6937L9.93624 25.3512C9.86521 25.5426 9.7373 25.7077 9.56972 25.8242C9.40213 25.9408 9.20288 26.0032 8.99874 26.0032C8.79461 26.0032 8.59536 25.9408 8.42777 25.8242C8.26019 25.7077 8.13228 25.5426 8.06124 25.3512L2.06125 9.35123C2.01512 9.22812 1.99369 9.09712 1.99819 8.96573C2.00269 8.83433 2.03302 8.70511 2.08746 8.58544C2.1419 8.46577 2.21938 8.35799 2.31547 8.26826C2.41156 8.17853 2.52438 8.10861 2.6475 8.06248C2.77061 8.01635 2.9016 7.99493 3.033 7.99943C3.16439 8.00392 3.29362 8.03426 3.41329 8.0887C3.53296 8.14314 3.64074 8.22061 3.73046 8.3167C3.82019 8.41279 3.89012 8.52562 3.93625 8.64873L9 22.1525L14.0637 8.65248C14.1346 8.46121 14.2623 8.2962 14.4297 8.17957C14.597 8.06294 14.796 8.00027 15 7.99998H29C29.2652 7.99998 29.5196 8.10534 29.7071 8.29287C29.8946 8.48041 30 8.73476 30 8.99998Z" fill="#343330"/>
</svg>
