<svg width="32" height="32" viewBox="0 0 32 32" fill="none" xmlns="http://www.w3.org/2000/svg">
<path d="M11.5001 17.0001H5.00005C4.7233 16.9991 4.44976 16.9408 4.19673 16.8287C3.9437 16.7166 3.71668 16.5532 3.53005 16.3488C3.34073 16.1413 3.19663 15.8967 3.1069 15.6305C3.01716 15.3643 2.98376 15.0823 3.0088 14.8026C3.17861 12.9289 3.75375 11.1145 4.69438 9.4851C5.635 7.85574 6.91862 6.45035 8.4563 5.36631C8.68345 5.20564 8.94162 5.09414 9.21431 5.03893C9.48701 4.98371 9.76822 4.986 10.04 5.04564C10.3117 5.10529 10.5681 5.22098 10.7926 5.38532C11.0171 5.54966 11.2048 5.75903 11.3438 6.00006L14.5938 11.6251C14.6595 11.7388 14.7021 11.8644 14.7192 11.9946C14.7363 12.1248 14.7276 12.2572 14.6936 12.384C14.6596 12.5109 14.601 12.6298 14.521 12.734C14.441 12.8382 14.3413 12.9256 14.2276 12.9913C14.1138 13.057 13.9882 13.0996 13.858 13.1167C13.7278 13.1338 13.5954 13.1252 13.4686 13.0911C13.3417 13.0571 13.2228 12.9985 13.1186 12.9185C13.0144 12.8385 12.927 12.7388 12.8613 12.6251L9.6113 7.00006C8.30994 7.91677 7.22349 9.1055 6.42724 10.4839C5.631 11.8622 5.14402 13.3973 5.00005 14.9826C4.9998 14.9864 5.00047 14.9901 5.00199 14.9936C5.00351 14.9971 5.00585 15.0002 5.0088 15.0026L11.5001 15.0001C11.7653 15.0001 12.0196 15.1054 12.2072 15.293C12.3947 15.4805 12.5001 15.7348 12.5001 16.0001C12.5001 16.2653 12.3947 16.5196 12.2072 16.7072C12.0196 16.8947 11.7653 17.0001 11.5001 17.0001ZM28.9913 14.8026C28.8215 12.9289 28.2463 11.1145 27.3057 9.4851C26.3651 7.85574 25.0815 6.45035 23.5438 5.36631C23.3167 5.20564 23.0585 5.09414 22.7858 5.03893C22.5131 4.98371 22.2319 4.986 21.9601 5.04564C21.6884 5.10529 21.432 5.22098 21.2075 5.38532C20.983 5.54966 20.7953 5.75903 20.6563 6.00006L17.4126 11.6251C17.3469 11.7388 17.3043 11.8644 17.2871 11.9946C17.27 12.1248 17.2787 12.2572 17.3127 12.384C17.3814 12.6403 17.5491 12.8587 17.7788 12.9913C18.0085 13.1239 18.2816 13.1598 18.5378 13.0911C18.6646 13.0571 18.7836 12.9985 18.8878 12.9185C18.992 12.8385 19.0794 12.7388 19.1451 12.6251L22.3951 7.00006C23.695 7.91764 24.7801 9.10671 25.5752 10.485C26.3703 11.8633 26.8565 13.3979 27.0001 14.9826C27.0001 14.9913 27.0001 14.9976 27.0001 15.0001H20.5001C20.2348 15.0001 19.9805 15.1054 19.7929 15.293C19.6054 15.4805 19.5001 15.7348 19.5001 16.0001C19.5001 16.2653 19.6054 16.5196 19.7929 16.7072C19.9805 16.8947 20.2348 17.0001 20.5001 17.0001H27.0001C27.2768 16.9991 27.5503 16.9408 27.8034 16.8287C28.0564 16.7166 28.2834 16.5532 28.4701 16.3488C28.6594 16.1413 28.8035 15.8967 28.8932 15.6305C28.9829 15.3643 29.0163 15.0823 28.9913 14.8026ZM19.1163 19.3976C19.0506 19.2838 18.9632 19.1841 18.859 19.1041C18.7548 19.0241 18.6359 18.9655 18.509 18.9315C18.3822 18.8975 18.2498 18.8888 18.1196 18.9059C17.9894 18.923 17.8638 18.9656 17.7501 19.0313C17.6363 19.097 17.5366 19.1844 17.4566 19.2886C17.3766 19.3928 17.318 19.5117 17.284 19.6386C17.25 19.7654 17.2413 19.8978 17.2584 20.028C17.2755 20.1582 17.3181 20.2838 17.3838 20.3976L20.6138 25.9888C19.1672 26.6551 17.5934 27.0001 16.0007 27.0001C14.408 27.0001 12.8342 26.6551 11.3876 25.9888L14.6163 20.3976C14.682 20.2838 14.7246 20.1582 14.7417 20.028C14.7588 19.8978 14.7501 19.7654 14.7161 19.6386C14.6821 19.5117 14.6235 19.3928 14.5435 19.2886C14.4635 19.1844 14.3638 19.097 14.2501 19.0313C14.1363 18.9656 14.0107 18.923 13.8805 18.9059C13.7503 18.8888 13.6179 18.8975 13.4911 18.9315C13.3642 18.9655 13.2453 19.0241 13.1411 19.1041C13.0369 19.1841 12.9495 19.2838 12.8838 19.3976L9.6563 24.9888C9.51733 25.2293 9.42997 25.4961 9.39979 25.7722C9.3696 26.0483 9.39725 26.3276 9.48098 26.5924C9.56471 26.8573 9.70267 27.1017 9.88609 27.3103C10.0695 27.5189 10.2944 27.6869 10.5463 27.8038C12.2564 28.5919 14.1171 29.0001 16.0001 29.0001C17.883 29.0001 19.7437 28.5919 21.4538 27.8038C21.7058 27.6869 21.9306 27.5189 22.114 27.3103C22.2974 27.1017 22.4354 26.8573 22.5191 26.5924C22.6028 26.3276 22.6305 26.0483 22.6003 25.7722C22.5701 25.4961 22.4828 25.2293 22.3438 24.9888L19.1163 19.3976ZM16.0001 17.5001C16.2967 17.5001 16.5867 17.4121 16.8334 17.2473C17.0801 17.0824 17.2723 16.8482 17.3859 16.5741C17.4994 16.3 17.5291 15.9984 17.4712 15.7074C17.4134 15.4165 17.2705 15.1492 17.0607 14.9394C16.8509 14.7296 16.5837 14.5868 16.2927 14.5289C16.0017 14.471 15.7001 14.5007 15.426 14.6142C15.1519 14.7278 14.9177 14.92 14.7528 15.1667C14.588 15.4134 14.5001 15.7034 14.5001 16.0001C14.5001 16.3979 14.6581 16.7794 14.9394 17.0607C15.2207 17.342 15.6022 17.5001 16.0001 17.5001Z" fill="#343330"/>
</svg>
