<svg width="32" height="32" viewBox="0 0 32 32" fill="none" xmlns="http://www.w3.org/2000/svg">
<path d="M30.9999 13C30.9998 12.2335 30.7793 11.4832 30.3649 10.8383C29.9505 10.1935 29.3595 9.68131 28.6623 9.36274C27.9652 9.04418 27.1911 8.93264 26.4324 9.0414C25.6736 9.15017 24.9621 9.47466 24.3824 9.97625C22.2887 8.86375 19.7874 8.19125 17.1749 8.035L17.8237 4.13875L20.0387 4.47875C20.1511 5.17746 20.5068 5.81395 21.0431 6.27572C21.5794 6.73749 22.2616 6.99481 22.9693 7.0022C23.6769 7.00959 24.3644 6.76658 24.9102 6.31611C25.456 5.86564 25.825 5.23672 25.952 4.54051C26.0789 3.8443 25.9556 3.12562 25.604 2.5115C25.2523 1.89739 24.6948 1.42737 24.0301 1.18452C23.3654 0.94168 22.6362 0.941644 21.9715 1.18442C21.3067 1.4272 20.7492 1.89717 20.3974 2.51125L17.1474 2.01125C16.8874 1.97116 16.6221 2.03514 16.409 2.18934C16.1958 2.34353 16.052 2.57551 16.0087 2.835L15.1499 8.02C12.4199 8.1375 9.79744 8.8175 7.61744 9.97625C6.82132 9.30371 5.79416 8.96844 4.75457 9.0418C3.71499 9.11516 2.74508 9.59135 2.0513 10.369C1.35751 11.1467 0.99464 12.1645 1.03991 13.2056C1.08518 14.2468 1.53503 15.2292 2.29369 15.9437C2.09926 16.6119 2.00036 17.3042 1.99994 18C1.99994 20.7412 3.49994 23.2937 6.23869 25.1862C8.85994 27 12.3262 28 15.9999 28C19.6737 28 23.1399 27 25.7612 25.1862C28.4999 23.2937 29.9999 20.7412 29.9999 18C29.9995 17.3042 29.9006 16.6119 29.7062 15.9437C30.1128 15.5685 30.4376 15.1134 30.6602 14.6069C30.8828 14.1003 30.9985 13.5533 30.9999 13ZM22.9999 3C23.1977 3 23.3911 3.05865 23.5555 3.16853C23.72 3.27841 23.8481 3.43459 23.9238 3.61732C23.9995 3.80004 24.0193 4.00111 23.9807 4.19509C23.9421 4.38907 23.8469 4.56725 23.7071 4.70711C23.5672 4.84696 23.389 4.9422 23.195 4.98078C23.0011 5.01937 22.8 4.99957 22.6173 4.92388C22.4345 4.84819 22.2784 4.72002 22.1685 4.55557C22.0586 4.39112 21.9999 4.19778 21.9999 4C21.9999 3.73478 22.1053 3.48043 22.2928 3.29289C22.4804 3.10536 22.7347 3 22.9999 3ZM28.0162 14.7225C27.808 14.8458 27.6516 15.0405 27.576 15.2703C27.5004 15.5002 27.5107 15.7497 27.6049 15.9725C27.8647 16.617 27.9988 17.3052 27.9999 18C27.9999 20.0662 26.8012 22.0337 24.6249 23.5412C22.3337 25.125 19.2712 26 15.9999 26C12.7287 26 9.66619 25.125 7.37494 23.5412C5.19869 22.0337 3.99994 20.0662 3.99994 18C4.00162 17.3075 4.13481 16.6216 4.39244 15.9787C4.48695 15.7562 4.49761 15.5069 4.42246 15.2771C4.34731 15.0473 4.19143 14.8525 3.98369 14.7287C3.72932 14.5771 3.51181 14.3708 3.34685 14.1249C3.1819 13.8789 3.07362 13.5994 3.02985 13.3065C2.98607 13.0136 3.00789 12.7147 3.09372 12.4312C3.17956 12.1478 3.32727 11.8869 3.52618 11.6675C3.7251 11.4481 3.97025 11.2757 4.24395 11.1625C4.51764 11.0494 4.81304 10.9985 5.10881 11.0134C5.40458 11.0284 5.69335 11.1088 5.95424 11.249C6.21514 11.3891 6.44166 11.5854 6.61744 11.8237C6.76253 12.023 6.97612 12.1617 7.21721 12.2132C7.4583 12.2646 7.70989 12.2252 7.92369 12.1025L7.96869 12.075C10.1812 10.7375 13.0312 10 15.9999 10C18.9662 10 21.8162 10.7375 24.0287 12.075L24.0812 12.1062C24.2947 12.2264 24.5449 12.2641 24.7843 12.212C25.0237 12.1599 25.2357 12.0218 25.3799 11.8237C25.5547 11.5834 25.7807 11.3851 26.0417 11.243C26.3027 11.101 26.5921 11.019 26.8888 11.0028C27.1854 10.9866 27.482 11.0368 27.7569 11.1496C28.0318 11.2624 28.278 11.435 28.4779 11.6549C28.6777 11.8748 28.826 12.1365 28.912 12.4209C28.998 12.7053 29.0195 13.0053 28.9751 13.2991C28.9306 13.5928 28.8213 13.873 28.655 14.1192C28.4887 14.3655 28.2696 14.5715 28.0137 14.7225H28.0162ZM10.9999 18C10.6044 18 10.2177 17.8827 9.8888 17.6629C9.55991 17.4432 9.30356 17.1308 9.15218 16.7654C9.00081 16.3999 8.9612 15.9978 9.03837 15.6098C9.11554 15.2219 9.30603 14.8655 9.58573 14.5858C9.86544 14.3061 10.2218 14.1156 10.6098 14.0384C10.9977 13.9613 11.3999 14.0009 11.7653 14.1522C12.1308 14.3036 12.4431 14.56 12.6629 14.8889C12.8826 15.2178 12.9999 15.6044 12.9999 16C12.9999 16.5304 12.7892 17.0391 12.4142 17.4142C12.0391 17.7893 11.5304 18 10.9999 18ZM22.9999 16C22.9999 16.3956 22.8826 16.7822 22.6629 17.1111C22.4431 17.44 22.1308 17.6964 21.7653 17.8478C21.3999 17.9991 20.9977 18.0387 20.6098 17.9616C20.2218 17.8844 19.8654 17.6939 19.5857 17.4142C19.306 17.1345 19.1155 16.7781 19.0384 16.3902C18.9612 16.0022 19.0008 15.6001 19.1522 15.2346C19.3036 14.8692 19.5599 14.5568 19.8888 14.3371C20.2177 14.1173 20.6044 14 20.9999 14C21.5304 14 22.0391 14.2107 22.4142 14.5858C22.7892 14.9609 22.9999 15.4696 22.9999 16ZM20.8837 21.5312C20.9453 21.6473 20.9834 21.7743 20.9959 21.9051C21.0084 22.0359 20.995 22.1679 20.9565 22.2935C20.9179 22.4191 20.855 22.5359 20.7713 22.6372C20.6876 22.7384 20.5848 22.8222 20.4687 22.8837C19.0927 23.615 17.5582 23.9974 15.9999 23.9974C14.4417 23.9974 12.9072 23.615 11.5312 22.8837C11.4151 22.8222 11.3123 22.7384 11.2287 22.6371C11.145 22.5358 11.0821 22.419 11.0436 22.2934C11.005 22.1679 10.9916 22.0359 11.0041 21.9051C11.0165 21.7743 11.0546 21.6473 11.1162 21.5312C11.1778 21.4152 11.2616 21.3124 11.3628 21.2287C11.4641 21.1451 11.5809 21.0822 11.7065 21.0436C11.8321 21.0051 11.964 20.9917 12.0948 21.0041C12.2256 21.0166 12.3526 21.0547 12.4687 21.1162C13.556 21.6943 14.7685 21.9966 15.9999 21.9966C17.2313 21.9966 18.4439 21.6943 19.5312 21.1162C19.6472 21.0546 19.7743 21.0165 19.9051 21.004C20.0359 20.9915 20.1678 21.0049 20.2934 21.0435C20.419 21.082 20.5358 21.1449 20.6371 21.2286C20.7384 21.3123 20.8222 21.4152 20.8837 21.5312Z" fill="#343330"/>
</svg>
