<svg width="32" height="32" viewBox="0 0 32 32" fill="none" xmlns="http://www.w3.org/2000/svg">
<path d="M27.9712 7.25001C27.6576 7.07855 27.3038 6.99425 26.9466 7.0059C26.5893 7.01756 26.2418 7.12473 25.94 7.31626L16 13.6425V8.98001C15.9985 8.62397 15.9015 8.27484 15.7191 7.96909C15.5367 7.66333 15.2755 7.41215 14.9629 7.24178C14.6502 7.07141 14.2976 6.9881 13.9418 7.00054C13.5859 7.01299 13.24 7.12073 12.94 7.31251L1.91624 14.3325C1.63538 14.5108 1.4041 14.7571 1.24385 15.0486C1.0836 15.3401 0.999573 15.6674 0.999573 16C0.999573 16.3327 1.0836 16.6599 1.24385 16.9514C1.4041 17.2429 1.63538 17.4893 1.91624 17.6675L12.94 24.6875C13.24 24.8793 13.5859 24.987 13.9418 24.9995C14.2976 25.0119 14.6502 24.9286 14.9629 24.7582C15.2755 24.5879 15.5367 24.3367 15.7191 24.0309C15.9015 23.7252 15.9985 23.3761 16 23.02V18.3575L25.94 24.6875C26.24 24.8793 26.5859 24.987 26.9418 24.9995C27.2976 25.0119 27.6502 24.9286 27.9629 24.7582C28.2755 24.5879 28.5367 24.3367 28.7191 24.0309C28.9015 23.7252 28.9985 23.3761 29 23.02V8.98001C28.999 8.62599 28.903 8.27873 28.722 7.97444C28.5411 7.67015 28.2818 7.41998 27.9712 7.25001ZM14 22.9913L3.02249 16L14 9.00751V22.9913ZM27 22.9913L16.0225 16L27 9.00751V22.9913Z" fill="#343330"/>
</svg>
