<svg width="32" height="32" viewBox="0 0 32 32" fill="none" xmlns="http://www.w3.org/2000/svg">
<path d="M19 28C19 28.2652 18.8946 28.5196 18.7071 28.7071C18.5196 28.8946 18.2652 29 18 29H14C13.7348 29 13.4804 28.8946 13.2929 28.7071C13.1054 28.5196 13 28.2652 13 28C13 27.7348 13.1054 27.4804 13.2929 27.2929C13.4804 27.1054 13.7348 27 14 27H18C18.2652 27 18.5196 27.1054 18.7071 27.2929C18.8946 27.4804 19 27.7348 19 28ZM16 14C16.2967 14 16.5867 13.912 16.8334 13.7472C17.08 13.5824 17.2723 13.3481 17.3858 13.074C17.4994 12.7999 17.5291 12.4983 17.4712 12.2074C17.4133 11.9164 17.2704 11.6491 17.0607 11.4393C16.8509 11.2296 16.5836 11.0867 16.2926 11.0288C16.0017 10.9709 15.7001 11.0007 15.426 11.1142C15.1519 11.2277 14.9176 11.42 14.7528 11.6666C14.588 11.9133 14.5 12.2033 14.5 12.5C14.5 12.8978 14.658 13.2794 14.9393 13.5607C15.2206 13.842 15.6022 14 16 14ZM27.9525 19.4788L26.4075 26.4325C26.3342 26.7627 26.1784 27.0689 25.9545 27.3226C25.7307 27.5762 25.4462 27.7689 25.1276 27.8826C24.8091 27.9964 24.4669 28.0275 24.1331 27.973C23.7992 27.9186 23.4846 27.7803 23.2188 27.5713L19.8138 25H12.1888L8.78125 27.5713C8.51536 27.7803 8.20078 27.9186 7.86694 27.973C7.5331 28.0275 7.1909 27.9964 6.87235 27.8826C6.5538 27.7689 6.26931 27.5762 6.04548 27.3226C5.82165 27.0689 5.6658 26.7627 5.5925 26.4325L4.0475 19.4788C3.98197 19.1803 3.98528 18.8709 4.05718 18.574C4.12909 18.277 4.2677 18.0004 4.4625 17.765L8.0325 13.4825C8.15232 11.9087 8.51364 10.3627 9.10375 8.89875C10.7163 4.85625 13.6038 2.32 14.775 1.4175C15.1256 1.14586 15.5565 0.998442 16 0.998442C16.4435 0.998442 16.8744 1.14586 17.225 1.4175C18.3925 2.32 21.2838 4.85625 22.8963 8.89875C23.4864 10.3627 23.8477 11.9087 23.9675 13.4825L27.5375 17.765C27.7323 18.0004 27.8709 18.277 27.9428 18.574C28.0147 18.8709 28.018 19.1803 27.9525 19.4788ZM12.4288 23H19.5713C22.2113 18.3075 22.705 13.815 21.0388 9.64C19.5688 5.955 16.8113 3.625 16 3C15.1863 3.625 12.4288 5.955 10.9588 9.64C9.295 13.815 9.78875 18.3075 12.4288 23ZM10.5538 23.7313C9.20792 21.2854 8.39125 18.8817 8.10375 16.52L6 19.045L7.545 26L7.5675 25.9837L10.5538 23.7313ZM26 19.045L23.8963 16.52C23.6113 18.8767 22.7963 21.2804 21.4513 23.7313L24.4325 25.9813L24.455 25.9975L26 19.045Z" fill="#343330"/>
</svg>
