<svg width="32" height="32" viewBox="0 0 32 32" fill="none" xmlns="http://www.w3.org/2000/svg">
<path d="M12.9713 23.2425C12.9225 23.4362 11.7038 28 5 28C4.73479 28 4.48043 27.8946 4.2929 27.7071C4.10536 27.5196 4 27.2652 4 27C4 20.2962 8.56375 19.0775 8.7575 19.0287C9.01493 18.9644 9.28736 19.005 9.51486 19.1416C9.74237 19.2781 9.90631 19.4994 9.97063 19.7569C10.0349 20.0143 9.99436 20.2867 9.85781 20.5142C9.72126 20.7417 9.49993 20.9057 9.2425 20.97C9.13 21.0012 6.44 21.7875 6.0475 25.9525C10.2125 25.56 11 22.875 11.0325 22.75C11.0988 22.4929 11.2645 22.2727 11.4932 22.1378C11.7219 22.0029 11.9948 21.9643 12.2519 22.0306C12.509 22.0969 12.7292 22.2626 12.8641 22.4913C12.999 22.72 13.0376 22.9929 12.9713 23.25V23.2425ZM24.5963 14.8175L24 15.4137V22.705C24.0015 22.9687 23.9505 23.23 23.8501 23.4737C23.7497 23.7175 23.6018 23.9389 23.415 24.125L19.125 28.4125C18.94 28.5988 18.7199 28.7467 18.4775 28.8475C18.2351 28.9483 17.9751 29.0002 17.7125 29C17.4958 28.9999 17.2805 28.9649 17.075 28.8962C16.7221 28.7795 16.4089 28.5664 16.1708 28.281C15.9327 27.9956 15.7791 27.6493 15.7275 27.2812L15.0563 22.47L9.53 16.9437L4.72125 16.2725C4.35268 16.2208 4.00584 16.0673 3.71976 15.8292C3.43368 15.5912 3.21969 15.278 3.10188 14.925C2.98407 14.5719 2.96711 14.193 3.0529 13.8309C3.13869 13.4687 3.32383 13.1377 3.5875 12.875L7.875 8.585C8.0611 8.39823 8.28248 8.25033 8.52626 8.1499C8.77003 8.04947 9.03135 7.99851 9.295 8H16.5863L17.1825 7.40375C20.5175 4.07 24.5363 3.92625 26.1088 4.02C26.5963 4.04963 27.0562 4.25669 27.4016 4.6021C27.7471 4.94752 27.9541 5.40741 27.9838 5.895C28.075 7.46375 27.9313 11.4825 24.5975 14.8175H24.5963ZM5 14.2925L9.64375 14.94L14.5863 10H9.295L5 14.2925ZM11.415 16L16 20.585L23.1813 13.4037C24.149 12.4425 24.8998 11.2852 25.3832 10.0097C25.8666 8.73419 26.0714 7.36997 25.9838 6.00875C24.6232 5.92438 23.2604 6.13129 21.9862 6.61565C20.7121 7.10001 19.5559 7.85067 18.595 8.8175L11.415 16ZM22 17.4137L17.0588 22.355L17.7088 27L22 22.705V17.4137Z" fill="#343330"/>
</svg>
