<?xml version="1.0" encoding="iso-8859-1"?>
<!-- Uploaded to: SVG Repo, www.svgrepo.com, Generator: SVG Repo Mixer Tools -->
<svg fill="#000000" height="800px" width="800px" version="1.1" id="Layer_1" xmlns="http://www.w3.org/2000/svg" xmlns:xlink="http://www.w3.org/1999/xlink" 
	 viewBox="0 0 512 512" xml:space="preserve">
<g>
	<g>
		<path d="M117.702,35.843c-7.996-4.411-18.254-2.961-24.711,3.494c-6.5,6.52-7.954,16.861-3.402,24.89
			c4.57,8.061,14.205,12.161,23.184,9.897c8.439-2.128,14.764-9.557,15.552-18.212C129.065,47.789,124.853,39.789,117.702,35.843z
			 M111.054,57.4c-1.844,1.842-4.93,1.842-6.774,0c-1.889-1.887-1.834-5.054,0.111-6.877c1.859-1.743,4.859-1.701,6.663,0.103
			C112.896,52.469,112.897,55.557,111.054,57.4z"/>
	</g>
</g>
<g>
	<g>
		<path d="M445.122,374.159l-49.94-49.94c-9.336-9.338-24.53-9.339-33.868,0l-67.735,67.735c-9.338,9.336-9.338,24.53,0,33.866
			l47.439,47.44c4.622,4.622,12.792,1.775,13.57-4.692c2.481-20.631,11.573-39.317,26.294-54.038
			c15.815-15.815,36.808-25.32,59.111-26.762c3.128-0.201,5.849-2.216,6.954-5.15C448.053,379.685,447.339,376.374,445.122,374.159z
			 M369.592,403.242c-13.552,13.551-23.039,29.97-27.904,48.11l-36.82-36.82c-3.112-3.112-3.112-8.176,0-11.288l67.735-67.735
			c1.508-1.508,3.512-2.338,5.645-2.338c2.132,0,4.137,0.83,5.644,2.338l38.665,38.665
			C402.608,378.595,384.215,388.62,369.592,403.242z"/>
	</g>
</g>
<g>
	<g>
		<path d="M480.978,364.859L123.133,7.014C118.609,2.49,112.597,0,106.202,0c-0.014,0-0.029,0-0.043,0
			c-6.412,0.011-12.433,2.523-16.951,7.073L26.267,70.446c-5.11,5.145-0.926,14.169,6.301,13.582l27.316-2.186l-7.469,26.366
			c-1.488,5.258,2.866,10.579,8.317,10.133l27.318-2.186l-7.467,26.368c-1.489,5.258,2.867,10.576,8.317,10.133l27.32-2.185
			l-7.469,26.369c-1.49,5.263,2.867,10.57,8.317,10.133l27.319-2.185l-7.467,26.369c-1.492,5.27,2.87,10.562,8.318,10.133
			l27.315-2.187l-7.469,26.366c-1.489,5.26,2.866,10.574,8.317,10.133l27.32-2.184l-7.469,26.367
			c-1.489,5.262,2.867,10.572,8.317,10.133l27.319-2.185l-7.467,26.37c-1.488,5.257,2.866,10.58,8.317,10.133l27.323-2.184
			l-7.466,26.373c-1.416,5.002,2.454,10.137,7.649,10.157l24.453,0.096l-21.987,21.987c-7.539,7.539-11.691,17.562-11.691,28.223
			c0,10.662,4.152,20.685,11.691,28.223l63.219,63.219C330.709,508.11,340.929,512,351.15,512c10.221,0,20.442-3.89,28.222-11.672
			l31.093-31.093c3.117-3.117,3.117-8.172,0-11.288c-3.117-3.117-8.172-3.117-11.288,0l-31.093,31.093
			c-9.336,9.336-24.529,9.336-33.868,0l-63.219-63.219c-4.523-4.523-7.014-10.537-7.014-16.934s2.492-12.41,7.014-16.934
			l107.25-107.247l91.442,91.442c3.076,3.076,3.076,8.214,0,11.29l-44.965,44.966c-3.117,3.117-3.117,8.172,0,11.288
			c3.117,3.117,8.172,3.117,11.288,0l44.965-44.966c4.523-4.523,7.014-10.537,7.014-16.934
			C487.992,375.396,485.502,369.382,480.978,364.859z M297.602,342.773l-29.78-0.117l7.729-27.304
			c1.491-5.268-2.868-10.562-8.317-10.132l-27.322,2.184l7.467-26.371c1.491-5.267-2.868-10.565-8.317-10.133l-27.319,2.185
			l7.469-26.367c1.491-5.265-2.867-10.567-8.317-10.133l-27.321,2.184l7.469-26.368c1.49-5.264-2.867-10.57-8.318-10.133
			l-27.315,2.187l7.467-26.368c1.49-5.263-2.867-10.571-8.317-10.133l-27.319,2.185l7.469-26.369
			c1.49-5.264-2.867-10.567-8.317-10.133l-27.32,2.185l7.467-26.369c1.489-5.26-2.867-10.574-8.317-10.133l-27.318,2.186
			l7.469-26.366c1.49-5.264-2.867-10.572-8.318-10.133l-17.264,1.382l47.742-48.07c1.506-1.517,3.512-2.353,5.651-2.358
			c0.004,0,0.01,0,0.014,0c2.132,0,4.136,0.83,5.644,2.338l255.113,255.113L297.602,342.773z"/>
	</g>
</g>
<g>
	<g>
		<path d="M339.839,271.685l-26.609-26.609c-3.117-3.117-8.172-3.117-11.288,0c-3.117,3.117-3.117,8.172,0,11.288l26.609,26.609
			c3.247,3.247,8.728,3.028,11.713-0.458C342.939,279.392,342.745,274.592,339.839,271.685z"/>
	</g>
</g>
<g>
	<g>
		<path d="M285.557,217.404L147.192,79.038c-3.117-3.117-8.172-3.117-11.288,0c-3.117,3.117-3.117,8.172,0,11.288l138.365,138.365
			c3.247,3.247,8.728,3.028,11.713-0.458C288.657,225.111,288.464,220.309,285.557,217.404z"/>
	</g>
</g>
</svg>