<svg width="32" height="32" viewBox="0 0 32 32" fill="none" xmlns="http://www.w3.org/2000/svg">
<path d="M26.5 17C26.3525 17 26.2063 17.0075 26.0613 17.0212L24.7175 12.99L21.9487 4.68375C21.8824 4.48463 21.755 4.31145 21.5847 4.18873C21.4145 4.06601 21.2099 3.99998 21 4H17C16.7348 4 16.4804 4.10536 16.2929 4.29289C16.1054 4.48043 16 4.73478 16 5C16 5.26522 16.1054 5.51957 16.2929 5.70711C16.4804 5.89464 16.7348 6 17 6H20.2787L22.6537 13.1088L16.5112 21H9.97125C9.84799 19.9011 9.32445 18.8861 8.50052 18.1486C7.6766 17.4111 6.60997 17.0028 5.5042 17.0016C4.39843 17.0004 3.33092 17.4064 2.50539 18.1421C1.67985 18.8777 1.1541 19.8916 1.02844 20.9902C0.902788 22.0889 1.18604 23.1953 1.82413 24.0984C2.46223 25.0015 3.4105 25.638 4.48799 25.8865C5.56548 26.135 6.69675 25.9781 7.66592 25.4457C8.63509 24.9133 9.3743 24.0427 9.7425 23H17C17.1522 22.9999 17.3024 22.965 17.439 22.8981C17.5757 22.8312 17.6953 22.7339 17.7887 22.6138L23.4137 15.3888L24.1637 17.655C23.2346 18.22 22.5415 19.1022 22.2125 20.1387C21.8836 21.1752 21.9411 22.2957 22.3743 23.293C22.8076 24.2904 23.5874 25.0971 24.5695 25.5641C25.5515 26.031 26.6695 26.1265 27.7165 25.8329C28.7635 25.5394 29.6689 24.8766 30.265 23.9672C30.8612 23.0578 31.108 21.9633 30.9596 20.886C30.8113 19.8088 30.2778 18.8217 29.458 18.1073C28.6382 17.393 27.5874 16.9996 26.5 17ZM5.5 24C5.00555 24 4.5222 23.8534 4.11107 23.5787C3.69995 23.304 3.37952 22.9135 3.1903 22.4567C3.00108 21.9999 2.95157 21.4972 3.04804 21.0123C3.1445 20.5273 3.3826 20.0819 3.73223 19.7322C4.08186 19.3826 4.52732 19.1445 5.01227 19.048C5.49723 18.9516 5.99989 19.0011 6.45671 19.1903C6.91352 19.3795 7.30397 19.7 7.57867 20.1111C7.85338 20.5222 8 21.0055 8 21.5C8 21.8283 7.93534 22.1534 7.8097 22.4567C7.68406 22.76 7.49991 23.0356 7.26777 23.2678C7.03562 23.4999 6.76002 23.6841 6.45671 23.8097C6.15339 23.9353 5.8283 24 5.5 24ZM26.5 24C26.0055 24 25.5222 23.8534 25.1111 23.5787C24.7 23.304 24.3795 22.9135 24.1903 22.4567C24.0011 21.9999 23.9516 21.4972 24.048 21.0123C24.1445 20.5273 24.3826 20.0819 24.7322 19.7322C25.0819 19.3826 25.5273 19.1445 26.0123 19.048C26.4972 18.9516 26.9999 19.0011 27.4567 19.1903C27.9135 19.3795 28.304 19.7 28.5787 20.1111C28.8534 20.5222 29 21.0055 29 21.5C29 21.8283 28.9353 22.1534 28.8097 22.4567C28.6841 22.76 28.4999 23.0356 28.2678 23.2678C28.0356 23.4999 27.76 23.6841 27.4567 23.8097C27.1534 23.9353 26.8283 24 26.5 24Z" fill="#343330"/>
</svg>
