<svg width="32" height="32" viewBox="0 0 32 32" fill="none" xmlns="http://www.w3.org/2000/svg">
<path d="M30.7413 19.3288C30.5763 19.1463 27.73 16.0513 23.1163 14.2587C22.9013 11.9563 22.0588 9.8625 20.69 8.26875C18.8588 6.125 16.1975 5 13 5C6.56001 5 2.36126 10.7725 2.18626 11.0188C2.04302 11.2346 1.98912 11.4976 2.03594 11.7524C2.08275 12.0072 2.22661 12.2339 2.43723 12.3847C2.64785 12.5356 2.90878 12.5988 3.16508 12.561C3.42138 12.5233 3.65303 12.3876 3.81126 12.1825C3.85001 12.1312 7.60126 7 13 7C15.5963 7 17.7325 7.88875 19.1763 9.57125C20.1038 10.6512 20.7313 12.0325 21.01 13.5712C19.562 13.1931 18.0716 13.0012 16.575 13C13.3175 13 10.5838 13.8513 8.66751 15.4613C6.97251 16.8863 6.00001 18.875 6.00001 20.9062C5.9923 21.6952 6.14161 22.4778 6.43926 23.2086C6.73691 23.9393 7.17695 24.6035 7.73376 25.1625C8.94126 26.365 10.6163 27 12.575 27C19.0513 27 22.7225 21.7337 23.1363 16.4475C25.4221 17.4636 27.499 18.8959 29.2613 20.6712C29.3494 20.7686 29.4559 20.8476 29.5746 20.9038C29.6933 20.96 29.8219 20.9923 29.953 20.9988C30.0842 21.0053 30.2153 20.9859 30.339 20.9417C30.4627 20.8975 30.5764 20.8294 30.6738 20.7412C30.7711 20.6531 30.8501 20.5466 30.9063 20.4279C30.9625 20.3093 30.9948 20.1807 31.0013 20.0495C31.0078 19.9183 30.9884 19.7872 30.9442 19.6635C30.9 19.5398 30.8319 19.4261 30.7438 19.3288H30.7413ZM18.9338 22.0338C17.83 23.3862 15.8325 25 12.575 25C9.41501 25 8.00001 22.9438 8.00001 20.9062C8.00001 18.0612 10.6838 15 16.575 15C18.1345 15.0047 19.6843 15.244 21.1725 15.71C21.1163 18.055 20.3075 20.3475 18.9338 22.0338Z" fill="#343330"/>
</svg>
