<svg width="32" height="32" viewBox="0 0 32 32" fill="none" xmlns="http://www.w3.org/2000/svg">
<path d="M29.9212 8.76245C29.8217 8.45217 29.6324 8.17842 29.3771 7.97591C29.1219 7.77339 28.8122 7.65125 28.4874 7.62496L23.8349 7.2312L22.0199 2.99995C21.8918 2.70332 21.6797 2.45067 21.4097 2.27318C21.1397 2.09568 20.8237 2.0011 20.5006 2.0011C20.1775 2.0011 19.8614 2.09568 19.5914 2.27318C19.3214 2.45067 19.1093 2.70332 18.9812 2.99995L17.1662 7.23246L12.5124 7.62496C12.1893 7.65091 11.8811 7.77199 11.6267 7.97291C11.3722 8.17383 11.183 8.44559 11.0829 8.75392C10.9827 9.06225 10.9761 9.39334 11.0639 9.70541C11.1517 10.0175 11.33 10.2966 11.5762 10.5075L15.0962 13.5075L14.0424 17.9737C13.9684 18.2868 13.9881 18.6147 14.0993 18.9166C14.2104 19.2185 14.408 19.4809 14.6674 19.6712C14.9299 19.8639 15.2434 19.975 15.5686 19.9906C15.8939 20.0062 16.2165 19.9255 16.4962 19.7587L20.4962 17.3837L24.4962 19.7587C24.7759 19.9255 25.0985 20.0062 25.4238 19.9906C25.749 19.975 26.0625 19.8639 26.3249 19.6712C26.5845 19.481 26.7822 19.2186 26.8933 18.9167C27.0045 18.6148 27.0242 18.2868 26.9499 17.9737L25.8962 13.5075L29.4149 10.5075C29.6626 10.2994 29.8429 10.0225 29.933 9.71182C30.0232 9.40117 30.019 9.07076 29.9212 8.76245ZM24.4387 12.1375C24.2084 12.3326 24.0367 12.5878 23.9427 12.8747C23.8487 13.1615 23.836 13.4688 23.9062 13.7625L24.8199 17.6375L21.3474 15.5737C21.0912 15.4209 20.7983 15.3402 20.4999 15.3402C20.2016 15.3402 19.9087 15.4209 19.6524 15.5737L16.1799 17.625L17.0937 13.75C17.1649 13.4565 17.1529 13.149 17.059 12.8619C16.9652 12.5749 16.7932 12.3197 16.5624 12.125L13.5299 9.54745L17.5412 9.20746C17.8389 9.18248 18.1242 9.07689 18.3664 8.90204C18.6087 8.72718 18.7987 8.48966 18.9162 8.21496L20.4999 4.52996L22.0799 8.21496C22.1976 8.4895 22.3877 8.72688 22.6299 8.9017C22.8721 9.07652 23.1573 9.18221 23.4549 9.20746L27.4662 9.54745L24.4387 12.1375ZM10.7074 15.7075L3.70745 22.7075C3.51981 22.8951 3.26531 23.0005 2.99995 23.0005C2.73458 23.0005 2.48009 22.8951 2.29245 22.7075C2.10481 22.5198 1.99939 22.2653 1.99939 22C1.99939 21.7346 2.10481 21.4801 2.29245 21.2925L9.29245 14.2925C9.48009 14.1048 9.73458 13.9994 9.99995 13.9994C10.2653 13.9994 10.5198 14.1048 10.7074 14.2925C10.8951 14.4801 11.0005 14.7346 11.0005 15C11.0005 15.2653 10.8951 15.5198 10.7074 15.7075ZM12.7074 22.7075L5.70745 29.7075C5.61454 29.8004 5.50424 29.8741 5.38284 29.9243C5.26145 29.9746 5.13134 30.0005 4.99995 30.0005C4.86855 30.0005 4.73844 29.9746 4.61705 29.9243C4.49566 29.8741 4.38536 29.8004 4.29245 29.7075C4.19954 29.6145 4.12584 29.5042 4.07555 29.3829C4.02527 29.2615 3.99939 29.1313 3.99939 29C3.99939 28.8686 4.02527 28.7385 4.07555 28.6171C4.12584 28.4957 4.19954 28.3854 4.29245 28.2925L11.2924 21.2925C11.4801 21.1048 11.7346 20.9994 11.9999 20.9994C12.2653 20.9994 12.5198 21.1048 12.7074 21.2925C12.8951 21.4801 13.0005 21.7346 13.0005 22C13.0005 22.2653 12.8951 22.5198 12.7074 22.7075ZM21.7074 21.2925C21.8004 21.3853 21.8742 21.4956 21.9245 21.617C21.9748 21.7384 22.0007 21.8685 22.0007 22C22.0007 22.1314 21.9748 22.2615 21.9245 22.3829C21.8742 22.5043 21.8004 22.6146 21.7074 22.7075L14.7074 29.7075C14.6145 29.8004 14.5042 29.8741 14.3828 29.9243C14.2614 29.9746 14.1313 30.0005 13.9999 30.0005C13.8686 30.0005 13.7384 29.9746 13.617 29.9243C13.4957 29.8741 13.3854 29.8004 13.2924 29.7075C13.1995 29.6145 13.1258 29.5042 13.0756 29.3829C13.0253 29.2615 12.9994 29.1313 12.9994 29C12.9994 28.8686 13.0253 28.7385 13.0756 28.6171C13.1258 28.4957 13.1995 28.3854 13.2924 28.2925L20.2924 21.2925C20.3853 21.1995 20.4956 21.1257 20.617 21.0754C20.7384 21.0251 20.8685 20.9992 20.9999 20.9992C21.1314 20.9992 21.2615 21.0251 21.3829 21.0754C21.5043 21.1257 21.6146 21.1995 21.7074 21.2925Z" fill="#343330"/>
</svg>
