<svg width="32" height="32" viewBox="0 0 32 32" fill="none" xmlns="http://www.w3.org/2000/svg">
<path d="M23 9V7H10.0813L16.7813 15.375C16.9233 15.5524 17.0006 15.7728 17.0006 16C17.0006 16.2272 16.9233 16.4476 16.7813 16.625L10.0813 25H23V23C23 22.7348 23.1054 22.4804 23.2929 22.2929C23.4804 22.1054 23.7348 22 24 22C24.2652 22 24.5196 22.1054 24.7071 22.2929C24.8946 22.4804 25 22.7348 25 23V26C25 26.2652 24.8946 26.5196 24.7071 26.7071C24.5196 26.8946 24.2652 27 24 27H8C7.81155 27.0001 7.6269 26.947 7.46733 26.8467C7.30776 26.7465 7.17978 26.6031 7.09812 26.4333C7.01647 26.2635 6.98447 26.074 7.00581 25.8868C7.02715 25.6995 7.10097 25.5221 7.21875 25.375L14.7188 16L7.21875 6.625C7.10097 6.47789 7.02715 6.30049 7.00581 6.11325C6.98447 5.92601 7.01647 5.73655 7.09812 5.56671C7.17978 5.39686 7.30776 5.25355 7.46733 5.15328C7.6269 5.05302 7.81155 4.99988 8 5H24C24.2652 5 24.5196 5.10536 24.7071 5.29289C24.8946 5.48043 25 5.73478 25 6V9C25 9.26522 24.8946 9.51957 24.7071 9.70711C24.5196 9.89464 24.2652 10 24 10C23.7348 10 23.4804 9.89464 23.2929 9.70711C23.1054 9.51957 23 9.26522 23 9Z" fill="#343330"/>
</svg>
