<svg width="32" height="32" viewBox="0 0 32 32" fill="none" xmlns="http://www.w3.org/2000/svg">
<path d="M5 11H9.125C9.3453 11.8604 9.8457 12.623 10.5473 13.1676C11.2489 13.7122 12.1118 14.0078 13 14.0078C13.8882 14.0078 14.7511 13.7122 15.4527 13.1676C16.1543 12.623 16.6547 11.8604 16.875 11H27C27.2652 11 27.5196 10.8946 27.7071 10.7071C27.8946 10.5195 28 10.2652 28 9.99997C28 9.73475 27.8946 9.4804 27.7071 9.29286C27.5196 9.10533 27.2652 8.99997 27 8.99997H16.875C16.6547 8.13955 16.1543 7.37693 15.4527 6.83233C14.7511 6.28773 13.8882 5.99213 13 5.99213C12.1118 5.99213 11.2489 6.28773 10.5473 6.83233C9.8457 7.37693 9.3453 8.13955 9.125 8.99997H5C4.73478 8.99997 4.48043 9.10533 4.29289 9.29286C4.10536 9.4804 4 9.73475 4 9.99997C4 10.2652 4.10536 10.5195 4.29289 10.7071C4.48043 10.8946 4.73478 11 5 11ZM13 7.99997C13.3956 7.99997 13.7822 8.11727 14.1111 8.33703C14.44 8.55679 14.6964 8.86915 14.8478 9.2346C14.9991 9.60006 15.0387 10.0022 14.9616 10.3902C14.8844 10.7781 14.6939 11.1345 14.4142 11.4142C14.1345 11.6939 13.7781 11.8844 13.3902 11.9615C13.0022 12.0387 12.6001 11.9991 12.2346 11.8477C11.8692 11.6964 11.5568 11.44 11.3371 11.1111C11.1173 10.7822 11 10.3955 11 9.99997C11 9.46954 11.2107 8.96083 11.5858 8.58576C11.9609 8.21068 12.4696 7.99997 13 7.99997ZM27 21H24.875C24.6547 20.1396 24.1543 19.3769 23.4527 18.8323C22.7511 18.2877 21.8882 17.9921 21 17.9921C20.1118 17.9921 19.2489 18.2877 18.5473 18.8323C17.8457 19.3769 17.3453 20.1396 17.125 21H5C4.73478 21 4.48043 21.1053 4.29289 21.2929C4.10536 21.4804 4 21.7348 4 22C4 22.2652 4.10536 22.5195 4.29289 22.7071C4.48043 22.8946 4.73478 23 5 23H17.125C17.3453 23.8604 17.8457 24.623 18.5473 25.1676C19.2489 25.7122 20.1118 26.0078 21 26.0078C21.8882 26.0078 22.7511 25.7122 23.4527 25.1676C24.1543 24.623 24.6547 23.8604 24.875 23H27C27.2652 23 27.5196 22.8946 27.7071 22.7071C27.8946 22.5195 28 22.2652 28 22C28 21.7348 27.8946 21.4804 27.7071 21.2929C27.5196 21.1053 27.2652 21 27 21ZM21 24C20.6044 24 20.2178 23.8827 19.8889 23.6629C19.56 23.4431 19.3036 23.1308 19.1522 22.7653C19.0009 22.3999 18.9613 21.9978 19.0384 21.6098C19.1156 21.2218 19.3061 20.8655 19.5858 20.5858C19.8655 20.3061 20.2219 20.1156 20.6098 20.0384C20.9978 19.9612 21.3999 20.0008 21.7654 20.1522C22.1308 20.3036 22.4432 20.5599 22.6629 20.8888C22.8827 21.2177 23 21.6044 23 22C23 22.5304 22.7893 23.0391 22.4142 23.4142C22.0391 23.7893 21.5304 24 21 24Z" fill="#343330"/>
</svg>
