<svg width="32" height="32" viewBox="0 0 32 32" fill="none" xmlns="http://www.w3.org/2000/svg">
<path d="M19.4387 3.10123C19.2706 3.01929 19.0828 2.98616 18.8968 3.0056C18.7107 3.02505 18.5338 3.09629 18.3862 3.21123L9.65625 9.99998H4C3.46957 9.99998 2.96086 10.2107 2.58579 10.5858C2.21071 10.9608 2 11.4695 2 12V20C2 20.5304 2.21071 21.0391 2.58579 21.4142C2.96086 21.7893 3.46957 22 4 22H9.65625L18.3862 28.7887C18.534 28.9036 18.711 28.9747 18.8971 28.9939C19.0832 29.0132 19.271 28.9798 19.4391 28.8977C19.6072 28.8155 19.7489 28.6878 19.8481 28.5291C19.9472 28.3704 19.9999 28.1871 20 28V3.99998C20 3.81264 19.9474 3.62906 19.8482 3.47016C19.749 3.31126 19.6071 3.18343 19.4387 3.10123ZM18 25.955L10.6138 20.2112C10.4386 20.074 10.2225 19.9996 10 20H4V12H10C10.2225 12.0003 10.4386 11.9259 10.6138 11.7887L18 6.04498V25.955ZM25 13V19C25 19.2652 24.8946 19.5196 24.7071 19.7071C24.5196 19.8946 24.2652 20 24 20C23.7348 20 23.4804 19.8946 23.2929 19.7071C23.1054 19.5196 23 19.2652 23 19V13C23 12.7348 23.1054 12.4804 23.2929 12.2929C23.4804 12.1053 23.7348 12 24 12C24.2652 12 24.5196 12.1053 24.7071 12.2929C24.8946 12.4804 25 12.7348 25 13ZM29 11V21C29 21.2652 28.8946 21.5196 28.7071 21.7071C28.5196 21.8946 28.2652 22 28 22C27.7348 22 27.4804 21.8946 27.2929 21.7071C27.1054 21.5196 27 21.2652 27 21V11C27 10.7348 27.1054 10.4804 27.2929 10.2929C27.4804 10.1053 27.7348 9.99998 28 9.99998C28.2652 9.99998 28.5196 10.1053 28.7071 10.2929C28.8946 10.4804 29 10.7348 29 11Z" fill="#343330"/>
</svg>
