<svg width="32" height="32" viewBox="0 0 32 32" fill="none" xmlns="http://www.w3.org/2000/svg">
<path d="M19.4387 3.10123C19.2706 3.01929 19.0828 2.98616 18.8968 3.0056C18.7107 3.02505 18.5338 3.09629 18.3862 3.21123L9.65625 9.99998H4C3.46957 9.99998 2.96086 10.2107 2.58579 10.5858C2.21071 10.9608 2 11.4695 2 12V20C2 20.5304 2.21071 21.0391 2.58579 21.4142C2.96086 21.7893 3.46957 22 4 22H9.65625L18.3862 28.7887C18.534 28.9036 18.711 28.9747 18.8971 28.9939C19.0832 29.0132 19.271 28.9798 19.4391 28.8977C19.6072 28.8155 19.7489 28.6878 19.8481 28.5291C19.9472 28.3704 19.9999 28.1871 20 28V3.99998C20 3.81264 19.9474 3.62906 19.8482 3.47016C19.749 3.31126 19.6071 3.18343 19.4387 3.10123ZM18 25.955L10.6138 20.2112C10.4386 20.074 10.2225 19.9996 10 20H4V12H10C10.2225 12.0003 10.4386 11.9259 10.6138 11.7887L18 6.04498V25.955ZM30.7075 18.2925C30.8951 18.4801 31.0006 18.7346 31.0006 19C31.0006 19.2653 30.8951 19.5198 30.7075 19.7075C30.5199 19.8951 30.2654 20.0005 30 20.0005C29.7346 20.0005 29.4801 19.8951 29.2925 19.7075L27 17.4137L24.7075 19.7075C24.5199 19.8951 24.2654 20.0005 24 20.0005C23.7346 20.0005 23.4801 19.8951 23.2925 19.7075C23.1049 19.5198 22.9994 19.2653 22.9994 19C22.9994 18.7346 23.1049 18.4801 23.2925 18.2925L25.5863 16L23.2925 13.7075C23.1049 13.5198 22.9994 13.2653 22.9994 13C22.9994 12.7346 23.1049 12.4801 23.2925 12.2925C23.4801 12.1048 23.7346 11.9994 24 11.9994C24.2654 11.9994 24.5199 12.1048 24.7075 12.2925L27 14.5862L29.2925 12.2925C29.4801 12.1048 29.7346 11.9994 30 11.9994C30.2654 11.9994 30.5199 12.1048 30.7075 12.2925C30.8951 12.4801 31.0006 12.7346 31.0006 13C31.0006 13.2653 30.8951 13.5198 30.7075 13.7075L28.4137 16L30.7075 18.2925Z" fill="#343330"/>
</svg>
