<svg width="32" height="32" viewBox="0 0 32 32" fill="none" xmlns="http://www.w3.org/2000/svg">
<path d="M25.1513 16L28.875 9.49999C28.9632 9.34731 29.0094 9.17404 29.009 8.99773C29.0086 8.82143 28.9616 8.64836 28.8728 8.49608C28.7839 8.34379 28.6564 8.2177 28.5032 8.13057C28.3499 8.04345 28.1763 7.9984 28 7.99999H20.5813L16.875 1.49999C16.7876 1.34668 16.6612 1.21924 16.5086 1.13059C16.356 1.04194 16.1827 0.995239 16.0063 0.995239C15.8298 0.995239 15.6565 1.04194 15.5039 1.13059C15.3513 1.21924 15.2249 1.34668 15.1375 1.49999L11.4163 7.99999H4C3.82423 7.99951 3.65144 8.04537 3.49905 8.13294C3.34665 8.22051 3.22002 8.34671 3.13193 8.49881C3.04384 8.65091 2.99739 8.82354 2.99727 8.99931C2.99716 9.17507 3.04337 9.34777 3.13125 9.49999L6.84625 16L3.13125 22.5C3.04309 22.6527 2.99687 22.8259 2.99726 23.0022C2.99765 23.1785 3.04464 23.3516 3.13347 23.5039C3.22231 23.6562 3.34983 23.7823 3.5031 23.8694C3.65637 23.9565 3.82996 24.0016 4.00625 24H11.4163L15.1313 30.5C15.2186 30.6533 15.3451 30.7807 15.4976 30.8694C15.6502 30.958 15.8235 31.0047 16 31.0047C16.1765 31.0047 16.3498 30.958 16.5024 30.8694C16.655 30.7807 16.7814 30.6533 16.8688 30.5L20.5813 24H28C28.1763 24.0016 28.3499 23.9565 28.5032 23.8694C28.6564 23.7823 28.7839 23.6562 28.8728 23.5039C28.9616 23.3516 29.0086 23.1785 29.009 23.0022C29.0094 22.8259 28.9632 22.6527 28.875 22.5L25.1513 16ZM26.2763 9.99999L24 13.985L21.7238 9.99999H26.2763ZM22.8488 16L19.4213 22H12.5775L9.15 16L12.5775 9.99999H19.4213L22.8488 16ZM16 4.01499L18.2775 7.99999H13.7213L16 4.01499ZM5.7225 9.99999H10.2738L8 13.985L5.7225 9.99999ZM5.7225 21.99L8 18.015L10.2738 22L5.7225 21.99ZM16 27.985L13.7213 24H18.2775L16 27.985ZM21.7238 22L24 18.015L26.2763 22H21.7238Z" fill="#343330"/>
</svg>
