<svg width="32" height="32" viewBox="0 0 32 32" fill="none" xmlns="http://www.w3.org/2000/svg">
<path d="M8.50001 19C7.60999 19 6.73996 19.2639 5.99994 19.7584C5.25992 20.2529 4.68314 20.9557 4.34255 21.7779C4.00195 22.6002 3.91284 23.505 4.08647 24.3779C4.26011 25.2508 4.68869 26.0526 5.31803 26.682C5.94736 27.3113 6.74919 27.7399 7.6221 27.9135C8.49501 28.0872 9.39981 27.9981 10.2221 27.6575C11.0443 27.3169 11.7472 26.7401 12.2416 26.0001C12.7361 25.26 13 24.39 13 23.5C13 22.3065 12.5259 21.1619 11.682 20.318C10.8381 19.4741 9.69348 19 8.50001 19ZM8.50001 26C8.00555 26 7.5222 25.8534 7.11108 25.5787C6.69996 25.304 6.37953 24.9135 6.19031 24.4567C6.00109 23.9999 5.95158 23.4972 6.04804 23.0123C6.14451 22.5273 6.38261 22.0819 6.73224 21.7322C7.08187 21.3826 7.52733 21.1445 8.01228 21.048C8.49723 20.9516 8.9999 21.0011 9.45672 21.1903C9.91353 21.3795 10.304 21.7 10.5787 22.1111C10.8534 22.5222 11 23.0055 11 23.5C11 24.163 10.7366 24.7989 10.2678 25.2678C9.79893 25.7366 9.16305 26 8.50001 26ZM4.29251 13.2925L6.08626 11.5L4.29251 9.7075C4.10487 9.51986 3.99945 9.26536 3.99945 9C3.99945 8.73464 4.10487 8.48014 4.29251 8.2925C4.48015 8.10486 4.73464 7.99944 5.00001 7.99944C5.26537 7.99944 5.51987 8.10486 5.70751 8.2925L7.50001 10.0863L9.29251 8.2925C9.48015 8.10486 9.73464 7.99944 10 7.99944C10.2654 7.99944 10.5199 8.10486 10.7075 8.2925C10.8951 8.48014 11.0006 8.73464 11.0006 9C11.0006 9.26536 10.8951 9.51986 10.7075 9.7075L8.91376 11.5L10.7075 13.2925C10.8951 13.4801 11.0006 13.7346 11.0006 14C11.0006 14.2654 10.8951 14.5199 10.7075 14.7075C10.5199 14.8951 10.2654 15.0006 10 15.0006C9.73464 15.0006 9.48015 14.8951 9.29251 14.7075L7.50001 12.9137L5.70751 14.7075C5.51987 14.8951 5.26537 15.0006 5.00001 15.0006C4.73464 15.0006 4.48015 14.8951 4.29251 14.7075C4.10487 14.5199 3.99945 14.2654 3.99945 14C3.99945 13.7346 4.10487 13.4801 4.29251 13.2925ZM27.7075 25.2925C27.8004 25.3854 27.8741 25.4957 27.9244 25.6171C27.9747 25.7385 28.0006 25.8686 28.0006 26C28.0006 26.1314 27.9747 26.2615 27.9244 26.3829C27.8741 26.5043 27.8004 26.6146 27.7075 26.7075C27.6146 26.8004 27.5043 26.8741 27.3829 26.9244C27.2615 26.9747 27.1314 27.0006 27 27.0006C26.8686 27.0006 26.7385 26.9747 26.6171 26.9244C26.4957 26.8741 26.3854 26.8004 26.2925 26.7075L24.5 24.9137L22.7075 26.7075C22.5199 26.8951 22.2654 27.0006 22 27.0006C21.7346 27.0006 21.4801 26.8951 21.2925 26.7075C21.1049 26.5199 20.9995 26.2654 20.9995 26C20.9995 25.7346 21.1049 25.4801 21.2925 25.2925L23.0863 23.5L21.2925 21.7075C21.1049 21.5199 20.9995 21.2654 20.9995 21C20.9995 20.7346 21.1049 20.4801 21.2925 20.2925C21.4801 20.1049 21.7346 19.9994 22 19.9994C22.2654 19.9994 22.5199 20.1049 22.7075 20.2925L24.5 22.0863L26.2925 20.2925C26.4801 20.1049 26.7346 19.9994 27 19.9994C27.2654 19.9994 27.5199 20.1049 27.7075 20.2925C27.8951 20.4801 28.0006 20.7346 28.0006 21C28.0006 21.2654 27.8951 21.5199 27.7075 21.7075L25.9138 23.5L27.7075 25.2925ZM22.0588 14.1038C21.2863 16.895 18.8938 19.3075 16.2425 19.97C16.1607 19.9903 16.0768 20.0004 15.9925 20C15.7487 19.9995 15.5134 19.91 15.3309 19.7482C15.1485 19.5865 15.0314 19.3636 15.0018 19.1216C14.9721 18.8795 15.0319 18.635 15.17 18.434C15.308 18.2329 15.5147 18.0893 15.7513 18.03C17.705 17.5413 19.545 15.6663 20.1263 13.57C20.525 12.1325 20.5288 9.945 18.2875 7.7075L18 7.41375V10C18 10.2652 17.8947 10.5196 17.7071 10.7071C17.5196 10.8946 17.2652 11 17 11C16.7348 11 16.4804 10.8946 16.2929 10.7071C16.1054 10.5196 16 10.2652 16 10V5C16 4.73478 16.1054 4.48043 16.2929 4.29289C16.4804 4.10536 16.7348 4 17 4H22C22.2652 4 22.5196 4.10536 22.7071 4.29289C22.8947 4.48043 23 4.73478 23 5C23 5.26522 22.8947 5.51957 22.7071 5.70711C22.5196 5.89464 22.2652 6 22 6H19.4138L19.7075 6.2925C21.9875 8.57375 22.8225 11.3475 22.0588 14.1038Z" fill="#343330"/>
</svg>
