<svg width="32" height="32" viewBox="0 0 32 32" fill="none" xmlns="http://www.w3.org/2000/svg">
<path d="M9.99999 22.5C9.99999 22.7967 9.91202 23.0867 9.74719 23.3333C9.58237 23.58 9.3481 23.7723 9.07401 23.8858C8.79992 23.9993 8.49832 24.029 8.20735 23.9712C7.91638 23.9133 7.64911 23.7704 7.43933 23.5607C7.22955 23.3509 7.08669 23.0836 7.02881 22.7926C6.97093 22.5017 7.00064 22.2001 7.11417 21.926C7.2277 21.6519 7.41996 21.4176 7.66663 21.2528C7.91331 21.088 8.20332 21 8.49999 21C8.89781 21 9.27935 21.158 9.56065 21.4393C9.84195 21.7206 9.99999 22.1022 9.99999 22.5ZM29 19.5237V26C29 26.5304 28.7893 27.0391 28.4142 27.4142C28.0391 27.7893 27.5304 28 27 28H8.49999C8.16733 28.0002 7.83527 27.9718 7.50749 27.915C6.07752 27.6541 4.80898 26.8377 3.97911 25.6444C3.14924 24.451 2.82554 22.9776 3.07874 21.5462L6.20374 3.65499C6.24816 3.39647 6.34318 3.14926 6.48337 2.92756C6.62355 2.70585 6.80614 2.514 7.02064 2.36302C7.23515 2.21204 7.47735 2.10491 7.73336 2.04776C7.98937 1.99061 8.25414 1.98457 8.51249 2.02999L15.355 3.24999C15.8756 3.34382 16.3379 3.6401 16.6406 4.07398C16.9432 4.50785 17.0617 5.04398 16.97 5.56499L15.46 14.19L23.9362 11.125C24.4331 10.9455 24.9808 10.9699 25.4597 11.1929C25.9387 11.4158 26.3099 11.8192 26.4925 12.315L28.875 18.8362C28.9515 19.0577 28.9937 19.2895 29 19.5237ZM11.875 23.1087L15 5.21749L8.18249 3.99999L5.05749 21.8875C4.89434 22.7973 5.09772 23.7347 5.62324 24.4951C6.14876 25.2556 6.95374 25.7772 7.86249 25.9462C8.30735 26.026 8.76363 26.0166 9.20482 25.9185C9.64601 25.8205 10.0633 25.6357 10.4325 25.375C10.8111 25.1117 11.1336 24.7757 11.3812 24.3867C11.6289 23.9976 11.7967 23.5632 11.875 23.1087ZM13.5975 24.375L27 19.5137L24.615 13L15.0625 16.4625L13.84 23.4525C13.7856 23.7664 13.7045 24.075 13.5975 24.375ZM27 21.64L14.9675 26H27V21.64Z" fill="#343330"/>
</svg>
