<svg width="32" height="32" viewBox="0 0 32 32" fill="none" xmlns="http://www.w3.org/2000/svg">
<path d="M29.61 3.27375C29.455 3.13996 29.2665 3.05098 29.0647 3.0164C28.863 2.98182 28.6556 3.00294 28.465 3.0775L3.13245 12.9912C2.77343 13.1309 2.46948 13.3833 2.26636 13.7106C2.06323 14.0379 1.97193 14.4223 2.00619 14.806C2.04046 15.1897 2.19844 15.5519 2.45634 15.838C2.71425 16.1241 3.05812 16.3187 3.4362 16.3925L9.99995 17.6812V25C9.99866 25.3986 10.1171 25.7885 10.34 26.119C10.5629 26.4495 10.8799 26.7055 11.2499 26.8538C11.6194 27.0046 12.0258 27.0408 12.4161 26.9577C12.8065 26.8745 13.1628 26.6759 13.4387 26.3875L16.6037 23.105L21.625 27.5C21.9872 27.8213 22.4545 27.9992 22.9387 28C23.1509 27.9998 23.3618 27.9665 23.5637 27.9013C23.8936 27.7966 24.1904 27.6073 24.4244 27.3522C24.6584 27.0971 24.8215 26.7852 24.8974 26.4475L29.9712 4.375C30.0166 4.17594 30.0069 3.96827 29.9433 3.77427C29.8797 3.58027 29.7644 3.40725 29.61 3.27375ZM21.9675 7.77375L10.7687 15.7937L4.5687 14.5775L21.9675 7.77375ZM11.9999 25V19.065L15.0987 21.7825L11.9999 25ZM22.9412 26L12.6062 16.9375L27.4812 6.27625L22.9412 26Z" fill="#343330"/>
</svg>
