<svg width="32" height="32" viewBox="0 0 32 32" fill="none" xmlns="http://www.w3.org/2000/svg">
<path d="M31.9137 24.5938L23.9137 6.59375C23.8352 6.41702 23.707 6.26686 23.5449 6.16148C23.3827 6.05609 23.1934 6 23 6H9C8.80826 6.00031 8.62066 6.05574 8.45954 6.15969C8.29842 6.26363 8.17058 6.41169 8.09125 6.58625C8.09089 6.58874 8.09089 6.59126 8.09125 6.59375V6.60875L0.0862497 24.5938C0.0185603 24.746 -0.0100132 24.9128 0.00312554 25.0789C0.0162643 25.245 0.0706987 25.4051 0.161483 25.5449C0.252267 25.6846 0.376523 25.7994 0.522962 25.8789C0.669401 25.9584 0.83338 26 1 26H31C31.1666 26 31.3306 25.9584 31.477 25.8789C31.6235 25.7994 31.7477 25.6846 31.8385 25.5449C31.9293 25.4051 31.9837 25.245 31.9969 25.0789C32.01 24.9128 31.9814 24.746 31.9137 24.5938ZM8 24H2.53875L8 11.7125V24ZM10 24V11.7125L15.4613 24H10ZM17.65 24L10.5387 8H22.35L29.4613 24H17.65Z" fill="#343330"/>
</svg>
