<svg width="32" height="32" viewBox="0 0 32 32" fill="none" xmlns="http://www.w3.org/2000/svg">
<path d="M28 16C28 16.2652 27.8946 16.5196 27.7071 16.7071C27.5196 16.8947 27.2652 17 27 17H14C13.7348 17 13.4804 16.8947 13.2929 16.7071C13.1054 16.5196 13 16.2652 13 16C13 15.7348 13.1054 15.4804 13.2929 15.2929C13.4804 15.1054 13.7348 15 14 15H27C27.2652 15 27.5196 15.1054 27.7071 15.2929C27.8946 15.4804 28 15.7348 28 16ZM14 9.00001H27C27.2652 9.00001 27.5196 8.89465 27.7071 8.70711C27.8946 8.51958 28 8.26522 28 8.00001C28 7.73479 27.8946 7.48044 27.7071 7.2929C27.5196 7.10536 27.2652 7.00001 27 7.00001H14C13.7348 7.00001 13.4804 7.10536 13.2929 7.2929C13.1054 7.48044 13 7.73479 13 8.00001C13 8.26522 13.1054 8.51958 13.2929 8.70711C13.4804 8.89465 13.7348 9.00001 14 9.00001ZM27 23H4.99999C4.73478 23 4.48042 23.1054 4.29289 23.2929C4.10535 23.4804 3.99999 23.7348 3.99999 24C3.99999 24.2652 4.10535 24.5196 4.29289 24.7071C4.48042 24.8947 4.73478 25 4.99999 25H27C27.2652 25 27.5196 24.8947 27.7071 24.7071C27.8946 24.5196 28 24.2652 28 24C28 23.7348 27.8946 23.4804 27.7071 23.2929C27.5196 23.1054 27.2652 23 27 23ZM4.29249 17.7075C4.38537 17.8005 4.49565 17.8742 4.61705 17.9246C4.73845 17.9749 4.86858 18.0008 4.99999 18.0008C5.13141 18.0008 5.26154 17.9749 5.38293 17.9246C5.50433 17.8742 5.61462 17.8005 5.70749 17.7075L10.7075 12.7075C10.8005 12.6146 10.8742 12.5043 10.9246 12.3829C10.9749 12.2615 11.0008 12.1314 11.0008 12C11.0008 11.8686 10.9749 11.7385 10.9246 11.6171C10.8742 11.4957 10.8005 11.3854 10.7075 11.2925L5.70749 6.29251C5.51985 6.10487 5.26536 5.99945 4.99999 5.99945C4.73463 5.99945 4.48013 6.10487 4.29249 6.29251C4.10485 6.48015 3.99944 6.73464 3.99944 7.00001C3.99944 7.26537 4.10485 7.51987 4.29249 7.70751L8.58624 12L4.29249 16.2925C4.19952 16.3854 4.12576 16.4957 4.07543 16.6171C4.02511 16.7385 3.99921 16.8686 3.99921 17C3.99921 17.1314 4.02511 17.2615 4.07543 17.3829C4.12576 17.5043 4.19952 17.6146 4.29249 17.7075Z" fill="#343330"/>
</svg>
