<svg width="32" height="32" viewBox="0 0 32 32" fill="none" xmlns="http://www.w3.org/2000/svg">
<path d="M28 16C28 16.2652 27.8946 16.5196 27.7071 16.7071C27.5196 16.8947 27.2652 17 27 17H14C13.7348 17 13.4804 16.8947 13.2929 16.7071C13.1054 16.5196 13 16.2652 13 16C13 15.7348 13.1054 15.4804 13.2929 15.2929C13.4804 15.1054 13.7348 15 14 15H27C27.2652 15 27.5196 15.1054 27.7071 15.2929C27.8946 15.4804 28 15.7348 28 16ZM14 9.00001H27C27.2652 9.00001 27.5196 8.89465 27.7071 8.70711C27.8946 8.51958 28 8.26522 28 8.00001C28 7.73479 27.8946 7.48044 27.7071 7.2929C27.5196 7.10536 27.2652 7.00001 27 7.00001H14C13.7348 7.00001 13.4804 7.10536 13.2929 7.2929C13.1054 7.48044 13 7.73479 13 8.00001C13 8.26522 13.1054 8.51958 13.2929 8.70711C13.4804 8.89465 13.7348 9.00001 14 9.00001ZM27 23H4.99999C4.73478 23 4.48042 23.1054 4.29289 23.2929C4.10535 23.4804 3.99999 23.7348 3.99999 24C3.99999 24.2652 4.10535 24.5196 4.29289 24.7071C4.48042 24.8947 4.73478 25 4.99999 25H27C27.2652 25 27.5196 24.8947 27.7071 24.7071C27.8946 24.5196 28 24.2652 28 24C28 23.7348 27.8946 23.4804 27.7071 23.2929C27.5196 23.1054 27.2652 23 27 23ZM8.99999 18C9.19789 18.0002 9.39138 17.9416 9.55597 17.8317C9.72057 17.7219 9.84886 17.5656 9.92462 17.3828C10.0004 17.2 10.0202 16.9988 9.98152 16.8047C9.94287 16.6106 9.84751 16.4324 9.70749 16.2925L5.41374 12L9.70749 7.70751C9.89513 7.51987 10.0005 7.26537 10.0005 7.00001C10.0005 6.73464 9.89513 6.48015 9.70749 6.29251C9.51985 6.10487 9.26536 5.99945 8.99999 5.99945C8.73463 5.99945 8.48013 6.10487 8.29249 6.29251L3.29249 11.2925C3.19952 11.3854 3.12576 11.4957 3.07543 11.6171C3.02511 11.7385 2.99921 11.8686 2.99921 12C2.99921 12.1314 3.02511 12.2615 3.07543 12.3829C3.12576 12.5043 3.19952 12.6146 3.29249 12.7075L8.29249 17.7075C8.38543 17.8003 8.49575 17.874 8.61714 17.9241C8.73854 17.9743 8.86863 18.0001 8.99999 18Z" fill="#343330"/>
</svg>
