<svg width="20" height="21" viewBox="0 0 20 21" fill="none" xmlns="http://www.w3.org/2000/svg">
<g clip-path="url(#clip0_382_6114)">
<path d="M18.75 6.43755C18.1461 6.85396 17.1664 6.85396 16.5625 6.43755C15.9586 6.02114 14.9789 6.02114 14.375 6.43755" stroke="#0A121D" stroke-linecap="round" stroke-linejoin="round"/>
<path d="M18.75 8.93755C18.1461 9.35396 17.1664 9.35396 16.5625 8.93755C15.9586 8.52114 14.9789 8.52114 14.375 8.93755" stroke="#0A121D" stroke-linecap="round" stroke-linejoin="round"/>
<path d="M9.375 13V4.25" stroke="#0A121D" stroke-linecap="round" stroke-linejoin="round"/>
<path d="M9.375 16.75C10.4105 16.75 11.25 15.9105 11.25 14.875C11.25 13.8395 10.4105 13 9.375 13C8.33947 13 7.5 13.8395 7.5 14.875C7.5 15.9105 8.33947 16.75 9.375 16.75Z" stroke="#0A121D" stroke-linecap="round" stroke-linejoin="round"/>
<path d="M6.875 4.25C6.875 3.58696 7.13839 2.95107 7.60723 2.48223C8.07607 2.01339 8.71196 1.75 9.375 1.75C10.038 1.75 10.6739 2.01339 11.1428 2.48223C11.6116 2.95107 11.875 3.58696 11.875 4.25V11.2812C12.6394 11.8135 13.2139 12.5758 13.515 13.4572C13.8162 14.3386 13.8281 15.2931 13.5492 16.1817C13.2703 17.0704 12.7151 17.8469 11.9643 18.3981C11.2135 18.9493 10.3064 19.2466 9.375 19.2466C8.44359 19.2466 7.53648 18.9493 6.78571 18.3981C6.03494 17.8469 5.47969 17.0704 5.20077 16.1817C4.92185 15.2931 4.93383 14.3386 5.23495 13.4572C5.53608 12.5758 6.11063 11.8135 6.875 11.2812V4.25Z" stroke="#0A121D" stroke-linecap="round" stroke-linejoin="round"/>
</g>
<defs>
<clipPath id="clip0_382_6114">
<rect width="20" height="20" fill="white" transform="translate(0 0.5)"/>
</clipPath>
</defs>
</svg>
