<svg width="32" height="32" viewBox="0 0 32 32" fill="none" xmlns="http://www.w3.org/2000/svg">
<path d="M31.7076 11.2925L26.7076 6.29249C26.6147 6.19952 26.5044 6.12576 26.383 6.07543C26.2616 6.02511 26.1315 5.99921 26.0001 5.99921C25.8686 5.99921 25.7385 6.02511 25.6171 6.07543C25.4957 6.12576 25.3854 6.19952 25.2926 6.29249L21.0001 10.5862L16.7076 6.29249C16.6147 6.19952 16.5044 6.12576 16.383 6.07543C16.2616 6.02511 16.1315 5.99921 16.0001 5.99921C15.8686 5.99921 15.7385 6.02511 15.6171 6.07543C15.4957 6.12576 15.3854 6.19952 15.2926 6.29249L11.0001 10.5862L6.70755 6.29249C6.61468 6.19952 6.50439 6.12576 6.38299 6.07543C6.2616 6.02511 6.13147 5.99921 6.00005 5.99921C5.86864 5.99921 5.73851 6.02511 5.61711 6.07543C5.49572 6.12576 5.38543 6.19952 5.29255 6.29249L0.292554 11.2925C0.199578 11.3854 0.125819 11.4957 0.0754945 11.6171C0.0251702 11.7385 -0.000732422 11.8686 -0.000732422 12C-0.000732422 12.1314 0.0251702 12.2615 0.0754945 12.3829C0.125819 12.5043 0.199578 12.6146 0.292554 12.7075L5.29255 17.7075C5.38543 17.8005 5.49572 17.8742 5.61711 17.9246C5.73851 17.9749 5.86864 18.0008 6.00005 18.0008C6.13147 18.0008 6.2616 17.9749 6.38299 17.9246C6.50439 17.8742 6.61468 17.8005 6.70755 17.7075L11.0001 13.4137L14.5863 17L10.2926 21.2925C10.1996 21.3854 10.1258 21.4957 10.0755 21.6171C10.0252 21.7385 9.99927 21.8686 9.99927 22C9.99927 22.1314 10.0252 22.2615 10.0755 22.3829C10.1258 22.5043 10.1996 22.6146 10.2926 22.7075L15.2926 27.7075C15.3854 27.8005 15.4957 27.8742 15.6171 27.9246C15.7385 27.9749 15.8686 28.0008 16.0001 28.0008C16.1315 28.0008 16.2616 27.9749 16.383 27.9246C16.5044 27.8742 16.6147 27.8005 16.7076 27.7075L21.7076 22.7075C21.8005 22.6146 21.8743 22.5043 21.9246 22.3829C21.9749 22.2615 22.0008 22.1314 22.0008 22C22.0008 21.8686 21.9749 21.7385 21.9246 21.6171C21.8743 21.4957 21.8005 21.3854 21.7076 21.2925L17.4138 17L21.0001 13.4137L25.2926 17.7075C25.3854 17.8005 25.4957 17.8742 25.6171 17.9246C25.7385 17.9749 25.8686 18.0008 26.0001 18.0008C26.1315 18.0008 26.2616 17.9749 26.383 17.9246C26.5044 17.8742 26.6147 17.8005 26.7076 17.7075L31.7076 12.7075C31.8005 12.6146 31.8743 12.5043 31.9246 12.3829C31.9749 12.2615 32.0008 12.1314 32.0008 12C32.0008 11.8686 31.9749 11.7385 31.9246 11.6171C31.8743 11.4957 31.8005 11.3854 31.7076 11.2925ZM6.00005 15.5862L2.4138 12L6.00005 8.41374L9.5863 12L6.00005 15.5862ZM16.0001 25.5862L12.4138 22L16.0001 18.4137L19.5863 22L16.0001 25.5862ZM16.0001 15.5862L12.4138 12L16.0001 8.41374L19.5863 12L16.0001 15.5862ZM26.0001 15.5862L22.4138 12L26.0001 8.41374L29.5863 12L26.0001 15.5862Z" fill="#343330"/>
</svg>
