<svg width="20" height="21" viewBox="0 0 20 21" fill="none" xmlns="http://www.w3.org/2000/svg">
<g clip-path="url(#clip0_383_6454)">
<path d="M6.875 5.5L13.125 8" stroke="#0A121D" stroke-linecap="round" stroke-linejoin="round"/>
<path d="M13.125 5.5L6.875 8" stroke="#0A121D" stroke-linecap="round" stroke-linejoin="round"/>
<path d="M3.12501 6.73126C3.11954 12.3109 4.95939 16.75 6.56251 17.8859C6.65313 17.9484 6.75864 17.9859 6.86837 17.9945C6.9781 18.0031 7.08816 17.9826 7.18742 17.935C7.28668 17.8875 7.37162 17.8145 7.43364 17.7236C7.49567 17.6327 7.53257 17.527 7.54064 17.4172C7.65626 15.8367 8.12501 13 10 13C11.875 13 12.3438 15.8367 12.4617 17.4164C12.4698 17.5262 12.5067 17.6319 12.5687 17.7228C12.6307 17.8137 12.7157 17.8867 12.8149 17.9343C12.9142 17.9818 13.0243 18.0023 13.134 17.9937C13.2437 17.9851 13.3492 17.9476 13.4399 17.8852C15.0406 16.7484 16.8774 12.3102 16.8774 6.73048C16.8734 5.73851 16.4761 4.78862 15.7727 4.08925C15.0692 3.38987 14.117 2.99814 13.125 3.00001H6.87501C5.88331 2.99876 4.9316 3.39087 4.22861 4.09035C3.52562 4.78983 3.12873 5.73956 3.12501 6.73126Z" stroke="#0A121D" stroke-linecap="round" stroke-linejoin="round"/>
</g>
<defs>
<clipPath id="clip0_383_6454">
<rect width="20" height="20" fill="white" transform="translate(0 0.5)"/>
</clipPath>
</defs>
</svg>
