<svg width="32" height="32" viewBox="0 0 32 32" fill="none" xmlns="http://www.w3.org/2000/svg">
<path d="M30.3938 14.5363L17.4638 1.60625C17.2715 1.41402 17.0433 1.26154 16.7922 1.1575C16.541 1.05347 16.2718 0.999924 16 0.999924C15.7282 0.999924 15.459 1.05347 15.2078 1.1575C14.9567 1.26154 14.7285 1.41402 14.5363 1.60625L1.60625 14.5363C1.41402 14.7285 1.26154 14.9567 1.1575 15.2078C1.05347 15.459 0.999924 15.7282 0.999924 16C0.999924 16.2718 1.05347 16.541 1.1575 16.7922C1.26154 17.0433 1.41402 17.2715 1.60625 17.4638L14.5363 30.3938C14.7285 30.586 14.9567 30.7385 15.2078 30.8425C15.459 30.9465 15.7282 31.0001 16 31.0001C16.2718 31.0001 16.541 30.9465 16.7922 30.8425C17.0433 30.7385 17.2715 30.586 17.4638 30.3938L30.3938 17.4638C30.586 17.2715 30.7385 17.0433 30.8425 16.7922C30.9465 16.541 31.0001 16.2718 31.0001 16C31.0001 15.7282 30.9465 15.459 30.8425 15.2078C30.7385 14.9567 30.586 14.7285 30.3938 14.5363ZM28.98 16.0488L16.05 28.98C16.0365 28.9928 16.0186 29 16 29C15.9814 29 15.9635 28.9928 15.95 28.98L3.02 16.0488C3.00733 16.0357 3.00024 16.0182 3.00024 16C3.00024 15.9818 3.00733 15.9643 3.02 15.9513L15.95 3.02C15.9635 3.00716 15.9814 3 16 3C16.0186 3 16.0365 3.00716 16.05 3.02L28.98 15.9513C28.9927 15.9643 28.9998 15.9818 28.9998 16C28.9998 16.0182 28.9927 16.0357 28.98 16.0488ZM21.7075 14.2988C21.8005 14.3916 21.8742 14.5019 21.9246 14.6233C21.9749 14.7447 22.0008 14.8748 22.0008 15.0063C22.0008 15.1377 21.9749 15.2678 21.9246 15.3892C21.8742 15.5106 21.8005 15.6209 21.7075 15.7138L18.7075 18.7138C18.5199 18.9014 18.2654 19.0068 18 19.0068C17.7346 19.0068 17.4801 18.9014 17.2925 18.7138C17.1049 18.5261 16.9994 18.2716 16.9994 18.0063C16.9994 17.7409 17.1049 17.4864 17.2925 17.2988L18.5863 16H14C13.4696 16 12.9609 16.2107 12.5858 16.5858C12.2107 16.9609 12 17.4696 12 18V19C12 19.2652 11.8946 19.5196 11.7071 19.7071C11.5196 19.8946 11.2652 20 11 20C10.7348 20 10.4804 19.8946 10.2929 19.7071C10.1054 19.5196 10 19.2652 10 19V18C10 16.9391 10.4214 15.9217 11.1716 15.1716C11.9217 14.4214 12.9391 14 14 14H18.5863L17.2925 12.7075C17.1049 12.5199 16.9994 12.2654 16.9994 12C16.9994 11.7346 17.1049 11.4801 17.2925 11.2925C17.4801 11.1049 17.7346 10.9994 18 10.9994C18.2654 10.9994 18.5199 11.1049 18.7075 11.2925L21.7075 14.2988Z" fill="#343330"/>
</svg>
