<svg width="32" height="32" viewBox="0 0 32 32" fill="none" xmlns="http://www.w3.org/2000/svg">
<path d="M29.7237 6.65378C28.9418 5.81631 27.996 5.14856 26.9452 4.69201C25.8943 4.23547 24.7608 3.99988 23.615 3.99988C22.4692 3.99988 21.3357 4.23547 20.2848 4.69201C19.234 5.14856 18.2882 5.81631 17.5062 6.65378C16.9041 7.28557 16.3967 8.00135 16 8.77878C15.6052 8.00175 15.1 7.28598 14.5 6.65378C13.7181 5.81631 12.7723 5.14856 11.7214 4.69201C10.6705 4.23547 9.53701 3.99988 8.39125 3.99988C7.24548 3.99988 6.11196 4.23547 5.06108 4.69201C4.01021 5.14856 3.06443 5.81631 2.2825 6.65378C2.17161 6.77028 2.09046 6.91181 2.04593 7.06635C2.0014 7.2209 1.9948 7.38391 2.0267 7.54155C2.05859 7.69919 2.12804 7.84681 2.22915 7.97188C2.33026 8.09696 2.46005 8.19581 2.6075 8.26003L9.625 11.3188C7.33969 11.9298 5.39032 13.4228 4.205 15.47C3.61031 16.4848 3.22436 17.6082 3.06981 18.7742C2.91526 19.9402 2.99522 21.1254 3.305 22.26C3.34782 22.4181 3.42882 22.5633 3.54088 22.6828C3.65294 22.8022 3.79263 22.8924 3.94768 22.9452C4.10272 22.998 4.26837 23.012 4.43007 22.9858C4.59176 22.9596 4.74455 22.8941 4.875 22.795L15 15.085V28C15 28.2653 15.1054 28.5196 15.2929 28.7071C15.4804 28.8947 15.7348 29 16 29C16.2652 29 16.5196 28.8947 16.7071 28.7071C16.8946 28.5196 17 28.2653 17 28V15.085L27.125 22.795C27.2555 22.8944 27.4084 22.9601 27.5702 22.9864C27.7321 23.0128 27.8979 22.9989 28.0531 22.9461C28.2084 22.8932 28.3482 22.803 28.4604 22.6834C28.5725 22.5637 28.6535 22.4183 28.6962 22.26C29.006 21.1254 29.086 19.9402 28.9314 18.7742C28.7769 17.6082 28.3909 16.4848 27.7962 15.47C26.6106 13.4226 24.6608 11.9295 22.375 11.3188L29.4025 8.26003C29.55 8.19581 29.6797 8.09696 29.7808 7.97188C29.882 7.84681 29.9514 7.69919 29.9833 7.54155C30.0152 7.38391 30.0086 7.2209 29.9641 7.06635C29.9195 6.91181 29.8384 6.77028 29.7275 6.65378H29.7237ZM8.385 6.00003C9.25947 6.002 10.1242 6.18339 10.9258 6.533C11.7273 6.8826 12.4486 7.39297 13.045 8.03253C13.9361 8.9703 14.5527 10.1347 14.8275 11.3988L4.875 7.06628C5.91365 6.37125 7.13525 6.00016 8.385 6.00003ZM5 20.1875C4.95225 18.8865 5.27614 17.5987 5.93375 16.475C6.39342 15.6817 7.00564 14.9873 7.73509 14.4319C8.46454 13.8764 9.29677 13.4709 10.1837 13.2388C10.7803 13.0796 11.3951 12.9994 12.0125 13C12.6999 13 13.3835 13.1015 14.0412 13.3013L5 20.1875ZM26.0625 16.475C26.7214 17.5983 27.0466 18.8861 27 20.1875L17.9625 13.3C19.4736 12.8437 21.0943 12.9087 22.564 13.4846C24.0338 14.0604 25.2673 15.1136 26.0662 16.475H26.0625ZM17.1725 11.3988C17.4473 10.1347 18.0639 8.9703 18.955 8.03253C19.5514 7.39297 20.2727 6.8826 21.0742 6.533C21.8758 6.18339 22.7405 6.002 23.615 6.00003C24.8647 6.00016 26.0863 6.37125 27.125 7.06628L17.1725 11.3988Z" fill="#343330"/>
</svg>
