<svg width="32" height="32" viewBox="0 0 32 32" fill="none" xmlns="http://www.w3.org/2000/svg">
<path d="M24.7625 7.82504C24.0391 6.09784 22.8214 4.62296 21.2624 3.58568C19.7034 2.5484 17.8726 1.995 16 1.995C14.1275 1.995 12.2967 2.5484 10.7377 3.58568C9.17863 4.62296 7.96093 6.09784 7.23754 7.82504C5.68074 8.54597 4.36142 9.6953 3.43391 11.1386C2.5064 12.5819 2.00905 14.2594 2.00004 15.975C1.98629 20.8275 5.92004 24.875 10.7675 25C12.2339 25.0383 13.6873 24.716 15 24.0613V29C15 29.2653 15.1054 29.5196 15.2929 29.7071C15.4805 29.8947 15.7348 30 16 30C16.2653 30 16.5196 29.8947 16.7071 29.7071C16.8947 29.5196 17 29.2653 17 29V24.0613C18.2423 24.6808 19.6119 25.0022 21 25H21.2325C26.08 24.875 30.0138 20.83 30 15.9775C29.9917 14.2615 29.4946 12.5833 28.567 11.1395C27.6395 9.69572 26.3198 8.54603 24.7625 7.82504ZM21.1813 23C19.7371 23.0403 18.3163 22.6296 17.1163 21.825C17.0771 21.8 17.0384 21.7763 17 21.7538V16.6175L22.4475 13.895C22.5651 13.8363 22.6699 13.7549 22.756 13.6557C22.8421 13.5564 22.9078 13.4411 22.9493 13.3165C22.9909 13.1918 23.0075 13.0602 22.9982 12.9291C22.9888 12.798 22.9538 12.6701 22.895 12.5525C22.8363 12.435 22.7549 12.3302 22.6557 12.2441C22.5564 12.158 22.4411 12.0923 22.3165 12.0507C22.1918 12.0092 22.0602 11.9926 21.9291 12.0019C21.798 12.0112 21.6701 12.0463 21.5525 12.105L17 14.3825V11C17 10.7348 16.8947 10.4805 16.7071 10.2929C16.5196 10.1054 16.2653 10 16 10C15.7348 10 15.4805 10.1054 15.2929 10.2929C15.1054 10.4805 15 10.7348 15 11V17.3825L10.4475 15.105C10.2102 14.9864 9.93537 14.9668 9.68361 15.0507C9.43184 15.1347 9.22372 15.3152 9.10504 15.5525C8.98635 15.7899 8.96682 16.0647 9.05074 16.3165C9.13467 16.5682 9.31517 16.7764 9.55254 16.895L15 19.6175V21.75C14.9609 21.7725 14.9221 21.7963 14.8838 21.8213C13.6839 22.6265 12.2633 23.0385 10.8188 23C9.23782 22.9605 7.71681 22.3869 6.50355 21.3725C5.29029 20.3581 4.45627 18.9627 4.13738 17.4138C3.81848 15.8648 4.03349 14.2535 4.74739 12.8423C5.46128 11.4312 6.63199 10.3033 8.06879 9.64254C8.5232 9.43433 8.88249 9.06255 9.07504 8.60129C9.64584 7.23712 10.6072 6.07213 11.8382 5.25277C13.0692 4.43342 14.515 3.99626 15.9938 3.99626C17.4726 3.99626 18.9183 4.43342 20.1494 5.25277C21.3804 6.07213 22.3417 7.23712 22.9125 8.60129C23.1051 9.06255 23.4644 9.43433 23.9188 9.64254C25.3556 10.3033 26.5263 11.4312 27.2402 12.8423C27.9541 14.2535 28.1691 15.8648 27.8502 17.4138C27.5313 18.9627 26.6973 20.3581 25.484 21.3725C24.2708 22.3869 22.7498 22.9605 21.1688 23H21.1813Z" fill="#343330"/>
</svg>
