<svg width="32" height="32" viewBox="0 0 32 32" fill="none" xmlns="http://www.w3.org/2000/svg">
<path d="M30 17V25C30 25.2652 29.8946 25.5196 29.7071 25.7071C29.5196 25.8947 29.2652 26 29 26H21C20.7348 26 20.4804 25.8947 20.2929 25.7071C20.1054 25.5196 20 25.2652 20 25C20 24.7348 20.1054 24.4804 20.2929 24.2929C20.4804 24.1054 20.7348 24 21 24H26.5863L17 14.4138L12.7075 18.7075C12.6146 18.8005 12.5043 18.8742 12.3829 18.9246C12.2615 18.9749 12.1314 19.0008 12 19.0008C11.8686 19.0008 11.7385 18.9749 11.6171 18.9246C11.4957 18.8742 11.3854 18.8005 11.2925 18.7075L2.2925 9.70751C2.10486 9.51987 1.99944 9.26537 1.99944 9.00001C1.99944 8.73464 2.10486 8.48015 2.2925 8.29251C2.48014 8.10487 2.73464 7.99945 3 7.99945C3.26536 7.99945 3.51986 8.10487 3.7075 8.29251L12 16.5863L16.2925 12.2925C16.3854 12.1995 16.4957 12.1258 16.6171 12.0754C16.7385 12.0251 16.8686 11.9992 17 11.9992C17.1314 11.9992 17.2615 12.0251 17.3829 12.0754C17.5043 12.1258 17.6146 12.1995 17.7075 12.2925L28 22.5863V17C28 16.7348 28.1054 16.4804 28.2929 16.2929C28.4804 16.1054 28.7348 16 29 16C29.2652 16 29.5196 16.1054 29.7071 16.2929C29.8946 16.4804 30 16.7348 30 17Z" fill="#343330"/>
</svg>
