<svg width="20" height="21" viewBox="0 0 20 21" fill="none" xmlns="http://www.w3.org/2000/svg">
<g clip-path="url(#clip0_382_5994)">
<path d="M13.75 6.75H17.0766C17.2011 6.74994 17.3228 6.78709 17.4261 6.85669C17.5294 6.92629 17.6095 7.02517 17.6562 7.14063L18.75 9.875" stroke="#0A121D" stroke-linecap="round" stroke-linejoin="round"/>
<path d="M1.25 11.75H13.75" stroke="#0A121D" stroke-linecap="round" stroke-linejoin="round"/>
<path d="M14.375 17.375C15.4105 17.375 16.25 16.5355 16.25 15.5C16.25 14.4645 15.4105 13.625 14.375 13.625C13.3395 13.625 12.5 14.4645 12.5 15.5C12.5 16.5355 13.3395 17.375 14.375 17.375Z" stroke="#0A121D" stroke-linecap="round" stroke-linejoin="round"/>
<path d="M5.625 17.375C6.66053 17.375 7.5 16.5355 7.5 15.5C7.5 14.4645 6.66053 13.625 5.625 13.625C4.58947 13.625 3.75 14.4645 3.75 15.5C3.75 16.5355 4.58947 17.375 5.625 17.375Z" stroke="#0A121D" stroke-linecap="round" stroke-linejoin="round"/>
<path d="M12.5 15.5H7.5" stroke="#0A121D" stroke-linecap="round" stroke-linejoin="round"/>
<path d="M13.75 9.875H18.75V14.875C18.75 15.0408 18.6842 15.1997 18.5669 15.3169C18.4497 15.4342 18.2908 15.5 18.125 15.5H16.25" stroke="#0A121D" stroke-linecap="round" stroke-linejoin="round"/>
<path d="M3.75 15.5H1.875C1.70924 15.5 1.55027 15.4342 1.43306 15.3169C1.31585 15.1997 1.25 15.0408 1.25 14.875V6.125C1.25 5.95924 1.31585 5.80027 1.43306 5.68306C1.55027 5.56585 1.70924 5.5 1.875 5.5H13.75V13.732" stroke="#0A121D" stroke-linecap="round" stroke-linejoin="round"/>
</g>
<defs>
<clipPath id="clip0_382_5994">
<rect width="20" height="20" fill="white" transform="translate(0 0.5)"/>
</clipPath>
</defs>
</svg>
