<svg width="32" height="32" viewBox="0 0 32 32" fill="none" xmlns="http://www.w3.org/2000/svg">
<path d="M30.9237 8.6175C30.8481 8.43476 30.72 8.27856 30.5555 8.16864C30.3911 8.05873 30.1978 8.00004 30 8H26.1963C25.6644 7.09523 24.9076 6.34345 23.9992 5.81776C23.0909 5.29207 22.0619 5.01035 21.0125 5C20.2306 4.98975 19.4546 5.13597 18.7301 5.43006C18.0056 5.72416 17.3472 6.16019 16.7937 6.7125C16.2241 7.27153 15.7719 7.93881 15.4639 8.67511C15.1559 9.41141 14.9981 10.2019 15 11V11.7613C9.9675 10.4338 5.85125 6.34 5.8075 6.29625C5.67334 6.1609 5.5033 6.06671 5.3174 6.02476C5.1315 5.98281 4.93748 5.99486 4.7582 6.05948C4.57891 6.1241 4.42183 6.2386 4.30544 6.38951C4.18905 6.54041 4.11821 6.72143 4.10125 6.91125C3.5625 12.885 5.2975 16.8825 6.85125 19.1838C7.60885 20.3214 8.53048 21.3407 9.58625 22.2087C7.6825 24.4 4.685 25.5512 4.6525 25.5637C4.51139 25.6166 4.38405 25.7007 4.27999 25.8096C4.17594 25.9186 4.09785 26.0497 4.05158 26.1931C4.0053 26.3365 3.99203 26.4885 4.01275 26.6378C4.03347 26.787 4.08765 26.9296 4.17125 27.055C4.265 27.195 4.64 27.6863 5.55625 28.145C6.68875 28.7125 8.185 29 10 29C18.8337 29 26.215 22.1975 26.9688 13.445L30.7075 9.7075C30.8473 9.56757 30.9425 9.38933 30.981 9.1953C31.0195 9.00128 30.9995 8.8002 30.9237 8.6175ZM25.2987 12.2938C25.1273 12.4656 25.0242 12.694 25.0088 12.9363C24.5 20.8225 17.91 27 10 27C8.68 27 7.75 26.825 7.0975 26.615C8.53625 25.8337 10.5425 24.49 11.8325 22.555C11.9082 22.4412 11.9598 22.3131 11.9841 22.1786C12.0083 22.0441 12.0048 21.9061 11.9736 21.773C11.9425 21.64 11.8844 21.5147 11.8029 21.4049C11.7214 21.2952 11.6184 21.2033 11.5 21.135C11.4412 21.1012 6.01125 17.8425 6 9.135C8 10.76 11.6562 13.2813 15.8337 13.9838C15.9769 14.0079 16.1236 14.0006 16.2637 13.9623C16.4037 13.924 16.5338 13.8557 16.6448 13.762C16.7558 13.6684 16.845 13.5518 16.9064 13.4202C16.9677 13.2886 16.9997 13.1452 17 13V11C16.9989 10.4666 17.1045 9.93829 17.3105 9.44626C17.5166 8.95424 17.819 8.50841 18.2 8.135C18.5652 7.76912 19 7.48017 19.4788 7.28522C19.9576 7.09028 20.4706 6.99329 20.9875 7C22.57 7.02 24.0487 7.985 24.6675 9.40125C24.7455 9.57931 24.8737 9.73077 25.0364 9.83711C25.1992 9.94345 25.3894 10.0001 25.5837 10H27.5837L25.2987 12.2938Z" fill="#343330"/>
</svg>
