<svg width="167" height="54" viewBox="0 0 167 54" fill="none" xmlns="http://www.w3.org/2000/svg">
<path opacity="0.5" fill-rule="evenodd" clip-rule="evenodd" d="M-226 206.21L-223.172 203.382L66.0351 492.589L63.2067 495.417L-226 206.21ZM-220.343 200.554L-217.515 197.725L71.6919 486.932L68.8635 489.76L-220.343 200.554ZM-211.858 192.068L-214.686 194.897L74.5204 484.103L77.3488 481.275L-211.858 192.068ZM-209.029 189.24L-206.201 186.411L83.0057 475.618L80.1772 478.447L-209.029 189.24ZM-200.544 180.755L-203.373 183.583L85.8341 472.79L88.6625 469.961L-200.544 180.755ZM-197.716 177.926L-194.887 175.098L94.3194 464.304L91.4909 467.133L-197.716 177.926ZM-189.23 169.441L-192.059 172.269L97.1478 461.476L99.9762 458.648L-189.23 169.441ZM-186.402 166.612L-183.574 163.784L105.633 452.991L102.805 455.819L-186.402 166.612ZM-180.745 160.956L-177.917 158.127L111.29 447.334L108.462 450.162L-180.745 160.956ZM-175.088 155.299L-172.26 152.47L116.947 441.677L114.118 444.505L-175.088 155.299ZM-166.603 146.813L-169.431 149.642L119.775 438.849L122.604 436.02L-166.603 146.813ZM-163.775 143.985L-160.946 141.157L128.26 430.363L125.432 433.192L-163.775 143.985ZM-155.289 135.5L-158.118 138.328L131.089 427.535L133.917 424.706L-155.289 135.5ZM-152.461 132.671L-149.632 129.843L139.574 419.05L136.746 421.878L-152.461 132.671ZM-143.976 124.186L-146.804 127.014L142.403 416.221L145.231 413.393L-143.976 124.186ZM-141.147 121.358L-138.319 118.529L150.888 407.736L148.059 410.564L-141.147 121.358ZM-135.49 115.701L-132.662 112.872L156.545 402.079L153.716 404.907L-135.49 115.701ZM-129.833 110.044L-127.005 107.216L162.202 396.422L159.373 399.251L-129.833 110.044ZM-121.348 101.559L-124.177 104.387L165.03 393.594L167.858 390.765L-121.348 101.559ZM-118.52 98.7302L-115.691 95.9018L173.515 385.108L170.687 387.937L-118.52 98.7302ZM-110.034 90.2449L-112.863 93.0734L176.344 382.28L179.172 379.452L-110.034 90.2449ZM-107.206 87.4165L-104.378 84.5881L184.829 373.795L182.001 376.623L-107.206 87.4165ZM-98.7208 78.9312L-101.549 81.7597L187.657 370.966L190.486 368.138L-98.7208 78.9312ZM-95.8924 76.1028L-93.0639 73.2744L196.143 362.481L193.314 365.309L-95.8924 76.1028ZM-90.2355 70.4459L-87.4071 67.6175L201.8 356.824L198.971 359.653L-90.2355 70.4459ZM-84.5786 64.7891L-81.7502 61.9607L207.456 351.167L204.628 353.996L-84.5786 64.7891ZM-76.0934 56.3038L-78.9218 59.1322L210.285 348.339L213.113 345.51L-76.0934 56.3038ZM-73.2649 53.4754L-70.4365 50.647L218.77 339.854L215.942 342.682L-73.2649 53.4754ZM-64.7797 44.9901L-67.6081 47.8185L221.599 337.025L224.427 334.197L-64.7797 44.9901ZM-61.9512 42.1617L-59.1228 39.3333L230.084 328.54L227.255 331.368L-61.9512 42.1617ZM-53.4659 33.6764L-56.2944 36.5048L232.912 325.711L235.741 322.883L-53.4659 33.6764ZM-50.6375 30.848L-47.8091 28.0195L241.398 317.226L238.569 320.055L-50.6375 30.848ZM-44.9807 25.1911L-42.1522 22.3627L247.054 311.569L244.226 314.398L-44.9807 25.1911ZM-39.3238 19.5343L-36.4954 16.7058L252.711 305.913L249.883 308.741L-39.3238 19.5343ZM-30.8385 11.049L-33.667 13.8774L255.54 303.084L258.368 300.256L-30.8385 11.049ZM-28.0101 8.22055L-25.1817 5.39213L264.025 294.599L261.197 297.427L-28.0101 8.22055ZM-19.5248 -0.264727L-22.3533 2.5637L266.853 291.77L269.682 288.942L-19.5248 -0.264727ZM-16.6964 -3.09315L-13.868 -5.92158L275.339 283.285L272.51 286.114L-16.6964 -3.09315ZM-8.21112 -11.5784L-11.0395 -8.75001L278.167 280.457L280.996 277.628L-8.21112 -11.5784ZM-5.38269 -14.4069L-2.55426 -17.2353L286.652 271.971L283.824 274.8L-5.38269 -14.4069ZM0.274166 -20.0637L3.10259 -22.8921L292.309 266.315L289.481 269.143L0.274166 -20.0637ZM5.93102 -25.7206L8.75945 -28.549L297.966 260.658L295.138 263.486L5.93102 -25.7206ZM14.4163 -34.2059L11.5879 -31.3774L300.795 257.829L303.623 255.001L14.4163 -34.2059ZM17.2447 -37.0343L20.0732 -39.8627L309.28 249.344L306.451 252.172L17.2447 -37.0343ZM25.73 -45.5196L22.9016 -42.6911L312.108 246.516L314.937 243.687L25.73 -45.5196ZM28.5584 -48.348L31.3869 -51.1764L320.594 238.03L317.765 240.859L28.5584 -48.348ZM37.0437 -56.8333L34.2153 -54.0048L323.422 235.202L326.25 232.373L37.0437 -56.8333ZM39.8721 -59.6617L42.7006 -62.4901L331.907 226.717L329.079 229.545L39.8721 -59.6617ZM45.529 -65.3186L48.3574 -68.147L337.564 221.06L334.736 223.888L45.529 -65.3186ZM51.1859 -70.9754L54.0143 -73.8038L343.221 215.403L340.393 218.231L51.1859 -70.9754ZM59.6711 -79.4607L56.8427 -76.6323L346.049 212.574L348.878 209.746L59.6711 -79.4607ZM62.4996 -82.2891L65.328 -85.1175L354.535 204.089L351.706 206.918L62.4996 -82.2891ZM70.9848 -90.7744L68.1564 -87.946L357.363 201.261L360.192 198.432L70.9848 -90.7744ZM73.8133 -93.6028L76.6417 -96.4312L365.848 192.775L363.02 195.604L73.8133 -93.6028ZM82.2986 -102.088L79.4701 -99.2597L368.677 189.947L371.505 187.119L82.2986 -102.088ZM85.127 -104.917L87.9554 -107.745L377.162 181.462L374.334 184.29L85.127 -104.917ZM90.7838 -110.573L93.6123 -113.402L382.819 175.805L379.991 178.633L90.7838 -110.573ZM96.4407 -116.23L99.2691 -119.059L388.476 170.148L385.647 172.976L96.4407 -116.23ZM104.926 -124.716L102.098 -121.887L391.304 167.32L394.133 164.491L104.926 -124.716ZM107.754 -127.544L110.583 -130.372L399.789 158.834L396.961 161.663L107.754 -127.544ZM116.24 -136.029L113.411 -133.201L402.618 156.006L405.446 153.177L116.24 -136.029ZM119.068 -138.858L121.897 -141.686L411.103 147.521L408.275 150.349L119.068 -138.858ZM127.553 -147.343L124.725 -144.515L413.932 144.692L416.76 141.864L127.553 -147.343ZM130.382 -150.171L133.21 -153L422.417 136.207L419.588 139.035L130.382 -150.171Z" fill="#F1F3F7"/>
</svg>
