<svg width="34" height="33" viewBox="0 0 34 33" fill="none" xmlns="http://www.w3.org/2000/svg">
<g clip-path="url(#clip0_208_3843)">
<path d="M11.2795 20.5638C14.9399 20.5638 17.9073 17.5774 17.9073 13.8935C17.9073 10.2096 14.9399 7.22314 11.2795 7.22314C7.619 7.22314 4.65161 10.2096 4.65161 13.8935C4.65161 17.5774 7.619 20.5638 11.2795 20.5638Z" stroke="#0A121D" stroke-width="2" stroke-linecap="round" stroke-linejoin="round"/>
<path d="M1.87683 25.6945C2.89534 24.1185 4.28886 22.8234 5.93087 21.9269C7.57288 21.0304 9.41138 20.5608 11.2795 20.5608C13.1475 20.5608 14.9861 21.0304 16.6281 21.9269C18.2701 22.8234 19.6636 24.1185 20.6821 25.6945" stroke="#0A121D" stroke-width="2" stroke-linecap="round" stroke-linejoin="round"/>
<path d="M22.4958 20.5637C24.3638 20.5626 26.2025 21.0314 27.8446 21.9275C29.4867 22.8237 30.8803 24.1186 31.8985 25.6948" stroke="#0A121D" stroke-width="2" stroke-linecap="round" stroke-linejoin="round"/>
<path d="M20.0347 7.69776C20.9413 7.33384 21.9166 7.17594 22.8909 7.23536C23.8652 7.29477 24.8145 7.57003 25.6708 8.04146C26.5271 8.51289 27.2694 9.16886 27.8447 9.96249C28.4199 10.7561 28.8139 11.6678 28.9984 12.6325C29.1829 13.5971 29.1535 14.5908 28.9121 15.5427C28.6708 16.4945 28.2236 17.381 27.6024 18.1387C26.9811 18.8964 26.2013 19.5067 25.3186 19.9259C24.4358 20.3451 23.472 20.563 22.4959 20.5638" stroke="#0A121D" stroke-width="2" stroke-linecap="round" stroke-linejoin="round"/>
</g>
<defs>
<clipPath id="clip0_208_3843">
<rect width="32.6294" height="32.8386" fill="white" transform="translate(0.572998 0.0395508)"/>
</clipPath>
</defs>
</svg>
