<svg width="20" height="20" viewBox="0 0 20 20" fill="none" xmlns="http://www.w3.org/2000/svg">
<g id="icon / user">
<path id="Union" fill-rule="evenodd" clip-rule="evenodd" d="M7.72689 6.47082C7.90801 5.85785 8.53639 5.1288 9.06469 4.91857C9.455 4.76323 10.4806 4.7595 10.8835 4.91193C11.4576 5.12903 12.074 5.84025 12.2673 6.5087C12.9058 8.71576 10.3479 10.4334 8.51493 9.02842C7.77385 8.46031 7.44975 7.40858 7.72689 6.47082ZM5.60027 12.1462C5.58473 11.1212 6.22771 10.6099 7.80937 10.3897C8.77437 10.2552 11.9612 10.3185 12.7943 10.5005C14.5622 10.8867 14.9571 12.3316 13.6533 13.6421C12.9142 14.3849 11.6553 14.7123 10.2607 14.7833C9.40153 14.827 8.64113 14.7904 7.99838 14.5942C6.54276 14.1499 5.61615 13.204 5.60027 12.1462Z" fill="#111111"/>
</g>
</svg>
