<svg width="32" height="32" viewBox="0 0 32 32" fill="none" xmlns="http://www.w3.org/2000/svg">
<path d="M31.7075 16.7075L28.7075 19.7075C28.6146 19.8005 28.5043 19.8743 28.3829 19.9246C28.2615 19.9749 28.1314 20.0008 28 20.0008C27.8686 20.0008 27.7385 19.9749 27.6171 19.9246C27.4957 19.8743 27.3854 19.8005 27.2925 19.7075L24.2925 16.7075C24.1049 16.5199 23.9995 16.2654 23.9995 16C23.9995 15.7347 24.1049 15.4802 24.2925 15.2925C24.4801 15.1049 24.7346 14.9995 25 14.9995C25.2654 14.9995 25.5199 15.1049 25.7075 15.2925L27 16.5863V16C27.0012 13.6708 26.2629 11.4014 24.8916 9.5186C23.5204 7.63583 21.5869 6.23694 19.3696 5.52343C17.1524 4.80993 14.7659 4.81866 12.5539 5.54835C10.342 6.27805 8.41873 7.69104 7.06126 9.58379C6.90644 9.79928 6.67235 9.94444 6.41051 9.98734C6.14866 10.0302 5.8805 9.96736 5.66501 9.81254C5.44952 9.65772 5.30436 9.42364 5.26146 9.16179C5.21856 8.89994 5.28144 8.63178 5.43626 8.41629C7.04062 6.17944 9.31361 4.5096 11.9278 3.64731C14.542 2.78503 17.3624 2.77482 19.9827 3.61815C22.6031 4.46149 24.8881 6.11483 26.5086 8.34001C28.1291 10.5652 29.0015 13.2473 29 16V16.5863L30.2925 15.2925C30.4801 15.1049 30.7346 14.9995 31 14.9995C31.2654 14.9995 31.5199 15.1049 31.7075 15.2925C31.8951 15.4802 32.0006 15.7347 32.0006 16C32.0006 16.2654 31.8951 16.5199 31.7075 16.7075ZM26.56 23.5825C24.9552 25.8177 22.6825 27.486 20.0692 28.3473C17.4558 29.2086 14.6366 29.2184 12.0173 28.3755C9.39799 27.5325 7.11372 25.8801 5.4933 23.6562C3.87288 21.4323 2.9999 18.7517 3.00001 16V15.4138L1.70751 16.7075C1.51987 16.8952 1.26537 17.0006 1.00001 17.0006C0.734643 17.0006 0.480147 16.8952 0.292507 16.7075C0.104866 16.5199 -0.000549316 16.2654 -0.000549316 16C-0.000549316 15.7347 0.104866 15.4802 0.292507 15.2925L3.29251 12.2925C3.38538 12.1996 3.49567 12.1258 3.61707 12.0755C3.73846 12.0252 3.86859 11.9993 4.00001 11.9993C4.13142 11.9993 4.26155 12.0252 4.38295 12.0755C4.50434 12.1258 4.61463 12.1996 4.70751 12.2925L7.70751 15.2925C7.89515 15.4802 8.00056 15.7347 8.00056 16C8.00056 16.2654 7.89515 16.5199 7.70751 16.7075C7.51987 16.8952 7.26537 17.0006 7.00001 17.0006C6.73464 17.0006 6.48015 16.8952 6.29251 16.7075L5.00001 15.4138V16C4.99764 18.6928 5.98732 21.292 7.78001 23.3013C8.8953 21.6851 10.4635 20.4348 12.2875 19.7075C11.3077 18.9359 10.5928 17.878 10.2421 16.6812C9.8914 15.4843 9.92238 14.2079 10.3307 13.0295C10.7391 11.851 11.5045 10.8291 12.5206 10.1059C13.5366 9.38266 14.7528 8.99401 16 8.99401C17.2472 8.99401 18.4634 9.38266 19.4794 10.1059C20.4955 10.8291 21.2609 11.851 21.6693 13.0295C22.0776 14.2079 22.1086 15.4843 21.7579 16.6812C21.4072 17.878 20.6923 18.9359 19.7125 19.7075C21.5382 20.4349 23.1075 21.6868 24.2225 23.305C24.4753 23.0211 24.7136 22.7245 24.9363 22.4163C25.0911 22.2008 25.3252 22.0556 25.587 22.0127C25.8489 21.9698 26.117 22.0327 26.3325 22.1875C26.548 22.3424 26.6932 22.5764 26.7361 22.8383C26.779 23.1001 26.7161 23.3683 26.5613 23.5838L26.56 23.5825ZM16 19C16.7911 19 17.5645 18.7654 18.2223 18.3259C18.8801 17.8864 19.3928 17.2617 19.6955 16.5308C19.9983 15.7999 20.0775 14.9956 19.9231 14.2197C19.7688 13.4438 19.3878 12.731 18.8284 12.1716C18.269 11.6122 17.5563 11.2312 16.7804 11.0769C16.0044 10.9226 15.2002 11.0018 14.4693 11.3045C13.7384 11.6073 13.1137 12.12 12.6741 12.7778C12.2346 13.4356 12 14.2089 12 15C12 16.0609 12.4214 17.0783 13.1716 17.8285C13.9217 18.5786 14.9391 19 16 19ZM16 27C18.4406 26.9969 20.8111 26.184 22.74 24.6888C22.0166 23.5574 21.02 22.6263 19.8421 21.9814C18.6642 21.3364 17.3429 20.9984 16 20.9984C14.6571 20.9984 13.3358 21.3364 12.1579 21.9814C10.98 22.6263 9.98343 23.5574 9.26001 24.6888C11.186 26.1893 13.5585 27.0029 16 27Z" fill="#343330"/>
</svg>
