<svg width="32" height="32" viewBox="0 0 32 32" fill="none" xmlns="http://www.w3.org/2000/svg">
<path d="M25 9C23.61 9.00129 22.2519 9.41637 21.0986 10.1924C19.9454 10.9684 19.0493 12.0701 18.5245 13.3572C17.9998 14.6444 17.8701 16.0586 18.152 17.4197C18.4339 18.7808 19.1147 20.0272 20.1075 21H11.8925C13.0517 19.8643 13.7802 18.361 13.9535 16.7475C14.1268 15.1339 13.7341 13.5103 12.8425 12.1543C11.951 10.7983 10.616 9.79424 9.06589 9.3138C7.51581 8.83336 5.84695 8.90642 4.34479 9.52049C2.84262 10.1346 1.60048 11.2515 0.830842 12.6802C0.0612007 14.1089 -0.188122 15.7607 0.125521 17.3529C0.439164 18.9451 1.29629 20.3789 2.55027 21.409C3.80426 22.4391 5.37719 23.0015 7.00002 23H25C26.8565 23 28.637 22.2625 29.9498 20.9497C31.2625 19.637 32 17.8565 32 16C32 14.1435 31.2625 12.363 29.9498 11.0503C28.637 9.7375 26.8565 9 25 9ZM2.00002 16C2.00002 15.0111 2.29327 14.0444 2.84268 13.2221C3.39208 12.3999 4.17298 11.759 5.08661 11.3806C6.00024 11.0022 7.00557 10.9031 7.97548 11.0961C8.94538 11.289 9.8363 11.7652 10.5356 12.4645C11.2348 13.1637 11.711 14.0546 11.904 15.0245C12.0969 15.9945 11.9979 16.9998 11.6194 17.9134C11.241 18.827 10.6001 19.6079 9.77787 20.1573C8.95563 20.7068 7.98893 21 7.00002 21C5.67394 21 4.40217 20.4732 3.46449 19.5355C2.52681 18.5979 2.00002 17.3261 2.00002 16ZM25 21C24.0111 21 23.0444 20.7068 22.2222 20.1573C21.3999 19.6079 20.7591 18.827 20.3806 17.9134C20.0022 16.9998 19.9032 15.9945 20.0961 15.0245C20.289 14.0546 20.7652 13.1637 21.4645 12.4645C22.1638 11.7652 23.0547 11.289 24.0246 11.0961C24.9945 10.9031 25.9998 11.0022 26.9134 11.3806C27.8271 11.759 28.608 12.3999 29.1574 13.2221C29.7068 14.0444 30 15.0111 30 16C30 17.3261 29.4732 18.5979 28.5356 19.5355C27.5979 20.4732 26.3261 21 25 21Z" fill="#343330"/>
</svg>
