<svg width="32" height="32" viewBox="0 0 32 32" fill="none" xmlns="http://www.w3.org/2000/svg">
<path d="M4.29124 9.71C4.19789 9.61708 4.12382 9.50664 4.07327 9.38501C4.02272 9.26338 3.9967 9.13296 3.9967 9.00125C3.9967 8.86954 4.02272 8.73912 4.07327 8.61749C4.12382 8.49586 4.19789 8.38542 4.29124 8.2925C4.38749 8.19875 6.63749 6 11 6C13.3025 6 15.03 7.15125 16.555 8.1675C17.9675 9.11 19.3025 10 21 10C22.3706 10.0205 23.7278 9.72849 24.9687 9.14625C25.45 8.92422 25.8974 8.63509 26.2975 8.2875C26.3907 8.195 26.5013 8.12177 26.6228 8.07199C26.7444 8.02221 26.8745 7.99686 27.0058 7.99739C27.1372 7.99791 27.2671 8.02429 27.3883 8.07504C27.5094 8.12578 27.6194 8.19989 27.7119 8.29313C27.8044 8.38636 27.8776 8.49691 27.9274 8.61845C27.9772 8.73999 28.0025 8.87014 28.002 9.00148C28.0015 9.13281 27.9751 9.26276 27.9243 9.3839C27.8736 9.50504 27.7995 9.615 27.7062 9.7075C27.6125 9.80125 25.3625 12 21 12C18.6975 12 16.97 10.8488 15.445 9.8325C14.0325 8.89 12.6975 8 11 8C9.62941 7.97954 8.27217 8.27151 7.03124 8.85375C6.54998 9.07578 6.10261 9.36491 5.70249 9.7125C5.51475 9.8988 5.26084 10.0031 4.99635 10.0027C4.73186 10.0022 4.47833 9.89696 4.29124 9.71ZM26.2975 15.2875C25.8974 15.6351 25.45 15.9242 24.9687 16.1462C23.7278 16.7285 22.3706 17.0205 21 17C19.3025 17 17.9675 16.11 16.555 15.1675C15.03 14.1512 13.3025 13 11 13C6.63749 13 4.38749 15.1987 4.29374 15.2925C4.10544 15.4793 3.99906 15.7333 3.99801 15.9985C3.99695 16.2638 4.10131 16.5186 4.28812 16.7069C4.47493 16.8952 4.72889 17.0016 4.99414 17.0026C5.25939 17.0037 5.51419 16.8993 5.70249 16.7125C6.10261 16.3649 6.54998 16.0758 7.03124 15.8538C8.27217 15.2715 9.62941 14.9795 11 15C12.6975 15 14.0325 15.89 15.445 16.8325C16.97 17.8488 18.695 19 21 19C25.3625 19 27.6125 16.8013 27.7062 16.7075C27.7995 16.615 27.8736 16.505 27.9243 16.3839C27.9751 16.2628 28.0015 16.1328 28.002 16.0015C28.0025 15.8701 27.9772 15.74 27.9274 15.6184C27.8776 15.4969 27.8044 15.3864 27.7119 15.2931C27.6194 15.1999 27.5094 15.1258 27.3883 15.075C27.2671 15.0243 27.1372 14.9979 27.0058 14.9974C26.8745 14.9969 26.7444 15.0222 26.6228 15.072C26.5013 15.1218 26.3907 15.195 26.2975 15.2875ZM26.2975 22.2875C25.8974 22.6351 25.45 22.9242 24.9687 23.1462C23.7278 23.7285 22.3706 24.0205 21 24C19.3025 24 17.9675 23.11 16.555 22.1675C15.03 21.1512 13.3025 20 11 20C6.63749 20 4.38749 22.1987 4.29374 22.2925C4.10544 22.4793 3.99906 22.7333 3.99801 22.9985C3.99695 23.2638 4.10131 23.5186 4.28812 23.7069C4.47493 23.8952 4.72889 24.0016 4.99414 24.0026C5.25939 24.0037 5.51419 23.8993 5.70249 23.7125C6.10261 23.3649 6.54998 23.0758 7.03124 22.8538C8.27217 22.2715 9.62941 21.9795 11 22C12.6975 22 14.0325 22.89 15.445 23.8325C16.97 24.8488 18.695 26 21 26C25.3625 26 27.6125 23.8013 27.7062 23.7075C27.8945 23.5207 28.0009 23.2667 28.002 23.0015C28.003 22.7362 27.8987 22.4814 27.7119 22.2931C27.5251 22.1048 27.2711 21.9984 27.0058 21.9974C26.7406 21.9963 26.4858 22.1007 26.2975 22.2875Z" fill="#343330"/>
</svg>
