<svg width="32" height="32" viewBox="0 0 32 32" fill="none" xmlns="http://www.w3.org/2000/svg">
<path d="M22.27 23H13.915C13.7637 23.8957 13.4109 24.7453 12.8834 25.4848C12.3558 26.2243 11.6673 26.8343 10.8696 27.2689C10.072 27.7036 9.18603 27.9514 8.27864 27.9937C7.37126 28.0361 6.4661 27.8719 5.63143 27.5134C4.79676 27.155 4.05437 26.6117 3.46024 25.9246C2.86611 25.2375 2.43575 24.4244 2.20162 23.5467C1.96749 22.669 1.93571 21.7497 2.10865 20.8579C2.2816 19.9661 2.65477 19.1253 3.20002 18.3988C3.2789 18.2937 3.37769 18.2052 3.49077 18.1383C3.60384 18.0715 3.72898 18.0275 3.85904 18.009C3.9891 17.9905 4.12154 17.9978 4.24878 18.0304C4.37603 18.0631 4.49559 18.1205 4.60065 18.1994C4.70571 18.2783 4.7942 18.3771 4.86107 18.4901C4.92795 18.6032 4.9719 18.7283 4.99041 18.8584C5.00893 18.9885 5.00164 19.1209 4.96898 19.2481C4.93631 19.3754 4.8789 19.495 4.80002 19.6C4.2782 20.2911 3.9972 21.1341 4.00002 22C4.00002 23.0609 4.42145 24.0783 5.1716 24.8284C5.92174 25.5786 6.93916 26 8.00002 26C9.06089 26 10.0783 25.5786 10.8285 24.8284C11.5786 24.0783 12 23.0609 12 22C12 21.7348 12.1054 21.4804 12.2929 21.2929C12.4805 21.1054 12.7348 21 13 21H22.27C22.4902 20.6187 22.83 20.3207 23.2367 20.1523C23.6435 19.9838 24.0944 19.9542 24.5197 20.0682C24.945 20.1821 25.3208 20.4332 25.5888 20.7825C25.8568 21.1318 26.0021 21.5597 26.0021 22C26.0021 22.4403 25.8568 22.8682 25.5888 23.2175C25.3208 23.5668 24.945 23.8179 24.5197 23.9319C24.0944 24.0458 23.6435 24.0163 23.2367 23.8478C22.83 23.6793 22.4902 23.3813 22.27 23ZM8.00002 24C8.34642 24.0001 8.68691 23.9103 8.98815 23.7393C9.28939 23.5682 9.54104 23.3219 9.71847 23.0244C9.89589 22.7269 9.993 22.3884 10.0003 22.0421C10.0076 21.6957 9.92478 21.3535 9.76002 21.0488L14.2313 13.7813C14.37 13.5555 14.4135 13.2838 14.3521 13.026C14.2907 12.7682 14.1294 12.5453 13.9038 12.4063C13.3693 12.0772 12.9197 11.627 12.5914 11.092C12.2632 10.5571 12.0654 9.95235 12.0141 9.32679C11.9628 8.70123 12.0595 8.07238 12.2963 7.49109C12.533 6.9098 12.9033 6.39239 13.377 5.98069C13.8508 5.56899 14.4148 5.27456 15.0235 5.12121C15.6321 4.96786 16.2683 4.95989 16.8806 5.09795C17.4929 5.236 18.0641 5.51621 18.548 5.91591C19.0319 6.31561 19.415 6.82358 19.6663 7.39876C19.7724 7.64193 19.9707 7.833 20.2177 7.92993C20.4646 8.02686 20.74 8.02172 20.9831 7.91563C21.2263 7.80955 21.4174 7.61121 21.5143 7.36425C21.6113 7.11728 21.6061 6.84193 21.5 6.59876C21.1398 5.77529 20.5992 5.04328 19.9181 4.45679C19.237 3.8703 18.4328 3.44432 17.565 3.21032C16.6972 2.97632 15.7879 2.94028 14.9043 3.10486C14.0207 3.26944 13.1854 3.63044 12.46 4.16118C11.7346 4.69193 11.1377 5.37886 10.7135 6.17123C10.2892 6.9636 10.0484 7.84117 10.0088 8.73911C9.9692 9.63704 10.1318 10.5324 10.4847 11.359C10.8376 12.1857 11.3717 12.9225 12.0475 13.515L8.05502 20C8.03627 20 8.01877 20 8.00002 20C7.46959 20 6.96088 20.2107 6.58581 20.5858C6.21074 20.9609 6.00002 21.4696 6.00002 22C6.00002 22.5304 6.21074 23.0392 6.58581 23.4142C6.96088 23.7893 7.46959 24 8.00002 24ZM24 16C23.229 16.0001 22.4652 16.1482 21.75 16.4363L17.76 9.95001C17.968 9.56474 18.0438 9.12187 17.9758 8.68937C17.9078 8.25686 17.6997 7.85862 17.3836 7.55576C17.0674 7.25289 16.6606 7.06214 16.2256 7.01277C15.7906 6.9634 15.3514 7.05813 14.9754 7.28245C14.5994 7.50676 14.3074 7.84825 14.1442 8.25451C13.981 8.66077 13.9556 9.10937 14.0719 9.53144C14.1883 9.95352 14.4399 10.3258 14.7882 10.591C15.1365 10.8563 15.5622 11 16 11H16.055L20.5275 18.2688C20.6667 18.4942 20.8897 18.6552 21.1475 18.7164C21.4053 18.7775 21.6769 18.7339 21.9025 18.595C22.429 18.2705 23.0236 18.0724 23.6395 18.0164C24.2555 17.9604 24.876 18.0481 25.4524 18.2724C26.0288 18.4967 26.5453 18.8517 26.9613 19.3093C27.3773 19.7669 27.6816 20.3148 27.8502 20.9099C28.0187 21.505 28.047 22.131 27.9327 22.7389C27.8185 23.3467 27.5649 23.9198 27.1918 24.413C26.8186 24.9063 26.3362 25.3063 25.7824 25.5817C25.2286 25.8571 24.6185 26.0002 24 26C23.7348 26 23.4805 26.1054 23.2929 26.2929C23.1054 26.4804 23 26.7348 23 27C23 27.2652 23.1054 27.5196 23.2929 27.7071C23.4805 27.8947 23.7348 28 24 28C25.5913 28 27.1174 27.3679 28.2427 26.2427C29.3679 25.1174 30 23.5913 30 22C30 20.4087 29.3679 18.8826 28.2427 17.7574C27.1174 16.6321 25.5913 16 24 16Z" fill="#343330"/>
</svg>
