<svg width="32" height="32" viewBox="0 0 32 32" fill="none" xmlns="http://www.w3.org/2000/svg">
<path d="M22 10C22.7911 10 23.5645 9.76541 24.2223 9.32588C24.8801 8.88635 25.3927 8.26164 25.6955 7.53074C25.9982 6.79983 26.0775 5.99556 25.9231 5.21964C25.7688 4.44372 25.3878 3.73098 24.8284 3.17157C24.269 2.61216 23.5563 2.2312 22.7803 2.07686C22.0044 1.92252 21.2001 2.00173 20.4692 2.30448C19.7383 2.60723 19.1136 3.11992 18.6741 3.77772C18.2346 4.43552 18 5.20888 18 6C18 7.06087 18.4214 8.07828 19.1716 8.82843C19.9217 9.57857 20.9391 10 22 10ZM22 4C22.3955 4 22.7822 4.1173 23.1111 4.33706C23.44 4.55683 23.6964 4.86918 23.8477 5.23463C23.9991 5.60009 24.0387 6.00222 23.9615 6.39018C23.8844 6.77814 23.6939 7.13451 23.4142 7.41422C23.1345 7.69392 22.7781 7.8844 22.3902 7.96157C22.0022 8.03874 21.6001 7.99914 21.2346 7.84776C20.8692 7.69639 20.5568 7.44004 20.337 7.11114C20.1173 6.78224 20 6.39556 20 6C20 5.46957 20.2107 4.96086 20.5858 4.58579C20.9608 4.21072 21.4695 4 22 4ZM21 21C21 22.5823 20.5308 24.129 19.6517 25.4446C18.7727 26.7602 17.5233 27.7855 16.0614 28.391C14.5996 28.9965 12.9911 29.155 11.4393 28.8463C9.88741 28.5376 8.46194 27.7757 7.34312 26.6569C6.2243 25.538 5.46238 24.1126 5.15369 22.5607C4.84501 21.0089 5.00344 19.4003 5.60894 17.9385C6.21444 16.4767 7.23982 15.2273 8.55541 14.3482C9.87101 13.4692 11.4177 13 13 13C13.2652 13 13.5195 13.1054 13.7071 13.2929C13.8946 13.4804 14 13.7348 14 14C14 14.2652 13.8946 14.5196 13.7071 14.7071C13.5195 14.8946 13.2652 15 13 15C11.8133 15 10.6532 15.3519 9.66655 16.0112C8.67986 16.6705 7.91083 17.6075 7.4567 18.7039C7.00257 19.8003 6.88375 21.0067 7.11526 22.1705C7.34678 23.3344 7.91822 24.4035 8.75734 25.2426C9.59645 26.0818 10.6655 26.6532 11.8294 26.8847C12.9933 27.1162 14.1997 26.9974 15.2961 26.5433C16.3924 26.0892 17.3295 25.3201 17.9888 24.3334C18.6481 23.3467 19 22.1867 19 21C19 20.7348 19.1053 20.4804 19.2929 20.2929C19.4804 20.1054 19.7348 20 20 20C20.2652 20 20.5195 20.1054 20.7071 20.2929C20.8946 20.4804 21 20.7348 21 21ZM25.7737 16.3663C25.8673 16.4807 25.9344 16.6146 25.9701 16.7581C26.0057 16.9016 26.0091 17.0513 25.98 17.1963L23.98 27.1963C23.9346 27.4228 23.8122 27.6267 23.6336 27.7732C23.4549 27.9197 23.231 27.9999 23 28C22.9336 28.0001 22.8675 27.9934 22.8025 27.98C22.5426 27.9278 22.3141 27.7746 22.1672 27.5541C22.0202 27.3335 21.9668 27.0636 22.0187 26.8038L23.78 18H16C15.8243 18.0003 15.6517 17.9542 15.4995 17.8666C15.3472 17.7789 15.2208 17.6527 15.1328 17.5006C15.0449 17.3486 14.9986 17.176 14.9985 17.0004C14.9984 16.8247 15.0446 16.6521 15.1325 16.5L17.64 12.1375C15.8966 11.2269 13.9236 10.85 11.9673 11.0538C10.011 11.2577 8.15815 12.0333 6.63998 13.2838C6.54085 13.3785 6.42331 13.4518 6.29466 13.4991C6.166 13.5465 6.02898 13.5669 5.89211 13.5591C5.75524 13.5513 5.62143 13.5154 5.49901 13.4537C5.37659 13.392 5.26817 13.3057 5.18047 13.2004C5.09278 13.095 5.0277 12.9727 4.98926 12.8411C4.95083 12.7095 4.93986 12.5714 4.95705 12.4354C4.97423 12.2994 5.0192 12.1683 5.08916 12.0504C5.15912 11.9325 5.25258 11.8303 5.36373 11.75C7.33437 10.1238 9.7726 9.1691 12.3235 9.02476C14.8744 8.88042 17.4047 9.55402 19.5462 10.9475C19.7604 11.087 19.913 11.3032 19.9728 11.5517C20.0325 11.8002 19.9948 12.0622 19.8675 12.2838L17.7275 16H25C25.148 16 25.2942 16.0328 25.428 16.0961C25.5618 16.1595 25.6799 16.2517 25.7737 16.3663Z" fill="#343330"/>
</svg>
