<svg width="32" height="32" viewBox="0 0 32 32" fill="none" xmlns="http://www.w3.org/2000/svg">
<path d="M31.9488 23.6838C31.9072 23.5592 31.8416 23.444 31.7555 23.3448C31.6695 23.2456 31.5647 23.1643 31.4473 23.1055C31.3298 23.0468 31.2019 23.0118 31.0709 23.0025C30.9399 22.9932 30.8084 23.0098 30.6838 23.0513L28.5063 23.7776L24.8938 16.5526C24.8107 16.3866 24.6831 16.247 24.5253 16.1495C24.3675 16.0519 24.1856 16.0002 24 16.0001H14V13.0001H21C21.2652 13.0001 21.5196 12.8947 21.7071 12.7072C21.8947 12.5196 22 12.2653 22 12.0001C22 11.7348 21.8947 11.4805 21.7071 11.293C21.5196 11.1054 21.2652 11.0001 21 11.0001H14V9.87506C14.9427 9.63167 15.7642 9.05283 16.3106 8.24705C16.857 7.44127 17.0908 6.46387 16.9681 5.49806C16.8455 4.53224 16.3748 3.64433 15.6443 3.00074C14.9137 2.35715 13.9736 2.00208 13 2.00208C12.0264 2.00208 11.0863 2.35715 10.3558 3.00074C9.62528 3.64433 9.15457 4.53224 9.0319 5.49806C8.90922 6.46387 9.143 7.44127 9.68942 8.24705C10.2358 9.05283 11.0574 9.63167 12 9.87506V11.2263C9.84384 11.7191 7.94464 12.9886 6.66488 14.7926C5.38513 16.5965 4.81445 18.8085 5.06177 21.0064C5.3091 23.2043 6.35709 25.2342 8.00574 26.7086C9.65439 28.183 11.7882 28.9988 14 29.0001C18.19 29.0001 21.9613 26.1613 22.9688 22.2501C23.0016 22.1228 23.009 21.9904 22.9907 21.8603C22.9723 21.7302 22.9285 21.605 22.8618 21.4918C22.7951 21.3787 22.7067 21.2797 22.6017 21.2007C22.4967 21.1217 22.3772 21.0641 22.25 21.0313C22.1228 20.9985 21.9904 20.991 21.8603 21.0094C21.7302 21.0277 21.605 21.0715 21.4918 21.1383C21.3786 21.205 21.2797 21.2934 21.2007 21.3984C21.1217 21.5033 21.0641 21.6228 21.0313 21.7501C20.2613 24.7501 17.2388 27.0001 14 27.0001C12.319 26.9995 10.6944 26.394 9.42297 25.2943C8.15159 24.1946 7.31841 22.6741 7.07572 21.0107C6.83302 19.3473 7.19701 17.6521 8.10117 16.235C9.00532 14.8179 10.3893 13.7734 12 13.2926V17.0001C12 17.2653 12.1054 17.5196 12.2929 17.7072C12.4804 17.8947 12.7348 18.0001 13 18.0001H23.3813L27.105 25.4476C27.2129 25.6627 27.3948 25.8318 27.6173 25.9236C27.8398 26.0154 28.088 26.024 28.3163 25.9476L31.3163 24.9476C31.5676 24.8637 31.7754 24.6835 31.894 24.4465C32.0126 24.2096 32.0323 23.9353 31.9488 23.6838ZM11 6.00006C11 5.6045 11.1173 5.21782 11.3371 4.88892C11.5568 4.56002 11.8692 4.30367 12.2347 4.1523C12.6001 4.00092 13.0022 3.96132 13.3902 4.03849C13.7782 4.11566 14.1345 4.30614 14.4142 4.58584C14.6939 4.86555 14.8844 5.22192 14.9616 5.60988C15.0388 5.99784 14.9992 6.39997 14.8478 6.76543C14.6964 7.13088 14.4401 7.44323 14.1112 7.663C13.7823 7.88276 13.3956 8.00006 13 8.00006C12.4696 8.00006 11.9609 7.78935 11.5858 7.41427C11.2107 7.0392 11 6.53049 11 6.00006Z" fill="#343330"/>
</svg>
