<svg width="32" height="32" viewBox="0 0 32 32" fill="none" xmlns="http://www.w3.org/2000/svg">
<path d="M28.7075 12.2925C28.8004 12.3854 28.8741 12.4957 28.9244 12.6171C28.9747 12.7385 29.0005 12.8686 29.0005 13C29.0005 13.1314 28.9747 13.2615 28.9244 13.3829C28.8741 13.5043 28.8004 13.6146 28.7075 13.7075C28.6146 13.8004 28.5043 13.8741 28.3829 13.9244C28.2615 13.9747 28.1314 14.0006 28 14.0006C27.8686 14.0006 27.7385 13.9747 27.6171 13.9244C27.4957 13.8741 27.3854 13.8004 27.2925 13.7075L25 11.4138L22.7075 13.7075C22.5198 13.8951 22.2653 14.0006 22 14.0006C21.7346 14.0006 21.4801 13.8951 21.2925 13.7075C21.1048 13.5199 20.9994 13.2654 20.9994 13C20.9994 12.7346 21.1048 12.4801 21.2925 12.2925L23.5862 10L21.2925 7.70751C21.1996 7.6146 21.1259 7.5043 21.0756 7.3829C21.0253 7.26151 20.9994 7.1314 20.9994 7.00001C20.9994 6.86861 21.0253 6.7385 21.0756 6.61711C21.1259 6.49572 21.1996 6.38542 21.2925 6.29251C21.4801 6.10487 21.7346 5.99945 22 5.99945C22.1314 5.99945 22.2615 6.02533 22.3829 6.07561C22.5043 6.1259 22.6146 6.1996 22.7075 6.29251L25 8.58626L27.2925 6.29251C27.3854 6.1996 27.4957 6.1259 27.6171 6.07561C27.7385 6.02533 27.8686 5.99945 28 5.99945C28.1314 5.99945 28.2615 6.02533 28.3829 6.07561C28.5043 6.1259 28.6146 6.1996 28.7075 6.29251C28.8004 6.38542 28.8741 6.49572 28.9244 6.61711C28.9747 6.7385 29.0005 6.86861 29.0005 7.00001C29.0005 7.1314 28.9747 7.26151 28.9244 7.3829C28.8741 7.5043 28.8004 7.6146 28.7075 7.70751L26.4137 10L28.7075 12.2925ZM16 24C15.7033 24 15.4133 24.088 15.1666 24.2528C14.92 24.4176 14.7277 24.6519 14.6142 24.926C14.5006 25.2001 14.4709 25.5017 14.5288 25.7926C14.5867 26.0836 14.7295 26.3509 14.9393 26.5607C15.1491 26.7704 15.4164 26.9133 15.7073 26.9712C15.9983 27.0291 16.2999 26.9994 16.574 26.8858C16.8481 26.7723 17.0824 26.58 17.2472 26.3334C17.412 26.0867 17.5 25.7967 17.5 25.5C17.5 25.1022 17.3419 24.7207 17.0606 24.4393C16.7793 24.158 16.3978 24 16 24ZM21.5887 19.8163C19.9644 18.6358 18.008 17.9999 16 17.9999C13.992 17.9999 12.0356 18.6358 10.4112 19.8163C10.1967 19.9724 10.0531 20.2074 10.0118 20.4694C9.97054 20.7315 10.0351 20.9993 10.1912 21.2138C10.3474 21.4283 10.5823 21.5719 10.8444 21.6132C11.1065 21.6544 11.3742 21.5899 11.5887 21.4338C12.8706 20.5015 14.4149 19.9993 16 19.9993C17.585 19.9993 19.1293 20.5015 20.4112 21.4338C20.5174 21.5111 20.6378 21.5667 20.7655 21.5975C20.8933 21.6283 21.0258 21.6336 21.1555 21.6132C21.2853 21.5928 21.4098 21.547 21.5219 21.4784C21.6339 21.4099 21.7314 21.32 21.8087 21.2138C21.8861 21.1076 21.9417 20.9872 21.9725 20.8594C22.0033 20.7317 22.0086 20.5992 21.9882 20.4694C21.9677 20.3397 21.9219 20.2152 21.8534 20.1031C21.7849 19.991 21.6949 19.8936 21.5887 19.8163ZM17.9037 8.09126C18.0363 8.10766 18.1708 8.09734 18.2993 8.0609C18.4278 8.02447 18.5477 7.96267 18.6519 7.87914C18.7561 7.79561 18.8426 7.69204 18.9061 7.57456C18.9697 7.45708 19.009 7.32805 19.0219 7.19511C19.0347 7.06216 19.0208 6.92799 18.981 6.8005C18.9411 6.67302 18.8762 6.55481 18.7899 6.45285C18.7036 6.35089 18.5978 6.26725 18.4786 6.20686C18.3595 6.14648 18.2295 6.11057 18.0962 6.10126C17.405 6.03376 16.6987 6.00001 16 6.00001C11.0287 6.00316 6.21139 7.7255 2.36499 10.875C2.26346 10.9584 2.17935 11.061 2.11746 11.1769C2.05557 11.2928 2.01712 11.4197 2.00429 11.5505C1.99146 11.6812 2.00452 11.8132 2.04271 11.9389C2.0809 12.0646 2.14347 12.1816 2.22686 12.2831C2.31025 12.3847 2.41282 12.4688 2.52871 12.5307C2.64461 12.5925 2.77156 12.631 2.90232 12.6438C3.16639 12.6697 3.42994 12.5897 3.63499 12.4213C7.12284 9.56457 11.4916 8.00247 16 8.00001C16.635 8.00001 17.275 8.03126 17.9037 8.09126ZM17.8637 14.125C18.1251 14.1583 18.3891 14.0871 18.5983 13.9269C18.8075 13.7667 18.9449 13.5303 18.9808 13.2693C19.0168 13.0082 18.9482 12.7436 18.79 12.5328C18.6319 12.3221 18.3969 12.1822 18.1362 12.1438C17.4283 12.047 16.7145 11.9989 16 12C12.5041 11.9863 9.10839 13.1669 6.37499 15.3463C6.21399 15.4759 6.09715 15.6523 6.04054 15.8512C5.98393 16.05 5.99033 16.2615 6.05886 16.4565C6.12739 16.6516 6.25469 16.8206 6.42322 16.9403C6.59176 17.06 6.79326 17.1245 6.99999 17.125C7.22693 17.1266 7.44755 17.0503 7.62499 16.9088C10.0041 15.0141 12.9586 13.9879 16 14C16.6234 13.999 17.2461 14.0408 17.8637 14.125Z" fill="#343330"/>
</svg>
