<svg width="32" height="32" viewBox="0 0 32 32" fill="none" xmlns="http://www.w3.org/2000/svg">
<path d="M27 17H17C16.7348 17 16.4804 17.1054 16.2929 17.2929C16.1054 17.4804 16 17.7348 16 18V25.1813C15.9997 25.4157 16.0818 25.6427 16.2319 25.8227C16.382 26.0028 16.5906 26.1244 16.8213 26.1663L26.8213 27.9838C26.8802 27.9948 26.94 28.0002 27 28C27.2652 28 27.5196 27.8946 27.7071 27.7071C27.8946 27.5196 28 27.2652 28 27V18C28 17.7348 27.8946 17.4804 27.7071 17.2929C27.5196 17.1054 27.2652 17 27 17ZM26 25.8013L18 24.3475V19H26V25.8013ZM13 17H5C4.73478 17 4.48043 17.1054 4.29289 17.2929C4.10536 17.4804 4 17.7348 4 18V23C4.00003 23.2342 4.08226 23.4609 4.23234 23.6407C4.38242 23.8205 4.59083 23.9419 4.82125 23.9838L12.8212 25.4388C12.8803 25.4492 12.9401 25.4546 13 25.455C13.2652 25.455 13.5196 25.3496 13.7071 25.1621C13.8946 24.9746 14 24.7202 14 24.455V18C14 17.7348 13.8946 17.4804 13.7071 17.2929C13.5196 17.1054 13.2652 17 13 17ZM12 23.2563L6 22.165V19H12V23.2563ZM27.6413 4.2325C27.5288 4.13858 27.397 4.07052 27.2553 4.03315C27.1136 3.99578 26.9654 3.99001 26.8213 4.01625L16.8213 5.835C16.5908 5.87686 16.3824 5.99827 16.2323 6.17804C16.0823 6.35782 16 6.58457 16 6.81875V14C16 14.2652 16.1054 14.5196 16.2929 14.7071C16.4804 14.8946 16.7348 15 17 15H27C27.2652 15 27.5196 14.8946 27.7071 14.7071C27.8946 14.5196 28 14.2652 28 14V5C28 4.85361 27.9679 4.709 27.9059 4.57638C27.8439 4.44377 27.7536 4.32638 27.6413 4.2325ZM26 13H18V7.6525L26 6.19875V13ZM13.6412 6.7775C13.5288 6.68358 13.397 6.61552 13.2553 6.57815C13.1136 6.54078 12.9654 6.53501 12.8212 6.56125L4.82125 8.01625C4.59083 8.05811 4.38242 8.17952 4.23234 8.35929C4.08226 8.53907 4.00003 8.76582 4 9V14C4 14.2652 4.10536 14.5196 4.29289 14.7071C4.48043 14.8946 4.73478 15 5 15H13C13.2652 15 13.5196 14.8946 13.7071 14.7071C13.8946 14.5196 14 14.2652 14 14V7.545C14 7.39861 13.9679 7.254 13.9059 7.12138C13.8439 6.98877 13.7536 6.87138 13.6412 6.7775ZM12 13H6V9.835L12 8.75V13Z" fill="#343330"/>
</svg>
