<svg width="24" height="24" viewBox="0 0 24 24" fill="none" xmlns="http://www.w3.org/2000/svg">
<path d="M21.6066 6.32832C21.5384 6.15965 21.4302 6.01006 21.2915 5.89235C21.1527 5.77465 20.9875 5.69236 20.8099 5.65254C20.6324 5.61272 20.4479 5.61655 20.2721 5.66372C20.0964 5.71088 19.9347 5.79996 19.801 5.92332L16.1653 9.28145L14.9766 9.02645L14.7188 7.83489L18.0741 4.19926C18.1975 4.06552 18.2865 3.90384 18.3337 3.72811C18.3809 3.55238 18.3847 3.36783 18.3449 3.19029C18.3051 3.01275 18.2228 2.84752 18.1051 2.70877C17.9874 2.57001 17.8378 2.46188 17.6691 2.39364C16.3775 1.87108 14.9611 1.73868 13.595 2.01281C12.229 2.28694 10.9732 2.95557 9.98327 3.93597C8.99329 4.91638 8.31248 6.16552 8.02508 7.52885C7.73768 8.89217 7.85631 10.3098 8.36629 11.6064L2.92223 16.3127C2.9016 16.3305 2.88098 16.3493 2.86223 16.3689C2.2378 17.0036 1.88947 17.8593 1.89309 18.7497C1.89672 19.64 2.25201 20.4928 2.88158 21.1224C3.51115 21.752 4.36399 22.1073 5.25432 22.1109C6.14466 22.1145 7.00036 21.7662 7.63504 21.1418C7.65473 21.123 7.67348 21.1024 7.69129 21.0818L12.3938 15.6377C13.6911 16.1487 15.1098 16.2678 16.4741 15.9802C17.8384 15.6927 19.0884 15.0112 20.0692 14.0202C21.05 13.0291 21.7184 11.7721 21.9917 10.4049C22.2649 9.03761 22.1311 7.62022 21.6066 6.32832ZM15 13.8752C14.1762 13.8752 13.3658 13.6669 12.6441 13.2696C12.4183 13.1451 12.1567 13.102 11.9029 13.1474C11.6491 13.1928 11.4187 13.3239 11.25 13.5189L6.01973 19.5705C5.80838 19.7819 5.52174 19.9006 5.22285 19.9006C4.92396 19.9006 4.63732 19.7819 4.42598 19.5705C4.21463 19.3592 4.0959 19.0725 4.0959 18.7736C4.0959 18.4748 4.21463 18.1881 4.42598 17.9768L10.4813 12.7502C10.6766 12.5813 10.8079 12.3505 10.8531 12.0963C10.8983 11.8421 10.8548 11.5801 10.7297 11.3543C10.3204 10.6119 10.1117 9.77565 10.1242 8.92801C10.1368 8.08036 10.3701 7.25065 10.8013 6.52075C11.2325 5.79085 11.8465 5.186 12.5828 4.7659C13.3192 4.34579 14.1523 4.12496 15 4.1252H15.0835L12.6722 6.73801C12.5501 6.87044 12.4617 7.03025 12.4142 7.20399C12.3667 7.37774 12.3616 7.56034 12.3994 7.73645L12.93 10.2068C12.9756 10.4185 13.0813 10.6127 13.2344 10.7658C13.3876 10.919 13.5817 11.0247 13.7935 11.0702L16.2638 11.6008C16.4399 11.6386 16.6225 11.6335 16.7962 11.5861C16.97 11.5386 17.1298 11.4501 17.2622 11.328L19.875 8.9177C19.875 8.94582 19.875 8.97301 19.875 9.00114C19.8733 10.2934 19.3591 11.5323 18.4452 12.446C17.5313 13.3597 16.2923 13.8737 15 13.8752Z" fill="#111111"/>
</svg>
