<?xml version="1.0" encoding="UTF-8"?> <svg xmlns="http://www.w3.org/2000/svg" width="21" height="21" viewBox="0 0 21 21" fill="none"> <path d="M17.8125 10.6875C17.8125 14.6571 14.5946 17.875 10.625 17.875C6.65545 17.875 3.4375 14.6571 3.4375 10.6875C3.4375 6.71795 6.65545 3.5 10.625 3.5C14.5946 3.5 17.8125 6.71795 17.8125 10.6875Z" stroke="#0146A6" stroke-width="1.25"></path> <path d="M8.16858 14.2531L9.74292 11.9078L9.7532 11.8931L9.83862 11.7706L9.7163 11.6851L9.70118 11.6745C9.23735 11.3422 8.86327 11.012 8.60428 10.6227C8.34742 10.2367 8.19905 9.78543 8.19905 9.20226C8.19905 8.46331 8.46238 7.88683 8.93643 7.49227C9.41404 7.09474 10.1222 6.86821 11.0338 6.86821H12.8165V14.246H11.8104V7.74299V7.72322V7.57377H11.661H11.6412H11.0409C10.486 7.57377 10.0232 7.71011 9.69639 7.97918C9.36581 8.25134 9.1909 8.64584 9.1909 9.12315C9.1909 9.61641 9.29586 9.99104 9.51994 10.3177C9.74022 10.6389 10.068 10.902 10.4879 11.187L10.4883 11.1872L11.0276 11.5508L9.21942 14.2531H8.16858Z" fill="#0146A6" stroke="#0146A6" stroke-width="0.298913"></path> </svg> 